%TF.GenerationSoftware,KiCad,Pcbnew,10.0.1*%
%TF.CreationDate,2026-04-26T15:08:48+02:00*%
%TF.ProjectId,RubiksTimer,52756269-6b73-4546-996d-65722e6b6963,rev?*%
%TF.SameCoordinates,Original*%
%TF.FileFunction,Legend,Bot*%
%TF.FilePolarity,Positive*%
%FSLAX46Y46*%
G04 Gerber Fmt 4.6, Leading zero omitted, Abs format (unit mm)*
G04 Created by KiCad (PCBNEW 10.0.1) date 2026-04-26 15:08:48*
%MOMM*%
%LPD*%
G01*
G04 APERTURE LIST*
%ADD10C,0.150000*%
%ADD11C,0.100000*%
%ADD12C,0.000000*%
%ADD13C,0.120000*%
G04 APERTURE END LIST*
D10*
X299166666Y-87104819D02*
X299499999Y-86628628D01*
X299738094Y-87104819D02*
X299738094Y-86104819D01*
X299738094Y-86104819D02*
X299357142Y-86104819D01*
X299357142Y-86104819D02*
X299261904Y-86152438D01*
X299261904Y-86152438D02*
X299214285Y-86200057D01*
X299214285Y-86200057D02*
X299166666Y-86295295D01*
X299166666Y-86295295D02*
X299166666Y-86438152D01*
X299166666Y-86438152D02*
X299214285Y-86533390D01*
X299214285Y-86533390D02*
X299261904Y-86581009D01*
X299261904Y-86581009D02*
X299357142Y-86628628D01*
X299357142Y-86628628D02*
X299738094Y-86628628D01*
X298261904Y-86104819D02*
X298738094Y-86104819D01*
X298738094Y-86104819D02*
X298785713Y-86581009D01*
X298785713Y-86581009D02*
X298738094Y-86533390D01*
X298738094Y-86533390D02*
X298642856Y-86485771D01*
X298642856Y-86485771D02*
X298404761Y-86485771D01*
X298404761Y-86485771D02*
X298309523Y-86533390D01*
X298309523Y-86533390D02*
X298261904Y-86581009D01*
X298261904Y-86581009D02*
X298214285Y-86676247D01*
X298214285Y-86676247D02*
X298214285Y-86914342D01*
X298214285Y-86914342D02*
X298261904Y-87009580D01*
X298261904Y-87009580D02*
X298309523Y-87057200D01*
X298309523Y-87057200D02*
X298404761Y-87104819D01*
X298404761Y-87104819D02*
X298642856Y-87104819D01*
X298642856Y-87104819D02*
X298738094Y-87057200D01*
X298738094Y-87057200D02*
X298785713Y-87009580D01*
D11*
%TO.C,D6*%
X300552500Y-126912500D02*
X299652500Y-126012500D01*
X300552500Y-126012500D01*
X300552500Y-126912500D01*
G36*
X300552500Y-126912500D02*
G01*
X299652500Y-126012500D01*
X300552500Y-126012500D01*
X300552500Y-126912500D01*
G37*
%TO.C,D1*%
X300552500Y-86912500D02*
X299652500Y-86012500D01*
X300552500Y-86012500D01*
X300552500Y-86912500D01*
G36*
X300552500Y-86912500D02*
G01*
X299652500Y-86012500D01*
X300552500Y-86012500D01*
X300552500Y-86912500D01*
G37*
%TO.C,D7*%
X300552500Y-143912500D02*
X299652500Y-143012500D01*
X300552500Y-143012500D01*
X300552500Y-143912500D01*
G36*
X300552500Y-143912500D02*
G01*
X299652500Y-143012500D01*
X300552500Y-143012500D01*
X300552500Y-143912500D01*
G37*
%TO.C,D8*%
X300552500Y-151912500D02*
X299652500Y-151012500D01*
X300552500Y-151012500D01*
X300552500Y-151912500D01*
G36*
X300552500Y-151912500D02*
G01*
X299652500Y-151012500D01*
X300552500Y-151012500D01*
X300552500Y-151912500D01*
G37*
%TO.C,D5*%
X300552500Y-118912500D02*
X299652500Y-118012500D01*
X300552500Y-118012500D01*
X300552500Y-118912500D01*
G36*
X300552500Y-118912500D02*
G01*
X299652500Y-118012500D01*
X300552500Y-118012500D01*
X300552500Y-118912500D01*
G37*
%TO.C,D4*%
X300552500Y-110912500D02*
X299652500Y-110012500D01*
X300552500Y-110012500D01*
X300552500Y-110912500D01*
G36*
X300552500Y-110912500D02*
G01*
X299652500Y-110012500D01*
X300552500Y-110012500D01*
X300552500Y-110912500D01*
G37*
%TO.C,D3*%
X300552500Y-102912500D02*
X299652500Y-102012500D01*
X300552500Y-102012500D01*
X300552500Y-102912500D01*
G36*
X300552500Y-102912500D02*
G01*
X299652500Y-102012500D01*
X300552500Y-102012500D01*
X300552500Y-102912500D01*
G37*
%TO.C,D2*%
X300552500Y-94912500D02*
X299652500Y-94012500D01*
X300552500Y-94012500D01*
X300552500Y-94912500D01*
G36*
X300552500Y-94912500D02*
G01*
X299652500Y-94012500D01*
X300552500Y-94012500D01*
X300552500Y-94912500D01*
G37*
D12*
%TO.C,G\u002A\u002A\u002A*%
G36*
X248073385Y-83321393D02*
G01*
X248073396Y-83322961D01*
X248091918Y-83477661D01*
X248141048Y-83783943D01*
X248213885Y-84204846D01*
X248303530Y-84703409D01*
X248403082Y-85242670D01*
X248505640Y-85785668D01*
X248604304Y-86295441D01*
X248692173Y-86735028D01*
X248762346Y-87067468D01*
X248807923Y-87255800D01*
X248830263Y-87292095D01*
X248908556Y-87301781D01*
X249058559Y-87244127D01*
X249301697Y-87107982D01*
X249659394Y-86882193D01*
X250153075Y-86555610D01*
X250662120Y-86223580D01*
X251151743Y-85928685D01*
X251504442Y-85749196D01*
X251713952Y-85688593D01*
X251714005Y-85688593D01*
X251852061Y-85704622D01*
X252159654Y-85750363D01*
X252616778Y-85822407D01*
X253203429Y-85917347D01*
X253899601Y-86031775D01*
X254685291Y-86162284D01*
X255540493Y-86305466D01*
X256445203Y-86457913D01*
X257379416Y-86616217D01*
X258323128Y-86776972D01*
X259256333Y-86936769D01*
X260159026Y-87092201D01*
X261011204Y-87239859D01*
X261792861Y-87376337D01*
X262483992Y-87498227D01*
X263064594Y-87602120D01*
X263514660Y-87684610D01*
X263814187Y-87742289D01*
X263943169Y-87771749D01*
X264014957Y-87803250D01*
X264079158Y-87852502D01*
X264132571Y-87936853D01*
X264178157Y-88076005D01*
X264218878Y-88289662D01*
X264221496Y-88310429D01*
X264257695Y-88597527D01*
X264297568Y-89019303D01*
X264341459Y-89574694D01*
X264392329Y-90283403D01*
X264453139Y-91165133D01*
X264471255Y-91423963D01*
X264529199Y-92176068D01*
X264584925Y-92786253D01*
X264637030Y-93241751D01*
X264684111Y-93529790D01*
X264724765Y-93637602D01*
X264752850Y-93647227D01*
X264939867Y-93710016D01*
X265284991Y-93825333D01*
X265770914Y-93987413D01*
X266380333Y-94190490D01*
X267095941Y-94428798D01*
X267900432Y-94696572D01*
X268776502Y-94988046D01*
X269706845Y-95297454D01*
X270134155Y-95439718D01*
X271042315Y-95743293D01*
X271888322Y-96027731D01*
X272654854Y-96287110D01*
X273324590Y-96515507D01*
X273880207Y-96707001D01*
X274304384Y-96855669D01*
X274430314Y-96901356D01*
X274579799Y-96955589D01*
X274689130Y-97000840D01*
X274738266Y-97071651D01*
X274826635Y-97294377D01*
X274909237Y-97596420D01*
X274920929Y-97650800D01*
X274945771Y-97800553D01*
X274957308Y-97965800D01*
X274952827Y-98168350D01*
X274951937Y-98178385D01*
X274929618Y-98430009D01*
X274884969Y-98772588D01*
X274816166Y-99217893D01*
X274720500Y-99787732D01*
X274595258Y-100503913D01*
X274437728Y-101388246D01*
X274121546Y-103155405D01*
X273645407Y-105816930D01*
X273188709Y-108370236D01*
X272752669Y-110808496D01*
X272746732Y-110841703D01*
X272338509Y-113124885D01*
X271947447Y-115312578D01*
X271580702Y-117364748D01*
X271239496Y-119274571D01*
X270925046Y-121035221D01*
X270671330Y-122456387D01*
X270638573Y-122639872D01*
X270381296Y-124081699D01*
X270154435Y-125353875D01*
X269959210Y-126449577D01*
X269796839Y-127361977D01*
X269667611Y-128084110D01*
X269511182Y-128945791D01*
X269364576Y-129739980D01*
X269231696Y-130446213D01*
X269116446Y-131044027D01*
X269022730Y-131512958D01*
X268954450Y-131832543D01*
X268915511Y-131982318D01*
X268861035Y-132065076D01*
X268646984Y-132289397D01*
X268277254Y-132626289D01*
X267752330Y-133075332D01*
X267072698Y-133636103D01*
X266238845Y-134308181D01*
X265922777Y-134561545D01*
X265225615Y-135124698D01*
X264427628Y-135773815D01*
X263559544Y-136483687D01*
X262652088Y-137229100D01*
X261735988Y-137984846D01*
X260841971Y-138725712D01*
X260000761Y-139426488D01*
X259522134Y-139826325D01*
X257913929Y-141167852D01*
X256404567Y-142423846D01*
X254998442Y-143590710D01*
X253699945Y-144664846D01*
X252513470Y-145642657D01*
X251443411Y-146520546D01*
X250494161Y-147294915D01*
X249670111Y-147962166D01*
X248975657Y-148518703D01*
X248415189Y-148960927D01*
X247993103Y-149285242D01*
X247713790Y-149488050D01*
X247476262Y-149618627D01*
X247087071Y-149694940D01*
X246659105Y-149607910D01*
X246164241Y-149355126D01*
X246049052Y-149287245D01*
X245764386Y-149125506D01*
X245336767Y-148885709D01*
X244780881Y-148575990D01*
X244427189Y-148379716D01*
X247051766Y-148379716D01*
X247086301Y-148463903D01*
X247168520Y-148407682D01*
X247385770Y-148240449D01*
X247722802Y-147974132D01*
X248164708Y-147620701D01*
X248696582Y-147192131D01*
X249303518Y-146700392D01*
X249970607Y-146157458D01*
X250682945Y-145575299D01*
X254209995Y-142687051D01*
X254360435Y-141615399D01*
X255332314Y-141615399D01*
X255346100Y-141703802D01*
X255360114Y-141696924D01*
X255454200Y-141628985D01*
X255640613Y-141483730D01*
X255926410Y-141255424D01*
X256318645Y-140938331D01*
X256824372Y-140526718D01*
X257450648Y-140014848D01*
X258204527Y-139396988D01*
X259093064Y-138667401D01*
X260123314Y-137820352D01*
X260363868Y-137619078D01*
X260744334Y-137285557D01*
X261054328Y-136994497D01*
X261266856Y-136771703D01*
X261354924Y-136642982D01*
X261366298Y-136592237D01*
X261440515Y-136219663D01*
X261504905Y-135861774D01*
X262483650Y-135861774D01*
X262552881Y-135815070D01*
X262755075Y-135658435D01*
X263073224Y-135404886D01*
X263490442Y-135068058D01*
X263989848Y-134661584D01*
X264554555Y-134199101D01*
X265167681Y-133694242D01*
X267823575Y-131501690D01*
X268091509Y-130059590D01*
X268213382Y-129398769D01*
X268356064Y-128615100D01*
X268504016Y-127793562D01*
X268653266Y-126956948D01*
X268799839Y-126128050D01*
X268939762Y-125329661D01*
X269069061Y-124584573D01*
X269183762Y-123915579D01*
X269279892Y-123345471D01*
X269353476Y-122897041D01*
X269400540Y-122593082D01*
X269417111Y-122456387D01*
X269416313Y-122431450D01*
X269386776Y-122365860D01*
X269290372Y-122372179D01*
X269094162Y-122459536D01*
X268765210Y-122637059D01*
X268698415Y-122674646D01*
X268392263Y-122853185D01*
X267984123Y-123097582D01*
X267500704Y-123391225D01*
X266968717Y-123717508D01*
X266414873Y-124059820D01*
X265865882Y-124401553D01*
X265348453Y-124726098D01*
X264889297Y-125016846D01*
X264515124Y-125257188D01*
X264252644Y-125430514D01*
X264128568Y-125520217D01*
X264069768Y-125655230D01*
X263988424Y-125962494D01*
X263887887Y-126422611D01*
X263844317Y-126644680D01*
X263771412Y-127016266D01*
X263642254Y-127724145D01*
X263503668Y-128526935D01*
X263358909Y-129405324D01*
X263211232Y-130339996D01*
X263063892Y-131311639D01*
X262920143Y-132300940D01*
X262783240Y-133288584D01*
X262656440Y-134255259D01*
X262608708Y-134638282D01*
X262551805Y-135118671D01*
X262509685Y-135504192D01*
X262485811Y-135762630D01*
X262483650Y-135861774D01*
X261504905Y-135861774D01*
X261536312Y-135687213D01*
X261649612Y-135021309D01*
X261776337Y-134248372D01*
X261912409Y-133394822D01*
X262053752Y-132487080D01*
X262196287Y-131551567D01*
X262335938Y-130614704D01*
X262468626Y-129702912D01*
X262590274Y-128842612D01*
X262696805Y-128060224D01*
X262784140Y-127382169D01*
X262834409Y-126957280D01*
X262862760Y-126644680D01*
X262862492Y-126466311D01*
X262833331Y-126392359D01*
X262775001Y-126393010D01*
X262748340Y-126405521D01*
X262560298Y-126512742D01*
X262214055Y-126722452D01*
X261712591Y-127032789D01*
X261058882Y-127441892D01*
X260255907Y-127947900D01*
X259306643Y-128548953D01*
X258214069Y-129243190D01*
X257840788Y-129481085D01*
X257426274Y-129746224D01*
X257093317Y-129960301D01*
X256869092Y-130105834D01*
X256780773Y-130165339D01*
X256764617Y-130220452D01*
X256723267Y-130448170D01*
X256663017Y-130832275D01*
X256642689Y-130970515D01*
X256586603Y-131351918D01*
X256496757Y-131986251D01*
X256396212Y-132714427D01*
X256287704Y-133515596D01*
X256173965Y-134368911D01*
X256057729Y-135253523D01*
X255941730Y-136148584D01*
X255828700Y-137033245D01*
X255721375Y-137886659D01*
X255622487Y-138687977D01*
X255534771Y-139416350D01*
X255460959Y-140050931D01*
X255403786Y-140570872D01*
X255365985Y-140955323D01*
X255358323Y-141046445D01*
X255336796Y-141380916D01*
X255332314Y-141615399D01*
X254360435Y-141615399D01*
X254865382Y-138018430D01*
X255034522Y-136810190D01*
X255206985Y-135568542D01*
X255353758Y-134498987D01*
X255476124Y-133591283D01*
X255575369Y-132835192D01*
X255652776Y-132220473D01*
X255709631Y-131736886D01*
X255747218Y-131374191D01*
X255766822Y-131122147D01*
X255769727Y-130970515D01*
X255757217Y-130909054D01*
X255751074Y-130904132D01*
X255723449Y-130899655D01*
X255669649Y-130915361D01*
X255575951Y-130959532D01*
X255428633Y-131040451D01*
X255213973Y-131166399D01*
X254918247Y-131345658D01*
X254527733Y-131586510D01*
X254028709Y-131897236D01*
X253407452Y-132286119D01*
X252650238Y-132761439D01*
X251743347Y-133331479D01*
X251282084Y-133622309D01*
X250651048Y-134022888D01*
X250081766Y-134387406D01*
X249594659Y-134702623D01*
X249472187Y-134783103D01*
X249210148Y-134955297D01*
X248948656Y-135132187D01*
X248830605Y-135220051D01*
X248794025Y-135272090D01*
X248728015Y-135447767D01*
X248656472Y-135746105D01*
X248575993Y-136184491D01*
X248483179Y-136780311D01*
X248374628Y-137550950D01*
X248249804Y-138478133D01*
X248111036Y-139527696D01*
X247967549Y-140629470D01*
X247823754Y-141748655D01*
X247684063Y-142850455D01*
X247552886Y-143900071D01*
X247434633Y-144862705D01*
X247333716Y-145703558D01*
X247254544Y-146387832D01*
X247240924Y-146508893D01*
X247182275Y-147028559D01*
X247128899Y-147499041D01*
X247086209Y-147872748D01*
X247059616Y-148102091D01*
X247052785Y-148170246D01*
X247051766Y-148379716D01*
X244427189Y-148379716D01*
X244111418Y-148204485D01*
X243343065Y-147779331D01*
X242490511Y-147308663D01*
X241568445Y-146800618D01*
X240591553Y-146263332D01*
X239574526Y-145704941D01*
X238810090Y-145285590D01*
X236402408Y-143964708D01*
X234156742Y-142732522D01*
X232742332Y-141956266D01*
X235363353Y-141956266D01*
X235379598Y-142057682D01*
X235461113Y-142161670D01*
X235634417Y-142289878D01*
X235926028Y-142463954D01*
X236362464Y-142705547D01*
X236483068Y-142771361D01*
X236862515Y-142978333D01*
X237376529Y-143258625D01*
X238000959Y-143599069D01*
X238711651Y-143986497D01*
X239484452Y-144407744D01*
X240295210Y-144849642D01*
X241119773Y-145299024D01*
X241599238Y-145560412D01*
X242372121Y-145982166D01*
X243093698Y-146376412D01*
X243744244Y-146732343D01*
X244304035Y-147039156D01*
X244753344Y-147286045D01*
X245072449Y-147462207D01*
X245241622Y-147556836D01*
X245645220Y-147788317D01*
X245749061Y-147281231D01*
X245789232Y-147069808D01*
X245866737Y-146618931D01*
X245964169Y-146017589D01*
X246078028Y-145289975D01*
X246204812Y-144460279D01*
X246341023Y-143552695D01*
X246483159Y-142591413D01*
X246627721Y-141600625D01*
X246771208Y-140604523D01*
X246910120Y-139627299D01*
X247040956Y-138693144D01*
X247160217Y-137826251D01*
X247264401Y-137050811D01*
X247350010Y-136391015D01*
X247413541Y-135871056D01*
X247451495Y-135515125D01*
X247517577Y-134783103D01*
X245791489Y-134030279D01*
X245689191Y-133985737D01*
X248947508Y-133985737D01*
X248957005Y-134074144D01*
X248977752Y-134063474D01*
X249134188Y-133970254D01*
X249428947Y-133789899D01*
X249844747Y-133533125D01*
X250364307Y-133210648D01*
X250970345Y-132833185D01*
X251645578Y-132411450D01*
X252372724Y-131956162D01*
X252406434Y-131935024D01*
X253216800Y-131423122D01*
X253945014Y-130955903D01*
X254577252Y-130542628D01*
X255099685Y-130192556D01*
X255498488Y-129914945D01*
X255759834Y-129719055D01*
X255869897Y-129614146D01*
X255872069Y-129609307D01*
X255906604Y-129462550D01*
X255963369Y-129149147D01*
X256010328Y-128865412D01*
X257035528Y-128865412D01*
X257047284Y-128954388D01*
X257072842Y-128942842D01*
X257235839Y-128848065D01*
X257528328Y-128669447D01*
X257928008Y-128421181D01*
X258412580Y-128117458D01*
X258959743Y-127772471D01*
X259547199Y-127400412D01*
X260152646Y-127015472D01*
X260753785Y-126631844D01*
X261328317Y-126263719D01*
X261853941Y-125925290D01*
X262308358Y-125630749D01*
X262669268Y-125394287D01*
X262914371Y-125230098D01*
X263021367Y-125152372D01*
X263062981Y-125086179D01*
X263128646Y-124902723D01*
X263206858Y-124602547D01*
X263252901Y-124390312D01*
X264240249Y-124390312D01*
X264271580Y-124379199D01*
X264439798Y-124285251D01*
X264731623Y-124109719D01*
X265122895Y-123868040D01*
X265589457Y-123575653D01*
X266107149Y-123247996D01*
X266651813Y-122900506D01*
X267199289Y-122548621D01*
X267725418Y-122207779D01*
X268206042Y-121893418D01*
X268617001Y-121620976D01*
X268934138Y-121405890D01*
X269133292Y-121263599D01*
X269328402Y-121102033D01*
X269560788Y-120871616D01*
X269692735Y-120690499D01*
X269732178Y-120559971D01*
X269804018Y-120251370D01*
X269900265Y-119794795D01*
X270016753Y-119212949D01*
X270149320Y-118528534D01*
X270293800Y-117764252D01*
X270446029Y-116942805D01*
X270601843Y-116086896D01*
X270757076Y-115219226D01*
X270907565Y-114362498D01*
X271049146Y-113539414D01*
X271177653Y-112772677D01*
X271288923Y-112084988D01*
X271378790Y-111499049D01*
X271432704Y-111120049D01*
X271462952Y-110841703D01*
X271459652Y-110686894D01*
X271421556Y-110620076D01*
X271347415Y-110605703D01*
X271338187Y-110607411D01*
X271195761Y-110664619D01*
X270912269Y-110793501D01*
X270513845Y-110981185D01*
X270026621Y-111214801D01*
X269476731Y-111481477D01*
X268890307Y-111768341D01*
X268293481Y-112062521D01*
X267712388Y-112351146D01*
X267173161Y-112621344D01*
X266701931Y-112860244D01*
X266324832Y-113054974D01*
X266067998Y-113192662D01*
X265957561Y-113260437D01*
X265955438Y-113264339D01*
X265925087Y-113394693D01*
X265869277Y-113690511D01*
X265805574Y-114050611D01*
X265791587Y-114129675D01*
X265695602Y-114690067D01*
X265584902Y-115349567D01*
X265463069Y-116086056D01*
X265333685Y-116877417D01*
X265200331Y-117701530D01*
X265066591Y-118536277D01*
X264936044Y-119359538D01*
X264812274Y-120149196D01*
X264698861Y-120883131D01*
X264599389Y-121539224D01*
X264517438Y-122095357D01*
X264456590Y-122529411D01*
X264450662Y-122573622D01*
X264376489Y-123140180D01*
X264314884Y-123635036D01*
X264269324Y-124028281D01*
X264243287Y-124290009D01*
X264240249Y-124390312D01*
X263252901Y-124390312D01*
X263299325Y-124176321D01*
X263407758Y-123614713D01*
X263533865Y-122908391D01*
X263679355Y-122048026D01*
X263845938Y-121024287D01*
X264035324Y-119827841D01*
X264249221Y-118449358D01*
X264393379Y-117510930D01*
X264530465Y-116611094D01*
X264641054Y-115872567D01*
X264727038Y-115279664D01*
X264790306Y-114816701D01*
X264832748Y-114467994D01*
X264856254Y-114217859D01*
X264862714Y-114050611D01*
X264854018Y-113950568D01*
X264832057Y-113902043D01*
X264798719Y-113889353D01*
X264770812Y-113900219D01*
X264597768Y-113981278D01*
X264287975Y-114131575D01*
X263865127Y-114339263D01*
X263352920Y-114592498D01*
X262775046Y-114879433D01*
X262155200Y-115188223D01*
X261517077Y-115507024D01*
X260884371Y-115823988D01*
X260280776Y-116127272D01*
X259729986Y-116405029D01*
X259255696Y-116645414D01*
X258881600Y-116836582D01*
X258631393Y-116966686D01*
X258528768Y-117023883D01*
X258528248Y-117024419D01*
X258502653Y-117134998D01*
X258456254Y-117418886D01*
X258432768Y-117577919D01*
X258391361Y-117858294D01*
X258310290Y-118435436D01*
X258215351Y-119132524D01*
X258108859Y-119931772D01*
X257993126Y-120815391D01*
X257870465Y-121765595D01*
X257743189Y-122764597D01*
X257613612Y-123794609D01*
X257484045Y-124837843D01*
X257356802Y-125876513D01*
X257234196Y-126892832D01*
X257118540Y-127869011D01*
X257076000Y-128264833D01*
X257045932Y-128622885D01*
X257035528Y-128865412D01*
X256010328Y-128865412D01*
X256039531Y-128688966D01*
X256132259Y-128101878D01*
X256238721Y-127407751D01*
X256356085Y-126626456D01*
X256481518Y-125777862D01*
X256612190Y-124881838D01*
X256745268Y-123958255D01*
X256877920Y-123026980D01*
X257007314Y-122107885D01*
X257130618Y-121220839D01*
X257245002Y-120385711D01*
X257347631Y-119622370D01*
X257435676Y-118950687D01*
X257506303Y-118390531D01*
X257556681Y-117961771D01*
X257583977Y-117684278D01*
X257585361Y-117577919D01*
X257557565Y-117587335D01*
X257385258Y-117665781D01*
X257074793Y-117814032D01*
X256648406Y-118021026D01*
X256128334Y-118275701D01*
X255536815Y-118566997D01*
X254896086Y-118883851D01*
X254228384Y-119215203D01*
X253555947Y-119549990D01*
X252901011Y-119877151D01*
X252285814Y-120185625D01*
X251732593Y-120464350D01*
X251263585Y-120702264D01*
X250901027Y-120888306D01*
X250667157Y-121011414D01*
X250584211Y-121060527D01*
X250571316Y-121158184D01*
X250546241Y-121341330D01*
X250534688Y-121425715D01*
X250477296Y-121841683D01*
X250402108Y-122384652D01*
X250312093Y-123033188D01*
X250210218Y-123765854D01*
X250099453Y-124561216D01*
X250094606Y-124596001D01*
X249925468Y-125822587D01*
X249761215Y-127037316D01*
X249604692Y-128217775D01*
X249458743Y-129341549D01*
X249326213Y-130386225D01*
X249209947Y-131329388D01*
X249112789Y-132148625D01*
X249037584Y-132821522D01*
X248987175Y-133325665D01*
X248979262Y-133416758D01*
X248955547Y-133751243D01*
X248947508Y-133985737D01*
X245689191Y-133985737D01*
X244861359Y-133625289D01*
X243799021Y-133164328D01*
X242758474Y-132714426D01*
X241755242Y-132282201D01*
X240804850Y-131874271D01*
X239922823Y-131497254D01*
X239124686Y-131157770D01*
X238425964Y-130862436D01*
X237842181Y-130617871D01*
X237388863Y-130430694D01*
X237081534Y-130307522D01*
X236935719Y-130254974D01*
X236756856Y-130235226D01*
X236677187Y-130281195D01*
X236673859Y-130326906D01*
X236652086Y-130547086D01*
X236611999Y-130927052D01*
X236555914Y-131446165D01*
X236486153Y-132083789D01*
X236405032Y-132819284D01*
X236314873Y-133632014D01*
X236217993Y-134501341D01*
X236116711Y-135406627D01*
X236013347Y-136327234D01*
X235910219Y-137242526D01*
X235809646Y-138131863D01*
X235713947Y-138974610D01*
X235625442Y-139750127D01*
X235546449Y-140437777D01*
X235479287Y-141016923D01*
X235426275Y-141466927D01*
X235389732Y-141767151D01*
X235371977Y-141896958D01*
X235363353Y-141956266D01*
X232742332Y-141956266D01*
X232067433Y-141585868D01*
X230128822Y-140521585D01*
X228335251Y-139536511D01*
X226681062Y-138627484D01*
X225160596Y-137791341D01*
X223768195Y-137024920D01*
X222498199Y-136325058D01*
X222007038Y-136053992D01*
X224195727Y-136053992D01*
X227558699Y-137888973D01*
X228275300Y-138279806D01*
X229135765Y-138748698D01*
X229995458Y-139216784D01*
X230820633Y-139665704D01*
X231577541Y-140077098D01*
X232232434Y-140432610D01*
X232751563Y-140713878D01*
X232965403Y-140829471D01*
X233483519Y-141108763D01*
X233931490Y-141349142D01*
X234284408Y-141537309D01*
X234517365Y-141659962D01*
X234605452Y-141703802D01*
X234607288Y-141702093D01*
X234628730Y-141591650D01*
X234659543Y-141342901D01*
X234693706Y-141003612D01*
X234708847Y-140847535D01*
X234746094Y-140481883D01*
X234799966Y-139964199D01*
X234868005Y-139317735D01*
X234947751Y-138565743D01*
X235036743Y-137731476D01*
X235132522Y-136838186D01*
X235232628Y-135909125D01*
X235299253Y-135292173D01*
X235422344Y-134150235D01*
X235526399Y-133179301D01*
X235612634Y-132365191D01*
X235682264Y-131693727D01*
X235736505Y-131150732D01*
X235776571Y-130722027D01*
X235803678Y-130393433D01*
X235819040Y-130150773D01*
X235823874Y-129979868D01*
X235819395Y-129866540D01*
X235806817Y-129796611D01*
X235787356Y-129755902D01*
X235762227Y-129730236D01*
X235688115Y-129687130D01*
X235449607Y-129570475D01*
X235069785Y-129394583D01*
X234754217Y-129251969D01*
X236918632Y-129251969D01*
X237884411Y-129672934D01*
X238041989Y-129741551D01*
X238431526Y-129910947D01*
X238590137Y-129979868D01*
X238960176Y-130140660D01*
X239604171Y-130420368D01*
X240339739Y-130739750D01*
X241143109Y-131088484D01*
X241990512Y-131456247D01*
X242858176Y-131832717D01*
X243479379Y-132102131D01*
X244289033Y-132453006D01*
X245040566Y-132778390D01*
X245714136Y-133069710D01*
X246289901Y-133318390D01*
X246748021Y-133515856D01*
X247068652Y-133653534D01*
X247231953Y-133722849D01*
X247343446Y-133768284D01*
X247525737Y-133824537D01*
X247619942Y-133791432D01*
X247689662Y-133660275D01*
X247691429Y-133655884D01*
X247730514Y-133490932D01*
X247789357Y-133158639D01*
X247865370Y-132678928D01*
X247955966Y-132071723D01*
X248058559Y-131356949D01*
X248170562Y-130554528D01*
X248289388Y-129684385D01*
X248412449Y-128766443D01*
X248537160Y-127820626D01*
X248660933Y-126866858D01*
X248781182Y-125925063D01*
X248895319Y-125015165D01*
X249000757Y-124157086D01*
X249094911Y-123370752D01*
X249175192Y-122676085D01*
X249239014Y-122093010D01*
X249283790Y-121641450D01*
X249306933Y-121341330D01*
X249305857Y-121212572D01*
X249264268Y-121175261D01*
X249099625Y-121083260D01*
X248805515Y-120942125D01*
X248376340Y-120749496D01*
X247806497Y-120503010D01*
X247090386Y-120200307D01*
X246222406Y-119839023D01*
X245196955Y-119416797D01*
X244008434Y-118931269D01*
X242651240Y-118380075D01*
X241119773Y-117760855D01*
X238270723Y-116610980D01*
X238203614Y-116867847D01*
X238176635Y-116999591D01*
X238123628Y-117336613D01*
X238055968Y-117827988D01*
X237976101Y-118451390D01*
X237886471Y-119184494D01*
X237789523Y-120004974D01*
X237687702Y-120890504D01*
X237583453Y-121818759D01*
X237479221Y-122767413D01*
X237377452Y-123714140D01*
X237280589Y-124636615D01*
X237191079Y-125512512D01*
X237111365Y-126319505D01*
X237043894Y-127035269D01*
X236991109Y-127637477D01*
X236955456Y-128103805D01*
X236939380Y-128411926D01*
X236918632Y-129251969D01*
X234754217Y-129251969D01*
X234567359Y-129167523D01*
X233961037Y-128897362D01*
X233269529Y-128592166D01*
X232511545Y-128260005D01*
X231705794Y-127908944D01*
X230870986Y-127547052D01*
X230025829Y-127182395D01*
X229189034Y-126823042D01*
X228379310Y-126477060D01*
X227615366Y-126152515D01*
X226915911Y-125857476D01*
X226299656Y-125600010D01*
X225785309Y-125388184D01*
X225391580Y-125230066D01*
X225137179Y-125133722D01*
X225040814Y-125107222D01*
X225030932Y-125140460D01*
X225002481Y-125340154D01*
X224963207Y-125700611D01*
X224914791Y-126200759D01*
X224858914Y-126819523D01*
X224797258Y-127535832D01*
X224731505Y-128328611D01*
X224663336Y-129176789D01*
X224594433Y-130059293D01*
X224526477Y-130955048D01*
X224461150Y-131842983D01*
X224400133Y-132702024D01*
X224345109Y-133511099D01*
X224297759Y-134249134D01*
X224259763Y-134895057D01*
X224195727Y-136053992D01*
X222007038Y-136053992D01*
X221344952Y-135688594D01*
X220302794Y-135112365D01*
X219366066Y-134593210D01*
X218529111Y-134127965D01*
X217786271Y-133713468D01*
X217131885Y-133346558D01*
X216560297Y-133024072D01*
X216065847Y-132742847D01*
X215642878Y-132499723D01*
X215285731Y-132291535D01*
X214988746Y-132115123D01*
X214746267Y-131967323D01*
X214552634Y-131844974D01*
X214402189Y-131744913D01*
X214289274Y-131663979D01*
X214208230Y-131599008D01*
X214153399Y-131546839D01*
X214119121Y-131504309D01*
X214099740Y-131468256D01*
X214094780Y-131450735D01*
X214078073Y-131254895D01*
X214070275Y-130868508D01*
X214071330Y-130293537D01*
X214081179Y-129531944D01*
X214099764Y-128585691D01*
X214105229Y-128359404D01*
X215191250Y-128359404D01*
X215193474Y-129050352D01*
X215199149Y-129631654D01*
X215208515Y-130075489D01*
X215221811Y-130354034D01*
X215285172Y-131124799D01*
X216523095Y-131826402D01*
X216612586Y-131877004D01*
X217056241Y-132125876D01*
X217626653Y-132443558D01*
X218289778Y-132811202D01*
X219011569Y-133209958D01*
X219757980Y-133620976D01*
X220494967Y-134025409D01*
X220885802Y-134238866D01*
X221524872Y-134585162D01*
X222099714Y-134893263D01*
X222589360Y-135152124D01*
X222972845Y-135350699D01*
X223229201Y-135477944D01*
X223337462Y-135522813D01*
X223345711Y-135521910D01*
X223417186Y-135422545D01*
X223447168Y-135208935D01*
X223447634Y-135187438D01*
X223457430Y-134986735D01*
X223478973Y-134617812D01*
X223511001Y-134100276D01*
X223552253Y-133453731D01*
X223601467Y-132697784D01*
X223657381Y-131852039D01*
X223718735Y-130936103D01*
X223784267Y-129969581D01*
X223802173Y-129706784D01*
X223866548Y-128757326D01*
X223926425Y-127867146D01*
X223980551Y-127055305D01*
X224027675Y-126340863D01*
X224066547Y-125742880D01*
X224095914Y-125280416D01*
X224114525Y-124972532D01*
X224121130Y-124838289D01*
X224103725Y-124778243D01*
X224037888Y-124705077D01*
X223907426Y-124612907D01*
X223696179Y-124493649D01*
X223387985Y-124339217D01*
X222966686Y-124141527D01*
X222416120Y-123892493D01*
X222153593Y-123776142D01*
X225087834Y-123776142D01*
X225087834Y-124092342D01*
X226784004Y-124838289D01*
X227912738Y-125334687D01*
X228682478Y-125673003D01*
X229610471Y-126080474D01*
X230574674Y-126503492D01*
X231521842Y-126918706D01*
X232398730Y-127302767D01*
X233152092Y-127632325D01*
X233912474Y-127963798D01*
X234546215Y-128237145D01*
X235038163Y-128444350D01*
X235405980Y-128591740D01*
X235667330Y-128685640D01*
X235839876Y-128732379D01*
X235941282Y-128738283D01*
X235989211Y-128709679D01*
X236001327Y-128652894D01*
X236005007Y-128598818D01*
X236028758Y-128371613D01*
X236070883Y-128009167D01*
X236127100Y-127547830D01*
X236193131Y-127023954D01*
X236208243Y-126903833D01*
X236266314Y-126419451D01*
X236339561Y-125782928D01*
X236424652Y-125024434D01*
X236518257Y-124174139D01*
X236617046Y-123262213D01*
X236717688Y-122318824D01*
X236816851Y-121374144D01*
X236867326Y-120889041D01*
X236958355Y-120014214D01*
X237043631Y-119194717D01*
X237120780Y-118453348D01*
X237187430Y-117812904D01*
X237241208Y-117296184D01*
X237279743Y-116925987D01*
X237300661Y-116725110D01*
X237352369Y-116228927D01*
X235879987Y-115599921D01*
X235858849Y-115590893D01*
X235631069Y-115494098D01*
X238356433Y-115494098D01*
X238361664Y-115606023D01*
X238382012Y-115618970D01*
X238553022Y-115701217D01*
X238882091Y-115847980D01*
X239354206Y-116052911D01*
X239765633Y-116228927D01*
X239954351Y-116309664D01*
X240667514Y-116611889D01*
X241478681Y-116953241D01*
X242372837Y-117327371D01*
X243334970Y-117727932D01*
X244350064Y-118148577D01*
X245403107Y-118582958D01*
X245900789Y-118787360D01*
X246685773Y-119107977D01*
X247406122Y-119400023D01*
X248042869Y-119655933D01*
X248577047Y-119868143D01*
X248989690Y-120029087D01*
X249261831Y-120131201D01*
X249374503Y-120166920D01*
X249419599Y-120119803D01*
X249489989Y-119915622D01*
X249551607Y-119647582D01*
X250707082Y-119647582D01*
X250708945Y-119894207D01*
X250773538Y-119973764D01*
X250873940Y-119935957D01*
X251126460Y-119819506D01*
X251507578Y-119635366D01*
X251995272Y-119394656D01*
X252567518Y-119108501D01*
X253202295Y-118788020D01*
X253877578Y-118444335D01*
X254571347Y-118088568D01*
X255261578Y-117731841D01*
X255926248Y-117385274D01*
X256543335Y-117059990D01*
X256583969Y-117038331D01*
X256993919Y-116808435D01*
X257334845Y-116597437D01*
X257572210Y-116427916D01*
X257671475Y-116322452D01*
X257701735Y-116191492D01*
X257762633Y-115865080D01*
X257767943Y-115833493D01*
X258727224Y-115833493D01*
X258765016Y-115912851D01*
X258864968Y-115870280D01*
X259117762Y-115750201D01*
X259503548Y-115562348D01*
X260002583Y-115316449D01*
X260595124Y-115022234D01*
X261261426Y-114689433D01*
X261981745Y-114327773D01*
X265121663Y-112747334D01*
X265243288Y-111981939D01*
X266133775Y-111981939D01*
X266144606Y-112070883D01*
X266205894Y-112148934D01*
X266212570Y-112147703D01*
X266347332Y-112091014D01*
X266622919Y-111959482D01*
X267013460Y-111766457D01*
X267493085Y-111525290D01*
X268035925Y-111249331D01*
X268616107Y-110951930D01*
X269207762Y-110646438D01*
X269785020Y-110346205D01*
X270322010Y-110064582D01*
X270792862Y-109814918D01*
X271171704Y-109610564D01*
X271432668Y-109464871D01*
X271549882Y-109391189D01*
X271570714Y-109370163D01*
X271702508Y-109164094D01*
X271812923Y-108889889D01*
X271837635Y-108798371D01*
X271908869Y-108488839D01*
X272003755Y-108035743D01*
X272118566Y-107459917D01*
X272249573Y-106782194D01*
X272393046Y-106023408D01*
X272545259Y-105204392D01*
X272702481Y-104345980D01*
X272860985Y-103469004D01*
X273017041Y-102594298D01*
X273166922Y-101742696D01*
X273306899Y-100935031D01*
X273433243Y-100192136D01*
X273542225Y-99534844D01*
X273630118Y-98983990D01*
X273693192Y-98560407D01*
X273727719Y-98284927D01*
X273729970Y-98178385D01*
X273704950Y-98168172D01*
X273613317Y-98179700D01*
X273448021Y-98233442D01*
X273194919Y-98335737D01*
X272839867Y-98492922D01*
X272368722Y-98711336D01*
X271767341Y-98997315D01*
X271021582Y-99357199D01*
X270117301Y-99797325D01*
X270100591Y-99805483D01*
X269689210Y-100008399D01*
X269483728Y-100109754D01*
X268928623Y-100389380D01*
X268457751Y-100632571D01*
X268093587Y-100827541D01*
X267858607Y-100962501D01*
X267775286Y-101025664D01*
X267764603Y-101110049D01*
X267726772Y-101367090D01*
X267721272Y-101403223D01*
X267664911Y-101773521D01*
X267582473Y-102307008D01*
X267482913Y-102945221D01*
X267369684Y-103665826D01*
X267246240Y-104446492D01*
X267192945Y-104783242D01*
X267029238Y-105826623D01*
X266870985Y-106848159D01*
X266720956Y-107829082D01*
X266581923Y-108750625D01*
X266456655Y-109594020D01*
X266347924Y-110340501D01*
X266258499Y-110971301D01*
X266191153Y-111467652D01*
X266148654Y-111810787D01*
X266133775Y-111981939D01*
X265243288Y-111981939D01*
X265832794Y-108272146D01*
X265927983Y-107672780D01*
X266130003Y-106397746D01*
X266303575Y-105297125D01*
X266450403Y-104359520D01*
X266572192Y-103573531D01*
X266670648Y-102927760D01*
X266747476Y-102410809D01*
X266804381Y-102011278D01*
X266843067Y-101717769D01*
X266865240Y-101518884D01*
X266872605Y-101403223D01*
X266866868Y-101359389D01*
X266786061Y-101390151D01*
X266552501Y-101492542D01*
X266189419Y-101656132D01*
X265720003Y-101870149D01*
X265167438Y-102123819D01*
X264554911Y-102406369D01*
X263905607Y-102707025D01*
X263242712Y-103015014D01*
X262589413Y-103319562D01*
X261968896Y-103609897D01*
X261404346Y-103875244D01*
X261048959Y-104043338D01*
X260918949Y-104104831D01*
X260535893Y-104287884D01*
X260278362Y-104413630D01*
X260169542Y-104471295D01*
X260160229Y-104522151D01*
X260128364Y-104745657D01*
X260089413Y-105035379D01*
X260076512Y-105131343D01*
X260006890Y-105662039D01*
X259921716Y-106320572D01*
X259823207Y-107089771D01*
X259713580Y-107952464D01*
X259595053Y-108891480D01*
X259469844Y-109889647D01*
X259385199Y-110565622D01*
X259262359Y-111543486D01*
X259146920Y-112458774D01*
X259041232Y-113293044D01*
X258947647Y-114027852D01*
X258868516Y-114644756D01*
X258806191Y-115125313D01*
X258763023Y-115451079D01*
X258741363Y-115603612D01*
X258736659Y-115633413D01*
X258727224Y-115833493D01*
X257767943Y-115833493D01*
X257842182Y-115391882D01*
X257937416Y-114793010D01*
X258045368Y-114089575D01*
X258163075Y-113302687D01*
X258287570Y-112453460D01*
X258415887Y-111563004D01*
X258545063Y-110652430D01*
X258672130Y-109742851D01*
X258794124Y-108855377D01*
X258908078Y-108011121D01*
X259011029Y-107231192D01*
X259100010Y-106536704D01*
X259172055Y-105948767D01*
X259224200Y-105488493D01*
X259253479Y-105176993D01*
X259256926Y-105035379D01*
X259202161Y-105024181D01*
X259023048Y-105076687D01*
X258712033Y-105201649D01*
X258261307Y-105402559D01*
X257663062Y-105682912D01*
X256909488Y-106046203D01*
X255992777Y-106495925D01*
X255965908Y-106509186D01*
X255223080Y-106873271D01*
X254524788Y-107210861D01*
X253892401Y-107511968D01*
X253347288Y-107766607D01*
X252910817Y-107964792D01*
X252604358Y-108096536D01*
X252449278Y-108151855D01*
X252283256Y-108193540D01*
X252179759Y-108275117D01*
X252137181Y-108406528D01*
X252124600Y-108445356D01*
X252086579Y-108756249D01*
X252086040Y-108761627D01*
X252042216Y-109169185D01*
X251976804Y-109738113D01*
X251893487Y-110438797D01*
X251795946Y-111241624D01*
X251687864Y-112116981D01*
X251572921Y-113035254D01*
X251454800Y-113966830D01*
X251337183Y-114882097D01*
X251223750Y-115751440D01*
X251118185Y-116545247D01*
X251039725Y-117128919D01*
X250949703Y-117800073D01*
X250868673Y-118405745D01*
X250800839Y-118914450D01*
X250750407Y-119294704D01*
X250721582Y-119515019D01*
X250707082Y-119647582D01*
X249551607Y-119647582D01*
X249575719Y-119542693D01*
X249678523Y-118993244D01*
X249800134Y-118259505D01*
X249831193Y-118063405D01*
X250000747Y-116973571D01*
X250166961Y-115874346D01*
X250327136Y-114785746D01*
X250478573Y-113727786D01*
X250618574Y-112720480D01*
X250744441Y-111783843D01*
X250853474Y-110937892D01*
X250942976Y-110202640D01*
X251010246Y-109598103D01*
X251052588Y-109144297D01*
X251067301Y-108861235D01*
X251067301Y-108406528D01*
X249353043Y-107706533D01*
X248551454Y-107380541D01*
X247378134Y-106908073D01*
X246236663Y-106453802D01*
X245141711Y-106023277D01*
X244107949Y-105622046D01*
X243150046Y-105255659D01*
X242282672Y-104929664D01*
X241520498Y-104649609D01*
X240878193Y-104421044D01*
X240370428Y-104249516D01*
X240011872Y-104140575D01*
X239817195Y-104099770D01*
X239528685Y-104086692D01*
X239453736Y-104811026D01*
X239430211Y-105034450D01*
X239386287Y-105445603D01*
X239326965Y-105997267D01*
X239255206Y-106662012D01*
X239173972Y-107412411D01*
X239086224Y-108221035D01*
X238994924Y-109060456D01*
X238931950Y-109640463D01*
X238786566Y-110994923D01*
X238661662Y-112182594D01*
X238557583Y-113199905D01*
X238474675Y-114043283D01*
X238413284Y-114709156D01*
X238373755Y-115193952D01*
X238356433Y-115494098D01*
X235631069Y-115494098D01*
X235446273Y-115415569D01*
X234963923Y-115212217D01*
X234399695Y-114975812D01*
X233741481Y-114701331D01*
X232977174Y-114383750D01*
X232094668Y-114018046D01*
X231081857Y-113599196D01*
X229926634Y-113122176D01*
X228616892Y-112581962D01*
X227140525Y-111973530D01*
X227047796Y-111935343D01*
X226596499Y-111751408D01*
X226289126Y-111634007D01*
X226096262Y-111576547D01*
X225988493Y-111572438D01*
X225936402Y-111615087D01*
X225910574Y-111697902D01*
X225892666Y-111827268D01*
X225861853Y-112140046D01*
X225821814Y-112606679D01*
X225773982Y-113206149D01*
X225719789Y-113917438D01*
X225660666Y-114719525D01*
X225598046Y-115591393D01*
X225533359Y-116512024D01*
X225468037Y-117460398D01*
X225403513Y-118415496D01*
X225341219Y-119356301D01*
X225282584Y-120261794D01*
X225229043Y-121110955D01*
X225182025Y-121882767D01*
X225142964Y-122556210D01*
X225113290Y-123110266D01*
X225094436Y-123523916D01*
X225087834Y-123776142D01*
X222153593Y-123776142D01*
X221720128Y-123584032D01*
X220862548Y-123208057D01*
X219975716Y-122821553D01*
X218805265Y-122315469D01*
X217809238Y-121890227D01*
X216987135Y-121545617D01*
X216338454Y-121281429D01*
X215862695Y-121097456D01*
X215559356Y-120993487D01*
X215506893Y-120979683D01*
X215418107Y-120984358D01*
X215363637Y-121070559D01*
X215328335Y-121275390D01*
X215297054Y-121635953D01*
X215286880Y-121797422D01*
X215268856Y-122223199D01*
X215252121Y-122789726D01*
X215236915Y-123469183D01*
X215223480Y-124233746D01*
X215212054Y-125055594D01*
X215202878Y-125906906D01*
X215196192Y-126759860D01*
X215192236Y-127586633D01*
X215191250Y-128359404D01*
X214105229Y-128359404D01*
X214127028Y-127456739D01*
X214162911Y-126147050D01*
X214207356Y-124658588D01*
X214260305Y-122993313D01*
X214321699Y-121153188D01*
X214391481Y-119140175D01*
X214443946Y-117673287D01*
X215360422Y-117673287D01*
X215362971Y-118312111D01*
X215368384Y-118824711D01*
X215376862Y-119188785D01*
X215388605Y-119382035D01*
X215458076Y-119900952D01*
X216144248Y-120213601D01*
X216184220Y-120231720D01*
X216462326Y-120355860D01*
X216888470Y-120544227D01*
X217438920Y-120786408D01*
X218089941Y-121071988D01*
X218817802Y-121390554D01*
X219598769Y-121731692D01*
X220409109Y-122084988D01*
X220700498Y-122211756D01*
X221464197Y-122542537D01*
X222167073Y-122844894D01*
X222789778Y-123110638D01*
X223312966Y-123331582D01*
X223717291Y-123499536D01*
X223983406Y-123606314D01*
X224091964Y-123643726D01*
X224101353Y-123643007D01*
X224133140Y-123624067D01*
X224162390Y-123567739D01*
X224190611Y-123458485D01*
X224219307Y-123280771D01*
X224249984Y-123019059D01*
X224284148Y-122657814D01*
X224323305Y-122181500D01*
X224368961Y-121574580D01*
X224422620Y-120821519D01*
X224485790Y-119906781D01*
X224559976Y-118814829D01*
X224617978Y-117956665D01*
X224704051Y-116679260D01*
X224777964Y-115574173D01*
X224840368Y-114628685D01*
X224891913Y-113830074D01*
X224933249Y-113165619D01*
X224965027Y-112622601D01*
X224987898Y-112188298D01*
X225002511Y-111849989D01*
X225009517Y-111594953D01*
X225009566Y-111410471D01*
X225003309Y-111283820D01*
X224991396Y-111202281D01*
X224974478Y-111153131D01*
X224953205Y-111123652D01*
X224948624Y-111119806D01*
X224815721Y-111050548D01*
X224526859Y-110919320D01*
X224102903Y-110734663D01*
X223564716Y-110505117D01*
X223005677Y-110269752D01*
X225989280Y-110269752D01*
X226010277Y-110450949D01*
X226083885Y-110556728D01*
X226226312Y-110641942D01*
X226317258Y-110684409D01*
X226589573Y-110803844D01*
X227011970Y-110984915D01*
X227567499Y-111220527D01*
X228018242Y-111410471D01*
X228239205Y-111503585D01*
X229010136Y-111826995D01*
X229863341Y-112183661D01*
X230781866Y-112566490D01*
X231748760Y-112968387D01*
X232747070Y-113382256D01*
X233759844Y-113801005D01*
X234770129Y-114217538D01*
X234844265Y-114248041D01*
X235490008Y-114512317D01*
X236075930Y-114749674D01*
X236578315Y-114950688D01*
X236973446Y-115105937D01*
X237237607Y-115205997D01*
X237347081Y-115241445D01*
X237403201Y-115215245D01*
X237490279Y-115072433D01*
X237490321Y-115072297D01*
X237513336Y-114935707D01*
X237553684Y-114625672D01*
X237609359Y-114160874D01*
X237678357Y-113559995D01*
X237758671Y-112841716D01*
X237848297Y-112024718D01*
X237945229Y-111127684D01*
X238047461Y-110169295D01*
X238152989Y-109168232D01*
X238259807Y-108143177D01*
X238365910Y-107112812D01*
X238469292Y-106095818D01*
X238567948Y-105110876D01*
X238659873Y-104176669D01*
X238716941Y-103590600D01*
X237170674Y-102981479D01*
X240926617Y-102981479D01*
X240930764Y-102994945D01*
X240952529Y-103014528D01*
X241004480Y-103043830D01*
X241099161Y-103087724D01*
X241249117Y-103151082D01*
X241466892Y-103238778D01*
X241765031Y-103355684D01*
X242156077Y-103506674D01*
X242375452Y-103590600D01*
X242652575Y-103696619D01*
X243267069Y-103930394D01*
X244012104Y-104212870D01*
X244900223Y-104548920D01*
X245943972Y-104943418D01*
X247155894Y-105401236D01*
X247792755Y-105640861D01*
X248600882Y-105942153D01*
X249343621Y-106215954D01*
X250001796Y-106455362D01*
X250556230Y-106653474D01*
X250987746Y-106803386D01*
X251277170Y-106898195D01*
X251405324Y-106930998D01*
X251407455Y-106930946D01*
X251570087Y-106887884D01*
X251867894Y-106772755D01*
X252276974Y-106597300D01*
X252773423Y-106373259D01*
X253333341Y-106112371D01*
X253932823Y-105826376D01*
X254547968Y-105527014D01*
X255154872Y-105226024D01*
X255729634Y-104935147D01*
X256248350Y-104666122D01*
X256687119Y-104430689D01*
X257022036Y-104240587D01*
X257229201Y-104107557D01*
X257284709Y-104043338D01*
X257241737Y-104017307D01*
X257024348Y-103914681D01*
X256630111Y-103742533D01*
X256060915Y-103501645D01*
X255318647Y-103192802D01*
X254405197Y-102816786D01*
X253322453Y-102374382D01*
X252072302Y-101866372D01*
X250656633Y-101293539D01*
X247879804Y-100171938D01*
X244668800Y-101440640D01*
X244001786Y-101704212D01*
X243289659Y-101985675D01*
X242645222Y-102240451D01*
X242090867Y-102459685D01*
X241648985Y-102634521D01*
X241341968Y-102756104D01*
X241192206Y-102815578D01*
X241005855Y-102907373D01*
X240926617Y-102981479D01*
X237170674Y-102981479D01*
X237093452Y-102951059D01*
X236588044Y-102753271D01*
X235814161Y-102453809D01*
X234942612Y-102119553D01*
X234004261Y-101762121D01*
X233029972Y-101393135D01*
X232050610Y-101024211D01*
X231097039Y-100666970D01*
X230200122Y-100333030D01*
X229390725Y-100034011D01*
X228699711Y-99781532D01*
X228157944Y-99587211D01*
X226833758Y-99119488D01*
X226780477Y-99430086D01*
X226767110Y-99534245D01*
X226737597Y-99832119D01*
X226697877Y-100281127D01*
X226649829Y-100856617D01*
X226595334Y-101533936D01*
X226536272Y-102288432D01*
X226474523Y-103095453D01*
X226411966Y-103930347D01*
X226350482Y-104768461D01*
X226291950Y-105585143D01*
X226238251Y-106355741D01*
X226191264Y-107055603D01*
X226152869Y-107660076D01*
X226131077Y-108014580D01*
X226094044Y-108606325D01*
X226059196Y-109151025D01*
X226029656Y-109600093D01*
X226008549Y-109904940D01*
X226004687Y-109958285D01*
X225989280Y-110269752D01*
X223005677Y-110269752D01*
X222933162Y-110239222D01*
X222229104Y-109945519D01*
X221473406Y-109632549D01*
X220686932Y-109308852D01*
X219890545Y-108982968D01*
X219105110Y-108663439D01*
X218351490Y-108358804D01*
X217650549Y-108077605D01*
X217023150Y-107828381D01*
X216490158Y-107619673D01*
X216072435Y-107460022D01*
X215790845Y-107357969D01*
X215666253Y-107322053D01*
X215660495Y-107322443D01*
X215588270Y-107414444D01*
X215532164Y-107676026D01*
X215489600Y-108118821D01*
X215480494Y-108279036D01*
X215464263Y-108693162D01*
X215448498Y-109248663D01*
X215433398Y-109923239D01*
X215419163Y-110694589D01*
X215405993Y-111540414D01*
X215394088Y-112438414D01*
X215383648Y-113366289D01*
X215374873Y-114301739D01*
X215367963Y-115222463D01*
X215363118Y-116106163D01*
X215360537Y-116930537D01*
X215360422Y-117673287D01*
X214443946Y-117673287D01*
X214469592Y-116956235D01*
X214555975Y-114603331D01*
X214650571Y-112083425D01*
X214753322Y-109398479D01*
X214776348Y-108796264D01*
X214800293Y-108156544D01*
X214820678Y-107597245D01*
X214836498Y-107146514D01*
X214846745Y-106832497D01*
X214850414Y-106683341D01*
X214851633Y-106657430D01*
X214874301Y-106582969D01*
X214938898Y-106504764D01*
X215062659Y-106414466D01*
X215262817Y-106303722D01*
X215556610Y-106164182D01*
X215961272Y-105987495D01*
X216494038Y-105765310D01*
X217172144Y-105489276D01*
X218012825Y-105151041D01*
X219967854Y-104366851D01*
X218169658Y-103212703D01*
X217951498Y-103071822D01*
X217435765Y-102731713D01*
X216980606Y-102421808D01*
X216611789Y-102160211D01*
X216355081Y-101965026D01*
X216236249Y-101854354D01*
X216206012Y-101789914D01*
X216178395Y-101668929D01*
X216158705Y-101481206D01*
X216146758Y-101208702D01*
X216142374Y-100833374D01*
X216145371Y-100337177D01*
X216147278Y-100218409D01*
X216601394Y-100218409D01*
X216605594Y-100696015D01*
X216614354Y-101060389D01*
X216627825Y-101325633D01*
X216646161Y-101505850D01*
X216669514Y-101615139D01*
X216698037Y-101667603D01*
X216784846Y-101729871D01*
X217021807Y-101888426D01*
X217390078Y-102130189D01*
X217872901Y-102444292D01*
X218453513Y-102819869D01*
X219115156Y-103246055D01*
X219841068Y-103711981D01*
X220614490Y-104206783D01*
X224398561Y-106623806D01*
X224450693Y-106272740D01*
X224465498Y-106146341D01*
X224495201Y-105835885D01*
X224535121Y-105380533D01*
X224583654Y-104801375D01*
X224639197Y-104119500D01*
X224700145Y-103355998D01*
X224764896Y-102531958D01*
X224831845Y-101668471D01*
X224899390Y-100786625D01*
X224965926Y-99907511D01*
X225029851Y-99052217D01*
X225089560Y-98241835D01*
X225104484Y-98035692D01*
X227888594Y-98035692D01*
X227888656Y-98036748D01*
X227905320Y-98056868D01*
X227959084Y-98089338D01*
X228060993Y-98138459D01*
X228222090Y-98208537D01*
X228453421Y-98303875D01*
X228766030Y-98428777D01*
X229170961Y-98587546D01*
X229679260Y-98784485D01*
X230301970Y-99023899D01*
X231050136Y-99310092D01*
X231934803Y-99647366D01*
X232967015Y-100040027D01*
X234157816Y-100492376D01*
X235518252Y-101008719D01*
X236036050Y-101204670D01*
X236832423Y-101503937D01*
X237563926Y-101776286D01*
X238211305Y-102014693D01*
X238755308Y-102212135D01*
X239176680Y-102361588D01*
X239456171Y-102456030D01*
X239574526Y-102488436D01*
X239575502Y-102488397D01*
X239715990Y-102451105D01*
X240003061Y-102351407D01*
X240413396Y-102198780D01*
X240923671Y-102002704D01*
X241510567Y-101772655D01*
X242150761Y-101518112D01*
X242820933Y-101248553D01*
X243497761Y-100973457D01*
X244157924Y-100702300D01*
X244778101Y-100444562D01*
X245334971Y-100209721D01*
X245805211Y-100007254D01*
X246165502Y-99846639D01*
X246392522Y-99737355D01*
X246436018Y-99707417D01*
X249268239Y-99707417D01*
X249327039Y-99778475D01*
X249539958Y-99894317D01*
X249697169Y-99965242D01*
X250014529Y-100100169D01*
X250472877Y-100291223D01*
X251053060Y-100530534D01*
X251735928Y-100810233D01*
X252502329Y-101122449D01*
X253333110Y-101459314D01*
X254209119Y-101812956D01*
X254266026Y-101835877D01*
X255126408Y-102181801D01*
X255930559Y-102504004D01*
X256660930Y-102795530D01*
X257299971Y-103049427D01*
X257830134Y-103258740D01*
X258233871Y-103416515D01*
X258493630Y-103515798D01*
X258591865Y-103549637D01*
X258656500Y-103527020D01*
X258856237Y-103439238D01*
X259131560Y-103309010D01*
X259270647Y-103241399D01*
X259587968Y-103087155D01*
X260036698Y-102869040D01*
X260592858Y-102598709D01*
X261232471Y-102287817D01*
X261931561Y-101948018D01*
X262666148Y-101590967D01*
X263285012Y-101288727D01*
X263950632Y-100960207D01*
X264543229Y-100664042D01*
X265042593Y-100410505D01*
X265428516Y-100209870D01*
X265680789Y-100072410D01*
X265779202Y-100008399D01*
X265735969Y-99957427D01*
X265530263Y-99847895D01*
X265173702Y-99692787D01*
X264684182Y-99499808D01*
X264079595Y-99276661D01*
X263683512Y-99134414D01*
X262993287Y-98886559D01*
X262204837Y-98603456D01*
X261367450Y-98302802D01*
X260530415Y-98002294D01*
X259743019Y-97719628D01*
X259656250Y-97688531D01*
X258983044Y-97450726D01*
X258362039Y-97237214D01*
X257819062Y-97056443D01*
X257379940Y-96916861D01*
X257070499Y-96826916D01*
X256916566Y-96795057D01*
X256894686Y-96796267D01*
X256683201Y-96839877D01*
X256341380Y-96936800D01*
X255911517Y-97074333D01*
X255435905Y-97239774D01*
X255234230Y-97313427D01*
X254745675Y-97495624D01*
X254168029Y-97714783D01*
X253528250Y-97960327D01*
X252853294Y-98221676D01*
X252170119Y-98488254D01*
X251505682Y-98749482D01*
X250886940Y-98994782D01*
X250340850Y-99213575D01*
X249894369Y-99395284D01*
X249574454Y-99529331D01*
X249408062Y-99605137D01*
X249344742Y-99639891D01*
X249289239Y-99688881D01*
X249268239Y-99707417D01*
X246436018Y-99707417D01*
X246462949Y-99688881D01*
X246372711Y-99641154D01*
X246118459Y-99526789D01*
X245720669Y-99355527D01*
X245198282Y-99135061D01*
X244570241Y-98873081D01*
X243855487Y-98577277D01*
X243072964Y-98255341D01*
X242241614Y-97914963D01*
X241380379Y-97563835D01*
X240508202Y-97209646D01*
X239644025Y-96860088D01*
X238806790Y-96522852D01*
X238015440Y-96205628D01*
X237288917Y-95916108D01*
X236646164Y-95661981D01*
X236106123Y-95450940D01*
X235687736Y-95290673D01*
X235409946Y-95188874D01*
X235291695Y-95153232D01*
X235257913Y-95158857D01*
X235061495Y-95218411D01*
X234723012Y-95335769D01*
X234265526Y-95501951D01*
X234260887Y-95503678D01*
X233712101Y-95707977D01*
X233085800Y-95944866D01*
X232409688Y-96203640D01*
X231706826Y-96475317D01*
X231000279Y-96750919D01*
X230313111Y-97021465D01*
X229668384Y-97277975D01*
X229089162Y-97511470D01*
X228598509Y-97712969D01*
X228219487Y-97873492D01*
X227975161Y-97984060D01*
X227888594Y-98035692D01*
X225104484Y-98035692D01*
X225143451Y-97497452D01*
X225189920Y-96840159D01*
X225227363Y-96291046D01*
X225254176Y-95871201D01*
X225268757Y-95601716D01*
X225269501Y-95503678D01*
X225262718Y-95498801D01*
X225130043Y-95416772D01*
X224854915Y-95253328D01*
X224456676Y-95019619D01*
X223954670Y-94726797D01*
X223368241Y-94386010D01*
X222716731Y-94008410D01*
X222019485Y-93605146D01*
X221295846Y-93187369D01*
X220565156Y-92766230D01*
X219846759Y-92352877D01*
X219159999Y-91958462D01*
X218524219Y-91594134D01*
X217958762Y-91271044D01*
X217482971Y-91000343D01*
X217116191Y-90793179D01*
X216877764Y-90660704D01*
X216787033Y-90614068D01*
X216775687Y-90665930D01*
X216759032Y-90891674D01*
X216741263Y-91280644D01*
X216722850Y-91815652D01*
X216704263Y-92479513D01*
X216685971Y-93255040D01*
X216668445Y-94125048D01*
X216652154Y-95072349D01*
X216637570Y-96079757D01*
X216627133Y-96893649D01*
X216614622Y-97965192D01*
X216606060Y-98867100D01*
X216601600Y-99613471D01*
X216601394Y-100218409D01*
X216147278Y-100218409D01*
X216155566Y-99702069D01*
X216172778Y-98910007D01*
X216196825Y-97942947D01*
X216212580Y-97332596D01*
X216238497Y-96326388D01*
X216265095Y-95291413D01*
X216291236Y-94272044D01*
X216315783Y-93312651D01*
X216337599Y-92457606D01*
X216355546Y-91751281D01*
X216355780Y-91742060D01*
X216382818Y-90845505D01*
X216413499Y-90141362D01*
X216447870Y-89628926D01*
X216466221Y-89474140D01*
X216944513Y-89474140D01*
X217037919Y-89551782D01*
X217281163Y-89712818D01*
X217659701Y-89948529D01*
X218158989Y-90250194D01*
X218764482Y-90609096D01*
X219461639Y-91016512D01*
X220235913Y-91463725D01*
X221072763Y-91942015D01*
X221761939Y-92332947D01*
X222758041Y-92893500D01*
X223597372Y-93359399D01*
X224285430Y-93733573D01*
X224827714Y-94018950D01*
X225229721Y-94218458D01*
X225496949Y-94335024D01*
X225634897Y-94371576D01*
X225686215Y-94364971D01*
X225914275Y-94322698D01*
X226291508Y-94246260D01*
X226792210Y-94141322D01*
X227390679Y-94013550D01*
X228061208Y-93868610D01*
X228778095Y-93712169D01*
X229515634Y-93549892D01*
X230248123Y-93387446D01*
X230949857Y-93230497D01*
X231595131Y-93084712D01*
X232158243Y-92955755D01*
X232613486Y-92849294D01*
X232935158Y-92770995D01*
X233097555Y-92726523D01*
X233103558Y-92720989D01*
X233035828Y-92639944D01*
X232823444Y-92477603D01*
X232484971Y-92246736D01*
X232038974Y-91960112D01*
X231504019Y-91630499D01*
X230990161Y-91318971D01*
X230459647Y-90994870D01*
X230075617Y-90755946D01*
X229826994Y-90594584D01*
X229702700Y-90503167D01*
X229691658Y-90474081D01*
X229782790Y-90499708D01*
X229965020Y-90572434D01*
X230199385Y-90670202D01*
X230835450Y-90933318D01*
X231509890Y-91209593D01*
X232198591Y-91489407D01*
X232877439Y-91763134D01*
X233522322Y-92021152D01*
X234109126Y-92253837D01*
X234613737Y-92451566D01*
X235012042Y-92604715D01*
X235279928Y-92703662D01*
X235393282Y-92738783D01*
X235396226Y-92738406D01*
X235514374Y-92678061D01*
X235772849Y-92522862D01*
X236153163Y-92284631D01*
X236597689Y-92000228D01*
X237691256Y-92000228D01*
X237695487Y-92010270D01*
X237812029Y-92105910D01*
X238069889Y-92293889D01*
X238454506Y-92564208D01*
X238951322Y-92906868D01*
X239545775Y-93311868D01*
X240223304Y-93769210D01*
X240969350Y-94268893D01*
X241769352Y-94800919D01*
X242049466Y-94986291D01*
X242844334Y-95509280D01*
X243588757Y-95994696D01*
X244267011Y-96432558D01*
X244863370Y-96812885D01*
X245362110Y-97125698D01*
X245747505Y-97361015D01*
X246003830Y-97508856D01*
X246115360Y-97559242D01*
X246176739Y-97549071D01*
X246410203Y-97497710D01*
X246788643Y-97408461D01*
X247288309Y-97287340D01*
X247885454Y-97140364D01*
X248556326Y-96973548D01*
X249277177Y-96792910D01*
X250024258Y-96604464D01*
X250773818Y-96414227D01*
X251502109Y-96228216D01*
X251552722Y-96215196D01*
X258310647Y-96215196D01*
X258386444Y-96297589D01*
X258576237Y-96391076D01*
X259125319Y-96593148D01*
X260401790Y-97061680D01*
X261521085Y-97470495D01*
X262500097Y-97825678D01*
X263355720Y-98133316D01*
X264104846Y-98399494D01*
X264764367Y-98630298D01*
X265351178Y-98831815D01*
X265865473Y-99004673D01*
X266349173Y-99163477D01*
X266743101Y-99288795D01*
X267016314Y-99370796D01*
X267137870Y-99399644D01*
X267155980Y-99396148D01*
X267320777Y-99335720D01*
X267615068Y-99211892D01*
X268003654Y-99039808D01*
X268451332Y-98834610D01*
X269372771Y-98403863D01*
X270219456Y-98003450D01*
X270906518Y-97672492D01*
X271442859Y-97406469D01*
X271837378Y-97200863D01*
X272098974Y-97051155D01*
X272236549Y-96952825D01*
X272259003Y-96901356D01*
X272240276Y-96890163D01*
X272069040Y-96820814D01*
X271743119Y-96703830D01*
X271284936Y-96546402D01*
X270716911Y-96355719D01*
X270061467Y-96138973D01*
X269341027Y-95903352D01*
X268578011Y-95656047D01*
X267794842Y-95404248D01*
X267013941Y-95155145D01*
X266257732Y-94915927D01*
X265548635Y-94693786D01*
X264909072Y-94495912D01*
X264361466Y-94329493D01*
X263928239Y-94201720D01*
X263631812Y-94119784D01*
X263494607Y-94090874D01*
X263395711Y-94111124D01*
X263136254Y-94194518D01*
X262755564Y-94332068D01*
X262281046Y-94512544D01*
X261740112Y-94724712D01*
X261160169Y-94957341D01*
X260568625Y-95199200D01*
X259992890Y-95439056D01*
X259760895Y-95537786D01*
X259460373Y-95665679D01*
X258998481Y-95867836D01*
X258634623Y-96034296D01*
X258396209Y-96153826D01*
X258310647Y-96215196D01*
X251552722Y-96215196D01*
X252185381Y-96052446D01*
X252799885Y-95892934D01*
X253321871Y-95755695D01*
X253727590Y-95646747D01*
X253993293Y-95572105D01*
X254095230Y-95537786D01*
X254095210Y-95535846D01*
X254003813Y-95469838D01*
X253761139Y-95320932D01*
X253383150Y-95098291D01*
X252885808Y-94811076D01*
X252285075Y-94468452D01*
X251596912Y-94079579D01*
X250837283Y-93653622D01*
X250022149Y-93199741D01*
X245899082Y-90911744D01*
X241843458Y-91439022D01*
X241370025Y-91500719D01*
X240534171Y-91610384D01*
X239767858Y-91711863D01*
X239091424Y-91802404D01*
X238525208Y-91879261D01*
X238089549Y-91939683D01*
X237804786Y-91980922D01*
X237691256Y-92000228D01*
X236597689Y-92000228D01*
X236636825Y-91975189D01*
X237205345Y-91606357D01*
X237840233Y-91189957D01*
X238523001Y-90737810D01*
X238971480Y-90438755D01*
X239709612Y-89942371D01*
X240036405Y-89718812D01*
X247042774Y-89718812D01*
X247069421Y-89759126D01*
X247166792Y-89786276D01*
X247440613Y-89854209D01*
X247870767Y-89957425D01*
X248440045Y-90091900D01*
X249131239Y-90253611D01*
X249927141Y-90438534D01*
X250810542Y-90642644D01*
X251764234Y-90861919D01*
X252771008Y-91092334D01*
X253650705Y-91292788D01*
X254608637Y-91510067D01*
X255497204Y-91710557D01*
X256299421Y-91890480D01*
X256998304Y-92046057D01*
X257576870Y-92173510D01*
X258018133Y-92269059D01*
X258305111Y-92328926D01*
X258420818Y-92349332D01*
X258507538Y-92299454D01*
X258726563Y-92144990D01*
X259054428Y-91902673D01*
X259469294Y-91589539D01*
X259949326Y-91222618D01*
X260472686Y-90818945D01*
X261017536Y-90395552D01*
X261562039Y-89969473D01*
X262084359Y-89557740D01*
X262562657Y-89177386D01*
X262975097Y-88845446D01*
X263299841Y-88578950D01*
X263515052Y-88394934D01*
X263598894Y-88310429D01*
X263595706Y-88308244D01*
X263471004Y-88278764D01*
X263179363Y-88220911D01*
X262740343Y-88138115D01*
X262173505Y-88033807D01*
X261498411Y-87911419D01*
X260734621Y-87774380D01*
X259901696Y-87626121D01*
X259019198Y-87470074D01*
X258106688Y-87309668D01*
X257183726Y-87148336D01*
X256269873Y-86989506D01*
X255384690Y-86836611D01*
X254547739Y-86693081D01*
X253778581Y-86562347D01*
X253096775Y-86447839D01*
X252521885Y-86352988D01*
X252073469Y-86281225D01*
X251771090Y-86235981D01*
X251746966Y-86243244D01*
X251586032Y-86335805D01*
X251297614Y-86523677D01*
X250901764Y-86793090D01*
X250418537Y-87130279D01*
X249867987Y-87521476D01*
X249270168Y-87952913D01*
X248868704Y-88245474D01*
X248320963Y-88648336D01*
X248262923Y-88691024D01*
X247795073Y-89042338D01*
X247452143Y-89310096D01*
X247221124Y-89504975D01*
X247089005Y-89637654D01*
X247042774Y-89718812D01*
X240036405Y-89718812D01*
X240300088Y-89538427D01*
X240752982Y-89219583D01*
X241078371Y-88978494D01*
X241286332Y-88807818D01*
X241386940Y-88700213D01*
X241390270Y-88648336D01*
X241383177Y-88644426D01*
X241237545Y-88582669D01*
X240934387Y-88463624D01*
X240494412Y-88295122D01*
X239938327Y-88084994D01*
X239286841Y-87841073D01*
X238560662Y-87571190D01*
X237780498Y-87283175D01*
X234311027Y-86006514D01*
X232524335Y-86894817D01*
X232025132Y-87142212D01*
X231286024Y-87506382D01*
X230523499Y-87880082D01*
X229802929Y-88231296D01*
X229189684Y-88528009D01*
X227641725Y-89272898D01*
X226712113Y-88706112D01*
X225782502Y-88139326D01*
X221446162Y-88786493D01*
X220728928Y-88893680D01*
X219874771Y-89021725D01*
X219092010Y-89139502D01*
X218400587Y-89243988D01*
X217820447Y-89332157D01*
X217371531Y-89400988D01*
X217073784Y-89447457D01*
X216947150Y-89468541D01*
X216944513Y-89474140D01*
X216466221Y-89474140D01*
X216485978Y-89307492D01*
X216527871Y-89176355D01*
X216531549Y-89173904D01*
X216669372Y-89134315D01*
X216970367Y-89072609D01*
X217408889Y-88993257D01*
X217959291Y-88900733D01*
X218595929Y-88799510D01*
X219293157Y-88694060D01*
X219780781Y-88622074D01*
X220658383Y-88492330D01*
X221566339Y-88357901D01*
X222449286Y-88226991D01*
X223251863Y-88107804D01*
X223918705Y-88008547D01*
X225888360Y-87714862D01*
X226763348Y-88253032D01*
X227638336Y-88791201D01*
X230907597Y-87191608D01*
X230983948Y-87154273D01*
X231721053Y-86796103D01*
X232405853Y-86467312D01*
X233018213Y-86177281D01*
X233537996Y-85935390D01*
X233945065Y-85751020D01*
X234219286Y-85633552D01*
X234340521Y-85592365D01*
X234371694Y-85595319D01*
X234576646Y-85645332D01*
X234891352Y-85744340D01*
X235261512Y-85875644D01*
X236018841Y-86158572D01*
X235955005Y-85899438D01*
X235935544Y-85830832D01*
X235831306Y-85548464D01*
X235693402Y-85241481D01*
X235683842Y-85221993D01*
X235566458Y-84901338D01*
X235568723Y-84865935D01*
X235968927Y-84865935D01*
X239292829Y-85952618D01*
X240029696Y-86193342D01*
X240745722Y-86426890D01*
X241386295Y-86635452D01*
X241929792Y-86812005D01*
X242354590Y-86949525D01*
X242639066Y-87040988D01*
X242761598Y-87079371D01*
X242818585Y-87056447D01*
X243009779Y-86933382D01*
X243310639Y-86719654D01*
X243699165Y-86432499D01*
X244153360Y-86089155D01*
X244651225Y-85706857D01*
X245170763Y-85302843D01*
X245689974Y-84894348D01*
X246186862Y-84498610D01*
X246639427Y-84132864D01*
X247025672Y-83814347D01*
X247323598Y-83560296D01*
X247511207Y-83387946D01*
X247566501Y-83314535D01*
X247563836Y-83312807D01*
X247445509Y-83263517D01*
X247168515Y-83156124D01*
X246752920Y-82998181D01*
X246218790Y-82797242D01*
X245586192Y-82560858D01*
X244875191Y-82296583D01*
X244105853Y-82011969D01*
X243770621Y-81888406D01*
X242920098Y-81577139D01*
X242228260Y-81328259D01*
X241679072Y-81136611D01*
X241256500Y-80997041D01*
X240944511Y-80904393D01*
X240727069Y-80853512D01*
X240588141Y-80839243D01*
X240511693Y-80856431D01*
X240487260Y-80873946D01*
X240327835Y-81004658D01*
X240050813Y-81241646D01*
X239675534Y-81568027D01*
X239221340Y-81966920D01*
X238707572Y-82421442D01*
X238153570Y-82914713D01*
X235968927Y-84865935D01*
X235568723Y-84865935D01*
X235579376Y-84699389D01*
X235662772Y-84605776D01*
X235871582Y-84402395D01*
X236183569Y-84110768D01*
X236578231Y-83749084D01*
X237035064Y-83335528D01*
X237533566Y-82888289D01*
X238053233Y-82425554D01*
X238573562Y-81965509D01*
X239074051Y-81526342D01*
X239534195Y-81126240D01*
X239933492Y-80783390D01*
X240251438Y-80515980D01*
X240467531Y-80342197D01*
X240561268Y-80280228D01*
X240569934Y-80281406D01*
X240717128Y-80325832D01*
X241016764Y-80428080D01*
X241445039Y-80579347D01*
X241978144Y-80770829D01*
X242592275Y-80993724D01*
X243263625Y-81239227D01*
X243968389Y-81498535D01*
X244682759Y-81762844D01*
X245382932Y-82023352D01*
X246045100Y-82271254D01*
X246645457Y-82497748D01*
X247160198Y-82694029D01*
X247565517Y-82851295D01*
X247837607Y-82960742D01*
X247952662Y-83013566D01*
X248023754Y-83109047D01*
X248071782Y-83314535D01*
X248073385Y-83321393D01*
G37*
%TO.C,R5*%
D13*
X298772936Y-84265000D02*
X299227064Y-84265000D01*
X298772936Y-85735000D02*
X299227064Y-85735000D01*
%TD*%
M02*
