%TF.GenerationSoftware,KiCad,Pcbnew,10.0.1*%
%TF.CreationDate,2026-04-26T15:08:48+02:00*%
%TF.ProjectId,RubiksTimer,52756269-6b73-4546-996d-65722e6b6963,rev?*%
%TF.SameCoordinates,Original*%
%TF.FileFunction,Copper,L2,Bot*%
%TF.FilePolarity,Positive*%
%FSLAX46Y46*%
G04 Gerber Fmt 4.6, Leading zero omitted, Abs format (unit mm)*
G04 Created by KiCad (PCBNEW 10.0.1) date 2026-04-26 15:08:48*
%MOMM*%
%LPD*%
G01*
G04 APERTURE LIST*
G04 Aperture macros list*
%AMRoundRect*
0 Rectangle with rounded corners*
0 $1 Rounding radius*
0 $2 $3 $4 $5 $6 $7 $8 $9 X,Y pos of 4 corners*
0 Add a 4 corners polygon primitive as box body*
4,1,4,$2,$3,$4,$5,$6,$7,$8,$9,$2,$3,0*
0 Add four circle primitives for the rounded corners*
1,1,$1+$1,$2,$3*
1,1,$1+$1,$4,$5*
1,1,$1+$1,$6,$7*
1,1,$1+$1,$8,$9*
0 Add four rect primitives between the rounded corners*
20,1,$1+$1,$2,$3,$4,$5,0*
20,1,$1+$1,$4,$5,$6,$7,0*
20,1,$1+$1,$6,$7,$8,$9,0*
20,1,$1+$1,$8,$9,$2,$3,0*%
G04 Aperture macros list end*
%TA.AperFunction,ComponentPad*%
%ADD10R,1.700000X1.700000*%
%TD*%
%TA.AperFunction,ComponentPad*%
%ADD11C,1.700000*%
%TD*%
%TA.AperFunction,ComponentPad*%
%ADD12R,1.350000X1.350000*%
%TD*%
%TA.AperFunction,ComponentPad*%
%ADD13C,1.350000*%
%TD*%
%TA.AperFunction,ComponentPad*%
%ADD14RoundRect,0.250000X0.777817X0.000000X0.000000X0.777817X-0.777817X0.000000X0.000000X-0.777817X0*%
%TD*%
%TA.AperFunction,ComponentPad*%
%ADD15C,1.600000*%
%TD*%
%TA.AperFunction,ComponentPad*%
%ADD16C,2.000000*%
%TD*%
%TA.AperFunction,SMDPad,CuDef*%
%ADD17RoundRect,0.082000X-0.328000X-0.718000X0.328000X-0.718000X0.328000X0.718000X-0.328000X0.718000X0*%
%TD*%
%TA.AperFunction,ComponentPad*%
%ADD18C,5.600000*%
%TD*%
%TA.AperFunction,ComponentPad*%
%ADD19R,2.000000X2.000000*%
%TD*%
%TA.AperFunction,ComponentPad*%
%ADD20RoundRect,0.250000X-0.550000X-0.550000X0.550000X-0.550000X0.550000X0.550000X-0.550000X0.550000X0*%
%TD*%
%TA.AperFunction,ComponentPad*%
%ADD21C,2.200000*%
%TD*%
%TA.AperFunction,ComponentPad*%
%ADD22R,2.500000X2.500000*%
%TD*%
%TA.AperFunction,SMDPad,CuDef*%
%ADD23RoundRect,0.250000X-0.350000X-0.450000X0.350000X-0.450000X0.350000X0.450000X-0.350000X0.450000X0*%
%TD*%
%TA.AperFunction,ViaPad*%
%ADD24C,0.600000*%
%TD*%
%TA.AperFunction,ViaPad*%
%ADD25C,1.000000*%
%TD*%
%TA.AperFunction,Conductor*%
%ADD26C,0.200000*%
%TD*%
%TA.AperFunction,Conductor*%
%ADD27C,1.000000*%
%TD*%
%TA.AperFunction,Conductor*%
%ADD28C,0.500000*%
%TD*%
G04 APERTURE END LIST*
D10*
%TO.P,T1RX1,1,Pin_1_1*%
%TO.N,D14*%
X284420000Y-154500000D03*
D11*
%TO.P,T1RX1,2,Pin_2_2*%
%TO.N,3v3*%
X286960000Y-154500000D03*
%TO.P,T1RX1,3,Pin_3_3*%
%TO.N,GND*%
X289500000Y-154500000D03*
%TD*%
D12*
%TO.P,SW3,1,MH_1*%
%TO.N,GND*%
X228000000Y-169000000D03*
D13*
%TO.P,SW3,2,POS1_2*%
%TO.N,VIN*%
X226000000Y-169000000D03*
%TO.P,SW3,3,COM_3*%
%TO.N,Net-(SW3-COM)*%
X224000000Y-169000000D03*
%TO.P,SW3,4,POS2_4*%
%TO.N,unconnected-(SW3-POS2-Pad4)*%
X222000000Y-169000000D03*
%TO.P,SW3,5,MH_5*%
%TO.N,GND*%
X220000000Y-169000000D03*
%TD*%
D14*
%TO.P,10uf1,1*%
%TO.N,5V*%
X217707107Y-120051478D03*
D15*
%TO.P,10uf1,2*%
%TO.N,GND*%
X216292893Y-118637264D03*
%TD*%
D16*
%TO.P,3digit1,1,e_1*%
%TO.N,E*%
X262300000Y-97240000D03*
%TO.P,3digit1,2,d_2*%
%TO.N,D*%
X264840000Y-97240000D03*
%TO.P,3digit1,3,dp_3*%
%TO.N,DP*%
X267380000Y-97240000D03*
%TO.P,3digit1,4,c_4*%
%TO.N,C*%
X269920000Y-97240000D03*
%TO.P,3digit1,5,g_5*%
%TO.N,G*%
X272460000Y-97240000D03*
%TO.P,3digit1,6,dig4_6*%
%TO.N,unconnected-(3digit1-dig4-Pad6)*%
X275000000Y-97240000D03*
%TO.P,3digit1,7,b_7*%
%TO.N,B*%
X275000000Y-82000000D03*
%TO.P,3digit1,8,dig3_8*%
%TO.N,DIG6*%
X272460000Y-82000000D03*
%TO.P,3digit1,9,dig2_9*%
%TO.N,DIG5*%
X269920000Y-82000000D03*
%TO.P,3digit1,10,f_10*%
%TO.N,F*%
X267380000Y-82000000D03*
%TO.P,3digit1,11,a_11*%
%TO.N,A*%
X264840000Y-82000000D03*
%TO.P,3digit1,12,dig1_12*%
%TO.N,DIG4*%
X262300000Y-82000000D03*
%TD*%
D17*
%TO.P,D6,1,DOUT_1*%
%TO.N,Net-(D6-DOUT)*%
X297902500Y-132812500D03*
%TO.P,D6,2,VSS_2*%
%TO.N,VSS*%
X299402500Y-132812500D03*
%TO.P,D6,3,DIN_3*%
%TO.N,Net-(D5-DOUT)*%
X299402500Y-127612500D03*
%TO.P,D6,4,VDD_4*%
%TO.N,Net-(D1-VDD)*%
X297902500Y-127612500D03*
%TD*%
D18*
%TO.P,H9,1,1_1*%
%TO.N,GND*%
X199000000Y-75000000D03*
%TD*%
D19*
%TO.P,U1,1,3V3_1*%
%TO.N,3v3*%
X280700000Y-161040000D03*
D16*
%TO.P,U1,2,GND_2*%
%TO.N,GND*%
X280700000Y-158500000D03*
%TO.P,U1,3,D15_3*%
%TO.N,unconnected-(U1-D15-Pad3)*%
X280700000Y-155960000D03*
%TO.P,U1,4,D2_4*%
%TO.N,unconnected-(U1-D2-Pad4)*%
X280700000Y-153420000D03*
%TO.P,U1,5,D4_5*%
%TO.N,D4*%
X280700000Y-150880000D03*
%TO.P,U1,6,RX2_6*%
%TO.N,D16*%
X280700000Y-148340000D03*
%TO.P,U1,7,TX2_7*%
%TO.N,D17*%
X280700000Y-145800000D03*
%TO.P,U1,8,D5_8*%
%TO.N,D5*%
X280700000Y-143260000D03*
%TO.P,U1,9,D18_9*%
%TO.N,D18*%
X280700000Y-140720000D03*
%TO.P,U1,10,D19_10*%
%TO.N,unconnected-(U1-D19-Pad10)*%
X280700000Y-138180000D03*
%TO.P,U1,11,D21_11*%
%TO.N,unconnected-(U1-D21-Pad11)*%
X280700000Y-135640000D03*
%TO.P,U1,12,RX0_12*%
%TO.N,unconnected-(U1-RX0-Pad12)*%
X280700000Y-133100000D03*
%TO.P,U1,13,TX0_13*%
%TO.N,unconnected-(U1-TX0-Pad13)*%
X280700000Y-130560000D03*
%TO.P,U1,14,D22_14*%
%TO.N,unconnected-(U1-D22-Pad14)*%
X280700000Y-128020000D03*
%TO.P,U1,15,D23_15*%
%TO.N,D23*%
X280700000Y-125480000D03*
%TO.P,U1,16,EN_16*%
%TO.N,unconnected-(U1-EN-Pad16)*%
X255300000Y-125480000D03*
%TO.P,U1,17,VP_17*%
%TO.N,unconnected-(U1-VP-Pad17)*%
X255300000Y-128020000D03*
%TO.P,U1,18,VN_18*%
%TO.N,unconnected-(U1-VN-Pad18)*%
X255300000Y-130560000D03*
%TO.P,U1,19,D34_19*%
%TO.N,D34*%
X255300000Y-133100000D03*
%TO.P,U1,20,D35_20*%
%TO.N,unconnected-(U1-D35-Pad20)*%
X255300000Y-135640000D03*
%TO.P,U1,21,D32_21*%
%TO.N,unconnected-(U1-D32-Pad21)*%
X255300000Y-138180000D03*
%TO.P,U1,22,D33_22*%
%TO.N,unconnected-(U1-D33-Pad22)*%
X255300000Y-140720000D03*
%TO.P,U1,23,D25_23*%
%TO.N,unconnected-(U1-D25-Pad23)*%
X255300000Y-143260000D03*
%TO.P,U1,24,D26_24*%
%TO.N,unconnected-(U1-D26-Pad24)*%
X255300000Y-145800000D03*
%TO.P,U1,25,D27_25*%
%TO.N,D27*%
X255300000Y-148340000D03*
%TO.P,U1,26,D14_26*%
%TO.N,D14*%
X255300000Y-150880000D03*
%TO.P,U1,27,D12_27*%
%TO.N,unconnected-(U1-D12-Pad27)*%
X255300000Y-153420000D03*
%TO.P,U1,28,D13_28*%
%TO.N,unconnected-(U1-D13-Pad28)*%
X255300000Y-155960000D03*
%TO.P,U1,29,GND_29*%
%TO.N,GND*%
X255300000Y-158500000D03*
%TO.P,U1,30,VIN_30*%
%TO.N,VIN*%
X255300000Y-161040000D03*
%TD*%
D10*
%TO.P,LEDTX1,1,Pin_1_1*%
%TO.N,5V*%
X206040000Y-137500000D03*
D11*
%TO.P,LEDTX1,2,Pin_2_2*%
%TO.N,D4*%
X203500000Y-137500000D03*
%TO.P,LEDTX1,3,Pin_3_3*%
%TO.N,GND*%
X200960000Y-137500000D03*
%TD*%
D18*
%TO.P,H10,1,1_1*%
%TO.N,GND*%
X288000000Y-75000000D03*
%TD*%
D16*
%TO.P,4digit1,1,e_1*%
%TO.N,E*%
X218300000Y-97240000D03*
%TO.P,4digit1,2,d_2*%
%TO.N,D*%
X220840000Y-97240000D03*
%TO.P,4digit1,3,dp_3*%
%TO.N,DP*%
X223380000Y-97240000D03*
%TO.P,4digit1,4,c_4*%
%TO.N,C*%
X225920000Y-97240000D03*
%TO.P,4digit1,5,g_5*%
%TO.N,G*%
X228460000Y-97240000D03*
%TO.P,4digit1,6,dig4_6*%
%TO.N,DIG3*%
X231000000Y-97240000D03*
%TO.P,4digit1,7,b_7*%
%TO.N,B*%
X231000000Y-82000000D03*
%TO.P,4digit1,8,dig3_8*%
%TO.N,DIG2*%
X228460000Y-82000000D03*
%TO.P,4digit1,9,dig2_9*%
%TO.N,DIG1*%
X225920000Y-82000000D03*
%TO.P,4digit1,10,f_10*%
%TO.N,F*%
X223380000Y-82000000D03*
%TO.P,4digit1,11,a_11*%
%TO.N,A*%
X220840000Y-82000000D03*
%TO.P,4digit1,12,dig1_12*%
%TO.N,DIG0*%
X218300000Y-82000000D03*
%TD*%
D17*
%TO.P,D1,1,DOUT_1*%
%TO.N,Net-(D1-DOUT)*%
X297902500Y-92812500D03*
%TO.P,D1,2,VSS_2*%
%TO.N,VSS*%
X299402500Y-92812500D03*
%TO.P,D1,3,DIN_3*%
%TO.N,Net-(D1-DIN)*%
X299402500Y-87612500D03*
%TO.P,D1,4,VDD_4*%
%TO.N,Net-(D1-VDD)*%
X297902500Y-87612500D03*
%TD*%
%TO.P,D7,1,DOUT_1*%
%TO.N,Net-(D7-DOUT)*%
X297902500Y-149812500D03*
%TO.P,D7,2,VSS_2*%
%TO.N,VSS*%
X299402500Y-149812500D03*
%TO.P,D7,3,DIN_3*%
%TO.N,Net-(D6-DOUT)*%
X299402500Y-144612500D03*
%TO.P,D7,4,VDD_4*%
%TO.N,Net-(D1-VDD)*%
X297902500Y-144612500D03*
%TD*%
%TO.P,D8,1,DOUT_1*%
%TO.N,unconnected-(D8-DOUT-Pad1)*%
X297902500Y-157812500D03*
%TO.P,D8,2,VSS_2*%
%TO.N,VSS*%
X299402500Y-157812500D03*
%TO.P,D8,3,DIN_3*%
%TO.N,Net-(D7-DOUT)*%
X299402500Y-152612500D03*
%TO.P,D8,4,VDD_4*%
%TO.N,Net-(D1-VDD)*%
X297902500Y-152612500D03*
%TD*%
%TO.P,D5,1,DOUT_1*%
%TO.N,Net-(D5-DOUT)*%
X297902500Y-124812500D03*
%TO.P,D5,2,VSS_2*%
%TO.N,VSS*%
X299402500Y-124812500D03*
%TO.P,D5,3,DIN_3*%
%TO.N,LED*%
X299402500Y-119612500D03*
%TO.P,D5,4,VDD_4*%
%TO.N,Net-(D1-VDD)*%
X297902500Y-119612500D03*
%TD*%
D18*
%TO.P,H12,1,1_1*%
%TO.N,GND*%
X288000000Y-167000000D03*
%TD*%
D17*
%TO.P,D4,1,DOUT_1*%
%TO.N,LED*%
X297902500Y-116812500D03*
%TO.P,D4,2,VSS_2*%
%TO.N,VSS*%
X299402500Y-116812500D03*
%TO.P,D4,3,DIN_3*%
%TO.N,Net-(D3-DOUT)*%
X299402500Y-111612500D03*
%TO.P,D4,4,VDD_4*%
%TO.N,Net-(D1-VDD)*%
X297902500Y-111612500D03*
%TD*%
D18*
%TO.P,H14,1,1_1*%
%TO.N,VSS*%
X299000000Y-163000000D03*
%TD*%
D20*
%TO.P,220uf1,1*%
%TO.N,5V*%
X211817621Y-141000000D03*
D15*
%TO.P,220uf1,2*%
%TO.N,GND*%
X214317621Y-141000000D03*
%TD*%
D18*
%TO.P,H11,1,1_1*%
%TO.N,GND*%
X199000000Y-167000000D03*
%TD*%
D10*
%TO.P,T1TX1,1,Pin_1_1*%
%TO.N,Net-(T1TX1-Pin_1)*%
X243000000Y-50460000D03*
D11*
%TO.P,T1TX1,2,Pin_2_2*%
%TO.N,Net-(T1TX1-Pin_2)*%
X243000000Y-53000000D03*
%TO.P,T1TX1,3,Pin_3_3*%
%TO.N,Net-(T1TX1-Pin_3)*%
X243000000Y-55540000D03*
%TD*%
D10*
%TO.P,T2TX1,1,Pin_1_1*%
%TO.N,Net-(T2TX1-Pin_1)*%
X249000000Y-55540000D03*
D11*
%TO.P,T2TX1,2,Pin_2_2*%
%TO.N,Net-(T2TX1-Pin_2)*%
X249000000Y-53000000D03*
%TO.P,T2TX1,3,Pin_3_3*%
%TO.N,Net-(T2TX1-Pin_3)*%
X249000000Y-50460000D03*
%TD*%
D21*
%TO.P,SW1,1,1_1*%
%TO.N,D16*%
X238150000Y-119040000D03*
%TO.P,SW1,2,2_2*%
%TO.N,GND*%
X244500000Y-116500000D03*
%TD*%
D17*
%TO.P,D3,1,DOUT_1*%
%TO.N,Net-(D3-DOUT)*%
X297902500Y-108812500D03*
%TO.P,D3,2,VSS_2*%
%TO.N,VSS*%
X299402500Y-108812500D03*
%TO.P,D3,3,DIN_3*%
%TO.N,Net-(D2-DOUT)*%
X299402500Y-103612500D03*
%TO.P,D3,4,VDD_4*%
%TO.N,Net-(D1-VDD)*%
X297902500Y-103612500D03*
%TD*%
D15*
%TO.P,100nf1,1*%
%TO.N,GND*%
X213500000Y-111000000D03*
%TO.P,100nf1,2*%
%TO.N,5V*%
X213500000Y-113500000D03*
%TD*%
D17*
%TO.P,D2,1,DOUT_1*%
%TO.N,Net-(D2-DOUT)*%
X297902500Y-100812500D03*
%TO.P,D2,2,VSS_2*%
%TO.N,VSS*%
X299402500Y-100812500D03*
%TO.P,D2,3,DIN_3*%
%TO.N,Net-(D1-DOUT)*%
X299402500Y-95612500D03*
%TO.P,D2,4,VDD_4*%
%TO.N,Net-(D1-VDD)*%
X297902500Y-95612500D03*
%TD*%
D18*
%TO.P,H13,1,1_1*%
%TO.N,VSS*%
X299000000Y-75500000D03*
%TD*%
D10*
%TO.P,T2RX1,1,Pin_1_1*%
%TO.N,D27*%
X284460000Y-158500000D03*
D11*
%TO.P,T2RX1,2,Pin_2_2*%
%TO.N,3v3*%
X287000000Y-158500000D03*
%TO.P,T2RX1,3,Pin_3_3*%
%TO.N,GND*%
X289540000Y-158500000D03*
%TD*%
D22*
%TO.P,U5,1,OUT-_1*%
%TO.N,GND*%
X250400000Y-146000000D03*
%TO.P,U5,2,B-_2*%
%TO.N,Net-(Battery1-Pin_1)*%
X247400000Y-146000000D03*
%TO.P,U5,3,B+_3*%
%TO.N,B+*%
X239000000Y-146000000D03*
%TO.P,U5,4,OUT+_4*%
%TO.N,Net-(SW3-COM)*%
X236000000Y-146000000D03*
%TO.P,U5,5,IN+_5*%
%TO.N,unconnected-(U5-IN+-Pad5)*%
X236000000Y-169100000D03*
%TO.P,U5,6,IN-_6*%
%TO.N,unconnected-(U5-IN--Pad6)*%
X250400000Y-169100000D03*
%TD*%
D20*
%TO.P,U2,1,DIN_1*%
%TO.N,D23*%
X201380000Y-102420000D03*
D15*
%TO.P,U2,2,DIG_0_2*%
%TO.N,DIG0*%
X201380000Y-104960000D03*
%TO.P,U2,3,DIG_4_3*%
%TO.N,DIG4*%
X201380000Y-107500000D03*
%TO.P,U2,4,GND_4*%
%TO.N,GND*%
X201380000Y-110040000D03*
%TO.P,U2,5,DIG_6_5*%
%TO.N,DIG6*%
X201380000Y-112580000D03*
%TO.P,U2,6,DIG_2_6*%
%TO.N,DIG2*%
X201380000Y-115120000D03*
%TO.P,U2,7,DIG_3_7*%
%TO.N,DIG3*%
X201380000Y-117660000D03*
%TO.P,U2,8,DIG_7_8*%
%TO.N,DIG7*%
X201380000Y-120200000D03*
%TO.P,U2,9,GND_9*%
%TO.N,GND*%
X201380000Y-122740000D03*
%TO.P,U2,10,DIG_5_10*%
%TO.N,DIG5*%
X201380000Y-125280000D03*
%TO.P,U2,11,DIG_1_11*%
%TO.N,DIG1*%
X201380000Y-127820000D03*
%TO.P,U2,12,LOAD_12*%
%TO.N,D5*%
X201380000Y-130360000D03*
%TO.P,U2,13,CLK_13*%
%TO.N,D18*%
X209000000Y-130360000D03*
%TO.P,U2,14,SEG_A_14*%
%TO.N,A*%
X209000000Y-127820000D03*
%TO.P,U2,15,SEG_F_15*%
%TO.N,F*%
X209000000Y-125280000D03*
%TO.P,U2,16,SEG_B_16*%
%TO.N,B*%
X209000000Y-122740000D03*
%TO.P,U2,17,SEG_G_17*%
%TO.N,G*%
X209000000Y-120200000D03*
%TO.P,U2,18,ISET_18*%
%TO.N,Net-(U2-ISET)*%
X209000000Y-117660000D03*
%TO.P,U2,19,V+_19*%
%TO.N,5V*%
X209000000Y-115120000D03*
%TO.P,U2,20,SEG_C_20*%
%TO.N,C*%
X209000000Y-112580000D03*
%TO.P,U2,21,SEG_E_21*%
%TO.N,E*%
X209000000Y-110040000D03*
%TO.P,U2,22,SEG_DP_22*%
%TO.N,DP*%
X209000000Y-107500000D03*
%TO.P,U2,23,SEG_D_23*%
%TO.N,D*%
X209000000Y-104960000D03*
%TO.P,U2,24,DOUT_24*%
%TO.N,DOUT*%
X209000000Y-102420000D03*
%TD*%
D10*
%TO.P,Booster1,1,Pin_1_1*%
%TO.N,VIN*%
X220500000Y-162810000D03*
D11*
%TO.P,Booster1,2,Pin_2_2*%
%TO.N,GND*%
X220500000Y-160270000D03*
%TO.P,Booster1,3,Pin_3_3*%
X220500000Y-157730000D03*
%TO.P,Booster1,4,Pin_4_4*%
%TO.N,5V*%
X220500000Y-155190000D03*
%TD*%
D10*
%TO.P,Battery1,1,Pin_1_1*%
%TO.N,Net-(Battery1-Pin_1)*%
X244475000Y-142550000D03*
D11*
%TO.P,Battery1,2,Pin_2_2*%
%TO.N,B+*%
X241935000Y-142550000D03*
%TD*%
D21*
%TO.P,SW2,1,1_1*%
%TO.N,D17*%
X223500000Y-139000000D03*
%TO.P,SW2,2,2_2*%
%TO.N,GND*%
X229850000Y-136460000D03*
%TD*%
D10*
%TO.P,LEDRX1,1,Pin_1_1*%
%TO.N,Net-(D1-VDD)*%
X296460000Y-82000000D03*
D11*
%TO.P,LEDRX1,2,Pin_2_2*%
%TO.N,Net-(LEDRX1-Pin_2)*%
X299000000Y-82000000D03*
%TO.P,LEDRX1,3,Pin_3_3*%
%TO.N,VSS*%
X301540000Y-82000000D03*
%TD*%
D23*
%TO.P,R5,1*%
%TO.N,Net-(LEDRX1-Pin_2)*%
X298000000Y-85000000D03*
%TO.P,R5,2*%
%TO.N,Net-(D1-DIN)*%
X300000000Y-85000000D03*
%TD*%
D24*
%TO.N,3v3*%
X288000000Y-139500000D03*
D25*
%TO.N,GND*%
X198040000Y-110040000D03*
D24*
%TO.N,DIG6*%
X217000000Y-116000000D03*
%TO.N,VSS*%
X299402500Y-116812500D03*
X299402500Y-132812500D03*
X299402500Y-124812500D03*
X299402500Y-92812500D03*
X299402500Y-100812500D03*
X299402500Y-149812500D03*
X299402500Y-108812500D03*
%TO.N,D27*%
X270000000Y-155500000D03*
%TD*%
%TO.N,3v3*%
D26*
X288000000Y-139500000D02*
X288000000Y-153460000D01*
X288000000Y-153460000D02*
X286960000Y-154500000D01*
%TO.N,GND*%
D27*
X219200000Y-115730157D02*
X216292893Y-118637264D01*
X201380000Y-110040000D02*
X198040000Y-110040000D01*
X219200000Y-115072787D02*
X219200000Y-115730157D01*
X219200000Y-115072787D02*
X215377213Y-111250000D01*
X215377213Y-111250000D02*
X213500000Y-111250000D01*
%TO.N,VIN*%
X226000000Y-168310000D02*
X220500000Y-162810000D01*
X226000000Y-169000000D02*
X226000000Y-168310000D01*
%TO.N,5V*%
X215324269Y-109500000D02*
X212878679Y-109500000D01*
X212000000Y-110378679D02*
X212000000Y-112000000D01*
X217707107Y-120051478D02*
X220400000Y-117358585D01*
X220400000Y-117358585D02*
X220400000Y-114575731D01*
X212000000Y-112000000D02*
X212000000Y-112120000D01*
X212000000Y-112120000D02*
X209000000Y-115120000D01*
X212000000Y-112000000D02*
X213500000Y-113500000D01*
X212878679Y-109500000D02*
X212000000Y-110378679D01*
X220400000Y-114575731D02*
X215324269Y-109500000D01*
%TO.N,E*%
D26*
X218300000Y-100740000D02*
X209000000Y-110040000D01*
X218300000Y-97240000D02*
X218300000Y-100740000D01*
%TO.N,DP*%
X223380000Y-97240000D02*
X225080000Y-95540000D01*
X275538478Y-98540000D02*
X268680000Y-98540000D01*
X276300000Y-97778478D02*
X275538478Y-98540000D01*
X276300000Y-96701522D02*
X276300000Y-97778478D01*
X225080000Y-95540000D02*
X275138478Y-95540000D01*
X275138478Y-95540000D02*
X276300000Y-96701522D01*
X268680000Y-98540000D02*
X267380000Y-97240000D01*
%TO.N,C*%
X268620000Y-95940000D02*
X227220000Y-95940000D01*
X227220000Y-95940000D02*
X225920000Y-97240000D01*
X269920000Y-97240000D02*
X268620000Y-95940000D01*
%TO.N,DIG6*%
X200280000Y-113680000D02*
X200280000Y-118115635D01*
X201380000Y-112580000D02*
X200280000Y-113680000D01*
X214240000Y-118760000D02*
X217000000Y-116000000D01*
X200280000Y-118115635D02*
X200924365Y-118760000D01*
X200924365Y-118760000D02*
X214240000Y-118760000D01*
%TO.N,F*%
X223380000Y-82000000D02*
X224680000Y-80700000D01*
X266080000Y-80700000D02*
X267380000Y-82000000D01*
X224680000Y-80700000D02*
X266080000Y-80700000D01*
%TO.N,A*%
X275138478Y-80300000D02*
X276300000Y-81461522D01*
X275538478Y-83300000D02*
X266140000Y-83300000D01*
X276300000Y-81461522D02*
X276300000Y-82538478D01*
X220840000Y-82000000D02*
X222540000Y-80300000D01*
X266140000Y-83300000D02*
X264840000Y-82000000D01*
X276300000Y-82538478D02*
X275538478Y-83300000D01*
X222540000Y-80300000D02*
X275138478Y-80300000D01*
%TO.N,Net-(D6-DOUT)*%
X299402500Y-135112500D02*
X299402500Y-144612500D01*
X297902500Y-133612500D02*
X299402500Y-135112500D01*
X297902500Y-132812500D02*
X297902500Y-133612500D01*
%TO.N,VSS*%
X299402500Y-157812500D02*
X299402500Y-162597500D01*
X299402500Y-162597500D02*
X299000000Y-163000000D01*
%TO.N,Net-(D5-DOUT)*%
X299402500Y-127112500D02*
X299402500Y-127612500D01*
X297902500Y-124812500D02*
X297902500Y-125612500D01*
X297902500Y-125612500D02*
X299402500Y-127112500D01*
%TO.N,Net-(D1-VDD)*%
D28*
X296000000Y-109710000D02*
X296000000Y-101710000D01*
X296000000Y-117710000D02*
X296000000Y-109710000D01*
X296000000Y-125710000D02*
X296000000Y-117710000D01*
X297902500Y-103612500D02*
X296000000Y-101710000D01*
X297902500Y-119612500D02*
X296000000Y-117710000D01*
X296000000Y-142710000D02*
X296000000Y-125710000D01*
X296460000Y-86170000D02*
X297902500Y-87612500D01*
X296000000Y-150710000D02*
X296000000Y-142710000D01*
X296460000Y-82000000D02*
X296460000Y-86170000D01*
X297902500Y-111612500D02*
X296000000Y-109710000D01*
X296000000Y-93710000D02*
X296000000Y-86630000D01*
X296000000Y-101710000D02*
X296000000Y-93710000D01*
X297902500Y-152612500D02*
X296000000Y-150710000D01*
X297902500Y-95612500D02*
X296000000Y-93710000D01*
X297902500Y-144612500D02*
X296000000Y-142710000D01*
X296000000Y-86630000D02*
X296460000Y-86170000D01*
X297902500Y-127612500D02*
X296000000Y-125710000D01*
%TO.N,D4*%
D26*
X202760000Y-129260000D02*
X203500000Y-130000000D01*
X199810000Y-130374365D02*
X200924365Y-129260000D01*
X204834315Y-153900000D02*
X225774314Y-153900000D01*
X203500000Y-137500000D02*
X203500000Y-130000000D01*
X273645686Y-150880000D02*
X280700000Y-150880000D01*
X261385686Y-163140000D02*
X273645686Y-150880000D01*
X199810000Y-148875685D02*
X204834315Y-153900000D01*
X225774314Y-153900000D02*
X235014315Y-163140000D01*
X235014315Y-163140000D02*
X261385686Y-163140000D01*
X199810000Y-130500000D02*
X199810000Y-148875685D01*
X199810000Y-130500000D02*
X199810000Y-130374365D01*
X200924365Y-129260000D02*
X202760000Y-129260000D01*
%TO.N,D5*%
X202179999Y-144087651D02*
X201419999Y-144087651D01*
X203367939Y-151528528D02*
X203735633Y-151160831D01*
X202179999Y-143487651D02*
X202939999Y-143487651D01*
X201419999Y-143487651D02*
X202179999Y-143487651D01*
X203179999Y-143727651D02*
X203179999Y-143847651D01*
X235180000Y-162740000D02*
X261220000Y-162740000D01*
X203179999Y-147327651D02*
X203179999Y-147447651D01*
X202939999Y-141687651D02*
X202179999Y-141687651D01*
X203792201Y-152292202D02*
X203877055Y-152377055D01*
X202939999Y-144087651D02*
X202179999Y-144087651D01*
X201419999Y-145887651D02*
X202179999Y-145887651D01*
X203179999Y-140127651D02*
X203179999Y-140247651D01*
X202179999Y-146487651D02*
X201419999Y-146487651D01*
X201419999Y-142287651D02*
X202179999Y-142287651D01*
X208050000Y-153500000D02*
X209029413Y-153500000D01*
X202179999Y-142887651D02*
X201419999Y-142887651D01*
X202939999Y-145287651D02*
X202179999Y-145287651D01*
X201179999Y-149127651D02*
X201179999Y-149247651D01*
X202939999Y-142887651D02*
X202179999Y-142887651D01*
X201939999Y-148887651D02*
X201419999Y-148887651D01*
X201419999Y-141087651D02*
X202179999Y-141087651D01*
X203179999Y-142527651D02*
X203179999Y-142647651D01*
X201179999Y-147927651D02*
X201179999Y-148047651D01*
X202419999Y-140487651D02*
X202179999Y-140487651D01*
X202179999Y-145287651D02*
X201419999Y-145287651D01*
X203179999Y-144927651D02*
X203179999Y-145047651D01*
X204640729Y-153140730D02*
X204725583Y-153225583D01*
X201419999Y-148287651D02*
X202179999Y-148287651D01*
X202179999Y-142287651D02*
X202939999Y-142287651D01*
X202179999Y-149727651D02*
X202179999Y-149847651D01*
X202179999Y-148287651D02*
X202939999Y-148287651D01*
X206130000Y-152500000D02*
X206250000Y-152500000D01*
X206730000Y-153500000D02*
X206850000Y-153500000D01*
X201419999Y-144687651D02*
X202179999Y-144687651D01*
X201179999Y-143127651D02*
X201179999Y-143247651D01*
X207330000Y-152500000D02*
X207450000Y-152500000D01*
X203179999Y-141327651D02*
X203179999Y-141447651D01*
X202179999Y-147687651D02*
X201419999Y-147687651D01*
X202939999Y-146487651D02*
X202179999Y-146487651D01*
X204725583Y-153225583D02*
X205000000Y-153500000D01*
X204159897Y-151585096D02*
X203792200Y-151952790D01*
X209029413Y-153500000D02*
X225940000Y-153500000D01*
X202179999Y-149847651D02*
X202179999Y-150679999D01*
X202179999Y-148887651D02*
X201939999Y-148887651D01*
X202939999Y-148887651D02*
X202179999Y-148887651D01*
X201179999Y-145527651D02*
X201179999Y-145647651D01*
X261220000Y-162740000D02*
X280700000Y-143260000D01*
X202939999Y-147687651D02*
X202179999Y-147687651D01*
X202419999Y-139887651D02*
X202939999Y-139887651D01*
X203179999Y-148527651D02*
X203179999Y-148647651D01*
X206490000Y-152740000D02*
X206490000Y-153260000D01*
X202179999Y-141687651D02*
X201419999Y-141687651D01*
X204075045Y-151160832D02*
X204159897Y-151245684D01*
X205890000Y-153260000D02*
X205890000Y-152740000D01*
X201179999Y-140727651D02*
X201179999Y-140847651D01*
X204216467Y-152377056D02*
X204584161Y-152009359D01*
X205000000Y-153500000D02*
X205650000Y-153500000D01*
X207090000Y-153260000D02*
X207090000Y-152740000D01*
X202519411Y-150680000D02*
X202887105Y-150312303D01*
X204923573Y-152009360D02*
X205008425Y-152094212D01*
X202179999Y-141087651D02*
X202939999Y-141087651D01*
X202179999Y-147087651D02*
X202939999Y-147087651D01*
X203311369Y-150736568D02*
X202943672Y-151104262D01*
X202179999Y-140487651D02*
X201419999Y-140487651D01*
X201179999Y-141927651D02*
X201179999Y-142047651D01*
X201419999Y-147087651D02*
X202179999Y-147087651D01*
X225940000Y-153500000D02*
X235180000Y-162740000D01*
X203179999Y-146127651D02*
X203179999Y-146247651D01*
X207930000Y-153500000D02*
X208050000Y-153500000D01*
X202179999Y-145887651D02*
X202939999Y-145887651D01*
X205008425Y-152433624D02*
X204640728Y-152801318D01*
X207690000Y-152740000D02*
X207690000Y-153260000D01*
X202179999Y-144687651D02*
X202939999Y-144687651D01*
X202179999Y-131159999D02*
X202179999Y-139647651D01*
X202939999Y-140487651D02*
X202419999Y-140487651D01*
X201179999Y-146727651D02*
X201179999Y-146847651D01*
X203226517Y-150312304D02*
X203311369Y-150397156D01*
X201419999Y-149487651D02*
X201939999Y-149487651D01*
X201380000Y-130360000D02*
X202179999Y-131159999D01*
X202943673Y-151443674D02*
X203028527Y-151528527D01*
X201179999Y-144327651D02*
X201179999Y-144447651D01*
X203311369Y-150397156D02*
G75*
G02*
X203311407Y-150736606I-169669J-169744D01*
G01*
X201179999Y-142047651D02*
G75*
G03*
X201419999Y-142287701I240001J-49D01*
G01*
X201179999Y-143247651D02*
G75*
G03*
X201419999Y-143487701I240001J-49D01*
G01*
X207690000Y-153260000D02*
G75*
G03*
X207930000Y-153500000I240000J0D01*
G01*
X201419999Y-144087651D02*
G75*
G03*
X201180051Y-144327651I1J-239949D01*
G01*
X206850000Y-153500000D02*
G75*
G03*
X207090000Y-153260000I0J240000D01*
G01*
X204159897Y-151245684D02*
G75*
G02*
X204159907Y-151585106I-169697J-169716D01*
G01*
X203179999Y-146247651D02*
G75*
G02*
X202939999Y-146487699I-239999J-49D01*
G01*
X203877055Y-152377055D02*
G75*
G03*
X204216505Y-152377095I169745J169755D01*
G01*
X201419999Y-148887651D02*
G75*
G03*
X201180051Y-149127651I1J-239949D01*
G01*
X204640728Y-152801318D02*
G75*
G03*
X204640752Y-153140706I169672J-169682D01*
G01*
X201179999Y-144447651D02*
G75*
G03*
X201419999Y-144687701I240001J-49D01*
G01*
X204584161Y-152009359D02*
G75*
G02*
X204923606Y-152009326I169739J-169741D01*
G01*
X202939999Y-147087651D02*
G75*
G02*
X203179949Y-147327651I1J-239949D01*
G01*
X203028527Y-151528527D02*
G75*
G03*
X203367906Y-151528495I169673J169727D01*
G01*
X203179999Y-145047651D02*
G75*
G02*
X202939999Y-145287699I-239999J-49D01*
G01*
X202939999Y-145887651D02*
G75*
G02*
X203179949Y-146127651I1J-239949D01*
G01*
X203179999Y-141447651D02*
G75*
G02*
X202939999Y-141687699I-239999J-49D01*
G01*
X205008425Y-152094212D02*
G75*
G02*
X205008407Y-152433606I-169725J-169688D01*
G01*
X202943672Y-151104262D02*
G75*
G03*
X202943640Y-151443706I169728J-169738D01*
G01*
X203179999Y-142647651D02*
G75*
G02*
X202939999Y-142887699I-239999J-49D01*
G01*
X207090000Y-152740000D02*
G75*
G02*
X207330000Y-152500000I240000J0D01*
G01*
X202939999Y-141087651D02*
G75*
G02*
X203179949Y-141327651I1J-239949D01*
G01*
X205890000Y-152740000D02*
G75*
G02*
X206130000Y-152500000I240000J0D01*
G01*
X201179999Y-146847651D02*
G75*
G03*
X201419999Y-147087701I240001J-49D01*
G01*
X202179999Y-139647651D02*
G75*
G03*
X202419999Y-139887701I240001J-49D01*
G01*
X203179999Y-147447651D02*
G75*
G02*
X202939999Y-147687699I-239999J-49D01*
G01*
X203179999Y-148647651D02*
G75*
G02*
X202939999Y-148887699I-239999J-49D01*
G01*
X201179999Y-148047651D02*
G75*
G03*
X201419999Y-148287701I240001J-49D01*
G01*
X202939999Y-142287651D02*
G75*
G02*
X203179949Y-142527651I1J-239949D01*
G01*
X203179999Y-143847651D02*
G75*
G02*
X202939999Y-144087699I-239999J-49D01*
G01*
X201419999Y-146487651D02*
G75*
G03*
X201180051Y-146727651I1J-239949D01*
G01*
X201179999Y-140847651D02*
G75*
G03*
X201419999Y-141087701I240001J-49D01*
G01*
X202939999Y-144687651D02*
G75*
G02*
X203179949Y-144927651I1J-239949D01*
G01*
X203735633Y-151160831D02*
G75*
G02*
X204075006Y-151160870I169667J-169669D01*
G01*
X203792200Y-151952790D02*
G75*
G03*
X203792196Y-152292207I169700J-169710D01*
G01*
X201419999Y-147687651D02*
G75*
G03*
X201180051Y-147927651I1J-239949D01*
G01*
X202939999Y-143487651D02*
G75*
G02*
X203179949Y-143727651I1J-239949D01*
G01*
X201179999Y-149247651D02*
G75*
G03*
X201419999Y-149487701I240001J-49D01*
G01*
X201939999Y-149487651D02*
G75*
G02*
X202179949Y-149727651I1J-239949D01*
G01*
X202179999Y-150679999D02*
G75*
G03*
X202519405Y-150679995I169701J169699D01*
G01*
X201179999Y-145647651D02*
G75*
G03*
X201419999Y-145887701I240001J-49D01*
G01*
X201419999Y-140487651D02*
G75*
G03*
X201180051Y-140727651I1J-239949D01*
G01*
X203179999Y-140247651D02*
G75*
G02*
X202939999Y-140487699I-239999J-49D01*
G01*
X207450000Y-152500000D02*
G75*
G02*
X207690000Y-152740000I0J-240000D01*
G01*
X206250000Y-152500000D02*
G75*
G02*
X206490000Y-152740000I0J-240000D01*
G01*
X206490000Y-153260000D02*
G75*
G03*
X206730000Y-153500000I240000J0D01*
G01*
X201419999Y-145287651D02*
G75*
G03*
X201180051Y-145527651I1J-239949D01*
G01*
X201419999Y-141687651D02*
G75*
G03*
X201180051Y-141927651I1J-239949D01*
G01*
X202887105Y-150312303D02*
G75*
G02*
X203226506Y-150312314I169695J-169697D01*
G01*
X205650000Y-153500000D02*
G75*
G03*
X205890000Y-153260000I0J240000D01*
G01*
X202939999Y-148287651D02*
G75*
G02*
X203179949Y-148527651I1J-239949D01*
G01*
X202939999Y-139887651D02*
G75*
G02*
X203179949Y-140127651I1J-239949D01*
G01*
X201419999Y-142887651D02*
G75*
G03*
X201180051Y-143127651I1J-239949D01*
G01*
%TO.N,D18*%
X209000000Y-136069413D02*
X209760000Y-136069413D01*
X209000000Y-142669413D02*
X208240000Y-142669413D01*
X208240000Y-142069413D02*
X209000000Y-142069413D01*
X208000000Y-133309413D02*
X208000000Y-133429413D01*
X209000000Y-145669413D02*
X209240000Y-145669413D01*
X209000000Y-134269413D02*
X208240000Y-134269413D01*
X208240000Y-136069413D02*
X209000000Y-136069413D01*
X208000000Y-138109413D02*
X208000000Y-138229413D01*
X209000000Y-141469413D02*
X208240000Y-141469413D01*
X208000000Y-132109413D02*
X208000000Y-132229413D01*
X210000000Y-137509413D02*
X210000000Y-137629413D01*
X235345686Y-162340000D02*
X259080000Y-162340000D01*
X208240000Y-133669413D02*
X209000000Y-133669413D01*
X210000000Y-141109413D02*
X210000000Y-141229413D01*
X209000000Y-144469413D02*
X209760000Y-144469413D01*
X209000000Y-147118751D02*
X209000000Y-148100000D01*
X208240000Y-143269413D02*
X209000000Y-143269413D01*
X209240000Y-131269413D02*
X209760000Y-131269413D01*
X208000000Y-134509413D02*
X208000000Y-134629413D01*
X209760000Y-134269413D02*
X209000000Y-134269413D01*
X210000000Y-135109413D02*
X210000000Y-135229413D01*
X210000000Y-143509413D02*
X210000000Y-143629413D01*
X208000000Y-140509413D02*
X208000000Y-140629413D01*
X208240000Y-137269413D02*
X209000000Y-137269413D01*
X208240000Y-145669413D02*
X209000000Y-145669413D01*
X209000000Y-140269413D02*
X208240000Y-140269413D01*
X209760000Y-139069413D02*
X209000000Y-139069413D01*
X210000000Y-144709413D02*
X210000000Y-144829413D01*
X208240000Y-132469413D02*
X209000000Y-132469413D01*
X210000000Y-142309413D02*
X210000000Y-142429413D01*
X210000000Y-133909413D02*
X210000000Y-134029413D01*
X210000000Y-138709413D02*
X210000000Y-138829413D01*
X209760000Y-140269413D02*
X209000000Y-140269413D01*
X208240000Y-140869413D02*
X209000000Y-140869413D01*
X209760000Y-146269413D02*
X209240000Y-146269413D01*
X209000000Y-133669413D02*
X209760000Y-133669413D01*
X208000000Y-144109413D02*
X208000000Y-144229413D01*
X210000000Y-139909413D02*
X210000000Y-140029413D01*
X209000000Y-138469413D02*
X209760000Y-138469413D01*
X209760000Y-131869413D02*
X209240000Y-131869413D01*
X209000000Y-143269413D02*
X209760000Y-143269413D01*
X209000000Y-143869413D02*
X208240000Y-143869413D01*
X209760000Y-141469413D02*
X209000000Y-141469413D01*
X209000000Y-133069413D02*
X208240000Y-133069413D01*
X209000000Y-139669413D02*
X209760000Y-139669413D01*
X209760000Y-133069413D02*
X209000000Y-133069413D01*
X208240000Y-138469413D02*
X209000000Y-138469413D01*
X208240000Y-134869413D02*
X209000000Y-134869413D01*
X208000000Y-142909413D02*
X208000000Y-143029413D01*
X209000000Y-140869413D02*
X209760000Y-140869413D01*
X209000000Y-134869413D02*
X209760000Y-134869413D01*
X210000000Y-136309413D02*
X210000000Y-136429413D01*
X208240000Y-144469413D02*
X209000000Y-144469413D01*
X209760000Y-135469413D02*
X209000000Y-135469413D01*
X210000000Y-145909413D02*
X210000000Y-146029413D01*
X208000000Y-141709413D02*
X208000000Y-141829413D01*
X209760000Y-137869413D02*
X209000000Y-137869413D01*
X209760000Y-143869413D02*
X209000000Y-143869413D01*
X209000000Y-146629413D02*
X209000000Y-147118751D01*
X208000000Y-139309413D02*
X208000000Y-139429413D01*
X209000000Y-136669413D02*
X208240000Y-136669413D01*
X208000000Y-136909413D02*
X208000000Y-137029413D01*
X208240000Y-139669413D02*
X209000000Y-139669413D01*
X226105685Y-153100000D02*
X235345686Y-162340000D01*
X209760000Y-142669413D02*
X209000000Y-142669413D01*
X209760000Y-145069413D02*
X209000000Y-145069413D01*
X209240000Y-145669413D02*
X209760000Y-145669413D01*
X209000000Y-132469413D02*
X209760000Y-132469413D01*
X209240000Y-131869413D02*
X209000000Y-131869413D01*
X209000000Y-142069413D02*
X209760000Y-142069413D01*
X209000000Y-146509413D02*
X209000000Y-146629413D01*
X259080000Y-162340000D02*
X280700000Y-140720000D01*
X214000000Y-153100000D02*
X226105685Y-153100000D01*
X209000000Y-137269413D02*
X209760000Y-137269413D01*
X209760000Y-136669413D02*
X209000000Y-136669413D01*
X209000000Y-139069413D02*
X208240000Y-139069413D01*
X209000000Y-135469413D02*
X208240000Y-135469413D01*
X209000000Y-145069413D02*
X208240000Y-145069413D01*
X208000000Y-135709413D02*
X208000000Y-135829413D01*
X209000000Y-148100000D02*
X214000000Y-153100000D01*
X209000000Y-131869413D02*
X208240000Y-131869413D01*
X209000000Y-137869413D02*
X208240000Y-137869413D01*
X210000000Y-131509413D02*
X210000000Y-131629413D01*
X208000000Y-145309413D02*
X208000000Y-145429413D01*
X210000000Y-132709413D02*
X210000000Y-132829413D01*
X209760000Y-144469413D02*
G75*
G02*
X209999987Y-144709413I0J-239987D01*
G01*
X209760000Y-133669413D02*
G75*
G02*
X209999987Y-133909413I0J-239987D01*
G01*
X210000000Y-146029413D02*
G75*
G02*
X209760000Y-146269400I-240000J13D01*
G01*
X208240000Y-142669413D02*
G75*
G03*
X208000013Y-142909413I0J-239987D01*
G01*
X208000000Y-138229413D02*
G75*
G03*
X208240000Y-138469400I240000J13D01*
G01*
X210000000Y-135229413D02*
G75*
G02*
X209760000Y-135469400I-240000J13D01*
G01*
X210000000Y-140029413D02*
G75*
G02*
X209760000Y-140269400I-240000J13D01*
G01*
X208240000Y-140269413D02*
G75*
G03*
X208000013Y-140509413I0J-239987D01*
G01*
X210000000Y-136429413D02*
G75*
G02*
X209760000Y-136669400I-240000J13D01*
G01*
X210000000Y-144829413D02*
G75*
G02*
X209760000Y-145069400I-240000J13D01*
G01*
X209760000Y-145669413D02*
G75*
G02*
X209999987Y-145909413I0J-239987D01*
G01*
X210000000Y-134029413D02*
G75*
G02*
X209760000Y-134269400I-240000J13D01*
G01*
X209760000Y-134869413D02*
G75*
G02*
X209999987Y-135109413I0J-239987D01*
G01*
X209760000Y-138469413D02*
G75*
G02*
X209999987Y-138709413I0J-239987D01*
G01*
X209760000Y-132469413D02*
G75*
G02*
X209999987Y-132709413I0J-239987D01*
G01*
X210000000Y-132829413D02*
G75*
G02*
X209760000Y-133069400I-240000J13D01*
G01*
X208240000Y-136669413D02*
G75*
G03*
X208000013Y-136909413I0J-239987D01*
G01*
X210000000Y-141229413D02*
G75*
G02*
X209760000Y-141469400I-240000J13D01*
G01*
X209760000Y-136069413D02*
G75*
G02*
X209999987Y-136309413I0J-239987D01*
G01*
X209000000Y-131029413D02*
G75*
G03*
X209240000Y-131269400I240000J13D01*
G01*
X208240000Y-137869413D02*
G75*
G03*
X208000013Y-138109413I0J-239987D01*
G01*
X208000000Y-141829413D02*
G75*
G03*
X208240000Y-142069400I240000J13D01*
G01*
X209760000Y-142069413D02*
G75*
G02*
X209999987Y-142309413I0J-239987D01*
G01*
X208000000Y-133429413D02*
G75*
G03*
X208240000Y-133669400I240000J13D01*
G01*
X208240000Y-141469413D02*
G75*
G03*
X208000013Y-141709413I0J-239987D01*
G01*
X208240000Y-139069413D02*
G75*
G03*
X208000013Y-139309413I0J-239987D01*
G01*
X209760000Y-139669413D02*
G75*
G02*
X209999987Y-139909413I0J-239987D01*
G01*
X210000000Y-138829413D02*
G75*
G02*
X209760000Y-139069400I-240000J13D01*
G01*
X208240000Y-135469413D02*
G75*
G03*
X208000013Y-135709413I0J-239987D01*
G01*
X208240000Y-133069413D02*
G75*
G03*
X208000013Y-133309413I0J-239987D01*
G01*
X208240000Y-145069413D02*
G75*
G03*
X208000013Y-145309413I0J-239987D01*
G01*
X209240000Y-146269413D02*
G75*
G03*
X209000013Y-146509413I0J-239987D01*
G01*
X210000000Y-142429413D02*
G75*
G02*
X209760000Y-142669400I-240000J13D01*
G01*
X208000000Y-139429413D02*
G75*
G03*
X208240000Y-139669400I240000J13D01*
G01*
X208240000Y-143869413D02*
G75*
G03*
X208000013Y-144109413I0J-239987D01*
G01*
X208000000Y-143029413D02*
G75*
G03*
X208240000Y-143269400I240000J13D01*
G01*
X210000000Y-143629413D02*
G75*
G02*
X209760000Y-143869400I-240000J13D01*
G01*
X209760000Y-140869413D02*
G75*
G02*
X209999987Y-141109413I0J-239987D01*
G01*
X208240000Y-134269413D02*
G75*
G03*
X208000013Y-134509413I0J-239987D01*
G01*
X209760000Y-131269413D02*
G75*
G02*
X209999987Y-131509413I0J-239987D01*
G01*
X208240000Y-131869413D02*
G75*
G03*
X208000013Y-132109413I0J-239987D01*
G01*
X209760000Y-137269413D02*
G75*
G02*
X209999987Y-137509413I0J-239987D01*
G01*
X208000000Y-135829413D02*
G75*
G03*
X208240000Y-136069400I240000J13D01*
G01*
X208000000Y-140629413D02*
G75*
G03*
X208240000Y-140869400I240000J13D01*
G01*
X209760000Y-143269413D02*
G75*
G02*
X209999987Y-143509413I0J-239987D01*
G01*
X208000000Y-144229413D02*
G75*
G03*
X208240000Y-144469400I240000J13D01*
G01*
X210000000Y-137629413D02*
G75*
G02*
X209760000Y-137869400I-240000J13D01*
G01*
X208000000Y-134629413D02*
G75*
G03*
X208240000Y-134869400I240000J13D01*
G01*
X210000000Y-131629413D02*
G75*
G02*
X209760000Y-131869400I-240000J13D01*
G01*
X208000000Y-132229413D02*
G75*
G03*
X208240000Y-132469400I240000J13D01*
G01*
X208000000Y-137029413D02*
G75*
G03*
X208240000Y-137269400I240000J13D01*
G01*
X208000000Y-145429413D02*
G75*
G03*
X208240000Y-145669400I240000J13D01*
G01*
%TO.N,D23*%
X287367695Y-120226520D02*
X287282844Y-120311372D01*
X287000000Y-119519412D02*
X287367696Y-119887108D01*
X286575737Y-119943677D02*
X286406030Y-119773970D01*
X285387796Y-120452792D02*
X285020100Y-120085096D01*
X285981765Y-120198233D02*
X285981766Y-120198234D01*
X285529217Y-119236568D02*
X285444364Y-119321420D01*
X286519167Y-121075048D02*
X286434316Y-121159900D01*
X201380000Y-97081522D02*
X201380000Y-102420000D01*
X284878679Y-121301320D02*
X284325570Y-121854430D01*
X283900000Y-79900000D02*
X218561522Y-79900000D01*
X285444364Y-119660832D02*
X285981765Y-120198233D01*
X285557503Y-120622499D02*
X285387796Y-120452792D01*
X218561522Y-79900000D02*
X201380000Y-97081522D01*
X286406030Y-119773970D02*
X285868628Y-119236568D01*
X284680689Y-120085096D02*
X284595836Y-120169948D01*
X286943432Y-120311372D02*
X286575737Y-119943677D01*
X285981766Y-120198234D02*
X286519168Y-120735636D01*
X284325570Y-121854430D02*
X280700000Y-125480000D01*
X287000000Y-83000000D02*
X283900000Y-79900000D01*
X287000000Y-119180000D02*
X287000000Y-83000000D01*
X284595836Y-120509360D02*
X284963531Y-120877055D01*
X284963531Y-121216466D02*
X284878679Y-121301320D01*
X286094904Y-121159900D02*
X285557503Y-120622499D01*
X286434316Y-121159900D02*
G75*
G02*
X286094904Y-121159900I-169706J169701D01*
G01*
X287367696Y-119887108D02*
G75*
G02*
X287367682Y-120226506I-169696J-169692D01*
G01*
X287000000Y-119180000D02*
G75*
G03*
X287000006Y-119519406I169700J-169700D01*
G01*
X284963531Y-120877055D02*
G75*
G02*
X284963571Y-121216505I-169731J-169745D01*
G01*
X285444364Y-119321420D02*
G75*
G03*
X285444390Y-119660806I169736J-169680D01*
G01*
X284595836Y-120169948D02*
G75*
G03*
X284595790Y-120509406I169664J-169752D01*
G01*
X285868628Y-119236568D02*
G75*
G03*
X285529218Y-119236568I-169705J-169703D01*
G01*
X285020100Y-120085096D02*
G75*
G03*
X284680688Y-120085095I-169706J-169703D01*
G01*
X286519168Y-120735636D02*
G75*
G02*
X286519126Y-121075006I-169668J-169664D01*
G01*
X287282844Y-120311372D02*
G75*
G02*
X286943432Y-120311372I-169706J169701D01*
G01*
%TO.N,D27*%
X282000000Y-162340000D02*
X276840000Y-162340000D01*
X284460000Y-158500000D02*
X284460000Y-159880000D01*
X276840000Y-162340000D02*
X270000000Y-155500000D01*
X284460000Y-159880000D02*
X282000000Y-162340000D01*
%TO.N,DIG3*%
X201380000Y-117660000D02*
X207880000Y-111160000D01*
X209840000Y-111160000D02*
X222460000Y-98540000D01*
X222460000Y-98540000D02*
X229700000Y-98540000D01*
X207880000Y-111160000D02*
X209840000Y-111160000D01*
X229700000Y-98540000D02*
X231000000Y-97240000D01*
%TO.N,DIG2*%
X201380000Y-115120000D02*
X207900000Y-108600000D01*
X227160000Y-83300000D02*
X228460000Y-82000000D01*
X225144365Y-83300000D02*
X227160000Y-83300000D01*
X207900000Y-100544365D02*
X225144365Y-83300000D01*
X207900000Y-108600000D02*
X207900000Y-100544365D01*
%TO.N,DIG1*%
X201835635Y-127840000D02*
X200924365Y-127840000D01*
%TO.N,Net-(D1-DOUT)*%
X299402500Y-95112500D02*
X299402500Y-95612500D01*
X297902500Y-92812500D02*
X297902500Y-93612500D01*
X297902500Y-93612500D02*
X299402500Y-95112500D01*
%TO.N,Net-(D1-DIN)*%
X300000000Y-85000000D02*
X300000000Y-87015000D01*
X300000000Y-87015000D02*
X299402500Y-87612500D01*
%TO.N,Net-(D7-DOUT)*%
X297902500Y-149812500D02*
X297902500Y-150612500D01*
X299402500Y-152112500D02*
X299402500Y-152612500D01*
X297902500Y-150612500D02*
X299402500Y-152112500D01*
%TO.N,LED*%
X299402500Y-119112500D02*
X299402500Y-119612500D01*
X297902500Y-116812500D02*
X297902500Y-117612500D01*
X297902500Y-117612500D02*
X299402500Y-119112500D01*
%TO.N,Net-(D3-DOUT)*%
X297902500Y-108812500D02*
X297902500Y-109612500D01*
X297902500Y-109612500D02*
X299402500Y-111112500D01*
X299402500Y-111112500D02*
X299402500Y-111612500D01*
%TO.N,Net-(D2-DOUT)*%
X299402500Y-103112500D02*
X299402500Y-103612500D01*
X297902500Y-101612500D02*
X299402500Y-103112500D01*
X297902500Y-100812500D02*
X297902500Y-101612500D01*
%TO.N,Net-(LEDRX1-Pin_2)*%
X298000000Y-83000000D02*
X299000000Y-82000000D01*
X298000000Y-83000000D02*
X298000000Y-85000000D01*
%TD*%
M02*
