M48
; DRILL file KiCad 10.0.1 date 2026-04-26T15:08:51
; FORMAT={-:-/ absolute / metric / decimal}
; #@! TF.CreationDate,2026-04-26T15:08:51+02:00
; #@! TF.GenerationSoftware,Kicad,Pcbnew,10.0.1
; #@! TF.FileFunction,Plated,1,2,PTH
FMAT,2
METRIC
; #@! TA.AperFunction,Plated,PTH,ViaDrill
T1C0.300
; #@! TA.AperFunction,Plated,PTH,ViaDrill
T2C0.500
; #@! TA.AperFunction,Plated,PTH,ComponentDrill
T3C0.800
; #@! TA.AperFunction,Plated,PTH,ComponentDrill
T4C1.000
; #@! TA.AperFunction,Plated,PTH,ComponentDrill
T5C1.020
; #@! TA.AperFunction,Plated,PTH,ComponentDrill
T6C1.200
; #@! TA.AperFunction,Plated,PTH,ComponentDrill
T7C1.500
; #@! TA.AperFunction,Plated,PTH,ComponentDrill
T8C3.200
%
G90
G05
T1
X217.0Y-116.0
X270.0Y-155.5
X288.0Y-139.5
X299.402Y-92.812
X299.402Y-100.812
X299.402Y-108.812
X299.402Y-116.812
X299.402Y-124.812
X299.402Y-132.812
X299.402Y-149.812
T2
X198.04Y-110.04
T3
X201.38Y-102.42
X201.38Y-104.96
X201.38Y-107.5
X201.38Y-110.04
X201.38Y-112.58
X201.38Y-115.12
X201.38Y-117.66
X201.38Y-120.2
X201.38Y-122.74
X201.38Y-125.28
X201.38Y-127.82
X201.38Y-130.36
X209.0Y-102.42
X209.0Y-104.96
X209.0Y-107.5
X209.0Y-110.04
X209.0Y-112.58
X209.0Y-115.12
X209.0Y-117.66
X209.0Y-120.2
X209.0Y-122.74
X209.0Y-125.28
X209.0Y-127.82
X209.0Y-130.36
X211.818Y-141.0
X213.5Y-111.0
X213.5Y-113.5
X214.318Y-141.0
X216.293Y-118.637
X217.707Y-120.051
X220.0Y-169.0
X222.0Y-169.0
X224.0Y-169.0
X226.0Y-169.0
X228.0Y-169.0
T4
X200.96Y-137.5
X203.5Y-137.5
X206.04Y-137.5
X218.3Y-82.0
X218.3Y-97.24
X220.5Y-155.19
X220.5Y-157.73
X220.5Y-160.27
X220.5Y-162.81
X220.84Y-82.0
X220.84Y-97.24
X223.38Y-82.0
X223.38Y-97.24
X225.92Y-82.0
X225.92Y-97.24
X228.46Y-82.0
X228.46Y-97.24
X231.0Y-82.0
X231.0Y-97.24
X241.935Y-142.55
X243.0Y-50.46
X243.0Y-53.0
X243.0Y-55.54
X244.475Y-142.55
X249.0Y-50.46
X249.0Y-53.0
X249.0Y-55.54
X262.3Y-82.0
X262.3Y-97.24
X264.84Y-82.0
X264.84Y-97.24
X267.38Y-82.0
X267.38Y-97.24
X269.92Y-82.0
X269.92Y-97.24
X272.46Y-82.0
X272.46Y-97.24
X275.0Y-82.0
X275.0Y-97.24
X284.42Y-154.5
X284.46Y-158.5
X286.96Y-154.5
X287.0Y-158.5
X289.5Y-154.5
X289.54Y-158.5
X296.46Y-82.0
X299.0Y-82.0
X301.54Y-82.0
T5
X255.3Y-125.48
X255.3Y-128.02
X255.3Y-130.56
X255.3Y-133.1
X255.3Y-135.64
X255.3Y-138.18
X255.3Y-140.72
X255.3Y-143.26
X255.3Y-145.8
X255.3Y-148.34
X255.3Y-150.88
X255.3Y-153.42
X255.3Y-155.96
X255.3Y-158.5
X255.3Y-161.04
X280.7Y-125.48
X280.7Y-128.02
X280.7Y-130.56
X280.7Y-133.1
X280.7Y-135.64
X280.7Y-138.18
X280.7Y-140.72
X280.7Y-143.26
X280.7Y-145.8
X280.7Y-148.34
X280.7Y-150.88
X280.7Y-153.42
X280.7Y-155.96
X280.7Y-158.5
X280.7Y-161.04
T6
X236.0Y-146.0
X236.0Y-169.1
X239.0Y-146.0
X247.4Y-146.0
X250.4Y-146.0
X250.4Y-169.1
T7
X223.5Y-139.0
X229.85Y-136.46
X238.15Y-119.04
X244.5Y-116.5
T8
X199.0Y-75.0
X199.0Y-167.0
X288.0Y-75.0
X288.0Y-167.0
X299.0Y-75.5
X299.0Y-163.0
M30
