%TF.GenerationSoftware,KiCad,Pcbnew,10.0.1*%
%TF.CreationDate,2026-04-26T15:08:48+02:00*%
%TF.ProjectId,RubiksTimer,52756269-6b73-4546-996d-65722e6b6963,rev?*%
%TF.SameCoordinates,Original*%
%TF.FileFunction,Copper,L1,Top*%
%TF.FilePolarity,Positive*%
%FSLAX46Y46*%
G04 Gerber Fmt 4.6, Leading zero omitted, Abs format (unit mm)*
G04 Created by KiCad (PCBNEW 10.0.1) date 2026-04-26 15:08:48*
%MOMM*%
%LPD*%
G01*
G04 APERTURE LIST*
G04 Aperture macros list*
%AMRoundRect*
0 Rectangle with rounded corners*
0 $1 Rounding radius*
0 $2 $3 $4 $5 $6 $7 $8 $9 X,Y pos of 4 corners*
0 Add a 4 corners polygon primitive as box body*
4,1,4,$2,$3,$4,$5,$6,$7,$8,$9,$2,$3,0*
0 Add four circle primitives for the rounded corners*
1,1,$1+$1,$2,$3*
1,1,$1+$1,$4,$5*
1,1,$1+$1,$6,$7*
1,1,$1+$1,$8,$9*
0 Add four rect primitives between the rounded corners*
20,1,$1+$1,$2,$3,$4,$5,0*
20,1,$1+$1,$4,$5,$6,$7,0*
20,1,$1+$1,$6,$7,$8,$9,0*
20,1,$1+$1,$8,$9,$2,$3,0*%
G04 Aperture macros list end*
%TA.AperFunction,ComponentPad*%
%ADD10R,1.700000X1.700000*%
%TD*%
%TA.AperFunction,ComponentPad*%
%ADD11C,1.700000*%
%TD*%
%TA.AperFunction,ComponentPad*%
%ADD12R,1.350000X1.350000*%
%TD*%
%TA.AperFunction,ComponentPad*%
%ADD13C,1.350000*%
%TD*%
%TA.AperFunction,ComponentPad*%
%ADD14RoundRect,0.250000X0.777817X0.000000X0.000000X0.777817X-0.777817X0.000000X0.000000X-0.777817X0*%
%TD*%
%TA.AperFunction,ComponentPad*%
%ADD15C,1.600000*%
%TD*%
%TA.AperFunction,ComponentPad*%
%ADD16C,2.000000*%
%TD*%
%TA.AperFunction,ComponentPad*%
%ADD17C,5.600000*%
%TD*%
%TA.AperFunction,ComponentPad*%
%ADD18R,2.000000X2.000000*%
%TD*%
%TA.AperFunction,SMDPad,CuDef*%
%ADD19RoundRect,0.162500X0.617500X0.162500X-0.617500X0.162500X-0.617500X-0.162500X0.617500X-0.162500X0*%
%TD*%
%TA.AperFunction,SMDPad,CuDef*%
%ADD20RoundRect,0.250000X0.350000X0.450000X-0.350000X0.450000X-0.350000X-0.450000X0.350000X-0.450000X0*%
%TD*%
%TA.AperFunction,ComponentPad*%
%ADD21RoundRect,0.250000X-0.550000X-0.550000X0.550000X-0.550000X0.550000X0.550000X-0.550000X0.550000X0*%
%TD*%
%TA.AperFunction,SMDPad,CuDef*%
%ADD22RoundRect,0.250000X-0.350000X-0.450000X0.350000X-0.450000X0.350000X0.450000X-0.350000X0.450000X0*%
%TD*%
%TA.AperFunction,ComponentPad*%
%ADD23C,2.200000*%
%TD*%
%TA.AperFunction,SMDPad,CuDef*%
%ADD24RoundRect,2.250000X-12.750000X-5.250000X12.750000X-5.250000X12.750000X5.250000X-12.750000X5.250000X0*%
%TD*%
%TA.AperFunction,SMDPad,CuDef*%
%ADD25RoundRect,0.162500X-0.617500X-0.162500X0.617500X-0.162500X0.617500X0.162500X-0.617500X0.162500X0*%
%TD*%
%TA.AperFunction,ComponentPad*%
%ADD26R,2.500000X2.500000*%
%TD*%
%TA.AperFunction,ViaPad*%
%ADD27C,0.600000*%
%TD*%
%TA.AperFunction,ViaPad*%
%ADD28C,1.000000*%
%TD*%
%TA.AperFunction,Conductor*%
%ADD29C,0.200000*%
%TD*%
%TA.AperFunction,Conductor*%
%ADD30C,1.000000*%
%TD*%
G04 APERTURE END LIST*
D10*
%TO.P,T1RX1,1,Pin_1_1*%
%TO.N,D14*%
X284420000Y-154500000D03*
D11*
%TO.P,T1RX1,2,Pin_2_2*%
%TO.N,3v3*%
X286960000Y-154500000D03*
%TO.P,T1RX1,3,Pin_3_3*%
%TO.N,GND*%
X289500000Y-154500000D03*
%TD*%
D12*
%TO.P,SW3,1,MH_1*%
%TO.N,GND*%
X228000000Y-169000000D03*
D13*
%TO.P,SW3,2,POS1_2*%
%TO.N,VIN*%
X226000000Y-169000000D03*
%TO.P,SW3,3,COM_3*%
%TO.N,Net-(SW3-COM)*%
X224000000Y-169000000D03*
%TO.P,SW3,4,POS2_4*%
%TO.N,unconnected-(SW3-POS2-Pad4)*%
X222000000Y-169000000D03*
%TO.P,SW3,5,MH_5*%
%TO.N,GND*%
X220000000Y-169000000D03*
%TD*%
D14*
%TO.P,10uf1,1*%
%TO.N,5V*%
X217707107Y-120051478D03*
D15*
%TO.P,10uf1,2*%
%TO.N,GND*%
X216292893Y-118637264D03*
%TD*%
D16*
%TO.P,3digit1,1,e_1*%
%TO.N,E*%
X262300000Y-97240000D03*
%TO.P,3digit1,2,d_2*%
%TO.N,D*%
X264840000Y-97240000D03*
%TO.P,3digit1,3,dp_3*%
%TO.N,DP*%
X267380000Y-97240000D03*
%TO.P,3digit1,4,c_4*%
%TO.N,C*%
X269920000Y-97240000D03*
%TO.P,3digit1,5,g_5*%
%TO.N,G*%
X272460000Y-97240000D03*
%TO.P,3digit1,6,dig4_6*%
%TO.N,unconnected-(3digit1-dig4-Pad6)*%
X275000000Y-97240000D03*
%TO.P,3digit1,7,b_7*%
%TO.N,B*%
X275000000Y-82000000D03*
%TO.P,3digit1,8,dig3_8*%
%TO.N,DIG6*%
X272460000Y-82000000D03*
%TO.P,3digit1,9,dig2_9*%
%TO.N,DIG5*%
X269920000Y-82000000D03*
%TO.P,3digit1,10,f_10*%
%TO.N,F*%
X267380000Y-82000000D03*
%TO.P,3digit1,11,a_11*%
%TO.N,A*%
X264840000Y-82000000D03*
%TO.P,3digit1,12,dig1_12*%
%TO.N,DIG4*%
X262300000Y-82000000D03*
%TD*%
D17*
%TO.P,H9,1,1_1*%
%TO.N,GND*%
X199000000Y-75000000D03*
%TD*%
D18*
%TO.P,U1,1,3V3_1*%
%TO.N,3v3*%
X280700000Y-161040000D03*
D16*
%TO.P,U1,2,GND_2*%
%TO.N,GND*%
X280700000Y-158500000D03*
%TO.P,U1,3,D15_3*%
%TO.N,unconnected-(U1-D15-Pad3)*%
X280700000Y-155960000D03*
%TO.P,U1,4,D2_4*%
%TO.N,unconnected-(U1-D2-Pad4)*%
X280700000Y-153420000D03*
%TO.P,U1,5,D4_5*%
%TO.N,D4*%
X280700000Y-150880000D03*
%TO.P,U1,6,RX2_6*%
%TO.N,D16*%
X280700000Y-148340000D03*
%TO.P,U1,7,TX2_7*%
%TO.N,D17*%
X280700000Y-145800000D03*
%TO.P,U1,8,D5_8*%
%TO.N,D5*%
X280700000Y-143260000D03*
%TO.P,U1,9,D18_9*%
%TO.N,D18*%
X280700000Y-140720000D03*
%TO.P,U1,10,D19_10*%
%TO.N,unconnected-(U1-D19-Pad10)*%
X280700000Y-138180000D03*
%TO.P,U1,11,D21_11*%
%TO.N,unconnected-(U1-D21-Pad11)*%
X280700000Y-135640000D03*
%TO.P,U1,12,RX0_12*%
%TO.N,unconnected-(U1-RX0-Pad12)*%
X280700000Y-133100000D03*
%TO.P,U1,13,TX0_13*%
%TO.N,unconnected-(U1-TX0-Pad13)*%
X280700000Y-130560000D03*
%TO.P,U1,14,D22_14*%
%TO.N,unconnected-(U1-D22-Pad14)*%
X280700000Y-128020000D03*
%TO.P,U1,15,D23_15*%
%TO.N,D23*%
X280700000Y-125480000D03*
%TO.P,U1,16,EN_16*%
%TO.N,unconnected-(U1-EN-Pad16)*%
X255300000Y-125480000D03*
%TO.P,U1,17,VP_17*%
%TO.N,unconnected-(U1-VP-Pad17)*%
X255300000Y-128020000D03*
%TO.P,U1,18,VN_18*%
%TO.N,unconnected-(U1-VN-Pad18)*%
X255300000Y-130560000D03*
%TO.P,U1,19,D34_19*%
%TO.N,D34*%
X255300000Y-133100000D03*
%TO.P,U1,20,D35_20*%
%TO.N,unconnected-(U1-D35-Pad20)*%
X255300000Y-135640000D03*
%TO.P,U1,21,D32_21*%
%TO.N,unconnected-(U1-D32-Pad21)*%
X255300000Y-138180000D03*
%TO.P,U1,22,D33_22*%
%TO.N,unconnected-(U1-D33-Pad22)*%
X255300000Y-140720000D03*
%TO.P,U1,23,D25_23*%
%TO.N,unconnected-(U1-D25-Pad23)*%
X255300000Y-143260000D03*
%TO.P,U1,24,D26_24*%
%TO.N,unconnected-(U1-D26-Pad24)*%
X255300000Y-145800000D03*
%TO.P,U1,25,D27_25*%
%TO.N,D27*%
X255300000Y-148340000D03*
%TO.P,U1,26,D14_26*%
%TO.N,D14*%
X255300000Y-150880000D03*
%TO.P,U1,27,D12_27*%
%TO.N,unconnected-(U1-D12-Pad27)*%
X255300000Y-153420000D03*
%TO.P,U1,28,D13_28*%
%TO.N,unconnected-(U1-D13-Pad28)*%
X255300000Y-155960000D03*
%TO.P,U1,29,GND_29*%
%TO.N,GND*%
X255300000Y-158500000D03*
%TO.P,U1,30,VIN_30*%
%TO.N,VIN*%
X255300000Y-161040000D03*
%TD*%
D10*
%TO.P,LEDTX1,1,Pin_1_1*%
%TO.N,5V*%
X206040000Y-137500000D03*
D11*
%TO.P,LEDTX1,2,Pin_2_2*%
%TO.N,D4*%
X203500000Y-137500000D03*
%TO.P,LEDTX1,3,Pin_3_3*%
%TO.N,GND*%
X200960000Y-137500000D03*
%TD*%
D17*
%TO.P,H10,1,1_1*%
%TO.N,GND*%
X288000000Y-75000000D03*
%TD*%
D16*
%TO.P,4digit1,1,e_1*%
%TO.N,E*%
X218300000Y-97240000D03*
%TO.P,4digit1,2,d_2*%
%TO.N,D*%
X220840000Y-97240000D03*
%TO.P,4digit1,3,dp_3*%
%TO.N,DP*%
X223380000Y-97240000D03*
%TO.P,4digit1,4,c_4*%
%TO.N,C*%
X225920000Y-97240000D03*
%TO.P,4digit1,5,g_5*%
%TO.N,G*%
X228460000Y-97240000D03*
%TO.P,4digit1,6,dig4_6*%
%TO.N,DIG3*%
X231000000Y-97240000D03*
%TO.P,4digit1,7,b_7*%
%TO.N,B*%
X231000000Y-82000000D03*
%TO.P,4digit1,8,dig3_8*%
%TO.N,DIG2*%
X228460000Y-82000000D03*
%TO.P,4digit1,9,dig2_9*%
%TO.N,DIG1*%
X225920000Y-82000000D03*
%TO.P,4digit1,10,f_10*%
%TO.N,F*%
X223380000Y-82000000D03*
%TO.P,4digit1,11,a_11*%
%TO.N,A*%
X220840000Y-82000000D03*
%TO.P,4digit1,12,dig1_12*%
%TO.N,DIG0*%
X218300000Y-82000000D03*
%TD*%
D19*
%TO.P,Touch2,1,Q_1*%
%TO.N,Net-(T2TX1-Pin_1)*%
X254700000Y-45950000D03*
%TO.P,Touch2,2,VSS_2*%
%TO.N,Net-(T2TX1-Pin_3)*%
X254700000Y-45000000D03*
%TO.P,Touch2,3,I_3*%
%TO.N,Net-(Touch2-I)*%
X254700000Y-44050000D03*
%TO.P,Touch2,4,AHLB_4*%
%TO.N,Net-(T2TX1-Pin_3)*%
X252000000Y-44050000D03*
%TO.P,Touch2,5,VDD_5*%
%TO.N,Net-(T2TX1-Pin_2)*%
X252000000Y-45000000D03*
%TO.P,Touch2,6,TOG_6*%
%TO.N,Net-(T2TX1-Pin_3)*%
X252000000Y-45950000D03*
%TD*%
D17*
%TO.P,H12,1,1_1*%
%TO.N,GND*%
X288000000Y-167000000D03*
%TD*%
D20*
%TO.P,10k1,1*%
%TO.N,5V*%
X213000000Y-116000000D03*
%TO.P,10k1,2*%
%TO.N,Net-(U2-ISET)*%
X211000000Y-116000000D03*
%TD*%
D17*
%TO.P,H14,1,1_1*%
%TO.N,VSS*%
X299000000Y-163000000D03*
%TD*%
D21*
%TO.P,220uf1,1*%
%TO.N,5V*%
X211817621Y-141000000D03*
D15*
%TO.P,220uf1,2*%
%TO.N,GND*%
X214317621Y-141000000D03*
%TD*%
D22*
%TO.P,R3,1*%
%TO.N,B+*%
X242000000Y-139500000D03*
%TO.P,R3,2*%
%TO.N,D34*%
X244000000Y-139500000D03*
%TD*%
D17*
%TO.P,H11,1,1_1*%
%TO.N,GND*%
X199000000Y-167000000D03*
%TD*%
D10*
%TO.P,T1TX1,1,Pin_1_1*%
%TO.N,Net-(T1TX1-Pin_1)*%
X243000000Y-50460000D03*
D11*
%TO.P,T1TX1,2,Pin_2_2*%
%TO.N,Net-(T1TX1-Pin_2)*%
X243000000Y-53000000D03*
%TO.P,T1TX1,3,Pin_3_3*%
%TO.N,Net-(T1TX1-Pin_3)*%
X243000000Y-55540000D03*
%TD*%
D10*
%TO.P,T2TX1,1,Pin_1_1*%
%TO.N,Net-(T2TX1-Pin_1)*%
X249000000Y-55540000D03*
D11*
%TO.P,T2TX1,2,Pin_2_2*%
%TO.N,Net-(T2TX1-Pin_2)*%
X249000000Y-53000000D03*
%TO.P,T2TX1,3,Pin_3_3*%
%TO.N,Net-(T2TX1-Pin_3)*%
X249000000Y-50460000D03*
%TD*%
D23*
%TO.P,SW1,1,1_1*%
%TO.N,D16*%
X238150000Y-119040000D03*
%TO.P,SW1,2,2_2*%
%TO.N,GND*%
X244500000Y-116500000D03*
%TD*%
D20*
%TO.P,R1,1*%
%TO.N,3v3*%
X251000000Y-105000000D03*
%TO.P,R1,2*%
%TO.N,D16*%
X249000000Y-105000000D03*
%TD*%
%TO.P,R2,1*%
%TO.N,3v3*%
X251000000Y-107500000D03*
%TO.P,R2,2*%
%TO.N,D17*%
X249000000Y-107500000D03*
%TD*%
D15*
%TO.P,100nf1,1*%
%TO.N,GND*%
X213500000Y-111000000D03*
%TO.P,100nf1,2*%
%TO.N,5V*%
X213500000Y-113500000D03*
%TD*%
D24*
%TO.P,Pad2,1,1_1*%
%TO.N,Net-(Touch2-I)*%
X272000000Y-51500000D03*
%TD*%
D25*
%TO.P,Touch1,1,Q_1*%
%TO.N,Net-(T1TX1-Pin_1)*%
X237300000Y-44100000D03*
%TO.P,Touch1,2,VSS_2*%
%TO.N,Net-(T1TX1-Pin_3)*%
X237300000Y-45050000D03*
%TO.P,Touch1,3,I_3*%
%TO.N,Net-(Touch1-I)*%
X237300000Y-46000000D03*
%TO.P,Touch1,4,AHLB_4*%
%TO.N,Net-(T1TX1-Pin_3)*%
X240000000Y-46000000D03*
%TO.P,Touch1,5,VDD_5*%
%TO.N,Net-(T1TX1-Pin_2)*%
X240000000Y-45050000D03*
%TO.P,Touch1,6,TOG_6*%
%TO.N,Net-(T1TX1-Pin_3)*%
X240000000Y-44100000D03*
%TD*%
D17*
%TO.P,H13,1,1_1*%
%TO.N,VSS*%
X299000000Y-75500000D03*
%TD*%
D24*
%TO.P,Pad1,1,1_1*%
%TO.N,Net-(Touch1-I)*%
X220000000Y-51500000D03*
%TD*%
D10*
%TO.P,T2RX1,1,Pin_1_1*%
%TO.N,D27*%
X284460000Y-158500000D03*
D11*
%TO.P,T2RX1,2,Pin_2_2*%
%TO.N,3v3*%
X287000000Y-158500000D03*
%TO.P,T2RX1,3,Pin_3_3*%
%TO.N,GND*%
X289540000Y-158500000D03*
%TD*%
D26*
%TO.P,U5,1,OUT-_1*%
%TO.N,GND*%
X250400000Y-146000000D03*
%TO.P,U5,2,B-_2*%
%TO.N,Net-(Battery1-Pin_1)*%
X247400000Y-146000000D03*
%TO.P,U5,3,B+_3*%
%TO.N,B+*%
X239000000Y-146000000D03*
%TO.P,U5,4,OUT+_4*%
%TO.N,Net-(SW3-COM)*%
X236000000Y-146000000D03*
%TO.P,U5,5,IN+_5*%
%TO.N,unconnected-(U5-IN+-Pad5)*%
X236000000Y-169100000D03*
%TO.P,U5,6,IN-_6*%
%TO.N,unconnected-(U5-IN--Pad6)*%
X250400000Y-169100000D03*
%TD*%
D21*
%TO.P,U2,1,DIN_1*%
%TO.N,D23*%
X201380000Y-102420000D03*
D15*
%TO.P,U2,2,DIG_0_2*%
%TO.N,DIG0*%
X201380000Y-104960000D03*
%TO.P,U2,3,DIG_4_3*%
%TO.N,DIG4*%
X201380000Y-107500000D03*
%TO.P,U2,4,GND_4*%
%TO.N,GND*%
X201380000Y-110040000D03*
%TO.P,U2,5,DIG_6_5*%
%TO.N,DIG6*%
X201380000Y-112580000D03*
%TO.P,U2,6,DIG_2_6*%
%TO.N,DIG2*%
X201380000Y-115120000D03*
%TO.P,U2,7,DIG_3_7*%
%TO.N,DIG3*%
X201380000Y-117660000D03*
%TO.P,U2,8,DIG_7_8*%
%TO.N,DIG7*%
X201380000Y-120200000D03*
%TO.P,U2,9,GND_9*%
%TO.N,GND*%
X201380000Y-122740000D03*
%TO.P,U2,10,DIG_5_10*%
%TO.N,DIG5*%
X201380000Y-125280000D03*
%TO.P,U2,11,DIG_1_11*%
%TO.N,DIG1*%
X201380000Y-127820000D03*
%TO.P,U2,12,LOAD_12*%
%TO.N,D5*%
X201380000Y-130360000D03*
%TO.P,U2,13,CLK_13*%
%TO.N,D18*%
X209000000Y-130360000D03*
%TO.P,U2,14,SEG_A_14*%
%TO.N,A*%
X209000000Y-127820000D03*
%TO.P,U2,15,SEG_F_15*%
%TO.N,F*%
X209000000Y-125280000D03*
%TO.P,U2,16,SEG_B_16*%
%TO.N,B*%
X209000000Y-122740000D03*
%TO.P,U2,17,SEG_G_17*%
%TO.N,G*%
X209000000Y-120200000D03*
%TO.P,U2,18,ISET_18*%
%TO.N,Net-(U2-ISET)*%
X209000000Y-117660000D03*
%TO.P,U2,19,V+_19*%
%TO.N,5V*%
X209000000Y-115120000D03*
%TO.P,U2,20,SEG_C_20*%
%TO.N,C*%
X209000000Y-112580000D03*
%TO.P,U2,21,SEG_E_21*%
%TO.N,E*%
X209000000Y-110040000D03*
%TO.P,U2,22,SEG_DP_22*%
%TO.N,DP*%
X209000000Y-107500000D03*
%TO.P,U2,23,SEG_D_23*%
%TO.N,D*%
X209000000Y-104960000D03*
%TO.P,U2,24,DOUT_24*%
%TO.N,DOUT*%
X209000000Y-102420000D03*
%TD*%
D10*
%TO.P,Booster1,1,Pin_1_1*%
%TO.N,VIN*%
X220500000Y-162810000D03*
D11*
%TO.P,Booster1,2,Pin_2_2*%
%TO.N,GND*%
X220500000Y-160270000D03*
%TO.P,Booster1,3,Pin_3_3*%
X220500000Y-157730000D03*
%TO.P,Booster1,4,Pin_4_4*%
%TO.N,5V*%
X220500000Y-155190000D03*
%TD*%
D22*
%TO.P,R4,1*%
%TO.N,D34*%
X246000000Y-139500000D03*
%TO.P,R4,2*%
%TO.N,GND*%
X248000000Y-139500000D03*
%TD*%
D10*
%TO.P,Battery1,1,Pin_1_1*%
%TO.N,Net-(Battery1-Pin_1)*%
X244475000Y-142550000D03*
D11*
%TO.P,Battery1,2,Pin_2_2*%
%TO.N,B+*%
X241935000Y-142550000D03*
%TD*%
D23*
%TO.P,SW2,1,1_1*%
%TO.N,D17*%
X223500000Y-139000000D03*
%TO.P,SW2,2,2_2*%
%TO.N,GND*%
X229850000Y-136460000D03*
%TD*%
D10*
%TO.P,LEDRX1,1,Pin_1_1*%
%TO.N,Net-(D1-VDD)*%
X296460000Y-82000000D03*
D11*
%TO.P,LEDRX1,2,Pin_2_2*%
%TO.N,Net-(LEDRX1-Pin_2)*%
X299000000Y-82000000D03*
%TO.P,LEDRX1,3,Pin_3_3*%
%TO.N,VSS*%
X301540000Y-82000000D03*
%TD*%
D27*
%TO.N,3v3*%
X288000000Y-139500000D03*
D28*
%TO.N,GND*%
X198040000Y-110040000D03*
D27*
%TO.N,DIG6*%
X217000000Y-116000000D03*
%TO.N,VSS*%
X299402500Y-116812500D03*
X299402500Y-132812500D03*
X299402500Y-124812500D03*
X299402500Y-92812500D03*
X299402500Y-100812500D03*
X299402500Y-149812500D03*
X299402500Y-108812500D03*
%TO.N,D27*%
X270000000Y-155500000D03*
%TD*%
%TO.N,D14*%
D29*
X288150000Y-158976346D02*
X284786346Y-162340000D01*
X266760000Y-162340000D02*
X255300000Y-150880000D01*
X287436346Y-153350000D02*
X288150000Y-154063654D01*
X285570000Y-153350000D02*
X287436346Y-153350000D01*
X284786346Y-162340000D02*
X266760000Y-162340000D01*
X288150000Y-154063654D02*
X288150000Y-158976346D01*
X284420000Y-154500000D02*
X285570000Y-153350000D01*
%TO.N,3v3*%
X284500000Y-107500000D02*
X288000000Y-111000000D01*
X286960000Y-157960000D02*
X286960000Y-154500000D01*
X280700000Y-161040000D02*
X284460000Y-161040000D01*
X251000000Y-105000000D02*
X251000000Y-107500000D01*
X284460000Y-161040000D02*
X287000000Y-158500000D01*
X251000000Y-107500000D02*
X284500000Y-107500000D01*
X288000000Y-111000000D02*
X288000000Y-139500000D01*
%TO.N,VIN*%
D30*
X233210000Y-161040000D02*
X255300000Y-161040000D01*
X226000000Y-168250000D02*
X233210000Y-161040000D01*
X226000000Y-169000000D02*
X226000000Y-168250000D01*
%TO.N,Net-(SW3-COM)*%
X224000000Y-169000000D02*
X224000000Y-158000000D01*
X224000000Y-158000000D02*
X236000000Y-146000000D01*
%TO.N,5V*%
X213000000Y-116000000D02*
X213000000Y-114250000D01*
X211817621Y-146507621D02*
X211817621Y-141000000D01*
X220500000Y-155190000D02*
X211817621Y-146507621D01*
X213500000Y-139317622D02*
X213500000Y-124258585D01*
X206040000Y-137500000D02*
X208317621Y-137500000D01*
X213000000Y-114250000D02*
X213500000Y-113750000D01*
X213500000Y-124258585D02*
X217707107Y-120051478D01*
X208317621Y-137500000D02*
X211817621Y-141000000D01*
X211817621Y-141000000D02*
X213500000Y-139317622D01*
%TO.N,E*%
D29*
X218300000Y-97240000D02*
X221540000Y-94000000D01*
X259060000Y-94000000D02*
X262300000Y-97240000D01*
X221540000Y-94000000D02*
X259060000Y-94000000D01*
%TO.N,D*%
X261000000Y-99000000D02*
X263080000Y-99000000D01*
X220840000Y-97240000D02*
X219080000Y-99000000D01*
X220840000Y-97240000D02*
X223080000Y-95000000D01*
X210500000Y-103460000D02*
X209000000Y-104960000D01*
X257000000Y-95000000D02*
X261000000Y-99000000D01*
X223080000Y-95000000D02*
X257000000Y-95000000D01*
X210500000Y-100000000D02*
X210500000Y-103460000D01*
X219080000Y-99000000D02*
X211500000Y-99000000D01*
X263080000Y-99000000D02*
X264840000Y-97240000D01*
X211500000Y-99000000D02*
X210500000Y-100000000D01*
%TO.N,DP*%
X223380000Y-97240000D02*
X221120000Y-99500000D01*
X221120000Y-99500000D02*
X212000000Y-99500000D01*
X211000000Y-100500000D02*
X211000000Y-105500000D01*
X211000000Y-105500000D02*
X209000000Y-107500000D01*
X212000000Y-99500000D02*
X211000000Y-100500000D01*
%TO.N,C*%
X223160000Y-100000000D02*
X212500000Y-100000000D01*
X212500000Y-100000000D02*
X211500000Y-101000000D01*
X211500000Y-101000000D02*
X211500000Y-110080000D01*
X211500000Y-110080000D02*
X209000000Y-112580000D01*
X225920000Y-97240000D02*
X223160000Y-100000000D01*
%TO.N,G*%
X212000000Y-101500000D02*
X213000000Y-100500000D01*
X225200000Y-100500000D02*
X228460000Y-97240000D01*
X231000000Y-99780000D02*
X269920000Y-99780000D01*
X213000000Y-100500000D02*
X225200000Y-100500000D01*
X212000000Y-117200000D02*
X212000000Y-101500000D01*
X228460000Y-97240000D02*
X231000000Y-99780000D01*
X269920000Y-99780000D02*
X272460000Y-97240000D01*
X209000000Y-120200000D02*
X212000000Y-117200000D01*
%TO.N,B*%
X207900000Y-100544365D02*
X221222183Y-87222183D01*
X207900000Y-121640000D02*
X207900000Y-100544365D01*
X273700000Y-80700000D02*
X275000000Y-82000000D01*
X231000000Y-82000000D02*
X232300000Y-80700000D01*
X209000000Y-122740000D02*
X207900000Y-121640000D01*
X232300000Y-80700000D02*
X273700000Y-80700000D01*
X225777817Y-87222183D02*
X231000000Y-82000000D01*
X221222183Y-87222183D02*
X225777817Y-87222183D01*
%TO.N,DIG6*%
X277100000Y-98109850D02*
X272927006Y-102282843D01*
X230717157Y-102282843D02*
X217000000Y-116000000D01*
X277100000Y-86640000D02*
X277100000Y-98109850D01*
X272927006Y-102282843D02*
X230717157Y-102282843D01*
X272460000Y-82000000D02*
X277100000Y-86640000D01*
%TO.N,DIG5*%
X269920000Y-82000000D02*
X276700000Y-88780000D01*
X276700000Y-88780000D02*
X276700000Y-97944164D01*
X207560000Y-131460000D02*
X201380000Y-125280000D01*
X272822082Y-101822082D02*
X230177918Y-101822082D01*
X230177918Y-101822082D02*
X212000000Y-120000000D01*
X212000000Y-120000000D02*
X212000000Y-128915635D01*
X212000000Y-128915635D02*
X209455635Y-131460000D01*
X276700000Y-97944164D02*
X272822082Y-101822082D01*
X209455635Y-131460000D02*
X207560000Y-131460000D01*
%TO.N,F*%
X207500000Y-97880000D02*
X223380000Y-82000000D01*
X207500000Y-123780000D02*
X207500000Y-97880000D01*
X209000000Y-125280000D02*
X207500000Y-123780000D01*
%TO.N,A*%
X208544365Y-127500000D02*
X209500000Y-127500000D01*
X207100000Y-125920000D02*
X209000000Y-127820000D01*
X207100000Y-95740000D02*
X207100000Y-125920000D01*
X220840000Y-82000000D02*
X207100000Y-95740000D01*
%TO.N,DIG4*%
X202800000Y-107500000D02*
X201380000Y-107500000D01*
X206700000Y-111400000D02*
X202800000Y-107500000D01*
X276300000Y-97778478D02*
X276300000Y-96000000D01*
X275538478Y-98540000D02*
X276300000Y-97778478D01*
X211000000Y-127375635D02*
X211000000Y-120000000D01*
X208544365Y-128920000D02*
X209455635Y-128920000D01*
X211000000Y-120000000D02*
X230000000Y-101000000D01*
X209455635Y-128920000D02*
X211000000Y-127375635D01*
X276300000Y-96000000D02*
X262300000Y-82000000D01*
X206700000Y-127075635D02*
X208544365Y-128920000D01*
X206700000Y-111400000D02*
X206700000Y-127075635D01*
X275460000Y-98540000D02*
X275538478Y-98540000D01*
X273000000Y-101000000D02*
X275460000Y-98540000D01*
X230000000Y-101000000D02*
X273000000Y-101000000D01*
%TO.N,D16*%
X289000000Y-109500000D02*
X289000000Y-140040000D01*
X250000000Y-104000000D02*
X283500000Y-104000000D01*
X246326598Y-105000000D02*
X238150000Y-113176598D01*
X283500000Y-104000000D02*
X289000000Y-109500000D01*
X249000000Y-105000000D02*
X246326598Y-105000000D01*
X249000000Y-105000000D02*
X250000000Y-104000000D01*
X238150000Y-113176598D02*
X238150000Y-119040000D01*
X289000000Y-140040000D02*
X280700000Y-148340000D01*
%TO.N,D17*%
X284500000Y-142000000D02*
X280700000Y-145800000D01*
X280500000Y-108500000D02*
X284500000Y-112500000D01*
X249000000Y-114283402D02*
X224283402Y-139000000D01*
X249000000Y-107500000D02*
X250000000Y-108500000D01*
X250000000Y-108500000D02*
X280500000Y-108500000D01*
X249000000Y-107500000D02*
X249000000Y-114283402D01*
X284500000Y-112500000D02*
X284500000Y-142000000D01*
%TO.N,D34*%
X252400000Y-133100000D02*
X246000000Y-139500000D01*
X255300000Y-133100000D02*
X252400000Y-133100000D01*
D30*
X244000000Y-139500000D02*
X246000000Y-139500000D01*
%TO.N,D27*%
D29*
X262460000Y-155500000D02*
X270000000Y-155500000D01*
X255300000Y-148340000D02*
X262460000Y-155500000D01*
%TO.N,DIG1*%
X225920000Y-82000000D02*
X224620000Y-80700000D01*
X200280000Y-98181522D02*
X200280000Y-126720000D01*
X217761522Y-80700000D02*
X200280000Y-98181522D01*
X224620000Y-80700000D02*
X217761522Y-80700000D01*
X200280000Y-126720000D02*
X201380000Y-127820000D01*
%TO.N,DIG0*%
X201380000Y-104960000D02*
X206700000Y-99640000D01*
X206700000Y-93600000D02*
X218300000Y-82000000D01*
X206700000Y-99640000D02*
X206700000Y-93600000D01*
%TO.N,Net-(T2TX1-Pin_1)*%
D30*
X249000000Y-55540000D02*
X252000000Y-52540000D01*
X252000000Y-48000000D02*
X253975000Y-46025000D01*
X253975000Y-46025000D02*
X254700000Y-46025000D01*
X252000000Y-52540000D02*
X252000000Y-48000000D01*
%TO.N,Net-(T2TX1-Pin_3)*%
D29*
X251220001Y-44050000D02*
X252000000Y-44050000D01*
X249000000Y-50460000D02*
X249000000Y-46270001D01*
X253438576Y-45000000D02*
X254700000Y-45000000D01*
X252488576Y-45950000D02*
X253438576Y-45000000D01*
X253438576Y-45000000D02*
X252488576Y-44050000D01*
X249000000Y-46270001D02*
X251220001Y-44050000D01*
%TO.N,Net-(Touch2-I)*%
X272000000Y-51500000D02*
X257000000Y-51500000D01*
X255479999Y-44050000D02*
X254700000Y-44050000D01*
X257000000Y-51500000D02*
X256000000Y-50500000D01*
X256000000Y-44570001D02*
X255479999Y-44050000D01*
X256000000Y-50500000D02*
X256000000Y-44570001D01*
%TO.N,Net-(T2TX1-Pin_2)*%
X250920000Y-45300001D02*
X251220001Y-45000000D01*
X251220001Y-45000000D02*
X252000000Y-45000000D01*
X250920000Y-51080000D02*
X250920000Y-45300001D01*
X249000000Y-53000000D02*
X250920000Y-51080000D01*
%TO.N,Net-(U2-ISET)*%
D30*
X211000000Y-116000000D02*
X210660000Y-116000000D01*
X210660000Y-116000000D02*
X209000000Y-117660000D01*
%TO.N,B+*%
X241935000Y-142550000D02*
X241935000Y-143065000D01*
X241935000Y-143065000D02*
X239000000Y-146000000D01*
X241935000Y-142550000D02*
X241935000Y-140065000D01*
X241935000Y-140065000D02*
X242000000Y-140000000D01*
%TO.N,Net-(T1TX1-Pin_1)*%
D29*
X240338576Y-43000000D02*
X238400000Y-43000000D01*
X238400000Y-43000000D02*
X237300000Y-44100000D01*
X243000000Y-45661424D02*
X240338576Y-43000000D01*
X243000000Y-50460000D02*
X243000000Y-45661424D01*
%TO.N,Net-(T1TX1-Pin_2)*%
X241850000Y-51850000D02*
X243000000Y-53000000D01*
X240779999Y-45050000D02*
X241850000Y-46120001D01*
X241850000Y-46120001D02*
X241850000Y-51850000D01*
X240000000Y-45050000D02*
X240779999Y-45050000D01*
%TO.N,Net-(T1TX1-Pin_3)*%
D30*
X243000000Y-55540000D02*
X240000000Y-52540000D01*
D29*
X237300000Y-45050000D02*
X238561424Y-45050000D01*
X239511424Y-44100000D02*
X238561424Y-45050000D01*
X238561424Y-45050000D02*
X239511424Y-46000000D01*
D30*
X240000000Y-52540000D02*
X240000000Y-46075000D01*
%TO.N,Net-(Touch1-I)*%
D29*
X220000000Y-51500000D02*
X235500000Y-51500000D01*
X237300000Y-49700000D02*
X237300000Y-46000000D01*
X235500000Y-51500000D02*
X237300000Y-49700000D01*
%TO.N,Net-(Battery1-Pin_1)*%
D30*
X244475000Y-142550000D02*
X244475000Y-143075000D01*
X244475000Y-143075000D02*
X247400000Y-146000000D01*
%TD*%
%TA.AperFunction,Conductor*%
%TO.N,GND*%
G36*
X202652636Y-108201889D02*
G01*
X202653898Y-108203133D01*
X206063181Y-111612416D01*
X206096666Y-111673739D01*
X206099500Y-111700097D01*
X206099500Y-126988965D01*
X206099499Y-126988983D01*
X206099499Y-127154689D01*
X206099498Y-127154689D01*
X206103326Y-127168975D01*
X206140423Y-127307420D01*
X206140424Y-127307422D01*
X206140423Y-127307422D01*
X206147975Y-127320501D01*
X206147976Y-127320502D01*
X206219477Y-127444347D01*
X206219481Y-127444352D01*
X206338349Y-127563220D01*
X206338355Y-127563225D01*
X208060009Y-129284879D01*
X208060402Y-129285273D01*
X208062277Y-129288718D01*
X208067082Y-129292672D01*
X208067092Y-129292684D01*
X208065265Y-129294206D01*
X208077319Y-129316348D01*
X208093775Y-129346485D01*
X208093769Y-129346565D01*
X208093809Y-129346639D01*
X208091257Y-129381686D01*
X208088791Y-129416177D01*
X208088741Y-129416254D01*
X208088736Y-129416324D01*
X208088461Y-129416689D01*
X208060291Y-129460523D01*
X208008028Y-129512786D01*
X207887715Y-129678386D01*
X207794781Y-129860776D01*
X207731522Y-130055465D01*
X207699500Y-130257648D01*
X207699500Y-130450903D01*
X207679815Y-130517942D01*
X207627011Y-130563697D01*
X207557853Y-130573641D01*
X207494297Y-130544616D01*
X207487819Y-130538584D01*
X202674077Y-125724842D01*
X202640592Y-125663519D01*
X202643828Y-125598841D01*
X202648477Y-125584534D01*
X202680500Y-125382352D01*
X202680500Y-125177648D01*
X202648477Y-124975466D01*
X202585220Y-124780781D01*
X202585218Y-124780778D01*
X202585218Y-124780776D01*
X202522317Y-124657328D01*
X202492287Y-124598390D01*
X202484556Y-124587749D01*
X202371971Y-124432786D01*
X202227213Y-124288028D01*
X202061613Y-124167715D01*
X202061612Y-124167714D01*
X202061610Y-124167713D01*
X202004653Y-124138691D01*
X201879223Y-124074781D01*
X201684534Y-124011522D01*
X201509995Y-123983878D01*
X201482352Y-123979500D01*
X201277648Y-123979500D01*
X201223704Y-123988044D01*
X201075464Y-124011523D01*
X201075457Y-124011524D01*
X201042817Y-124022130D01*
X200972976Y-124024125D01*
X200913143Y-123988044D01*
X200882316Y-123925343D01*
X200880500Y-123904199D01*
X200880500Y-121575800D01*
X200900185Y-121508761D01*
X200952989Y-121463006D01*
X201022147Y-121453062D01*
X201042820Y-121457870D01*
X201075458Y-121468475D01*
X201075461Y-121468475D01*
X201075466Y-121468477D01*
X201277648Y-121500500D01*
X201277649Y-121500500D01*
X201482351Y-121500500D01*
X201482352Y-121500500D01*
X201684534Y-121468477D01*
X201879219Y-121405220D01*
X202061610Y-121312287D01*
X202156720Y-121243186D01*
X202227213Y-121191971D01*
X202227215Y-121191968D01*
X202227219Y-121191966D01*
X202371966Y-121047219D01*
X202371968Y-121047215D01*
X202371971Y-121047213D01*
X202424732Y-120974590D01*
X202492287Y-120881610D01*
X202585220Y-120699219D01*
X202648477Y-120504534D01*
X202680500Y-120302352D01*
X202680500Y-120097648D01*
X202659294Y-119963760D01*
X202648477Y-119895465D01*
X202607131Y-119768215D01*
X202585220Y-119700781D01*
X202585218Y-119700778D01*
X202585218Y-119700776D01*
X202549809Y-119631284D01*
X202492287Y-119518390D01*
X202484556Y-119507749D01*
X202371971Y-119352786D01*
X202227213Y-119208028D01*
X202061614Y-119087715D01*
X202055006Y-119084348D01*
X201968917Y-119040483D01*
X201918123Y-118992511D01*
X201901328Y-118924690D01*
X201923865Y-118858555D01*
X201968917Y-118819516D01*
X202061610Y-118772287D01*
X202082770Y-118756913D01*
X202227213Y-118651971D01*
X202227215Y-118651968D01*
X202227219Y-118651966D01*
X202371966Y-118507219D01*
X202371968Y-118507215D01*
X202371971Y-118507213D01*
X202431250Y-118425621D01*
X202492287Y-118341610D01*
X202585220Y-118159219D01*
X202648477Y-117964534D01*
X202680500Y-117762352D01*
X202680500Y-117557648D01*
X202648477Y-117355466D01*
X202585220Y-117160781D01*
X202585218Y-117160778D01*
X202585218Y-117160776D01*
X202526422Y-117045384D01*
X202492287Y-116978390D01*
X202471661Y-116950000D01*
X202371971Y-116812786D01*
X202227213Y-116668028D01*
X202061614Y-116547715D01*
X201988159Y-116510288D01*
X201968917Y-116500483D01*
X201918123Y-116452511D01*
X201901328Y-116384690D01*
X201923865Y-116318555D01*
X201968917Y-116279516D01*
X202061610Y-116232287D01*
X202082770Y-116216913D01*
X202227213Y-116111971D01*
X202227215Y-116111968D01*
X202227219Y-116111966D01*
X202371966Y-115967219D01*
X202371968Y-115967215D01*
X202371971Y-115967213D01*
X202467855Y-115835238D01*
X202492287Y-115801610D01*
X202585220Y-115619219D01*
X202648477Y-115424534D01*
X202680500Y-115222352D01*
X202680500Y-115017648D01*
X202648477Y-114815466D01*
X202646701Y-114810001D01*
X202603464Y-114676930D01*
X202585220Y-114620781D01*
X202585218Y-114620778D01*
X202585218Y-114620776D01*
X202542423Y-114536788D01*
X202492287Y-114438390D01*
X202484556Y-114427749D01*
X202371971Y-114272786D01*
X202227213Y-114128028D01*
X202061614Y-114007715D01*
X202044947Y-113999223D01*
X201968917Y-113960483D01*
X201918123Y-113912511D01*
X201901328Y-113844690D01*
X201923865Y-113778555D01*
X201968917Y-113739516D01*
X202061610Y-113692287D01*
X202082770Y-113676913D01*
X202227213Y-113571971D01*
X202227215Y-113571968D01*
X202227219Y-113571966D01*
X202371966Y-113427219D01*
X202371968Y-113427215D01*
X202371971Y-113427213D01*
X202424732Y-113354590D01*
X202492287Y-113261610D01*
X202585220Y-113079219D01*
X202648477Y-112884534D01*
X202680500Y-112682352D01*
X202680500Y-112477648D01*
X202666256Y-112387715D01*
X202648477Y-112275465D01*
X202619127Y-112185137D01*
X202585220Y-112080781D01*
X202585218Y-112080778D01*
X202585218Y-112080776D01*
X202512091Y-111937258D01*
X202492287Y-111898390D01*
X202484556Y-111887749D01*
X202371971Y-111732786D01*
X202227213Y-111588028D01*
X202061613Y-111467715D01*
X202061612Y-111467714D01*
X202061610Y-111467713D01*
X202004653Y-111438691D01*
X201879223Y-111374781D01*
X201684534Y-111311522D01*
X201509995Y-111283878D01*
X201482352Y-111279500D01*
X201277648Y-111279500D01*
X201223704Y-111288044D01*
X201075464Y-111311523D01*
X201075457Y-111311524D01*
X201042817Y-111322130D01*
X200972976Y-111324125D01*
X200913143Y-111288044D01*
X200882316Y-111225343D01*
X200880500Y-111204199D01*
X200880500Y-108875800D01*
X200900185Y-108808761D01*
X200952989Y-108763006D01*
X201022147Y-108753062D01*
X201042820Y-108757870D01*
X201075458Y-108768475D01*
X201075461Y-108768475D01*
X201075466Y-108768477D01*
X201277648Y-108800500D01*
X201277649Y-108800500D01*
X201482351Y-108800500D01*
X201482352Y-108800500D01*
X201684534Y-108768477D01*
X201879219Y-108705220D01*
X202061610Y-108612287D01*
X202157375Y-108542710D01*
X202227213Y-108491971D01*
X202227215Y-108491968D01*
X202227219Y-108491966D01*
X202371966Y-108347219D01*
X202465900Y-108217927D01*
X202521227Y-108175263D01*
X202590841Y-108169283D01*
X202652636Y-108201889D01*
G37*
%TD.AperFunction*%
%TA.AperFunction,Conductor*%
G36*
X227982433Y-98662547D02*
G01*
X228108632Y-98703553D01*
X228196110Y-98717408D01*
X228341903Y-98740500D01*
X228341908Y-98740500D01*
X228578097Y-98740500D01*
X228684126Y-98723705D01*
X228811368Y-98703553D01*
X228937566Y-98662547D01*
X229007404Y-98660553D01*
X229063563Y-98692798D01*
X230519478Y-100148713D01*
X230519480Y-100148716D01*
X230536862Y-100166098D01*
X230558584Y-100187821D01*
X230578247Y-100223833D01*
X230592067Y-100249142D01*
X230592066Y-100249143D01*
X230592068Y-100249145D01*
X230589549Y-100284350D01*
X230587083Y-100318834D01*
X230587082Y-100318835D01*
X230587082Y-100318836D01*
X230584150Y-100322752D01*
X230545211Y-100374767D01*
X230545210Y-100374767D01*
X230545209Y-100374769D01*
X230510613Y-100387671D01*
X230479747Y-100399184D01*
X230470901Y-100399500D01*
X230086670Y-100399500D01*
X230086654Y-100399499D01*
X230079058Y-100399499D01*
X229920943Y-100399499D01*
X229844579Y-100419961D01*
X229768214Y-100440423D01*
X229768209Y-100440426D01*
X229631290Y-100519475D01*
X229631282Y-100519481D01*
X214312180Y-115838584D01*
X214250857Y-115872069D01*
X214181165Y-115867085D01*
X214125232Y-115825213D01*
X214100815Y-115759749D01*
X214100499Y-115750903D01*
X214100499Y-115499998D01*
X214100498Y-115499981D01*
X214089999Y-115397203D01*
X214089998Y-115397200D01*
X214081581Y-115371800D01*
X214034814Y-115230666D01*
X214023914Y-115212994D01*
X214018960Y-115204961D01*
X214000500Y-115139867D01*
X214000500Y-114780554D01*
X214020185Y-114713515D01*
X214068206Y-114670069D01*
X214181610Y-114612287D01*
X214231144Y-114576298D01*
X214347213Y-114491971D01*
X214347215Y-114491968D01*
X214347219Y-114491966D01*
X214491966Y-114347219D01*
X214491968Y-114347215D01*
X214491971Y-114347213D01*
X214546048Y-114272781D01*
X214612287Y-114181610D01*
X214705220Y-113999219D01*
X214768477Y-113804534D01*
X214800500Y-113602352D01*
X214800500Y-113397648D01*
X214768477Y-113195466D01*
X214705220Y-113000781D01*
X214705218Y-113000778D01*
X214705218Y-113000776D01*
X214671503Y-112934607D01*
X214612287Y-112818390D01*
X214604556Y-112807749D01*
X214491971Y-112652786D01*
X214347213Y-112508028D01*
X214181613Y-112387715D01*
X214181612Y-112387714D01*
X214181610Y-112387713D01*
X214124653Y-112358691D01*
X213999223Y-112294781D01*
X213804534Y-112231522D01*
X213629995Y-112203878D01*
X213602352Y-112199500D01*
X213397648Y-112199500D01*
X213373329Y-112203351D01*
X213195465Y-112231522D01*
X213000776Y-112294781D01*
X212818390Y-112387712D01*
X212797385Y-112402974D01*
X212731578Y-112426453D01*
X212663524Y-112410627D01*
X212614830Y-112360521D01*
X212600500Y-112302655D01*
X212600500Y-101800097D01*
X212620185Y-101733058D01*
X212636819Y-101712416D01*
X213212417Y-101136819D01*
X213273740Y-101103334D01*
X213300098Y-101100500D01*
X225113331Y-101100500D01*
X225113347Y-101100501D01*
X225120943Y-101100501D01*
X225279054Y-101100501D01*
X225279057Y-101100501D01*
X225431785Y-101059577D01*
X225481904Y-101030639D01*
X225568716Y-100980520D01*
X225680520Y-100868716D01*
X225680520Y-100868714D01*
X225690728Y-100858507D01*
X225690730Y-100858504D01*
X227856437Y-98692796D01*
X227917758Y-98659313D01*
X227982433Y-98662547D01*
G37*
%TD.AperFunction*%
%TA.AperFunction,Conductor*%
G36*
X201961857Y-71019685D02*
G01*
X201992845Y-71052179D01*
X201994554Y-71050869D01*
X201999496Y-71057310D01*
X201999499Y-71057313D01*
X201999500Y-71057314D01*
X202092686Y-71150500D01*
X202206814Y-71216392D01*
X202334108Y-71250500D01*
X202334110Y-71250500D01*
X202465890Y-71250500D01*
X202465892Y-71250500D01*
X202593186Y-71216392D01*
X202707314Y-71150500D01*
X202737319Y-71120495D01*
X202798642Y-71087010D01*
X202868334Y-71091994D01*
X202912681Y-71120495D01*
X202942686Y-71150500D01*
X203056814Y-71216392D01*
X203184108Y-71250500D01*
X203184110Y-71250500D01*
X203315890Y-71250500D01*
X203315892Y-71250500D01*
X203443186Y-71216392D01*
X203557314Y-71150500D01*
X203587319Y-71120495D01*
X203648642Y-71087010D01*
X203718334Y-71091994D01*
X203762681Y-71120495D01*
X203792686Y-71150500D01*
X203906814Y-71216392D01*
X204034108Y-71250500D01*
X204034110Y-71250500D01*
X204165890Y-71250500D01*
X204165892Y-71250500D01*
X204293186Y-71216392D01*
X204407314Y-71150500D01*
X204437319Y-71120495D01*
X204498642Y-71087010D01*
X204568334Y-71091994D01*
X204612681Y-71120495D01*
X204642686Y-71150500D01*
X204756814Y-71216392D01*
X204884108Y-71250500D01*
X204884110Y-71250500D01*
X205015890Y-71250500D01*
X205015892Y-71250500D01*
X205143186Y-71216392D01*
X205257314Y-71150500D01*
X205287319Y-71120495D01*
X205348642Y-71087010D01*
X205418334Y-71091994D01*
X205462681Y-71120495D01*
X205492686Y-71150500D01*
X205606814Y-71216392D01*
X205734108Y-71250500D01*
X205734110Y-71250500D01*
X205865890Y-71250500D01*
X205865892Y-71250500D01*
X205993186Y-71216392D01*
X206107314Y-71150500D01*
X206137319Y-71120495D01*
X206198642Y-71087010D01*
X206268334Y-71091994D01*
X206312681Y-71120495D01*
X206342686Y-71150500D01*
X206456814Y-71216392D01*
X206584108Y-71250500D01*
X206584110Y-71250500D01*
X206715890Y-71250500D01*
X206715892Y-71250500D01*
X206843186Y-71216392D01*
X206957314Y-71150500D01*
X206987319Y-71120495D01*
X207048642Y-71087010D01*
X207118334Y-71091994D01*
X207162681Y-71120495D01*
X207192686Y-71150500D01*
X207306814Y-71216392D01*
X207434108Y-71250500D01*
X207434110Y-71250500D01*
X207565890Y-71250500D01*
X207565892Y-71250500D01*
X207693186Y-71216392D01*
X207807314Y-71150500D01*
X207900500Y-71057314D01*
X207900503Y-71057307D01*
X207905450Y-71050863D01*
X207907179Y-71052190D01*
X207911469Y-71042797D01*
X207931301Y-71030051D01*
X207948364Y-71013783D01*
X207961619Y-71010567D01*
X207970247Y-71005023D01*
X208005182Y-71000000D01*
X208096163Y-71000000D01*
X208106979Y-71000500D01*
X208107290Y-71000500D01*
X230043021Y-71000500D01*
X230053837Y-71000000D01*
X230144818Y-71000000D01*
X230211857Y-71019685D01*
X230242845Y-71052179D01*
X230244554Y-71050869D01*
X230249496Y-71057310D01*
X230249499Y-71057313D01*
X230249500Y-71057314D01*
X230342686Y-71150500D01*
X230456814Y-71216392D01*
X230584108Y-71250500D01*
X230584110Y-71250500D01*
X230715890Y-71250500D01*
X230715892Y-71250500D01*
X230843186Y-71216392D01*
X230957314Y-71150500D01*
X230987319Y-71120495D01*
X231048642Y-71087010D01*
X231118334Y-71091994D01*
X231162681Y-71120495D01*
X231192686Y-71150500D01*
X231306814Y-71216392D01*
X231434108Y-71250500D01*
X231434110Y-71250500D01*
X231565890Y-71250500D01*
X231565892Y-71250500D01*
X231693186Y-71216392D01*
X231807314Y-71150500D01*
X231837319Y-71120495D01*
X231898642Y-71087010D01*
X231968334Y-71091994D01*
X232012681Y-71120495D01*
X232042686Y-71150500D01*
X232156814Y-71216392D01*
X232284108Y-71250500D01*
X232284110Y-71250500D01*
X232415890Y-71250500D01*
X232415892Y-71250500D01*
X232543186Y-71216392D01*
X232657314Y-71150500D01*
X232687319Y-71120495D01*
X232748642Y-71087010D01*
X232818334Y-71091994D01*
X232862681Y-71120495D01*
X232892686Y-71150500D01*
X233006814Y-71216392D01*
X233134108Y-71250500D01*
X233134110Y-71250500D01*
X233265890Y-71250500D01*
X233265892Y-71250500D01*
X233393186Y-71216392D01*
X233507314Y-71150500D01*
X233537319Y-71120495D01*
X233598642Y-71087010D01*
X233668334Y-71091994D01*
X233712681Y-71120495D01*
X233742686Y-71150500D01*
X233856814Y-71216392D01*
X233984108Y-71250500D01*
X233984110Y-71250500D01*
X234115890Y-71250500D01*
X234115892Y-71250500D01*
X234243186Y-71216392D01*
X234357314Y-71150500D01*
X234387319Y-71120495D01*
X234448642Y-71087010D01*
X234518334Y-71091994D01*
X234562681Y-71120495D01*
X234592686Y-71150500D01*
X234706814Y-71216392D01*
X234834108Y-71250500D01*
X234834110Y-71250500D01*
X234965890Y-71250500D01*
X234965892Y-71250500D01*
X235093186Y-71216392D01*
X235207314Y-71150500D01*
X235237319Y-71120495D01*
X235298642Y-71087010D01*
X235368334Y-71091994D01*
X235412681Y-71120495D01*
X235442686Y-71150500D01*
X235556814Y-71216392D01*
X235684108Y-71250500D01*
X235684110Y-71250500D01*
X235815890Y-71250500D01*
X235815892Y-71250500D01*
X235943186Y-71216392D01*
X236057314Y-71150500D01*
X236150500Y-71057314D01*
X236150503Y-71057307D01*
X236155450Y-71050863D01*
X236157179Y-71052190D01*
X236161469Y-71042797D01*
X236181301Y-71030051D01*
X236198364Y-71013783D01*
X236211619Y-71010567D01*
X236220247Y-71005023D01*
X236255182Y-71000000D01*
X236346163Y-71000000D01*
X236356979Y-71000500D01*
X236357290Y-71000500D01*
X255043021Y-71000500D01*
X255053837Y-71000000D01*
X255144818Y-71000000D01*
X255211857Y-71019685D01*
X255242845Y-71052179D01*
X255244554Y-71050869D01*
X255249496Y-71057310D01*
X255249499Y-71057313D01*
X255249500Y-71057314D01*
X255342686Y-71150500D01*
X255456814Y-71216392D01*
X255584108Y-71250500D01*
X255584110Y-71250500D01*
X255715890Y-71250500D01*
X255715892Y-71250500D01*
X255843186Y-71216392D01*
X255957314Y-71150500D01*
X255987319Y-71120495D01*
X256048642Y-71087010D01*
X256118334Y-71091994D01*
X256162681Y-71120495D01*
X256192686Y-71150500D01*
X256306814Y-71216392D01*
X256434108Y-71250500D01*
X256434110Y-71250500D01*
X256565890Y-71250500D01*
X256565892Y-71250500D01*
X256693186Y-71216392D01*
X256807314Y-71150500D01*
X256837319Y-71120495D01*
X256898642Y-71087010D01*
X256968334Y-71091994D01*
X257012681Y-71120495D01*
X257042686Y-71150500D01*
X257156814Y-71216392D01*
X257284108Y-71250500D01*
X257284110Y-71250500D01*
X257415890Y-71250500D01*
X257415892Y-71250500D01*
X257543186Y-71216392D01*
X257657314Y-71150500D01*
X257687319Y-71120495D01*
X257748642Y-71087010D01*
X257818334Y-71091994D01*
X257862681Y-71120495D01*
X257892686Y-71150500D01*
X258006814Y-71216392D01*
X258134108Y-71250500D01*
X258134110Y-71250500D01*
X258265890Y-71250500D01*
X258265892Y-71250500D01*
X258393186Y-71216392D01*
X258507314Y-71150500D01*
X258537319Y-71120495D01*
X258598642Y-71087010D01*
X258668334Y-71091994D01*
X258712681Y-71120495D01*
X258742686Y-71150500D01*
X258856814Y-71216392D01*
X258984108Y-71250500D01*
X258984110Y-71250500D01*
X259115890Y-71250500D01*
X259115892Y-71250500D01*
X259243186Y-71216392D01*
X259357314Y-71150500D01*
X259387319Y-71120495D01*
X259448642Y-71087010D01*
X259518334Y-71091994D01*
X259562681Y-71120495D01*
X259592686Y-71150500D01*
X259706814Y-71216392D01*
X259834108Y-71250500D01*
X259834110Y-71250500D01*
X259965890Y-71250500D01*
X259965892Y-71250500D01*
X260093186Y-71216392D01*
X260207314Y-71150500D01*
X260237319Y-71120495D01*
X260298642Y-71087010D01*
X260368334Y-71091994D01*
X260412681Y-71120495D01*
X260442686Y-71150500D01*
X260556814Y-71216392D01*
X260684108Y-71250500D01*
X260684110Y-71250500D01*
X260815890Y-71250500D01*
X260815892Y-71250500D01*
X260943186Y-71216392D01*
X261057314Y-71150500D01*
X261150500Y-71057314D01*
X261150503Y-71057307D01*
X261155450Y-71050863D01*
X261157179Y-71052190D01*
X261161469Y-71042797D01*
X261181301Y-71030051D01*
X261198364Y-71013783D01*
X261211619Y-71010567D01*
X261220247Y-71005023D01*
X261255182Y-71000000D01*
X261346163Y-71000000D01*
X261356979Y-71000500D01*
X261357290Y-71000500D01*
X281043021Y-71000500D01*
X281053837Y-71000000D01*
X281144818Y-71000000D01*
X281211857Y-71019685D01*
X281242845Y-71052179D01*
X281244554Y-71050869D01*
X281249496Y-71057310D01*
X281249499Y-71057313D01*
X281249500Y-71057314D01*
X281342686Y-71150500D01*
X281456814Y-71216392D01*
X281584108Y-71250500D01*
X281584110Y-71250500D01*
X281715890Y-71250500D01*
X281715892Y-71250500D01*
X281843186Y-71216392D01*
X281957314Y-71150500D01*
X281987319Y-71120495D01*
X282048642Y-71087010D01*
X282118334Y-71091994D01*
X282162681Y-71120495D01*
X282192686Y-71150500D01*
X282306814Y-71216392D01*
X282434108Y-71250500D01*
X282434110Y-71250500D01*
X282565890Y-71250500D01*
X282565892Y-71250500D01*
X282693186Y-71216392D01*
X282807314Y-71150500D01*
X282837319Y-71120495D01*
X282898642Y-71087010D01*
X282968334Y-71091994D01*
X283012681Y-71120495D01*
X283042686Y-71150500D01*
X283156814Y-71216392D01*
X283284108Y-71250500D01*
X283284110Y-71250500D01*
X283415890Y-71250500D01*
X283415892Y-71250500D01*
X283543186Y-71216392D01*
X283657314Y-71150500D01*
X283687319Y-71120495D01*
X283748642Y-71087010D01*
X283818334Y-71091994D01*
X283862681Y-71120495D01*
X283892686Y-71150500D01*
X284006814Y-71216392D01*
X284134108Y-71250500D01*
X284134110Y-71250500D01*
X284265890Y-71250500D01*
X284265892Y-71250500D01*
X284393186Y-71216392D01*
X284507314Y-71150500D01*
X284537319Y-71120495D01*
X284598642Y-71087010D01*
X284668334Y-71091994D01*
X284712681Y-71120495D01*
X284742686Y-71150500D01*
X284856814Y-71216392D01*
X284984108Y-71250500D01*
X284984110Y-71250500D01*
X285115890Y-71250500D01*
X285115892Y-71250500D01*
X285243186Y-71216392D01*
X285357314Y-71150500D01*
X285387319Y-71120495D01*
X285448642Y-71087010D01*
X285518334Y-71091994D01*
X285562681Y-71120495D01*
X285592686Y-71150500D01*
X285706814Y-71216392D01*
X285834108Y-71250500D01*
X285834110Y-71250500D01*
X285965890Y-71250500D01*
X285965892Y-71250500D01*
X286093186Y-71216392D01*
X286207314Y-71150500D01*
X286237319Y-71120495D01*
X286298642Y-71087010D01*
X286368334Y-71091994D01*
X286412681Y-71120495D01*
X286442686Y-71150500D01*
X286556814Y-71216392D01*
X286684108Y-71250500D01*
X286684110Y-71250500D01*
X286815890Y-71250500D01*
X286815892Y-71250500D01*
X286943186Y-71216392D01*
X287057314Y-71150500D01*
X287150500Y-71057314D01*
X287150503Y-71057307D01*
X287155450Y-71050863D01*
X287157179Y-71052190D01*
X287161469Y-71042797D01*
X287181301Y-71030051D01*
X287198364Y-71013783D01*
X287211619Y-71010567D01*
X287220247Y-71005023D01*
X287255182Y-71000000D01*
X287346163Y-71000000D01*
X287356979Y-71000500D01*
X287357290Y-71000500D01*
X287449793Y-71000500D01*
X287699793Y-71000500D01*
X291875500Y-71000500D01*
X291942539Y-71020185D01*
X291988294Y-71072989D01*
X291999500Y-71124500D01*
X291999500Y-80643031D01*
X292000000Y-80653835D01*
X292000000Y-80744818D01*
X291980315Y-80811857D01*
X291947820Y-80842850D01*
X291949129Y-80844556D01*
X291942688Y-80849497D01*
X291849500Y-80942686D01*
X291783608Y-81056812D01*
X291772092Y-81099792D01*
X291749500Y-81184108D01*
X291749500Y-81315892D01*
X291755107Y-81336817D01*
X291783608Y-81443187D01*
X291812345Y-81492960D01*
X291849500Y-81557314D01*
X291849502Y-81557316D01*
X291879505Y-81587319D01*
X291912990Y-81648642D01*
X291908006Y-81718334D01*
X291879505Y-81762681D01*
X291849502Y-81792683D01*
X291849500Y-81792686D01*
X291783608Y-81906812D01*
X291749500Y-82034108D01*
X291749500Y-82165891D01*
X291783608Y-82293187D01*
X291816554Y-82350250D01*
X291849500Y-82407314D01*
X291849502Y-82407316D01*
X291879505Y-82437319D01*
X291912990Y-82498642D01*
X291908006Y-82568334D01*
X291879505Y-82612681D01*
X291849502Y-82642683D01*
X291849500Y-82642686D01*
X291783608Y-82756812D01*
X291749500Y-82884108D01*
X291749500Y-83015891D01*
X291783608Y-83143187D01*
X291784376Y-83144517D01*
X291849500Y-83257314D01*
X291849502Y-83257316D01*
X291879505Y-83287319D01*
X291912990Y-83348642D01*
X291908006Y-83418334D01*
X291879505Y-83462681D01*
X291849502Y-83492683D01*
X291849500Y-83492686D01*
X291783608Y-83606812D01*
X291749500Y-83734108D01*
X291749500Y-83865891D01*
X291783608Y-83993187D01*
X291816554Y-84050250D01*
X291849500Y-84107314D01*
X291849502Y-84107316D01*
X291879505Y-84137319D01*
X291912990Y-84198642D01*
X291908006Y-84268334D01*
X291879505Y-84312681D01*
X291849502Y-84342683D01*
X291849500Y-84342686D01*
X291783608Y-84456812D01*
X291749500Y-84584108D01*
X291749500Y-84715891D01*
X291783608Y-84843187D01*
X291816554Y-84900250D01*
X291849500Y-84957314D01*
X291849502Y-84957316D01*
X291879505Y-84987319D01*
X291912990Y-85048642D01*
X291908006Y-85118334D01*
X291879505Y-85162681D01*
X291849502Y-85192683D01*
X291849500Y-85192686D01*
X291783608Y-85306812D01*
X291749500Y-85434108D01*
X291749500Y-85565891D01*
X291783608Y-85693187D01*
X291816554Y-85750250D01*
X291849500Y-85807314D01*
X291849502Y-85807316D01*
X291879505Y-85837319D01*
X291912990Y-85898642D01*
X291908006Y-85968334D01*
X291879505Y-86012681D01*
X291849502Y-86042683D01*
X291849500Y-86042686D01*
X291783608Y-86156812D01*
X291749500Y-86284108D01*
X291749500Y-86415891D01*
X291783608Y-86543187D01*
X291816554Y-86600250D01*
X291849500Y-86657314D01*
X291942686Y-86750500D01*
X291942688Y-86750501D01*
X291949137Y-86755450D01*
X291947810Y-86757178D01*
X291957203Y-86761468D01*
X291969938Y-86781285D01*
X291986199Y-86798328D01*
X291989420Y-86811600D01*
X291994977Y-86820246D01*
X292000000Y-86855181D01*
X292000000Y-86946162D01*
X291999500Y-86956975D01*
X291999500Y-108876000D01*
X291979815Y-108943039D01*
X291927011Y-108988794D01*
X291875500Y-109000000D01*
X289400598Y-109000000D01*
X289333559Y-108980315D01*
X289312917Y-108963681D01*
X283987590Y-103638355D01*
X283987588Y-103638352D01*
X283868717Y-103519481D01*
X283868716Y-103519480D01*
X283781904Y-103469360D01*
X283781904Y-103469359D01*
X283781900Y-103469358D01*
X283731785Y-103440423D01*
X283579057Y-103399499D01*
X283420943Y-103399499D01*
X283413347Y-103399499D01*
X283413331Y-103399500D01*
X250086670Y-103399500D01*
X250086654Y-103399499D01*
X250079058Y-103399499D01*
X249920943Y-103399499D01*
X249844579Y-103419961D01*
X249768214Y-103440423D01*
X249768209Y-103440426D01*
X249631290Y-103519475D01*
X249631282Y-103519481D01*
X249387582Y-103763181D01*
X249326259Y-103796666D01*
X249299901Y-103799500D01*
X248599998Y-103799500D01*
X248599980Y-103799501D01*
X248497203Y-103810000D01*
X248497200Y-103810001D01*
X248330668Y-103865185D01*
X248330663Y-103865187D01*
X248181342Y-103957289D01*
X248057289Y-104081342D01*
X247965187Y-104230663D01*
X247965185Y-104230668D01*
X247937405Y-104314504D01*
X247897632Y-104371949D01*
X247833116Y-104398772D01*
X247819699Y-104399500D01*
X246413268Y-104399500D01*
X246413252Y-104399499D01*
X246405656Y-104399499D01*
X246247541Y-104399499D01*
X246094813Y-104440423D01*
X245965372Y-104515156D01*
X245957879Y-104519482D01*
X237669481Y-112807880D01*
X237669477Y-112807885D01*
X237649399Y-112842664D01*
X237649398Y-112842666D01*
X237590423Y-112944813D01*
X237549499Y-113097541D01*
X237549499Y-113097543D01*
X237549499Y-113265644D01*
X237549500Y-113265657D01*
X237549500Y-117473699D01*
X237529815Y-117540738D01*
X237481795Y-117584184D01*
X237311151Y-117671132D01*
X237107350Y-117819201D01*
X237107345Y-117819205D01*
X236929205Y-117997345D01*
X236929201Y-117997350D01*
X236781132Y-118201151D01*
X236666760Y-118425616D01*
X236588910Y-118665214D01*
X236549500Y-118914038D01*
X236549500Y-119165961D01*
X236588910Y-119414785D01*
X236666760Y-119654383D01*
X236781132Y-119878848D01*
X236929201Y-120082649D01*
X236929205Y-120082654D01*
X237107345Y-120260794D01*
X237107350Y-120260798D01*
X237174949Y-120309911D01*
X237311155Y-120408870D01*
X237454184Y-120481747D01*
X237535616Y-120523239D01*
X237535618Y-120523239D01*
X237535621Y-120523241D01*
X237775215Y-120601090D01*
X238024038Y-120640500D01*
X238024039Y-120640500D01*
X238275961Y-120640500D01*
X238275962Y-120640500D01*
X238524785Y-120601090D01*
X238764379Y-120523241D01*
X238988845Y-120408870D01*
X239192656Y-120260793D01*
X239370793Y-120082656D01*
X239518870Y-119878845D01*
X239633241Y-119654379D01*
X239711090Y-119414785D01*
X239750500Y-119165962D01*
X239750500Y-118914038D01*
X239711090Y-118665215D01*
X239633241Y-118425621D01*
X239633239Y-118425618D01*
X239633239Y-118425616D01*
X239572706Y-118306814D01*
X239518870Y-118201155D01*
X239473684Y-118138962D01*
X239370798Y-117997350D01*
X239370794Y-117997345D01*
X239192654Y-117819205D01*
X239192649Y-117819201D01*
X238988848Y-117671132D01*
X238988847Y-117671131D01*
X238988845Y-117671130D01*
X238895089Y-117623359D01*
X238818205Y-117584184D01*
X238767409Y-117536209D01*
X238750500Y-117473699D01*
X238750500Y-115494538D01*
X238770185Y-115427499D01*
X238822989Y-115381744D01*
X238892147Y-115371800D01*
X238955703Y-115400825D01*
X238972876Y-115419052D01*
X238994352Y-115447040D01*
X238994358Y-115447047D01*
X239202952Y-115655641D01*
X239202959Y-115655647D01*
X239437006Y-115835238D01*
X239692489Y-115982741D01*
X239692490Y-115982741D01*
X239692493Y-115982743D01*
X239965048Y-116095639D01*
X240250007Y-116171993D01*
X240542494Y-116210500D01*
X240542501Y-116210500D01*
X240837499Y-116210500D01*
X240837506Y-116210500D01*
X241129993Y-116171993D01*
X241414952Y-116095639D01*
X241687507Y-115982743D01*
X241942994Y-115835238D01*
X242177042Y-115655646D01*
X242385646Y-115447042D01*
X242565238Y-115212994D01*
X242712743Y-114957507D01*
X242825639Y-114684952D01*
X242901993Y-114399993D01*
X242940500Y-114107506D01*
X242940500Y-113812494D01*
X242901993Y-113520007D01*
X242825639Y-113235048D01*
X242712743Y-112962493D01*
X242702535Y-112944813D01*
X242565238Y-112707006D01*
X242385647Y-112472959D01*
X242385641Y-112472952D01*
X242177047Y-112264358D01*
X242177040Y-112264352D01*
X241942993Y-112084761D01*
X241687510Y-111937258D01*
X241687500Y-111937254D01*
X241414961Y-111824364D01*
X241414954Y-111824362D01*
X241414952Y-111824361D01*
X241129993Y-111748007D01*
X241081113Y-111741571D01*
X240837513Y-111709500D01*
X240837506Y-111709500D01*
X240765695Y-111709500D01*
X240698656Y-111689815D01*
X240652901Y-111637011D01*
X240642957Y-111567853D01*
X240671982Y-111504297D01*
X240678014Y-111497819D01*
X243516319Y-108659515D01*
X246539015Y-105636819D01*
X246600338Y-105603334D01*
X246626696Y-105600500D01*
X247819699Y-105600500D01*
X247886738Y-105620185D01*
X247932493Y-105672989D01*
X247937405Y-105685496D01*
X247965185Y-105769331D01*
X247965187Y-105769336D01*
X247999999Y-105825776D01*
X248057288Y-105918656D01*
X248181344Y-106042712D01*
X248330666Y-106134814D01*
X248330667Y-106134814D01*
X248330670Y-106134816D01*
X248336677Y-106137617D01*
X248389117Y-106183788D01*
X248408271Y-106250981D01*
X248388057Y-106317862D01*
X248336677Y-106362383D01*
X248330670Y-106365183D01*
X248181342Y-106457289D01*
X248057289Y-106581342D01*
X247965187Y-106730663D01*
X247965186Y-106730666D01*
X247910001Y-106897203D01*
X247910001Y-106897204D01*
X247910000Y-106897204D01*
X247899500Y-106999983D01*
X247899500Y-108000001D01*
X247899501Y-108000019D01*
X247910000Y-108102796D01*
X247910001Y-108102799D01*
X247932032Y-108169283D01*
X247965186Y-108269334D01*
X248057288Y-108418656D01*
X248181344Y-108542712D01*
X248330666Y-108634814D01*
X248330667Y-108634814D01*
X248336813Y-108638605D01*
X248335706Y-108640399D01*
X248340916Y-108644985D01*
X248356703Y-108652195D01*
X248366598Y-108667593D01*
X248380337Y-108679687D01*
X248385224Y-108696574D01*
X248394477Y-108710973D01*
X248399500Y-108745908D01*
X248399500Y-108876000D01*
X248379815Y-108943039D01*
X248327011Y-108988794D01*
X248275500Y-109000000D01*
X244750000Y-109000000D01*
X244750000Y-113518305D01*
X244743931Y-113556624D01*
X244696598Y-113702298D01*
X244669500Y-113873389D01*
X244669500Y-114046610D01*
X244690881Y-114181610D01*
X244696598Y-114217701D01*
X244743931Y-114363375D01*
X244750000Y-114401693D01*
X244750000Y-117632804D01*
X244730315Y-117699843D01*
X244713681Y-117720485D01*
X228502181Y-133931985D01*
X228440858Y-133965470D01*
X228371166Y-133960486D01*
X228315233Y-133918614D01*
X228290816Y-133853150D01*
X228290500Y-133844304D01*
X228290500Y-133772500D01*
X228290499Y-133772486D01*
X228288646Y-133758415D01*
X228251993Y-133480007D01*
X228175639Y-133195048D01*
X228062743Y-132922493D01*
X228042047Y-132886647D01*
X227915238Y-132667006D01*
X227735647Y-132432959D01*
X227735641Y-132432952D01*
X227527047Y-132224358D01*
X227527040Y-132224352D01*
X227292993Y-132044761D01*
X227037510Y-131897258D01*
X227037500Y-131897254D01*
X226764961Y-131784364D01*
X226764954Y-131784362D01*
X226764952Y-131784361D01*
X226479993Y-131708007D01*
X226431113Y-131701571D01*
X226187513Y-131669500D01*
X226187506Y-131669500D01*
X225892494Y-131669500D01*
X225892486Y-131669500D01*
X225614085Y-131706153D01*
X225600007Y-131708007D01*
X225315048Y-131784361D01*
X225315038Y-131784364D01*
X225042499Y-131897254D01*
X225042489Y-131897258D01*
X224787006Y-132044761D01*
X224552959Y-132224352D01*
X224552952Y-132224358D01*
X224344358Y-132432952D01*
X224344352Y-132432959D01*
X224164761Y-132667006D01*
X224017258Y-132922489D01*
X224017254Y-132922499D01*
X223904364Y-133195038D01*
X223904361Y-133195048D01*
X223828008Y-133480004D01*
X223828006Y-133480015D01*
X223789500Y-133772486D01*
X223789500Y-134067513D01*
X223815497Y-134264970D01*
X223828007Y-134359993D01*
X223902212Y-134636930D01*
X223904361Y-134644951D01*
X223904364Y-134644961D01*
X224017254Y-134917500D01*
X224017258Y-134917510D01*
X224164761Y-135172993D01*
X224344352Y-135407040D01*
X224344358Y-135407047D01*
X224552952Y-135615641D01*
X224552959Y-135615647D01*
X224787006Y-135795238D01*
X225042489Y-135942741D01*
X225042490Y-135942741D01*
X225042493Y-135942743D01*
X225315048Y-136055639D01*
X225600007Y-136131993D01*
X225892494Y-136170500D01*
X225892501Y-136170500D01*
X225964304Y-136170500D01*
X226031343Y-136190185D01*
X226077098Y-136242989D01*
X226087042Y-136312147D01*
X226058017Y-136375703D01*
X226051985Y-136382181D01*
X224682588Y-137751578D01*
X224621265Y-137785063D01*
X224551573Y-137780079D01*
X224522022Y-137764215D01*
X224338848Y-137631132D01*
X224338847Y-137631131D01*
X224338845Y-137631130D01*
X224268747Y-137595413D01*
X224114383Y-137516760D01*
X223874785Y-137438910D01*
X223625962Y-137399500D01*
X223374038Y-137399500D01*
X223249626Y-137419205D01*
X223125214Y-137438910D01*
X222885616Y-137516760D01*
X222661151Y-137631132D01*
X222457350Y-137779201D01*
X222457345Y-137779205D01*
X222279205Y-137957345D01*
X222279201Y-137957350D01*
X222131132Y-138161151D01*
X222016760Y-138385616D01*
X221938910Y-138625214D01*
X221918899Y-138751557D01*
X221899500Y-138874038D01*
X221899500Y-139125962D01*
X221921759Y-139266498D01*
X221938910Y-139374785D01*
X222016760Y-139614383D01*
X222131132Y-139838848D01*
X222279201Y-140042649D01*
X222279205Y-140042654D01*
X222457345Y-140220794D01*
X222457350Y-140220798D01*
X222549593Y-140287816D01*
X222661155Y-140368870D01*
X222758866Y-140418656D01*
X222885616Y-140483239D01*
X222885618Y-140483239D01*
X222885621Y-140483241D01*
X223125215Y-140561090D01*
X223374038Y-140600500D01*
X223374039Y-140600500D01*
X223625961Y-140600500D01*
X223625962Y-140600500D01*
X223874785Y-140561090D01*
X224114379Y-140483241D01*
X224338845Y-140368870D01*
X224542656Y-140220793D01*
X224720793Y-140042656D01*
X224868870Y-139838845D01*
X224983241Y-139614379D01*
X225061090Y-139374785D01*
X225100500Y-139125962D01*
X225100500Y-139083498D01*
X225120185Y-139016459D01*
X225136814Y-138995822D01*
X229881038Y-134251597D01*
X229942359Y-134218114D01*
X230012051Y-134223098D01*
X230067984Y-134264970D01*
X230086647Y-134300960D01*
X230100127Y-134342445D01*
X230178768Y-134496788D01*
X230280586Y-134636928D01*
X230403072Y-134759414D01*
X230543212Y-134861232D01*
X230697555Y-134939873D01*
X230862299Y-134993402D01*
X231033389Y-135020500D01*
X231033390Y-135020500D01*
X231206610Y-135020500D01*
X231206611Y-135020500D01*
X231377701Y-134993402D01*
X231542445Y-134939873D01*
X231696788Y-134861232D01*
X231836928Y-134759414D01*
X231959414Y-134636928D01*
X232061232Y-134496788D01*
X232139873Y-134342445D01*
X232193402Y-134177701D01*
X232220500Y-134006611D01*
X232220500Y-133833389D01*
X232193402Y-133662299D01*
X232139873Y-133497555D01*
X232061232Y-133343212D01*
X231959414Y-133203072D01*
X231836928Y-133080586D01*
X231696788Y-132978768D01*
X231542445Y-132900127D01*
X231500960Y-132886647D01*
X231443285Y-132847209D01*
X231416088Y-132782850D01*
X231428003Y-132714004D01*
X231451596Y-132681039D01*
X244538319Y-119594317D01*
X244599642Y-119560832D01*
X244669334Y-119565816D01*
X244725267Y-119607688D01*
X244749684Y-119673152D01*
X244750000Y-119681998D01*
X244750000Y-138000000D01*
X246351402Y-138000000D01*
X246372649Y-138006239D01*
X246394737Y-138007819D01*
X246405519Y-138015890D01*
X246418441Y-138019685D01*
X246432941Y-138036418D01*
X246450670Y-138049691D01*
X246455376Y-138062311D01*
X246464196Y-138072489D01*
X246467347Y-138094406D01*
X246475086Y-138115155D01*
X246472223Y-138128315D01*
X246474140Y-138141647D01*
X246464941Y-138161789D01*
X246460234Y-138183428D01*
X246446964Y-138201152D01*
X246445115Y-138205203D01*
X246439082Y-138211682D01*
X246387581Y-138263182D01*
X246326258Y-138296666D01*
X246299901Y-138299500D01*
X245599998Y-138299500D01*
X245599980Y-138299501D01*
X245497203Y-138310000D01*
X245497200Y-138310001D01*
X245330668Y-138365185D01*
X245330663Y-138365187D01*
X245181342Y-138457289D01*
X245175451Y-138463181D01*
X245148523Y-138477884D01*
X245122705Y-138494477D01*
X245116504Y-138495368D01*
X245114128Y-138496666D01*
X245087770Y-138499500D01*
X244912230Y-138499500D01*
X244845191Y-138479815D01*
X244824549Y-138463181D01*
X244818657Y-138457289D01*
X244818656Y-138457288D01*
X244702465Y-138385621D01*
X244669336Y-138365187D01*
X244669331Y-138365185D01*
X244667862Y-138364698D01*
X244502797Y-138310001D01*
X244502795Y-138310000D01*
X244400010Y-138299500D01*
X243599998Y-138299500D01*
X243599980Y-138299501D01*
X243497203Y-138310000D01*
X243497200Y-138310001D01*
X243330668Y-138365185D01*
X243330663Y-138365187D01*
X243181342Y-138457289D01*
X243087681Y-138550951D01*
X243026358Y-138584436D01*
X242956666Y-138579452D01*
X242912319Y-138550951D01*
X242818657Y-138457289D01*
X242818656Y-138457288D01*
X242702465Y-138385621D01*
X242669336Y-138365187D01*
X242669331Y-138365185D01*
X242667862Y-138364698D01*
X242502797Y-138310001D01*
X242502795Y-138310000D01*
X242400010Y-138299500D01*
X241599998Y-138299500D01*
X241599980Y-138299501D01*
X241497203Y-138310000D01*
X241497200Y-138310001D01*
X241330668Y-138365185D01*
X241330663Y-138365187D01*
X241181342Y-138457289D01*
X241057289Y-138581342D01*
X240965187Y-138730663D01*
X240965186Y-138730666D01*
X240910001Y-138897203D01*
X240910001Y-138897204D01*
X240910000Y-138897204D01*
X240899500Y-138999983D01*
X240899500Y-140000001D01*
X240899501Y-140000019D01*
X240910000Y-140102793D01*
X240910000Y-140102795D01*
X240928206Y-140157734D01*
X240934500Y-140196738D01*
X240934500Y-141589800D01*
X240914815Y-141656839D01*
X240905506Y-141669365D01*
X240779951Y-141842179D01*
X240683444Y-142031585D01*
X240617753Y-142233760D01*
X240584500Y-142443713D01*
X240584500Y-142656286D01*
X240617754Y-142866244D01*
X240619062Y-142870270D01*
X240621056Y-142940111D01*
X240588811Y-142996267D01*
X239371897Y-144213181D01*
X239310574Y-144246666D01*
X239284216Y-144249500D01*
X237702129Y-144249500D01*
X237702123Y-144249501D01*
X237642515Y-144255909D01*
X237543332Y-144292901D01*
X237473640Y-144297885D01*
X237456668Y-144292901D01*
X237357485Y-144255909D01*
X237357483Y-144255908D01*
X237297883Y-144249501D01*
X237297881Y-144249500D01*
X237297873Y-144249500D01*
X237297864Y-144249500D01*
X234702129Y-144249500D01*
X234702123Y-144249501D01*
X234642516Y-144255908D01*
X234507671Y-144306202D01*
X234507664Y-144306206D01*
X234392455Y-144392452D01*
X234392452Y-144392455D01*
X234306206Y-144507664D01*
X234306202Y-144507671D01*
X234255908Y-144642517D01*
X234249501Y-144702116D01*
X234249501Y-144702123D01*
X234249500Y-144702135D01*
X234249500Y-146284216D01*
X234229815Y-146351255D01*
X234213180Y-146371897D01*
X223362220Y-157222859D01*
X223362218Y-157222861D01*
X223323734Y-157261345D01*
X223222859Y-157362219D01*
X223113371Y-157526079D01*
X223113364Y-157526092D01*
X223037950Y-157708160D01*
X223037947Y-157708170D01*
X222999500Y-157901456D01*
X222999500Y-168037730D01*
X222979815Y-168104769D01*
X222927011Y-168150524D01*
X222857853Y-168160468D01*
X222794297Y-168131443D01*
X222787819Y-168125411D01*
X222765789Y-168103381D01*
X222765787Y-168103379D01*
X222616096Y-167994622D01*
X222451235Y-167910620D01*
X222451232Y-167910619D01*
X222275265Y-167853445D01*
X222183889Y-167838972D01*
X222092514Y-167824500D01*
X221907486Y-167824500D01*
X221846569Y-167834148D01*
X221724734Y-167853445D01*
X221548767Y-167910619D01*
X221548764Y-167910620D01*
X221383903Y-167994622D01*
X221341558Y-168025388D01*
X221234213Y-168103379D01*
X221234211Y-168103381D01*
X221234210Y-168103381D01*
X221103381Y-168234210D01*
X221103381Y-168234211D01*
X221103379Y-168234213D01*
X221056672Y-168298499D01*
X220994622Y-168383903D01*
X220910620Y-168548764D01*
X220910619Y-168548767D01*
X220853445Y-168724734D01*
X220853445Y-168724735D01*
X220853445Y-168724736D01*
X220824500Y-168907486D01*
X220824500Y-169092514D01*
X220838972Y-169183889D01*
X220853445Y-169275265D01*
X220910619Y-169451232D01*
X220910620Y-169451235D01*
X220968020Y-169563887D01*
X220994622Y-169616096D01*
X221103379Y-169765787D01*
X221234213Y-169896621D01*
X221383904Y-170005378D01*
X221464763Y-170046577D01*
X221548764Y-170089379D01*
X221548767Y-170089380D01*
X221636750Y-170117967D01*
X221724736Y-170146555D01*
X221907486Y-170175500D01*
X221907487Y-170175500D01*
X222092513Y-170175500D01*
X222092514Y-170175500D01*
X222275264Y-170146555D01*
X222451235Y-170089379D01*
X222616096Y-170005378D01*
X222765787Y-169896621D01*
X222896621Y-169765787D01*
X222899680Y-169761576D01*
X222955006Y-169718909D01*
X223024619Y-169712926D01*
X223086415Y-169745529D01*
X223100315Y-169761570D01*
X223103379Y-169765787D01*
X223234213Y-169896621D01*
X223383904Y-170005378D01*
X223464763Y-170046577D01*
X223548764Y-170089379D01*
X223548767Y-170089380D01*
X223636750Y-170117967D01*
X223724736Y-170146555D01*
X223907486Y-170175500D01*
X223907487Y-170175500D01*
X224092513Y-170175500D01*
X224092514Y-170175500D01*
X224275264Y-170146555D01*
X224451235Y-170089379D01*
X224616096Y-170005378D01*
X224765787Y-169896621D01*
X224896621Y-169765787D01*
X224899680Y-169761576D01*
X224955006Y-169718909D01*
X225024619Y-169712926D01*
X225086415Y-169745529D01*
X225100315Y-169761570D01*
X225103379Y-169765787D01*
X225234213Y-169896621D01*
X225383904Y-170005378D01*
X225464763Y-170046577D01*
X225548764Y-170089379D01*
X225548767Y-170089380D01*
X225636750Y-170117967D01*
X225724736Y-170146555D01*
X225907486Y-170175500D01*
X225907487Y-170175500D01*
X226092513Y-170175500D01*
X226092514Y-170175500D01*
X226275264Y-170146555D01*
X226451235Y-170089379D01*
X226616096Y-170005378D01*
X226765787Y-169896621D01*
X226896621Y-169765787D01*
X227005378Y-169616096D01*
X227089379Y-169451235D01*
X227146555Y-169275264D01*
X227175500Y-169092514D01*
X227175500Y-168907486D01*
X227146555Y-168724736D01*
X227119425Y-168641241D01*
X227117431Y-168571401D01*
X227149674Y-168515244D01*
X233588101Y-162076819D01*
X233649424Y-162043334D01*
X233675782Y-162040500D01*
X254127111Y-162040500D01*
X254194150Y-162060185D01*
X254214792Y-162076819D01*
X254322490Y-162184517D01*
X254513567Y-162323343D01*
X254570061Y-162352128D01*
X254724003Y-162430566D01*
X254724005Y-162430566D01*
X254724008Y-162430568D01*
X254844412Y-162469689D01*
X254948631Y-162503553D01*
X255181903Y-162540500D01*
X255181908Y-162540500D01*
X255418097Y-162540500D01*
X255651368Y-162503553D01*
X255660770Y-162500498D01*
X255875992Y-162430568D01*
X256086433Y-162323343D01*
X256277510Y-162184517D01*
X256444517Y-162017510D01*
X256583343Y-161826433D01*
X256690568Y-161615992D01*
X256763553Y-161391368D01*
X256775507Y-161315892D01*
X256800500Y-161158097D01*
X256800500Y-160921902D01*
X256763553Y-160688631D01*
X256691180Y-160465892D01*
X256690568Y-160464008D01*
X256690566Y-160464005D01*
X256690566Y-160464003D01*
X256614899Y-160315500D01*
X256583343Y-160253567D01*
X256444517Y-160062490D01*
X256277510Y-159895483D01*
X256086433Y-159756657D01*
X256059995Y-159743186D01*
X255875996Y-159649433D01*
X255651368Y-159576446D01*
X255418097Y-159539500D01*
X255418092Y-159539500D01*
X255181908Y-159539500D01*
X255181903Y-159539500D01*
X254948631Y-159576446D01*
X254724003Y-159649433D01*
X254513566Y-159756657D01*
X254457119Y-159797669D01*
X254322490Y-159895483D01*
X254322488Y-159895485D01*
X254322487Y-159895485D01*
X254214792Y-160003181D01*
X254153469Y-160036666D01*
X254127111Y-160039500D01*
X233111457Y-160039500D01*
X233059134Y-160049908D01*
X233059129Y-160049909D01*
X233056159Y-160050500D01*
X232918164Y-160077949D01*
X232882586Y-160092686D01*
X232874121Y-160096192D01*
X232874114Y-160096194D01*
X232736092Y-160153364D01*
X232736079Y-160153371D01*
X232572219Y-160262859D01*
X232519579Y-160315500D01*
X232432861Y-160402218D01*
X225362514Y-167472564D01*
X225362406Y-167472672D01*
X225362221Y-167472858D01*
X225362218Y-167472861D01*
X225222861Y-167612218D01*
X225220204Y-167616193D01*
X225212585Y-167623884D01*
X225186876Y-167638076D01*
X225162605Y-167654608D01*
X225156640Y-167654767D01*
X225151417Y-167657651D01*
X225122119Y-167655691D01*
X225092761Y-167656477D01*
X225087656Y-167653386D01*
X225081703Y-167652988D01*
X225058114Y-167635499D01*
X225032993Y-167620289D01*
X225030369Y-167614929D01*
X225025577Y-167611376D01*
X225015187Y-167583908D01*
X225002278Y-167557532D01*
X225001428Y-167547532D01*
X225000858Y-167546025D01*
X225001173Y-167544539D01*
X225000500Y-167536608D01*
X225000500Y-158465782D01*
X225020185Y-158398743D01*
X225036819Y-158378101D01*
X235628102Y-147786818D01*
X235689425Y-147753333D01*
X235715783Y-147750499D01*
X237297871Y-147750499D01*
X237297872Y-147750499D01*
X237357483Y-147744091D01*
X237456669Y-147707096D01*
X237526358Y-147702113D01*
X237543319Y-147707092D01*
X237642517Y-147744091D01*
X237702127Y-147750500D01*
X240297872Y-147750499D01*
X240357483Y-147744091D01*
X240492331Y-147693796D01*
X240607546Y-147607546D01*
X240693796Y-147492331D01*
X240744091Y-147357483D01*
X240750500Y-147297873D01*
X240750499Y-145715780D01*
X240770184Y-145648742D01*
X240786813Y-145628105D01*
X242572778Y-143842141D01*
X242572782Y-143842139D01*
X242712139Y-143702782D01*
X242762296Y-143627715D01*
X242780218Y-143606494D01*
X242786031Y-143600998D01*
X242814792Y-143580104D01*
X242929587Y-143465308D01*
X242930829Y-143464135D01*
X242960458Y-143449023D01*
X242989648Y-143433084D01*
X242991456Y-143433213D01*
X242993071Y-143432390D01*
X243026168Y-143435695D01*
X243059340Y-143438068D01*
X243060790Y-143439153D01*
X243062595Y-143439334D01*
X243088661Y-143460017D01*
X243115273Y-143479939D01*
X243116424Y-143482047D01*
X243117327Y-143482764D01*
X243118178Y-143485260D01*
X243132189Y-143510917D01*
X243181202Y-143642328D01*
X243181206Y-143642335D01*
X243267452Y-143757544D01*
X243267455Y-143757547D01*
X243382664Y-143843793D01*
X243382671Y-143843797D01*
X243397190Y-143849212D01*
X243517517Y-143894091D01*
X243577127Y-143900500D01*
X243834217Y-143900499D01*
X243901256Y-143920183D01*
X243921898Y-143936818D01*
X245613181Y-145628102D01*
X245646666Y-145689425D01*
X245649500Y-145715783D01*
X245649500Y-147297870D01*
X245649501Y-147297876D01*
X245655908Y-147357483D01*
X245706202Y-147492328D01*
X245706206Y-147492335D01*
X245792452Y-147607544D01*
X245792455Y-147607547D01*
X245907664Y-147693793D01*
X245907671Y-147693797D01*
X246042517Y-147744091D01*
X246042516Y-147744091D01*
X246049444Y-147744835D01*
X246102127Y-147750500D01*
X248697872Y-147750499D01*
X248757483Y-147744091D01*
X248892331Y-147693796D01*
X249007546Y-147607546D01*
X249093796Y-147492331D01*
X249144091Y-147357483D01*
X249150500Y-147297873D01*
X249150499Y-144702128D01*
X249144091Y-144642517D01*
X249093796Y-144507669D01*
X249093795Y-144507668D01*
X249093793Y-144507664D01*
X249007547Y-144392455D01*
X249007544Y-144392452D01*
X248892335Y-144306206D01*
X248892328Y-144306202D01*
X248757482Y-144255908D01*
X248757483Y-144255908D01*
X248697883Y-144249501D01*
X248697881Y-144249500D01*
X248697873Y-144249500D01*
X248697865Y-144249500D01*
X247115783Y-144249500D01*
X247048744Y-144229815D01*
X247028102Y-144213181D01*
X245861818Y-143046897D01*
X245828333Y-142985574D01*
X245825499Y-142959216D01*
X245825499Y-141652129D01*
X245825498Y-141652123D01*
X245819091Y-141592516D01*
X245768797Y-141457671D01*
X245768793Y-141457664D01*
X245682547Y-141342455D01*
X245682544Y-141342452D01*
X245567335Y-141256206D01*
X245567328Y-141256202D01*
X245432482Y-141205908D01*
X245432483Y-141205908D01*
X245372883Y-141199501D01*
X245372881Y-141199500D01*
X245372873Y-141199500D01*
X245372864Y-141199500D01*
X243577129Y-141199500D01*
X243577123Y-141199501D01*
X243517516Y-141205908D01*
X243382671Y-141256202D01*
X243382664Y-141256206D01*
X243267455Y-141342452D01*
X243267452Y-141342455D01*
X243181206Y-141457664D01*
X243181202Y-141457671D01*
X243175682Y-141472473D01*
X243133811Y-141528407D01*
X243068346Y-141552824D01*
X243000073Y-141537972D01*
X242950668Y-141488567D01*
X242935500Y-141429140D01*
X242935500Y-140596230D01*
X242955185Y-140529191D01*
X243007989Y-140483436D01*
X243077147Y-140473492D01*
X243140703Y-140502517D01*
X243147181Y-140508549D01*
X243181344Y-140542712D01*
X243330666Y-140634814D01*
X243497203Y-140689999D01*
X243599991Y-140700500D01*
X244400008Y-140700499D01*
X244400016Y-140700498D01*
X244400019Y-140700498D01*
X244456302Y-140694748D01*
X244502797Y-140689999D01*
X244669334Y-140634814D01*
X244818656Y-140542712D01*
X244824549Y-140536819D01*
X244851476Y-140522115D01*
X244877295Y-140505523D01*
X244883495Y-140504631D01*
X244885872Y-140503334D01*
X244912230Y-140500500D01*
X245087770Y-140500500D01*
X245154809Y-140520185D01*
X245175451Y-140536819D01*
X245181344Y-140542712D01*
X245330666Y-140634814D01*
X245497203Y-140689999D01*
X245599991Y-140700500D01*
X246400008Y-140700499D01*
X246400016Y-140700498D01*
X246400019Y-140700498D01*
X246456302Y-140694748D01*
X246502797Y-140689999D01*
X246669334Y-140634814D01*
X246818656Y-140542712D01*
X246942712Y-140418656D01*
X247034814Y-140269334D01*
X247089999Y-140102797D01*
X247100500Y-140000009D01*
X247100499Y-139300095D01*
X247120183Y-139233057D01*
X247136813Y-139212420D01*
X248312915Y-138036319D01*
X248374238Y-138002834D01*
X248400596Y-138000000D01*
X253675500Y-138000000D01*
X253742539Y-138019685D01*
X253788294Y-138072489D01*
X253799500Y-138124000D01*
X253799500Y-138298097D01*
X253836446Y-138531368D01*
X253909433Y-138755996D01*
X253992426Y-138918877D01*
X254016657Y-138966433D01*
X254155483Y-139157510D01*
X254322490Y-139324517D01*
X254357127Y-139349683D01*
X254399792Y-139405013D01*
X254405771Y-139474626D01*
X254373165Y-139536421D01*
X254357130Y-139550315D01*
X254339365Y-139563222D01*
X254322488Y-139575484D01*
X254155485Y-139742487D01*
X254155485Y-139742488D01*
X254155483Y-139742490D01*
X254119849Y-139791536D01*
X254016657Y-139933566D01*
X253909433Y-140144003D01*
X253836446Y-140368631D01*
X253799500Y-140601902D01*
X253799500Y-140838097D01*
X253836446Y-141071368D01*
X253909433Y-141295996D01*
X254007554Y-141488567D01*
X254016657Y-141506433D01*
X254155483Y-141697510D01*
X254322490Y-141864517D01*
X254357127Y-141889683D01*
X254399792Y-141945013D01*
X254405771Y-142014626D01*
X254373165Y-142076421D01*
X254357130Y-142090315D01*
X254339365Y-142103222D01*
X254322488Y-142115484D01*
X254155485Y-142282487D01*
X254155485Y-142282488D01*
X254155483Y-142282490D01*
X254095862Y-142364550D01*
X254016657Y-142473566D01*
X253909433Y-142684003D01*
X253836446Y-142908631D01*
X253799500Y-143141902D01*
X253799500Y-143378097D01*
X253836446Y-143611368D01*
X253909433Y-143835996D01*
X253942300Y-143900500D01*
X254016657Y-144046433D01*
X254155483Y-144237510D01*
X254322490Y-144404517D01*
X254357127Y-144429683D01*
X254399792Y-144485013D01*
X254405771Y-144554626D01*
X254373165Y-144616421D01*
X254357130Y-144630315D01*
X254340337Y-144642516D01*
X254322488Y-144655484D01*
X254155485Y-144822487D01*
X254155485Y-144822488D01*
X254155483Y-144822490D01*
X254095862Y-144904550D01*
X254016657Y-145013566D01*
X253909433Y-145224003D01*
X253836446Y-145448631D01*
X253799500Y-145681902D01*
X253799500Y-145918097D01*
X253836446Y-146151368D01*
X253909433Y-146375996D01*
X254016657Y-146586433D01*
X254155483Y-146777510D01*
X254322490Y-146944517D01*
X254357127Y-146969683D01*
X254399792Y-147025013D01*
X254405771Y-147094626D01*
X254373165Y-147156421D01*
X254357130Y-147170315D01*
X254339365Y-147183222D01*
X254322488Y-147195484D01*
X254155485Y-147362487D01*
X254155485Y-147362488D01*
X254155483Y-147362490D01*
X254095862Y-147444550D01*
X254016657Y-147553566D01*
X253909433Y-147764003D01*
X253836446Y-147988631D01*
X253799500Y-148221902D01*
X253799500Y-148458097D01*
X253836446Y-148691368D01*
X253909433Y-148915996D01*
X254016657Y-149126433D01*
X254155483Y-149317510D01*
X254322490Y-149484517D01*
X254357127Y-149509683D01*
X254399792Y-149565013D01*
X254405771Y-149634626D01*
X254373165Y-149696421D01*
X254357130Y-149710315D01*
X254339365Y-149723222D01*
X254322488Y-149735484D01*
X254155485Y-149902487D01*
X254155485Y-149902488D01*
X254155483Y-149902490D01*
X254095862Y-149984550D01*
X254016657Y-150093566D01*
X253909433Y-150304003D01*
X253836446Y-150528631D01*
X253799500Y-150761902D01*
X253799500Y-150998097D01*
X253836446Y-151231368D01*
X253909433Y-151455996D01*
X254016657Y-151666433D01*
X254155483Y-151857510D01*
X254322490Y-152024517D01*
X254357127Y-152049683D01*
X254399792Y-152105013D01*
X254405771Y-152174626D01*
X254373165Y-152236421D01*
X254357130Y-152250315D01*
X254339365Y-152263222D01*
X254322488Y-152275484D01*
X254155485Y-152442487D01*
X254155485Y-152442488D01*
X254155483Y-152442490D01*
X254095862Y-152524550D01*
X254016657Y-152633566D01*
X253909433Y-152844003D01*
X253836446Y-153068631D01*
X253799500Y-153301902D01*
X253799500Y-153538097D01*
X253836446Y-153771368D01*
X253909433Y-153995996D01*
X253992942Y-154159890D01*
X254016657Y-154206433D01*
X254155483Y-154397510D01*
X254322490Y-154564517D01*
X254357127Y-154589683D01*
X254399792Y-154645013D01*
X254405771Y-154714626D01*
X254373165Y-154776421D01*
X254357130Y-154790315D01*
X254356726Y-154790609D01*
X254322488Y-154815484D01*
X254155485Y-154982487D01*
X254155485Y-154982488D01*
X254155483Y-154982490D01*
X254150240Y-154989707D01*
X254016657Y-155173566D01*
X253909433Y-155384003D01*
X253836446Y-155608631D01*
X253799500Y-155841902D01*
X253799500Y-156078097D01*
X253836446Y-156311368D01*
X253909433Y-156535996D01*
X254016657Y-156746433D01*
X254155483Y-156937510D01*
X254322490Y-157104517D01*
X254513567Y-157243343D01*
X254600579Y-157287678D01*
X254724003Y-157350566D01*
X254724005Y-157350566D01*
X254724008Y-157350568D01*
X254844412Y-157389689D01*
X254948631Y-157423553D01*
X255181903Y-157460500D01*
X255181908Y-157460500D01*
X255418097Y-157460500D01*
X255651368Y-157423553D01*
X255875992Y-157350568D01*
X256086433Y-157243343D01*
X256277510Y-157104517D01*
X256444517Y-156937510D01*
X256583343Y-156746433D01*
X256690568Y-156535992D01*
X256763553Y-156311368D01*
X256765274Y-156300500D01*
X256800500Y-156078097D01*
X256800500Y-155841902D01*
X256763553Y-155608631D01*
X256715557Y-155460917D01*
X256690568Y-155384008D01*
X256690566Y-155384005D01*
X256690566Y-155384003D01*
X256606235Y-155218496D01*
X256583343Y-155173567D01*
X256444517Y-154982490D01*
X256277510Y-154815483D01*
X256242872Y-154790317D01*
X256200207Y-154734989D01*
X256194228Y-154665375D01*
X256226833Y-154603580D01*
X256242873Y-154589682D01*
X256277510Y-154564517D01*
X256444517Y-154397510D01*
X256583343Y-154206433D01*
X256690568Y-153995992D01*
X256763553Y-153771368D01*
X256790357Y-153602135D01*
X256800500Y-153538097D01*
X256800500Y-153529097D01*
X256820185Y-153462058D01*
X256872989Y-153416303D01*
X256942147Y-153406359D01*
X257005703Y-153435384D01*
X257012181Y-153441416D01*
X266275139Y-162704374D01*
X266275149Y-162704385D01*
X266279479Y-162708715D01*
X266279480Y-162708716D01*
X266391284Y-162820520D01*
X266391286Y-162820521D01*
X266391290Y-162820524D01*
X266528209Y-162899573D01*
X266528216Y-162899577D01*
X266640019Y-162929534D01*
X266680942Y-162940500D01*
X266680943Y-162940500D01*
X284699677Y-162940500D01*
X284699693Y-162940501D01*
X284707289Y-162940501D01*
X284865400Y-162940501D01*
X284865403Y-162940501D01*
X285018131Y-162899577D01*
X285068250Y-162870639D01*
X285155062Y-162820520D01*
X285266866Y-162708716D01*
X285266866Y-162708714D01*
X285277074Y-162698507D01*
X285277076Y-162698504D01*
X288508506Y-159467074D01*
X288508511Y-159467070D01*
X288518714Y-159456866D01*
X288518716Y-159456866D01*
X288630520Y-159345062D01*
X288633381Y-159340106D01*
X288689617Y-159242703D01*
X288689620Y-159242694D01*
X288689626Y-159242686D01*
X288709577Y-159208131D01*
X288750500Y-159055403D01*
X288750500Y-158897289D01*
X288750500Y-153984597D01*
X288742659Y-153955335D01*
X288738133Y-153938442D01*
X288738133Y-153938443D01*
X288709577Y-153831869D01*
X288646641Y-153722861D01*
X288630520Y-153694938D01*
X288518716Y-153583134D01*
X288518713Y-153583132D01*
X287923936Y-152988355D01*
X287923934Y-152988352D01*
X287805063Y-152869481D01*
X287805062Y-152869480D01*
X287718250Y-152819360D01*
X287718250Y-152819359D01*
X287718246Y-152819358D01*
X287668131Y-152790423D01*
X287515403Y-152749499D01*
X287357289Y-152749499D01*
X287349693Y-152749499D01*
X287349677Y-152749500D01*
X285656670Y-152749500D01*
X285656654Y-152749499D01*
X285649058Y-152749499D01*
X285490943Y-152749499D01*
X285414579Y-152769961D01*
X285338214Y-152790423D01*
X285338209Y-152790426D01*
X285201290Y-152869475D01*
X285201282Y-152869481D01*
X284957582Y-153113181D01*
X284896259Y-153146666D01*
X284869901Y-153149500D01*
X283522129Y-153149500D01*
X283522123Y-153149501D01*
X283462516Y-153155908D01*
X283327671Y-153206202D01*
X283327664Y-153206206D01*
X283212455Y-153292452D01*
X283212452Y-153292455D01*
X283126206Y-153407664D01*
X283126202Y-153407671D01*
X283075908Y-153542517D01*
X283069501Y-153602116D01*
X283069500Y-153602135D01*
X283069500Y-155397870D01*
X283069501Y-155397876D01*
X283075908Y-155457483D01*
X283126202Y-155592328D01*
X283126206Y-155592335D01*
X283212452Y-155707544D01*
X283212455Y-155707547D01*
X283327664Y-155793793D01*
X283327671Y-155793797D01*
X283462517Y-155844091D01*
X283462516Y-155844091D01*
X283469444Y-155844835D01*
X283522127Y-155850500D01*
X285317872Y-155850499D01*
X285377483Y-155844091D01*
X285512331Y-155793796D01*
X285627546Y-155707546D01*
X285713796Y-155592331D01*
X285762810Y-155460916D01*
X285804681Y-155404984D01*
X285870145Y-155380566D01*
X285938418Y-155395417D01*
X285966673Y-155416569D01*
X286080213Y-155530109D01*
X286252184Y-155655051D01*
X286252184Y-155655052D01*
X286291793Y-155675233D01*
X286342590Y-155723206D01*
X286359500Y-155785718D01*
X286359500Y-157234662D01*
X286339815Y-157301701D01*
X286295798Y-157341527D01*
X286296336Y-157342404D01*
X286292184Y-157344948D01*
X286120215Y-157469889D01*
X286006673Y-157583431D01*
X285945350Y-157616915D01*
X285875658Y-157611931D01*
X285819725Y-157570059D01*
X285802810Y-157539082D01*
X285753797Y-157407671D01*
X285753793Y-157407664D01*
X285667547Y-157292455D01*
X285667544Y-157292452D01*
X285552335Y-157206206D01*
X285552328Y-157206202D01*
X285417482Y-157155908D01*
X285417483Y-157155908D01*
X285357883Y-157149501D01*
X285357881Y-157149500D01*
X285357873Y-157149500D01*
X285357864Y-157149500D01*
X283562129Y-157149500D01*
X283562123Y-157149501D01*
X283502516Y-157155908D01*
X283367671Y-157206202D01*
X283367664Y-157206206D01*
X283252455Y-157292452D01*
X283252452Y-157292455D01*
X283166206Y-157407664D01*
X283166202Y-157407671D01*
X283115908Y-157542517D01*
X283109501Y-157602116D01*
X283109500Y-157602135D01*
X283109500Y-159397870D01*
X283109501Y-159397876D01*
X283115908Y-159457483D01*
X283166202Y-159592328D01*
X283166206Y-159592335D01*
X283252452Y-159707544D01*
X283252455Y-159707547D01*
X283367664Y-159793793D01*
X283367671Y-159793797D01*
X283502517Y-159844091D01*
X283502516Y-159844091D01*
X283509444Y-159844835D01*
X283562127Y-159850500D01*
X284500903Y-159850499D01*
X284567942Y-159870183D01*
X284613697Y-159922987D01*
X284623641Y-159992146D01*
X284594616Y-160055702D01*
X284588584Y-160062180D01*
X284247584Y-160403181D01*
X284186261Y-160436666D01*
X284159903Y-160439500D01*
X282324499Y-160439500D01*
X282257460Y-160419815D01*
X282211705Y-160367011D01*
X282200499Y-160315500D01*
X282200499Y-159992129D01*
X282200498Y-159992123D01*
X282200497Y-159992116D01*
X282194091Y-159932517D01*
X282180278Y-159895483D01*
X282143797Y-159797671D01*
X282143793Y-159797664D01*
X282057547Y-159682455D01*
X282057544Y-159682452D01*
X281942335Y-159596206D01*
X281942328Y-159596202D01*
X281807482Y-159545908D01*
X281807483Y-159545908D01*
X281747883Y-159539501D01*
X281747881Y-159539500D01*
X281747873Y-159539500D01*
X281747864Y-159539500D01*
X279652129Y-159539500D01*
X279652123Y-159539501D01*
X279592516Y-159545908D01*
X279457671Y-159596202D01*
X279457664Y-159596206D01*
X279342455Y-159682452D01*
X279342452Y-159682455D01*
X279256206Y-159797664D01*
X279256202Y-159797671D01*
X279205908Y-159932517D01*
X279201341Y-159975000D01*
X279199500Y-159992127D01*
X279199500Y-160849500D01*
X279199501Y-161615500D01*
X279179816Y-161682539D01*
X279127013Y-161728294D01*
X279075501Y-161739500D01*
X267060097Y-161739500D01*
X266993058Y-161719815D01*
X266972416Y-161703181D01*
X256752798Y-151483563D01*
X256719313Y-151422240D01*
X256722547Y-151357566D01*
X256763553Y-151231368D01*
X256783705Y-151104126D01*
X256800500Y-150998097D01*
X256800500Y-150989097D01*
X256820185Y-150922058D01*
X256872989Y-150876303D01*
X256942147Y-150866359D01*
X257005703Y-150895384D01*
X257012181Y-150901416D01*
X261975139Y-155864374D01*
X261975149Y-155864385D01*
X261979479Y-155868715D01*
X261979480Y-155868716D01*
X262091284Y-155980520D01*
X262142845Y-156010288D01*
X262178095Y-156030639D01*
X262178097Y-156030641D01*
X262211269Y-156049793D01*
X262228215Y-156059577D01*
X262380943Y-156100500D01*
X262539057Y-156100500D01*
X269420234Y-156100500D01*
X269487273Y-156120185D01*
X269489125Y-156121398D01*
X269620814Y-156209390D01*
X269620827Y-156209397D01*
X269766498Y-156269735D01*
X269766503Y-156269737D01*
X269916131Y-156299500D01*
X269921153Y-156300499D01*
X269921156Y-156300500D01*
X269921158Y-156300500D01*
X270078844Y-156300500D01*
X270078845Y-156300499D01*
X270233497Y-156269737D01*
X270379179Y-156209394D01*
X270510289Y-156121789D01*
X270621789Y-156010289D01*
X270709394Y-155879179D01*
X270769737Y-155733497D01*
X270800500Y-155578842D01*
X270800500Y-155421158D01*
X270800500Y-155421155D01*
X270800499Y-155421153D01*
X270775474Y-155295344D01*
X270769737Y-155266503D01*
X270731242Y-155173566D01*
X270709397Y-155120827D01*
X270709390Y-155120814D01*
X270621789Y-154989711D01*
X270621786Y-154989707D01*
X270510292Y-154878213D01*
X270510288Y-154878210D01*
X270379185Y-154790609D01*
X270379172Y-154790602D01*
X270233501Y-154730264D01*
X270233489Y-154730261D01*
X270078845Y-154699500D01*
X270078842Y-154699500D01*
X269921158Y-154699500D01*
X269921155Y-154699500D01*
X269766510Y-154730261D01*
X269766498Y-154730264D01*
X269620827Y-154790602D01*
X269620814Y-154790609D01*
X269489125Y-154878602D01*
X269422447Y-154899480D01*
X269420234Y-154899500D01*
X262760097Y-154899500D01*
X262693058Y-154879815D01*
X262672416Y-154863181D01*
X256752798Y-148943563D01*
X256719313Y-148882240D01*
X256722547Y-148817566D01*
X256763553Y-148691368D01*
X256783705Y-148564126D01*
X256800500Y-148458097D01*
X256800500Y-148221902D01*
X256763553Y-147988631D01*
X256699856Y-147792593D01*
X256690568Y-147764008D01*
X256690566Y-147764005D01*
X256690566Y-147764003D01*
X256610847Y-147607547D01*
X256583343Y-147553567D01*
X256444517Y-147362490D01*
X256277510Y-147195483D01*
X256242872Y-147170317D01*
X256200207Y-147114989D01*
X256194228Y-147045375D01*
X256226833Y-146983580D01*
X256242873Y-146969682D01*
X256277510Y-146944517D01*
X256444517Y-146777510D01*
X256583343Y-146586433D01*
X256690568Y-146375992D01*
X256763553Y-146151368D01*
X256780901Y-146041839D01*
X256800500Y-145918097D01*
X256800500Y-145681902D01*
X256763553Y-145448631D01*
X256699856Y-145252593D01*
X256690568Y-145224008D01*
X256690566Y-145224005D01*
X256690566Y-145224003D01*
X256583342Y-145013566D01*
X256444517Y-144822490D01*
X256277510Y-144655483D01*
X256242872Y-144630317D01*
X256200207Y-144574989D01*
X256194228Y-144505375D01*
X256226833Y-144443580D01*
X256242873Y-144429682D01*
X256277510Y-144404517D01*
X256444517Y-144237510D01*
X256583343Y-144046433D01*
X256690568Y-143835992D01*
X256763553Y-143611368D01*
X256780007Y-143507483D01*
X256800500Y-143378097D01*
X256800500Y-143141902D01*
X256763553Y-142908631D01*
X256690566Y-142684003D01*
X256583342Y-142473566D01*
X256444517Y-142282490D01*
X256277510Y-142115483D01*
X256242872Y-142090317D01*
X256200207Y-142034989D01*
X256194228Y-141965375D01*
X256226833Y-141903580D01*
X256242873Y-141889682D01*
X256277510Y-141864517D01*
X256444517Y-141697510D01*
X256583343Y-141506433D01*
X256690568Y-141295992D01*
X256763553Y-141071368D01*
X256800500Y-140838097D01*
X256800500Y-140601902D01*
X256763553Y-140368631D01*
X256707701Y-140196738D01*
X256690568Y-140144008D01*
X256690566Y-140144005D01*
X256690566Y-140144003D01*
X256594471Y-139955407D01*
X256583343Y-139933567D01*
X256444517Y-139742490D01*
X256277510Y-139575483D01*
X256242872Y-139550317D01*
X256200207Y-139494989D01*
X256194228Y-139425375D01*
X256226833Y-139363580D01*
X256242873Y-139349682D01*
X256277510Y-139324517D01*
X256444517Y-139157510D01*
X256583343Y-138966433D01*
X256690568Y-138755992D01*
X256763553Y-138531368D01*
X256779618Y-138429939D01*
X256800500Y-138298097D01*
X256800500Y-138124000D01*
X256820185Y-138056961D01*
X256872989Y-138011206D01*
X256924500Y-138000000D01*
X279075500Y-138000000D01*
X279142539Y-138019685D01*
X279188294Y-138072489D01*
X279199500Y-138124000D01*
X279199500Y-138298097D01*
X279236446Y-138531368D01*
X279309433Y-138755996D01*
X279392426Y-138918877D01*
X279416657Y-138966433D01*
X279555483Y-139157510D01*
X279722490Y-139324517D01*
X279757127Y-139349683D01*
X279799792Y-139405013D01*
X279805771Y-139474626D01*
X279773165Y-139536421D01*
X279757130Y-139550315D01*
X279739365Y-139563222D01*
X279722488Y-139575484D01*
X279555485Y-139742487D01*
X279555485Y-139742488D01*
X279555483Y-139742490D01*
X279519849Y-139791536D01*
X279416657Y-139933566D01*
X279309433Y-140144003D01*
X279236446Y-140368631D01*
X279199500Y-140601902D01*
X279199500Y-140838097D01*
X279236446Y-141071368D01*
X279309433Y-141295996D01*
X279407554Y-141488567D01*
X279416657Y-141506433D01*
X279555483Y-141697510D01*
X279722490Y-141864517D01*
X279757127Y-141889683D01*
X279799792Y-141945013D01*
X279805771Y-142014626D01*
X279773165Y-142076421D01*
X279757130Y-142090315D01*
X279739365Y-142103222D01*
X279722488Y-142115484D01*
X279555485Y-142282487D01*
X279555485Y-142282488D01*
X279555483Y-142282490D01*
X279495862Y-142364550D01*
X279416657Y-142473566D01*
X279309433Y-142684003D01*
X279236446Y-142908631D01*
X279199500Y-143141902D01*
X279199500Y-143378097D01*
X279236446Y-143611368D01*
X279309433Y-143835996D01*
X279342300Y-143900500D01*
X279416657Y-144046433D01*
X279555483Y-144237510D01*
X279722490Y-144404517D01*
X279757127Y-144429683D01*
X279799792Y-144485013D01*
X279805771Y-144554626D01*
X279773165Y-144616421D01*
X279757130Y-144630315D01*
X279740337Y-144642516D01*
X279722488Y-144655484D01*
X279555485Y-144822487D01*
X279555485Y-144822488D01*
X279555483Y-144822490D01*
X279495862Y-144904550D01*
X279416657Y-145013566D01*
X279309433Y-145224003D01*
X279236446Y-145448631D01*
X279199500Y-145681902D01*
X279199500Y-145918097D01*
X279236446Y-146151368D01*
X279309433Y-146375996D01*
X279416657Y-146586433D01*
X279555483Y-146777510D01*
X279722490Y-146944517D01*
X279757127Y-146969683D01*
X279799792Y-147025013D01*
X279805771Y-147094626D01*
X279773165Y-147156421D01*
X279757130Y-147170315D01*
X279739365Y-147183222D01*
X279722488Y-147195484D01*
X279555485Y-147362487D01*
X279555485Y-147362488D01*
X279555483Y-147362490D01*
X279495862Y-147444550D01*
X279416657Y-147553566D01*
X279309433Y-147764003D01*
X279236446Y-147988631D01*
X279199500Y-148221902D01*
X279199500Y-148458097D01*
X279236446Y-148691368D01*
X279309433Y-148915996D01*
X279416657Y-149126433D01*
X279555483Y-149317510D01*
X279722490Y-149484517D01*
X279757127Y-149509683D01*
X279799792Y-149565013D01*
X279805771Y-149634626D01*
X279773165Y-149696421D01*
X279757130Y-149710315D01*
X279739365Y-149723222D01*
X279722488Y-149735484D01*
X279555485Y-149902487D01*
X279555485Y-149902488D01*
X279555483Y-149902490D01*
X279495862Y-149984550D01*
X279416657Y-150093566D01*
X279309433Y-150304003D01*
X279236446Y-150528631D01*
X279199500Y-150761902D01*
X279199500Y-150998097D01*
X279236446Y-151231368D01*
X279309433Y-151455996D01*
X279416657Y-151666433D01*
X279555483Y-151857510D01*
X279722490Y-152024517D01*
X279757127Y-152049683D01*
X279799792Y-152105013D01*
X279805771Y-152174626D01*
X279773165Y-152236421D01*
X279757130Y-152250315D01*
X279739365Y-152263222D01*
X279722488Y-152275484D01*
X279555485Y-152442487D01*
X279555485Y-152442488D01*
X279555483Y-152442490D01*
X279495862Y-152524550D01*
X279416657Y-152633566D01*
X279309433Y-152844003D01*
X279236446Y-153068631D01*
X279199500Y-153301902D01*
X279199500Y-153538097D01*
X279236446Y-153771368D01*
X279309433Y-153995996D01*
X279392942Y-154159890D01*
X279416657Y-154206433D01*
X279555483Y-154397510D01*
X279722490Y-154564517D01*
X279757127Y-154589683D01*
X279799792Y-154645013D01*
X279805771Y-154714626D01*
X279773165Y-154776421D01*
X279757130Y-154790315D01*
X279756726Y-154790609D01*
X279722488Y-154815484D01*
X279555485Y-154982487D01*
X279555485Y-154982488D01*
X279555483Y-154982490D01*
X279550240Y-154989707D01*
X279416657Y-155173566D01*
X279309433Y-155384003D01*
X279236446Y-155608631D01*
X279199500Y-155841902D01*
X279199500Y-156078097D01*
X279236446Y-156311368D01*
X279309433Y-156535996D01*
X279416657Y-156746433D01*
X279555483Y-156937510D01*
X279722490Y-157104517D01*
X279913567Y-157243343D01*
X280000579Y-157287678D01*
X280124003Y-157350566D01*
X280124005Y-157350566D01*
X280124008Y-157350568D01*
X280244412Y-157389689D01*
X280348631Y-157423553D01*
X280581903Y-157460500D01*
X280581908Y-157460500D01*
X280818097Y-157460500D01*
X281051368Y-157423553D01*
X281275992Y-157350568D01*
X281486433Y-157243343D01*
X281677510Y-157104517D01*
X281844517Y-156937510D01*
X281983343Y-156746433D01*
X282090568Y-156535992D01*
X282163553Y-156311368D01*
X282165274Y-156300500D01*
X282200500Y-156078097D01*
X282200500Y-155841902D01*
X282163553Y-155608631D01*
X282115557Y-155460917D01*
X282090568Y-155384008D01*
X282090566Y-155384005D01*
X282090566Y-155384003D01*
X282006235Y-155218496D01*
X281983343Y-155173567D01*
X281844517Y-154982490D01*
X281677510Y-154815483D01*
X281642872Y-154790317D01*
X281600207Y-154734989D01*
X281594228Y-154665375D01*
X281626833Y-154603580D01*
X281642873Y-154589682D01*
X281677510Y-154564517D01*
X281844517Y-154397510D01*
X281983343Y-154206433D01*
X282090568Y-153995992D01*
X282163553Y-153771368D01*
X282190357Y-153602135D01*
X282200500Y-153538097D01*
X282200500Y-153301902D01*
X282163553Y-153068631D01*
X282129689Y-152964412D01*
X282090568Y-152844008D01*
X282090566Y-152844005D01*
X282090566Y-152844003D01*
X281983342Y-152633566D01*
X281844517Y-152442490D01*
X281677510Y-152275483D01*
X281642872Y-152250317D01*
X281600207Y-152194989D01*
X281594228Y-152125375D01*
X281626833Y-152063580D01*
X281642873Y-152049682D01*
X281677510Y-152024517D01*
X281844517Y-151857510D01*
X281983343Y-151666433D01*
X282090568Y-151455992D01*
X282163553Y-151231368D01*
X282163554Y-151231362D01*
X282200500Y-150998097D01*
X282200500Y-150761902D01*
X282163553Y-150528631D01*
X282090566Y-150304003D01*
X281983342Y-150093566D01*
X281844517Y-149902490D01*
X281677510Y-149735483D01*
X281642872Y-149710317D01*
X281600207Y-149654989D01*
X281594228Y-149585375D01*
X281626833Y-149523580D01*
X281642873Y-149509682D01*
X281677510Y-149484517D01*
X281844517Y-149317510D01*
X281983343Y-149126433D01*
X282090568Y-148915992D01*
X282163553Y-148691368D01*
X282163554Y-148691362D01*
X282200500Y-148458097D01*
X282200500Y-148221902D01*
X282163553Y-147988635D01*
X282163553Y-147988632D01*
X282122547Y-147862433D01*
X282120553Y-147792593D01*
X282152796Y-147736437D01*
X289480520Y-140408716D01*
X289559577Y-140271784D01*
X289600501Y-140119057D01*
X289600501Y-139960942D01*
X289600501Y-139953347D01*
X289600500Y-139953329D01*
X289600500Y-138124000D01*
X289620185Y-138056961D01*
X289672989Y-138011206D01*
X289724500Y-138000000D01*
X291875500Y-138000000D01*
X291942539Y-138019685D01*
X291988294Y-138072489D01*
X291999500Y-138124000D01*
X291999500Y-156393031D01*
X292000000Y-156403835D01*
X292000000Y-156494818D01*
X291980315Y-156561857D01*
X291947820Y-156592850D01*
X291949129Y-156594556D01*
X291942688Y-156599497D01*
X291849500Y-156692686D01*
X291783608Y-156806812D01*
X291757160Y-156905519D01*
X291749500Y-156934108D01*
X291749500Y-157065892D01*
X291766554Y-157129539D01*
X291783608Y-157193187D01*
X291812566Y-157243342D01*
X291849500Y-157307314D01*
X291849502Y-157307316D01*
X291879505Y-157337319D01*
X291912990Y-157398642D01*
X291908006Y-157468334D01*
X291879505Y-157512681D01*
X291849502Y-157542683D01*
X291849500Y-157542686D01*
X291783608Y-157656812D01*
X291749500Y-157784108D01*
X291749500Y-157915891D01*
X291783608Y-158043187D01*
X291816554Y-158100250D01*
X291849500Y-158157314D01*
X291849502Y-158157316D01*
X291879505Y-158187319D01*
X291912990Y-158248642D01*
X291908006Y-158318334D01*
X291879505Y-158362681D01*
X291849502Y-158392683D01*
X291849500Y-158392686D01*
X291783608Y-158506812D01*
X291749500Y-158634108D01*
X291749500Y-158765891D01*
X291783608Y-158893187D01*
X291816554Y-158950250D01*
X291849500Y-159007314D01*
X291849502Y-159007316D01*
X291879505Y-159037319D01*
X291912990Y-159098642D01*
X291908006Y-159168334D01*
X291879505Y-159212681D01*
X291849502Y-159242683D01*
X291849500Y-159242686D01*
X291783608Y-159356812D01*
X291749500Y-159484108D01*
X291749500Y-159615891D01*
X291783608Y-159743187D01*
X291812826Y-159793793D01*
X291849500Y-159857314D01*
X291849502Y-159857316D01*
X291879505Y-159887319D01*
X291912990Y-159948642D01*
X291908006Y-160018334D01*
X291879505Y-160062681D01*
X291849502Y-160092683D01*
X291849500Y-160092686D01*
X291783608Y-160206812D01*
X291749500Y-160334108D01*
X291749500Y-160465891D01*
X291783608Y-160593187D01*
X291816554Y-160650250D01*
X291849500Y-160707314D01*
X291849502Y-160707316D01*
X291879505Y-160737319D01*
X291912990Y-160798642D01*
X291908006Y-160868334D01*
X291879505Y-160912681D01*
X291849502Y-160942683D01*
X291849500Y-160942686D01*
X291783608Y-161056812D01*
X291749500Y-161184108D01*
X291749500Y-161315891D01*
X291783608Y-161443187D01*
X291796727Y-161465909D01*
X291849500Y-161557314D01*
X291849502Y-161557316D01*
X291879505Y-161587319D01*
X291912990Y-161648642D01*
X291908006Y-161718334D01*
X291879505Y-161762681D01*
X291849502Y-161792683D01*
X291849500Y-161792686D01*
X291783608Y-161906812D01*
X291749500Y-162034108D01*
X291749500Y-162165891D01*
X291783608Y-162293187D01*
X291801019Y-162323343D01*
X291849500Y-162407314D01*
X291942686Y-162500500D01*
X291942688Y-162500501D01*
X291949137Y-162505450D01*
X291947810Y-162507178D01*
X291957203Y-162511468D01*
X291969938Y-162531285D01*
X291986199Y-162548328D01*
X291989420Y-162561600D01*
X291994977Y-162570246D01*
X292000000Y-162605181D01*
X292000000Y-162696162D01*
X291999500Y-162706975D01*
X291999500Y-170875500D01*
X291979815Y-170942539D01*
X291927011Y-170988294D01*
X291875500Y-170999500D01*
X251990103Y-170999500D01*
X251923064Y-170979815D01*
X251877309Y-170927011D01*
X251867365Y-170857853D01*
X251896390Y-170794297D01*
X251915792Y-170776234D01*
X251975240Y-170731730D01*
X252007546Y-170707546D01*
X252093796Y-170592331D01*
X252144091Y-170457483D01*
X252150500Y-170397873D01*
X252150499Y-168885258D01*
X254019500Y-168885258D01*
X254019500Y-169114741D01*
X254040635Y-169275265D01*
X254049452Y-169342238D01*
X254108842Y-169563887D01*
X254196650Y-169775876D01*
X254196657Y-169775890D01*
X254311392Y-169974617D01*
X254451081Y-170156661D01*
X254451089Y-170156670D01*
X254613330Y-170318911D01*
X254613338Y-170318918D01*
X254795382Y-170458607D01*
X254795385Y-170458608D01*
X254795388Y-170458611D01*
X254994112Y-170573344D01*
X254994117Y-170573346D01*
X254994123Y-170573349D01*
X255039960Y-170592335D01*
X255206113Y-170661158D01*
X255427762Y-170720548D01*
X255655266Y-170750500D01*
X255655273Y-170750500D01*
X255884727Y-170750500D01*
X255884734Y-170750500D01*
X256112238Y-170720548D01*
X256333887Y-170661158D01*
X256545888Y-170573344D01*
X256744612Y-170458611D01*
X256926661Y-170318919D01*
X256926665Y-170318914D01*
X256926670Y-170318911D01*
X257088911Y-170156670D01*
X257088914Y-170156665D01*
X257088919Y-170156661D01*
X257228611Y-169974612D01*
X257343344Y-169775888D01*
X257431158Y-169563887D01*
X257490548Y-169342238D01*
X257520500Y-169114734D01*
X257520500Y-168885266D01*
X257520499Y-168885258D01*
X278529500Y-168885258D01*
X278529500Y-169114741D01*
X278550635Y-169275265D01*
X278559452Y-169342238D01*
X278618842Y-169563887D01*
X278706650Y-169775876D01*
X278706657Y-169775890D01*
X278821392Y-169974617D01*
X278961081Y-170156661D01*
X278961089Y-170156670D01*
X279123330Y-170318911D01*
X279123338Y-170318918D01*
X279305382Y-170458607D01*
X279305385Y-170458608D01*
X279305388Y-170458611D01*
X279504112Y-170573344D01*
X279504117Y-170573346D01*
X279504123Y-170573349D01*
X279549960Y-170592335D01*
X279716113Y-170661158D01*
X279937762Y-170720548D01*
X280165266Y-170750500D01*
X280165273Y-170750500D01*
X280394727Y-170750500D01*
X280394734Y-170750500D01*
X280622238Y-170720548D01*
X280843887Y-170661158D01*
X281055888Y-170573344D01*
X281254612Y-170458611D01*
X281436661Y-170318919D01*
X281436665Y-170318914D01*
X281436670Y-170318911D01*
X281598911Y-170156670D01*
X281598914Y-170156665D01*
X281598919Y-170156661D01*
X281738611Y-169974612D01*
X281853344Y-169775888D01*
X281941158Y-169563887D01*
X282000548Y-169342238D01*
X282030500Y-169114734D01*
X282030500Y-168885266D01*
X282000548Y-168657762D01*
X281941158Y-168436113D01*
X281857528Y-168234213D01*
X281853349Y-168224123D01*
X281853346Y-168224117D01*
X281853344Y-168224112D01*
X281738611Y-168025388D01*
X281738608Y-168025385D01*
X281738607Y-168025382D01*
X281637764Y-167893962D01*
X281598919Y-167843339D01*
X281598918Y-167843338D01*
X281598911Y-167843330D01*
X281436670Y-167681089D01*
X281436661Y-167681081D01*
X281254617Y-167541392D01*
X281055890Y-167426657D01*
X281055876Y-167426650D01*
X280843887Y-167338842D01*
X280622238Y-167279452D01*
X280584215Y-167274446D01*
X280394741Y-167249500D01*
X280394734Y-167249500D01*
X280165266Y-167249500D01*
X280165258Y-167249500D01*
X279948715Y-167278009D01*
X279937762Y-167279452D01*
X279844076Y-167304554D01*
X279716112Y-167338842D01*
X279504123Y-167426650D01*
X279504109Y-167426657D01*
X279305382Y-167541392D01*
X279123338Y-167681081D01*
X278961081Y-167843338D01*
X278821392Y-168025382D01*
X278706657Y-168224109D01*
X278706650Y-168224123D01*
X278618842Y-168436112D01*
X278618842Y-168436113D01*
X278563879Y-168641242D01*
X278559453Y-168657759D01*
X278559451Y-168657770D01*
X278529500Y-168885258D01*
X257520499Y-168885258D01*
X257490548Y-168657762D01*
X257431158Y-168436113D01*
X257347528Y-168234213D01*
X257343349Y-168224123D01*
X257343346Y-168224117D01*
X257343344Y-168224112D01*
X257228611Y-168025388D01*
X257228608Y-168025385D01*
X257228607Y-168025382D01*
X257127764Y-167893962D01*
X257088919Y-167843339D01*
X257088918Y-167843338D01*
X257088911Y-167843330D01*
X256926670Y-167681089D01*
X256926661Y-167681081D01*
X256744617Y-167541392D01*
X256545890Y-167426657D01*
X256545876Y-167426650D01*
X256333887Y-167338842D01*
X256112238Y-167279452D01*
X256074215Y-167274446D01*
X255884741Y-167249500D01*
X255884734Y-167249500D01*
X255655266Y-167249500D01*
X255655258Y-167249500D01*
X255438715Y-167278009D01*
X255427762Y-167279452D01*
X255334076Y-167304554D01*
X255206112Y-167338842D01*
X254994123Y-167426650D01*
X254994109Y-167426657D01*
X254795382Y-167541392D01*
X254613338Y-167681081D01*
X254451081Y-167843338D01*
X254311392Y-168025382D01*
X254196657Y-168224109D01*
X254196650Y-168224123D01*
X254108842Y-168436112D01*
X254108842Y-168436113D01*
X254053879Y-168641242D01*
X254049453Y-168657759D01*
X254049451Y-168657770D01*
X254019500Y-168885258D01*
X252150499Y-168885258D01*
X252150499Y-167802128D01*
X252144091Y-167742517D01*
X252111362Y-167654767D01*
X252093797Y-167607671D01*
X252093793Y-167607664D01*
X252007547Y-167492455D01*
X252007544Y-167492452D01*
X251892335Y-167406206D01*
X251892328Y-167406202D01*
X251757482Y-167355908D01*
X251757483Y-167355908D01*
X251697883Y-167349501D01*
X251697881Y-167349500D01*
X251697873Y-167349500D01*
X251697864Y-167349500D01*
X249102129Y-167349500D01*
X249102123Y-167349501D01*
X249042516Y-167355908D01*
X248907671Y-167406202D01*
X248907664Y-167406206D01*
X248792455Y-167492452D01*
X248792452Y-167492455D01*
X248706206Y-167607664D01*
X248706202Y-167607671D01*
X248655908Y-167742517D01*
X248649501Y-167802116D01*
X248649501Y-167802123D01*
X248649500Y-167802135D01*
X248649500Y-170397870D01*
X248649501Y-170397876D01*
X248655908Y-170457483D01*
X248706202Y-170592328D01*
X248706206Y-170592335D01*
X248792452Y-170707544D01*
X248792455Y-170707547D01*
X248884208Y-170776234D01*
X248926079Y-170832168D01*
X248931063Y-170901859D01*
X248897577Y-170963182D01*
X248836254Y-170996666D01*
X248809897Y-170999500D01*
X237590103Y-170999500D01*
X237523064Y-170979815D01*
X237477309Y-170927011D01*
X237467365Y-170857853D01*
X237496390Y-170794297D01*
X237515792Y-170776234D01*
X237575240Y-170731730D01*
X237607546Y-170707546D01*
X237693796Y-170592331D01*
X237744091Y-170457483D01*
X237750500Y-170397873D01*
X237750499Y-167802128D01*
X237744091Y-167742517D01*
X237711362Y-167654767D01*
X237693797Y-167607671D01*
X237693793Y-167607664D01*
X237607547Y-167492455D01*
X237607544Y-167492452D01*
X237492335Y-167406206D01*
X237492328Y-167406202D01*
X237357482Y-167355908D01*
X237357483Y-167355908D01*
X237297883Y-167349501D01*
X237297881Y-167349500D01*
X237297873Y-167349500D01*
X237297864Y-167349500D01*
X234702129Y-167349500D01*
X234702123Y-167349501D01*
X234642516Y-167355908D01*
X234507671Y-167406202D01*
X234507664Y-167406206D01*
X234392455Y-167492452D01*
X234392452Y-167492455D01*
X234306206Y-167607664D01*
X234306202Y-167607671D01*
X234255908Y-167742517D01*
X234249501Y-167802116D01*
X234249501Y-167802123D01*
X234249500Y-167802135D01*
X234249500Y-170397870D01*
X234249501Y-170397876D01*
X234255908Y-170457483D01*
X234306202Y-170592328D01*
X234306206Y-170592335D01*
X234392452Y-170707544D01*
X234392455Y-170707547D01*
X234484208Y-170776234D01*
X234526079Y-170832168D01*
X234531063Y-170901859D01*
X234497577Y-170963182D01*
X234436254Y-170996666D01*
X234409897Y-170999500D01*
X195124500Y-170999500D01*
X195057461Y-170979815D01*
X195011706Y-170927011D01*
X195000500Y-170875500D01*
X195000500Y-161912135D01*
X219149500Y-161912135D01*
X219149500Y-163707870D01*
X219149501Y-163707876D01*
X219155908Y-163767483D01*
X219206202Y-163902328D01*
X219206206Y-163902335D01*
X219292452Y-164017544D01*
X219292455Y-164017547D01*
X219407664Y-164103793D01*
X219407671Y-164103797D01*
X219542517Y-164154091D01*
X219542516Y-164154091D01*
X219549444Y-164154835D01*
X219602127Y-164160500D01*
X221397872Y-164160499D01*
X221457483Y-164154091D01*
X221592331Y-164103796D01*
X221707546Y-164017546D01*
X221793796Y-163902331D01*
X221844091Y-163767483D01*
X221850500Y-163707873D01*
X221850499Y-161912128D01*
X221844091Y-161852517D01*
X221843093Y-161849842D01*
X221793797Y-161717671D01*
X221793793Y-161717664D01*
X221707547Y-161602455D01*
X221707544Y-161602452D01*
X221592335Y-161516206D01*
X221592328Y-161516202D01*
X221457482Y-161465908D01*
X221457483Y-161465908D01*
X221397883Y-161459501D01*
X221397881Y-161459500D01*
X221397873Y-161459500D01*
X221397864Y-161459500D01*
X219602129Y-161459500D01*
X219602123Y-161459501D01*
X219542516Y-161465908D01*
X219407671Y-161516202D01*
X219407664Y-161516206D01*
X219292455Y-161602452D01*
X219292452Y-161602455D01*
X219206206Y-161717664D01*
X219206202Y-161717671D01*
X219155908Y-161852517D01*
X219150071Y-161906812D01*
X219149501Y-161912123D01*
X219149500Y-161912135D01*
X195000500Y-161912135D01*
X195000500Y-126799054D01*
X199679498Y-126799054D01*
X199679499Y-126799057D01*
X199720423Y-126951785D01*
X199737002Y-126980500D01*
X199746285Y-126996578D01*
X199799479Y-127088714D01*
X199799481Y-127088717D01*
X199918349Y-127207585D01*
X199918355Y-127207590D01*
X200085922Y-127375157D01*
X200119407Y-127436480D01*
X200116173Y-127501155D01*
X200111522Y-127515468D01*
X200079500Y-127717648D01*
X200079500Y-127922351D01*
X200111522Y-128124534D01*
X200174781Y-128319223D01*
X200267715Y-128501613D01*
X200388028Y-128667213D01*
X200532786Y-128811971D01*
X200687749Y-128924556D01*
X200698390Y-128932287D01*
X200789840Y-128978883D01*
X200791080Y-128979515D01*
X200841876Y-129027490D01*
X200858671Y-129095311D01*
X200836134Y-129161446D01*
X200791080Y-129200485D01*
X200698386Y-129247715D01*
X200532786Y-129368028D01*
X200388028Y-129512786D01*
X200267715Y-129678386D01*
X200174781Y-129860776D01*
X200111522Y-130055465D01*
X200079500Y-130257648D01*
X200079500Y-130462351D01*
X200111522Y-130664534D01*
X200174781Y-130859223D01*
X200267715Y-131041613D01*
X200388028Y-131207213D01*
X200532786Y-131351971D01*
X200687749Y-131464556D01*
X200698390Y-131472287D01*
X200814607Y-131531503D01*
X200880776Y-131565218D01*
X200880778Y-131565218D01*
X200880781Y-131565220D01*
X200985137Y-131599127D01*
X201075465Y-131628477D01*
X201176557Y-131644488D01*
X201277648Y-131660500D01*
X201277649Y-131660500D01*
X201482351Y-131660500D01*
X201482352Y-131660500D01*
X201684534Y-131628477D01*
X201879219Y-131565220D01*
X202061610Y-131472287D01*
X202154590Y-131404732D01*
X202227213Y-131351971D01*
X202227215Y-131351968D01*
X202227219Y-131351966D01*
X202371966Y-131207219D01*
X202371968Y-131207215D01*
X202371971Y-131207213D01*
X202424732Y-131134590D01*
X202492287Y-131041610D01*
X202585220Y-130859219D01*
X202648477Y-130664534D01*
X202680500Y-130462352D01*
X202680500Y-130257648D01*
X202648477Y-130055466D01*
X202585220Y-129860781D01*
X202585218Y-129860778D01*
X202585218Y-129860776D01*
X202538385Y-129768862D01*
X202492287Y-129678390D01*
X202409710Y-129564731D01*
X202371971Y-129512786D01*
X202227213Y-129368028D01*
X202061614Y-129247715D01*
X202055006Y-129244348D01*
X201968917Y-129200483D01*
X201918123Y-129152511D01*
X201901328Y-129084690D01*
X201923865Y-129018555D01*
X201968917Y-128979516D01*
X202061610Y-128932287D01*
X202082770Y-128916913D01*
X202227213Y-128811971D01*
X202227215Y-128811968D01*
X202227219Y-128811966D01*
X202371966Y-128667219D01*
X202371968Y-128667215D01*
X202371971Y-128667213D01*
X202424732Y-128594590D01*
X202492287Y-128501610D01*
X202585220Y-128319219D01*
X202648477Y-128124534D01*
X202680500Y-127922352D01*
X202680500Y-127729097D01*
X202700185Y-127662058D01*
X202752989Y-127616303D01*
X202822147Y-127606359D01*
X202885703Y-127635384D01*
X202892181Y-127641416D01*
X207075139Y-131824374D01*
X207075149Y-131824385D01*
X207079479Y-131828715D01*
X207079480Y-131828716D01*
X207191284Y-131940520D01*
X207278095Y-131990639D01*
X207278097Y-131990641D01*
X207316151Y-132012611D01*
X207328215Y-132019577D01*
X207480943Y-132060501D01*
X207480946Y-132060501D01*
X207646653Y-132060501D01*
X207646669Y-132060500D01*
X209368966Y-132060500D01*
X209368982Y-132060501D01*
X209376578Y-132060501D01*
X209534689Y-132060501D01*
X209534692Y-132060501D01*
X209687420Y-132019577D01*
X209737539Y-131990639D01*
X209824351Y-131940520D01*
X209936155Y-131828716D01*
X209936155Y-131828714D01*
X209946363Y-131818507D01*
X209946365Y-131818504D01*
X212287819Y-129477050D01*
X212349142Y-129443565D01*
X212418834Y-129448549D01*
X212474767Y-129490421D01*
X212499184Y-129555885D01*
X212499500Y-129564731D01*
X212499500Y-138851838D01*
X212479815Y-138918877D01*
X212463181Y-138939519D01*
X211905302Y-139497398D01*
X211843979Y-139530883D01*
X211774287Y-139525899D01*
X211729940Y-139497398D01*
X209101830Y-136869289D01*
X209101827Y-136869285D01*
X209101827Y-136869286D01*
X209094760Y-136862219D01*
X209094760Y-136862218D01*
X208955403Y-136722861D01*
X208955402Y-136722860D01*
X208955401Y-136722859D01*
X208791541Y-136613371D01*
X208791532Y-136613366D01*
X208718936Y-136583296D01*
X208662786Y-136560038D01*
X208609457Y-136537949D01*
X208609453Y-136537948D01*
X208609449Y-136537946D01*
X208512809Y-136518724D01*
X208416165Y-136499500D01*
X208416162Y-136499500D01*
X207454141Y-136499500D01*
X207387102Y-136479815D01*
X207341347Y-136427011D01*
X207337969Y-136418859D01*
X207333796Y-136407669D01*
X207333793Y-136407665D01*
X207333793Y-136407664D01*
X207247547Y-136292455D01*
X207247544Y-136292452D01*
X207132335Y-136206206D01*
X207132328Y-136206202D01*
X206997482Y-136155908D01*
X206997483Y-136155908D01*
X206937883Y-136149501D01*
X206937881Y-136149500D01*
X206937873Y-136149500D01*
X206937864Y-136149500D01*
X205142129Y-136149500D01*
X205142123Y-136149501D01*
X205082516Y-136155908D01*
X204947671Y-136206202D01*
X204947664Y-136206206D01*
X204832455Y-136292452D01*
X204832452Y-136292455D01*
X204746206Y-136407664D01*
X204746203Y-136407669D01*
X204697189Y-136539083D01*
X204655317Y-136595016D01*
X204589853Y-136619433D01*
X204521580Y-136604581D01*
X204493326Y-136583430D01*
X204379786Y-136469890D01*
X204207820Y-136344951D01*
X204018414Y-136248444D01*
X204018413Y-136248443D01*
X204018412Y-136248443D01*
X203816243Y-136182754D01*
X203816241Y-136182753D01*
X203816240Y-136182753D01*
X203654957Y-136157208D01*
X203606287Y-136149500D01*
X203393713Y-136149500D01*
X203345042Y-136157208D01*
X203183760Y-136182753D01*
X202981585Y-136248444D01*
X202792179Y-136344951D01*
X202620213Y-136469890D01*
X202469890Y-136620213D01*
X202344951Y-136792179D01*
X202248444Y-136981585D01*
X202182753Y-137183760D01*
X202149500Y-137393713D01*
X202149500Y-137606286D01*
X202177815Y-137785063D01*
X202182754Y-137816243D01*
X202243381Y-138002834D01*
X202248444Y-138018414D01*
X202344951Y-138207820D01*
X202469890Y-138379786D01*
X202620213Y-138530109D01*
X202792179Y-138655048D01*
X202792181Y-138655049D01*
X202792184Y-138655051D01*
X202981588Y-138751557D01*
X203183757Y-138817246D01*
X203393713Y-138850500D01*
X203393714Y-138850500D01*
X203606286Y-138850500D01*
X203606287Y-138850500D01*
X203816243Y-138817246D01*
X204018412Y-138751557D01*
X204207816Y-138655051D01*
X204309266Y-138581344D01*
X204379784Y-138530110D01*
X204379784Y-138530109D01*
X204379792Y-138530104D01*
X204493329Y-138416566D01*
X204554648Y-138383084D01*
X204624340Y-138388068D01*
X204680274Y-138429939D01*
X204697189Y-138460917D01*
X204746202Y-138592328D01*
X204746206Y-138592335D01*
X204832452Y-138707544D01*
X204832455Y-138707547D01*
X204947664Y-138793793D01*
X204947671Y-138793797D01*
X205082517Y-138844091D01*
X205082516Y-138844091D01*
X205089444Y-138844835D01*
X205142127Y-138850500D01*
X206937872Y-138850499D01*
X206997483Y-138844091D01*
X207132331Y-138793796D01*
X207247546Y-138707546D01*
X207333796Y-138592331D01*
X207337960Y-138581165D01*
X207379829Y-138525234D01*
X207445293Y-138500816D01*
X207454141Y-138500500D01*
X207851839Y-138500500D01*
X207918878Y-138520185D01*
X207939520Y-138536819D01*
X210480802Y-141078102D01*
X210514287Y-141139425D01*
X210517121Y-141165783D01*
X210517121Y-141600001D01*
X210517122Y-141600019D01*
X210527621Y-141702796D01*
X210527622Y-141702799D01*
X210543682Y-141751264D01*
X210582807Y-141869334D01*
X210672423Y-142014626D01*
X210674910Y-142018657D01*
X210780802Y-142124549D01*
X210814287Y-142185872D01*
X210817121Y-142212230D01*
X210817121Y-146606162D01*
X210822846Y-146634945D01*
X210822849Y-146634958D01*
X210823411Y-146637782D01*
X210855570Y-146799457D01*
X210872121Y-146839414D01*
X210875677Y-146847999D01*
X210875678Y-146848003D01*
X210930985Y-146981528D01*
X210930992Y-146981541D01*
X211040481Y-147145402D01*
X211040484Y-147145406D01*
X211184158Y-147289080D01*
X211184180Y-147289100D01*
X219113576Y-155218496D01*
X219147061Y-155279819D01*
X219149350Y-155295344D01*
X219175031Y-155457483D01*
X219182754Y-155506243D01*
X219237662Y-155675233D01*
X219248444Y-155708414D01*
X219344951Y-155897820D01*
X219469890Y-156069786D01*
X219620213Y-156220109D01*
X219792179Y-156345048D01*
X219792181Y-156345049D01*
X219792184Y-156345051D01*
X219981588Y-156441557D01*
X220183757Y-156507246D01*
X220393713Y-156540500D01*
X220393714Y-156540500D01*
X220606286Y-156540500D01*
X220606287Y-156540500D01*
X220816243Y-156507246D01*
X221018412Y-156441557D01*
X221207816Y-156345051D01*
X221270512Y-156299500D01*
X221379786Y-156220109D01*
X221379788Y-156220106D01*
X221379792Y-156220104D01*
X221530104Y-156069792D01*
X221530106Y-156069788D01*
X221530109Y-156069786D01*
X221655048Y-155897820D01*
X221655047Y-155897820D01*
X221655051Y-155897816D01*
X221751557Y-155708412D01*
X221817246Y-155506243D01*
X221850500Y-155296287D01*
X221850500Y-155083713D01*
X221817246Y-154873757D01*
X221751557Y-154671588D01*
X221655051Y-154482184D01*
X221655049Y-154482181D01*
X221655048Y-154482179D01*
X221530109Y-154310213D01*
X221379786Y-154159890D01*
X221207820Y-154034951D01*
X221018414Y-153938444D01*
X221018413Y-153938443D01*
X221018412Y-153938443D01*
X220816243Y-153872754D01*
X220816241Y-153872753D01*
X220816240Y-153872753D01*
X220649544Y-153846351D01*
X220606287Y-153839500D01*
X220606286Y-153839500D01*
X220601475Y-153838738D01*
X220601641Y-153837683D01*
X220541151Y-153814622D01*
X220528496Y-153803576D01*
X212854440Y-146129520D01*
X212820955Y-146068197D01*
X212818121Y-146041839D01*
X212818121Y-142212230D01*
X212837806Y-142145191D01*
X212854440Y-142124549D01*
X212902568Y-142076421D01*
X212960333Y-142018656D01*
X213052435Y-141869334D01*
X213107620Y-141702797D01*
X213118121Y-141600009D01*
X213118120Y-141165781D01*
X213137804Y-141098743D01*
X213154434Y-141078106D01*
X214277139Y-139955404D01*
X214355021Y-139838845D01*
X214386632Y-139791536D01*
X214447928Y-139643553D01*
X214462051Y-139609458D01*
X214500500Y-139416163D01*
X214500500Y-139219082D01*
X214500500Y-133833389D01*
X219859500Y-133833389D01*
X219859500Y-134006611D01*
X219886598Y-134177701D01*
X219940127Y-134342445D01*
X220018768Y-134496788D01*
X220120586Y-134636928D01*
X220243072Y-134759414D01*
X220383212Y-134861232D01*
X220537555Y-134939873D01*
X220702299Y-134993402D01*
X220873389Y-135020500D01*
X220873390Y-135020500D01*
X221046610Y-135020500D01*
X221046611Y-135020500D01*
X221217701Y-134993402D01*
X221382445Y-134939873D01*
X221536788Y-134861232D01*
X221676928Y-134759414D01*
X221799414Y-134636928D01*
X221901232Y-134496788D01*
X221979873Y-134342445D01*
X222033402Y-134177701D01*
X222060500Y-134006611D01*
X222060500Y-133833389D01*
X222033402Y-133662299D01*
X221979873Y-133497555D01*
X221901232Y-133343212D01*
X221799414Y-133203072D01*
X221676928Y-133080586D01*
X221536788Y-132978768D01*
X221382445Y-132900127D01*
X221217701Y-132846598D01*
X221217699Y-132846597D01*
X221217698Y-132846597D01*
X221086271Y-132825781D01*
X221046611Y-132819500D01*
X220873389Y-132819500D01*
X220833728Y-132825781D01*
X220702302Y-132846597D01*
X220537552Y-132900128D01*
X220383211Y-132978768D01*
X220303256Y-133036859D01*
X220243072Y-133080586D01*
X220243070Y-133080588D01*
X220243069Y-133080588D01*
X220120588Y-133203069D01*
X220120588Y-133203070D01*
X220120586Y-133203072D01*
X220076859Y-133263256D01*
X220018768Y-133343211D01*
X219940128Y-133497552D01*
X219886597Y-133662302D01*
X219869146Y-133772486D01*
X219859500Y-133833389D01*
X214500500Y-133833389D01*
X214500500Y-124724367D01*
X214520185Y-124657328D01*
X214536819Y-124636686D01*
X217557390Y-121616115D01*
X217618713Y-121582630D01*
X217645071Y-121579796D01*
X217794825Y-121579796D01*
X217794828Y-121579796D01*
X217965540Y-121539335D01*
X218122322Y-121460598D01*
X218202429Y-121395341D01*
X219050968Y-120546800D01*
X219116227Y-120466693D01*
X219194964Y-120309911D01*
X219235425Y-120139199D01*
X219235425Y-119963757D01*
X219194964Y-119793045D01*
X219116227Y-119636263D01*
X219050970Y-119556156D01*
X218202429Y-118707617D01*
X218202415Y-118707606D01*
X218170283Y-118681429D01*
X218122322Y-118642358D01*
X218122320Y-118642357D01*
X218122319Y-118642356D01*
X217965539Y-118563620D01*
X217794835Y-118523161D01*
X217794830Y-118523160D01*
X217794828Y-118523160D01*
X217619386Y-118523160D01*
X217619384Y-118523160D01*
X217619378Y-118523161D01*
X217448674Y-118563620D01*
X217291892Y-118642357D01*
X217211795Y-118707606D01*
X217211777Y-118707622D01*
X216363249Y-119556152D01*
X216363240Y-119556162D01*
X216297985Y-119636265D01*
X216219249Y-119793045D01*
X216178790Y-119963749D01*
X216178789Y-119963760D01*
X216178789Y-120113512D01*
X216159104Y-120180551D01*
X216142470Y-120201193D01*
X212862220Y-123481444D01*
X212862217Y-123481447D01*
X212812180Y-123531483D01*
X212750857Y-123564967D01*
X212681165Y-123559982D01*
X212625232Y-123518110D01*
X212600816Y-123452646D01*
X212600500Y-123443801D01*
X212600500Y-120300096D01*
X212620185Y-120233057D01*
X212636814Y-120212420D01*
X216270898Y-116578335D01*
X216332219Y-116544852D01*
X216401911Y-116549836D01*
X216446258Y-116578337D01*
X216489707Y-116621786D01*
X216489711Y-116621789D01*
X216620814Y-116709390D01*
X216620827Y-116709397D01*
X216766498Y-116769735D01*
X216766503Y-116769737D01*
X216921153Y-116800499D01*
X216921156Y-116800500D01*
X216921158Y-116800500D01*
X217078844Y-116800500D01*
X217078845Y-116800499D01*
X217233497Y-116769737D01*
X217379179Y-116709394D01*
X217510289Y-116621789D01*
X217621789Y-116510289D01*
X217709394Y-116379179D01*
X217769737Y-116233497D01*
X217800500Y-116078842D01*
X217800638Y-116078150D01*
X217833023Y-116016239D01*
X217834518Y-116014716D01*
X219975845Y-113873389D01*
X234509500Y-113873389D01*
X234509500Y-114046610D01*
X234530881Y-114181610D01*
X234536598Y-114217701D01*
X234590127Y-114382445D01*
X234668768Y-114536788D01*
X234770586Y-114676928D01*
X234893072Y-114799414D01*
X235033212Y-114901232D01*
X235187555Y-114979873D01*
X235352299Y-115033402D01*
X235523389Y-115060500D01*
X235523390Y-115060500D01*
X235696610Y-115060500D01*
X235696611Y-115060500D01*
X235867701Y-115033402D01*
X236032445Y-114979873D01*
X236186788Y-114901232D01*
X236326928Y-114799414D01*
X236449414Y-114676928D01*
X236551232Y-114536788D01*
X236629873Y-114382445D01*
X236683402Y-114217701D01*
X236710500Y-114046611D01*
X236710500Y-113873389D01*
X236683402Y-113702299D01*
X236629873Y-113537555D01*
X236551232Y-113383212D01*
X236449414Y-113243072D01*
X236326928Y-113120586D01*
X236186788Y-113018768D01*
X236032445Y-112940127D01*
X235867701Y-112886598D01*
X235867699Y-112886597D01*
X235867698Y-112886597D01*
X235736271Y-112865781D01*
X235696611Y-112859500D01*
X235523389Y-112859500D01*
X235483728Y-112865781D01*
X235352302Y-112886597D01*
X235187552Y-112940128D01*
X235033211Y-113018768D01*
X234953256Y-113076859D01*
X234893072Y-113120586D01*
X234893070Y-113120588D01*
X234893069Y-113120588D01*
X234770588Y-113243069D01*
X234770588Y-113243070D01*
X234770586Y-113243072D01*
X234754177Y-113265657D01*
X234668768Y-113383211D01*
X234590128Y-113537552D01*
X234536597Y-113702302D01*
X234509500Y-113873389D01*
X219975845Y-113873389D01*
X230929573Y-102919662D01*
X230990896Y-102886177D01*
X231017254Y-102883343D01*
X272840337Y-102883343D01*
X272840353Y-102883344D01*
X272847949Y-102883344D01*
X273006060Y-102883344D01*
X273006063Y-102883344D01*
X273158791Y-102842420D01*
X273208910Y-102813482D01*
X273295722Y-102763363D01*
X273407526Y-102651559D01*
X273407526Y-102651557D01*
X273417734Y-102641350D01*
X273417735Y-102641347D01*
X277458505Y-98600578D01*
X277458511Y-98600574D01*
X277468714Y-98590370D01*
X277468716Y-98590370D01*
X277580520Y-98478566D01*
X277648674Y-98360519D01*
X277659577Y-98341635D01*
X277700501Y-98188907D01*
X277700501Y-98030793D01*
X277700501Y-98023198D01*
X277700500Y-98023180D01*
X277700500Y-86729059D01*
X277700501Y-86729046D01*
X277700501Y-86560945D01*
X277700501Y-86560943D01*
X277659577Y-86408215D01*
X277630639Y-86358095D01*
X277580520Y-86271284D01*
X277468716Y-86159480D01*
X277468715Y-86159479D01*
X277464385Y-86155149D01*
X277464374Y-86155139D01*
X275021416Y-83712181D01*
X274987931Y-83650858D01*
X274992915Y-83581166D01*
X275034787Y-83525233D01*
X275100251Y-83500816D01*
X275109097Y-83500500D01*
X275118097Y-83500500D01*
X275351368Y-83463553D01*
X275384468Y-83452798D01*
X275575992Y-83390568D01*
X275786433Y-83283343D01*
X275977510Y-83144517D01*
X276144517Y-82977510D01*
X276283343Y-82786433D01*
X276390568Y-82575992D01*
X276463553Y-82351368D01*
X276472768Y-82293186D01*
X276500500Y-82118097D01*
X276500500Y-81881902D01*
X276463553Y-81648631D01*
X276403178Y-81462819D01*
X276390568Y-81424008D01*
X276390566Y-81424005D01*
X276390566Y-81424003D01*
X276329081Y-81303333D01*
X276283343Y-81213567D01*
X276144517Y-81022490D01*
X275977510Y-80855483D01*
X275786433Y-80716657D01*
X275575996Y-80609433D01*
X275351368Y-80536446D01*
X275118097Y-80499500D01*
X275118092Y-80499500D01*
X274881908Y-80499500D01*
X274881903Y-80499500D01*
X274648628Y-80536447D01*
X274522433Y-80577450D01*
X274452592Y-80579445D01*
X274396435Y-80547200D01*
X274187590Y-80338355D01*
X274187588Y-80338352D01*
X274068717Y-80219481D01*
X274068716Y-80219480D01*
X273981904Y-80169360D01*
X273981904Y-80169359D01*
X273981900Y-80169358D01*
X273931785Y-80140423D01*
X273779057Y-80099499D01*
X273620943Y-80099499D01*
X273613347Y-80099499D01*
X273613331Y-80099500D01*
X232386670Y-80099500D01*
X232386654Y-80099499D01*
X232379058Y-80099499D01*
X232220943Y-80099499D01*
X232144579Y-80119961D01*
X232068214Y-80140423D01*
X232068209Y-80140426D01*
X231931290Y-80219475D01*
X231931282Y-80219481D01*
X231603563Y-80547200D01*
X231542240Y-80580685D01*
X231477564Y-80577450D01*
X231351370Y-80536447D01*
X231118097Y-80499500D01*
X231118092Y-80499500D01*
X230881908Y-80499500D01*
X230881903Y-80499500D01*
X230648631Y-80536446D01*
X230424003Y-80609433D01*
X230213566Y-80716657D01*
X230121417Y-80783608D01*
X230022490Y-80855483D01*
X230022488Y-80855485D01*
X230022487Y-80855485D01*
X229855484Y-81022488D01*
X229855483Y-81022490D01*
X229830547Y-81056812D01*
X229830318Y-81057127D01*
X229774987Y-81099792D01*
X229705374Y-81105771D01*
X229643579Y-81073165D01*
X229629682Y-81057127D01*
X229629455Y-81056814D01*
X229604517Y-81022490D01*
X229437510Y-80855483D01*
X229246433Y-80716657D01*
X229035996Y-80609433D01*
X228811368Y-80536446D01*
X228578097Y-80499500D01*
X228578092Y-80499500D01*
X228341908Y-80499500D01*
X228341903Y-80499500D01*
X228108631Y-80536446D01*
X227884003Y-80609433D01*
X227673566Y-80716657D01*
X227581417Y-80783608D01*
X227482490Y-80855483D01*
X227482488Y-80855485D01*
X227482487Y-80855485D01*
X227315484Y-81022488D01*
X227315483Y-81022490D01*
X227290547Y-81056812D01*
X227290318Y-81057127D01*
X227234987Y-81099792D01*
X227165374Y-81105771D01*
X227103579Y-81073165D01*
X227089682Y-81057127D01*
X227089455Y-81056814D01*
X227064517Y-81022490D01*
X226897510Y-80855483D01*
X226706433Y-80716657D01*
X226495996Y-80609433D01*
X226271368Y-80536446D01*
X226038097Y-80499500D01*
X226038092Y-80499500D01*
X225801908Y-80499500D01*
X225801903Y-80499500D01*
X225568628Y-80536447D01*
X225442433Y-80577450D01*
X225372592Y-80579445D01*
X225316435Y-80547200D01*
X225107590Y-80338355D01*
X225107588Y-80338352D01*
X224988717Y-80219481D01*
X224988716Y-80219480D01*
X224901904Y-80169360D01*
X224901904Y-80169359D01*
X224901900Y-80169358D01*
X224851785Y-80140423D01*
X224699057Y-80099499D01*
X224540943Y-80099499D01*
X224533347Y-80099499D01*
X224533331Y-80099500D01*
X217848192Y-80099500D01*
X217848176Y-80099499D01*
X217840580Y-80099499D01*
X217682465Y-80099499D01*
X217606101Y-80119961D01*
X217529736Y-80140423D01*
X217529731Y-80140426D01*
X217392812Y-80219475D01*
X217392804Y-80219481D01*
X199799481Y-97812804D01*
X199799479Y-97812807D01*
X199797638Y-97815996D01*
X199761803Y-97878065D01*
X199720423Y-97949737D01*
X199679499Y-98102465D01*
X199679499Y-98260579D01*
X199679499Y-98260581D01*
X199679500Y-98270575D01*
X199679500Y-126633330D01*
X199679499Y-126633348D01*
X199679499Y-126799054D01*
X199679498Y-126799054D01*
X195000500Y-126799054D01*
X195000500Y-71124500D01*
X195020185Y-71057461D01*
X195072989Y-71011706D01*
X195124500Y-71000500D01*
X201793021Y-71000500D01*
X201803837Y-71000000D01*
X201894818Y-71000000D01*
X201961857Y-71019685D01*
G37*
%TD.AperFunction*%
%TD*%
%TA.AperFunction,Conductor*%
%TO.N,VSS*%
G36*
X303942539Y-71020185D02*
G01*
X303988294Y-71072989D01*
X303999500Y-71124500D01*
X303999500Y-166875500D01*
X303979815Y-166942539D01*
X303927011Y-166988294D01*
X303875500Y-166999500D01*
X294124500Y-166999500D01*
X294057461Y-166979815D01*
X294011706Y-166927011D01*
X294000500Y-166875500D01*
X294000500Y-162706975D01*
X294000000Y-162696162D01*
X294000000Y-162605181D01*
X294019685Y-162538142D01*
X294052180Y-162507166D01*
X294050863Y-162505450D01*
X294057307Y-162500503D01*
X294057314Y-162500500D01*
X294150500Y-162407314D01*
X294216392Y-162293186D01*
X294250500Y-162165892D01*
X294250500Y-162034108D01*
X294216392Y-161906814D01*
X294150500Y-161792686D01*
X294120495Y-161762681D01*
X294087010Y-161701358D01*
X294091994Y-161631666D01*
X294120495Y-161587319D01*
X294150500Y-161557314D01*
X294216392Y-161443186D01*
X294250500Y-161315892D01*
X294250500Y-161184108D01*
X294216392Y-161056814D01*
X294150500Y-160942686D01*
X294120495Y-160912681D01*
X294087010Y-160851358D01*
X294091994Y-160781666D01*
X294120495Y-160737319D01*
X294150500Y-160707314D01*
X294216392Y-160593186D01*
X294250500Y-160465892D01*
X294250500Y-160334108D01*
X294216392Y-160206814D01*
X294150500Y-160092686D01*
X294120495Y-160062681D01*
X294087010Y-160001358D01*
X294091994Y-159931666D01*
X294120495Y-159887319D01*
X294150500Y-159857314D01*
X294216392Y-159743186D01*
X294250500Y-159615892D01*
X294250500Y-159484108D01*
X294216392Y-159356814D01*
X294150500Y-159242686D01*
X294120495Y-159212681D01*
X294087010Y-159151358D01*
X294091994Y-159081666D01*
X294120495Y-159037319D01*
X294150500Y-159007314D01*
X294216392Y-158893186D01*
X294250500Y-158765892D01*
X294250500Y-158634108D01*
X294216392Y-158506814D01*
X294150500Y-158392686D01*
X294120495Y-158362681D01*
X294087010Y-158301358D01*
X294091994Y-158231666D01*
X294120495Y-158187319D01*
X294150500Y-158157314D01*
X294216392Y-158043186D01*
X294250500Y-157915892D01*
X294250500Y-157784108D01*
X294216392Y-157656814D01*
X294150500Y-157542686D01*
X294120495Y-157512681D01*
X294087010Y-157451358D01*
X294091994Y-157381666D01*
X294120495Y-157337319D01*
X294150500Y-157307314D01*
X294216392Y-157193186D01*
X294250500Y-157065892D01*
X294250500Y-156934108D01*
X294216392Y-156806814D01*
X294150500Y-156692686D01*
X294057314Y-156599500D01*
X294049246Y-156594842D01*
X294038572Y-156584696D01*
X294028137Y-156566688D01*
X294013775Y-156551621D01*
X294009721Y-156534906D01*
X294003542Y-156524242D01*
X294004115Y-156511788D01*
X294000000Y-156494818D01*
X294000000Y-156403835D01*
X294000500Y-156393031D01*
X294000500Y-153859030D01*
X297014377Y-153859030D01*
X297016239Y-153956172D01*
X297016239Y-153956175D01*
X297016306Y-153959699D01*
X297016080Y-153965746D01*
X297016450Y-153967221D01*
X297016599Y-153975013D01*
X297016600Y-153975020D01*
X297016834Y-153987209D01*
X297016835Y-153987214D01*
X297051525Y-154110639D01*
X297075282Y-154151458D01*
X297075333Y-154151546D01*
X297081178Y-154161608D01*
X297081192Y-154161668D01*
X297086102Y-154170986D01*
X297101549Y-154203739D01*
X297116604Y-154235662D01*
X297124140Y-154256147D01*
X297141395Y-154319876D01*
X297145224Y-154341366D01*
X297151520Y-154412603D01*
X297152001Y-154423520D01*
X297152001Y-155955093D01*
X297152000Y-156001476D01*
X297152000Y-156001479D01*
X297151519Y-156012396D01*
X297145223Y-156083633D01*
X297141394Y-156105123D01*
X297124139Y-156168852D01*
X297116603Y-156189337D01*
X297086063Y-156254095D01*
X297081081Y-156263575D01*
X297053898Y-156310283D01*
X297051524Y-156314362D01*
X297029413Y-156393031D01*
X297016834Y-156437787D01*
X297016834Y-156437788D01*
X297016609Y-156449492D01*
X297016026Y-156458938D01*
X297016161Y-156462545D01*
X297016224Y-156469535D01*
X297014468Y-156561150D01*
X297014469Y-156561156D01*
X297014377Y-156565971D01*
X297018927Y-156584921D01*
X297019503Y-156587990D01*
X297020327Y-156595357D01*
X297021345Y-156600983D01*
X297024879Y-156611626D01*
X297027769Y-156621746D01*
X297044311Y-156690636D01*
X297057317Y-156714991D01*
X297062293Y-156724310D01*
X297066039Y-156735590D01*
X297076137Y-156750233D01*
X297079445Y-156756427D01*
X297079446Y-156756429D01*
X297104702Y-156803725D01*
X297131671Y-156832948D01*
X297137636Y-156839411D01*
X297146559Y-156852350D01*
X297158744Y-156862282D01*
X297164706Y-156868742D01*
X297164706Y-156868743D01*
X297164707Y-156868744D01*
X297191650Y-156897939D01*
X297191653Y-156897941D01*
X297191655Y-156897943D01*
X297242628Y-156930662D01*
X297256494Y-156941965D01*
X297267506Y-156946630D01*
X297289548Y-156960779D01*
X297299544Y-156967196D01*
X297299548Y-156967198D01*
X297371682Y-156990768D01*
X297387089Y-156997297D01*
X297394250Y-156998143D01*
X297405781Y-157001911D01*
X297421414Y-157007019D01*
X297520689Y-157013082D01*
X297527941Y-157013940D01*
X297529753Y-157013636D01*
X297543881Y-157014499D01*
X297549380Y-157014835D01*
X297549380Y-157014834D01*
X297549383Y-157014835D01*
X297675189Y-156990140D01*
X297728956Y-156964371D01*
X297737182Y-156960792D01*
X297793832Y-156938565D01*
X297811524Y-156933110D01*
X297866177Y-156920640D01*
X297884492Y-156917880D01*
X297932661Y-156914272D01*
X297945040Y-156913345D01*
X297954302Y-156912999D01*
X299350699Y-156912999D01*
X299359961Y-156913345D01*
X299375986Y-156914545D01*
X299420506Y-156917880D01*
X299438822Y-156920640D01*
X299493475Y-156933110D01*
X299511167Y-156938565D01*
X299567785Y-156960780D01*
X299576081Y-156964390D01*
X299594797Y-156973359D01*
X299629811Y-156990139D01*
X299755617Y-157014834D01*
X299755618Y-157014833D01*
X299755619Y-157014834D01*
X299757668Y-157014708D01*
X299775422Y-157013624D01*
X299777060Y-157013899D01*
X299783603Y-157013124D01*
X299883586Y-157007019D01*
X299910948Y-156998077D01*
X299917901Y-156997257D01*
X299932866Y-156990915D01*
X299989384Y-156972447D01*
X300005450Y-156967198D01*
X300005452Y-156967197D01*
X300037700Y-156946496D01*
X300048484Y-156941929D01*
X300062063Y-156930858D01*
X300113344Y-156897942D01*
X300146448Y-156862071D01*
X300158410Y-156852322D01*
X300167165Y-156839623D01*
X300200295Y-156803726D01*
X300229028Y-156749918D01*
X300238924Y-156735571D01*
X300242593Y-156724516D01*
X300260687Y-156690634D01*
X300278567Y-156616169D01*
X300283614Y-156600975D01*
X300283871Y-156594081D01*
X300290622Y-156565970D01*
X300288691Y-156465319D01*
X300288920Y-156459254D01*
X300288547Y-156457769D01*
X300288164Y-156437787D01*
X300253474Y-156314362D01*
X300249367Y-156307305D01*
X300223860Y-156263454D01*
X300223847Y-156263404D01*
X300218893Y-156254000D01*
X300188397Y-156189337D01*
X300180860Y-156168851D01*
X300163605Y-156105122D01*
X300159776Y-156083630D01*
X300153481Y-156012393D01*
X300153000Y-156001478D01*
X300153000Y-154423518D01*
X300153481Y-154412604D01*
X300153923Y-154407597D01*
X300159776Y-154341366D01*
X300163604Y-154319876D01*
X300180858Y-154256150D01*
X300188392Y-154235669D01*
X300218900Y-154170983D01*
X300224004Y-154161297D01*
X300241778Y-154130897D01*
X300242677Y-154129192D01*
X300253476Y-154110638D01*
X300288166Y-153987213D01*
X300288545Y-153967402D01*
X300288961Y-153965750D01*
X300288707Y-153958991D01*
X300290624Y-153859029D01*
X300283918Y-153831104D01*
X300283654Y-153824016D01*
X300278460Y-153808375D01*
X300260689Y-153734365D01*
X300242706Y-153700691D01*
X300238961Y-153689409D01*
X300228860Y-153674763D01*
X300200296Y-153621273D01*
X300200295Y-153621271D01*
X300200294Y-153621270D01*
X300173325Y-153592048D01*
X300167362Y-153585587D01*
X300158440Y-153572649D01*
X300146255Y-153562716D01*
X300114905Y-153528747D01*
X300113346Y-153527057D01*
X300113345Y-153527056D01*
X300062363Y-153494331D01*
X300048505Y-153483035D01*
X300037499Y-153478371D01*
X300009827Y-153460609D01*
X300005454Y-153457802D01*
X300005453Y-153457801D01*
X300005452Y-153457801D01*
X299947107Y-153438736D01*
X299938330Y-153435868D01*
X299938329Y-153435868D01*
X299937882Y-153435722D01*
X299933323Y-153434232D01*
X299917911Y-153427702D01*
X299910750Y-153426855D01*
X299899030Y-153423026D01*
X299899028Y-153423024D01*
X299883590Y-153417980D01*
X299883584Y-153417979D01*
X299787822Y-153412131D01*
X299787821Y-153412131D01*
X299784303Y-153411916D01*
X299777058Y-153411060D01*
X299775246Y-153411362D01*
X299766953Y-153410856D01*
X299766936Y-153410856D01*
X299755617Y-153410165D01*
X299755616Y-153410165D01*
X299734973Y-153414216D01*
X299629810Y-153434859D01*
X299576092Y-153460605D01*
X299567791Y-153464217D01*
X299511174Y-153486431D01*
X299493466Y-153491891D01*
X299438824Y-153504358D01*
X299420505Y-153507118D01*
X299359962Y-153511654D01*
X299350698Y-153512001D01*
X297954301Y-153512001D01*
X297945037Y-153511654D01*
X297884493Y-153507118D01*
X297866173Y-153504358D01*
X297811529Y-153491890D01*
X297793823Y-153486430D01*
X297737215Y-153464220D01*
X297728915Y-153460609D01*
X297675188Y-153434860D01*
X297549385Y-153410166D01*
X297549378Y-153410165D01*
X297537590Y-153410885D01*
X297537589Y-153410884D01*
X297529574Y-153411374D01*
X297527940Y-153411101D01*
X297521395Y-153411874D01*
X297517869Y-153412090D01*
X297517867Y-153412089D01*
X297517864Y-153412090D01*
X297421420Y-153417980D01*
X297421414Y-153417980D01*
X297421414Y-153417981D01*
X297421413Y-153417981D01*
X297421409Y-153417982D01*
X297405763Y-153423094D01*
X297405762Y-153423093D01*
X297394044Y-153426922D01*
X297387099Y-153427743D01*
X297372143Y-153434079D01*
X297367127Y-153435719D01*
X297367120Y-153435722D01*
X297299547Y-153457802D01*
X297276181Y-153472799D01*
X297276182Y-153472800D01*
X297267297Y-153478503D01*
X297256516Y-153483071D01*
X297242941Y-153494136D01*
X297237022Y-153497936D01*
X297237018Y-153497936D01*
X297191661Y-153527052D01*
X297191648Y-153527063D01*
X297164511Y-153556466D01*
X297164512Y-153556467D01*
X297158544Y-153562933D01*
X297146590Y-153572678D01*
X297137834Y-153585373D01*
X297131868Y-153591839D01*
X297131866Y-153591839D01*
X297104707Y-153621270D01*
X297104705Y-153621273D01*
X297079282Y-153668878D01*
X297079281Y-153668877D01*
X297075961Y-153675093D01*
X297066076Y-153689428D01*
X297062408Y-153700473D01*
X297057434Y-153709789D01*
X297057433Y-153709793D01*
X297044310Y-153734368D01*
X297044310Y-153734370D01*
X297027661Y-153803701D01*
X297027662Y-153803702D01*
X297026430Y-153808832D01*
X297021386Y-153824024D01*
X297021128Y-153830912D01*
X297018251Y-153842894D01*
X297014377Y-153859030D01*
X294000500Y-153859030D01*
X294000500Y-145859031D01*
X297014377Y-145859031D01*
X297016225Y-145955459D01*
X297016292Y-145958997D01*
X297016040Y-145965750D01*
X297016453Y-145967399D01*
X297016609Y-145975505D01*
X297016610Y-145975507D01*
X297016835Y-145987211D01*
X297016835Y-145987212D01*
X297051525Y-146110639D01*
X297075282Y-146151458D01*
X297075333Y-146151546D01*
X297081178Y-146161608D01*
X297081192Y-146161668D01*
X297086102Y-146170986D01*
X297101549Y-146203739D01*
X297116604Y-146235662D01*
X297124140Y-146256147D01*
X297141395Y-146319876D01*
X297145224Y-146341366D01*
X297151520Y-146412603D01*
X297152001Y-146423520D01*
X297152001Y-147955093D01*
X297152000Y-148001476D01*
X297152000Y-148001479D01*
X297151519Y-148012396D01*
X297145223Y-148083633D01*
X297141394Y-148105123D01*
X297124139Y-148168852D01*
X297116603Y-148189337D01*
X297086063Y-148254095D01*
X297081081Y-148263575D01*
X297051523Y-148314363D01*
X297016835Y-148437778D01*
X297016833Y-148437789D01*
X297016599Y-148449988D01*
X297016449Y-148457781D01*
X297016080Y-148459255D01*
X297016305Y-148465284D01*
X297016238Y-148468817D01*
X297014469Y-148561135D01*
X297014469Y-148561138D01*
X297014377Y-148565971D01*
X297018971Y-148585104D01*
X297019545Y-148588159D01*
X297019349Y-148590106D01*
X297019658Y-148592354D01*
X297019821Y-148592325D01*
X297021387Y-148600980D01*
X297024767Y-148611160D01*
X297027658Y-148621282D01*
X297044311Y-148690635D01*
X297044311Y-148690636D01*
X297044312Y-148690637D01*
X297057432Y-148715208D01*
X297062408Y-148724527D01*
X297066076Y-148735572D01*
X297075963Y-148749908D01*
X297079272Y-148756105D01*
X297079277Y-148756113D01*
X297104705Y-148803729D01*
X297131870Y-148833164D01*
X297137836Y-148839629D01*
X297146590Y-148852322D01*
X297158542Y-148862065D01*
X297164506Y-148868527D01*
X297191650Y-148897939D01*
X297191654Y-148897942D01*
X297191655Y-148897943D01*
X297242933Y-148930858D01*
X297256516Y-148941930D01*
X297267301Y-148946499D01*
X297276189Y-148952204D01*
X297276191Y-148952206D01*
X297289548Y-148960779D01*
X297299548Y-148967198D01*
X297372132Y-148990915D01*
X297387099Y-148997257D01*
X297394053Y-148998078D01*
X297421414Y-149007019D01*
X297421413Y-149007019D01*
X297426644Y-149007338D01*
X297521399Y-149013125D01*
X297527940Y-149013899D01*
X297529576Y-149013625D01*
X297549383Y-149014835D01*
X297675189Y-148990140D01*
X297728956Y-148964371D01*
X297737182Y-148960792D01*
X297793832Y-148938565D01*
X297811524Y-148933110D01*
X297866177Y-148920640D01*
X297884492Y-148917880D01*
X297932661Y-148914272D01*
X297945040Y-148913345D01*
X297954302Y-148912999D01*
X299350699Y-148912999D01*
X299359961Y-148913345D01*
X299375986Y-148914545D01*
X299420506Y-148917880D01*
X299438822Y-148920640D01*
X299493475Y-148933110D01*
X299511167Y-148938565D01*
X299567785Y-148960780D01*
X299576081Y-148964390D01*
X299605964Y-148978710D01*
X299629811Y-148990139D01*
X299755617Y-149014834D01*
X299755617Y-149014833D01*
X299755618Y-149014834D01*
X299757177Y-149014738D01*
X299775236Y-149013635D01*
X299777059Y-149013941D01*
X299784338Y-149013079D01*
X299883586Y-149007019D01*
X299910747Y-148998143D01*
X299917912Y-148997298D01*
X299933327Y-148990764D01*
X300005452Y-148967197D01*
X300037491Y-148946631D01*
X300048506Y-148941965D01*
X300062375Y-148930658D01*
X300113344Y-148897942D01*
X300146247Y-148862289D01*
X300158441Y-148852350D01*
X300167365Y-148839407D01*
X300200295Y-148803726D01*
X300228852Y-148750247D01*
X300238962Y-148735590D01*
X300242712Y-148724293D01*
X300260687Y-148690634D01*
X300278452Y-148616648D01*
X300283655Y-148600983D01*
X300283920Y-148593876D01*
X300290622Y-148565970D01*
X300288706Y-148466058D01*
X300288962Y-148459250D01*
X300288543Y-148457584D01*
X300288164Y-148437787D01*
X300253474Y-148314362D01*
X300249367Y-148307305D01*
X300223860Y-148263454D01*
X300223847Y-148263404D01*
X300218893Y-148254000D01*
X300188397Y-148189337D01*
X300180860Y-148168851D01*
X300163605Y-148105122D01*
X300159776Y-148083630D01*
X300153481Y-148012393D01*
X300153000Y-148001478D01*
X300153000Y-146423518D01*
X300153481Y-146412604D01*
X300153923Y-146407597D01*
X300159776Y-146341366D01*
X300163604Y-146319876D01*
X300180858Y-146256150D01*
X300188392Y-146235669D01*
X300218900Y-146170983D01*
X300224004Y-146161297D01*
X300241778Y-146130897D01*
X300242677Y-146129192D01*
X300253476Y-146110638D01*
X300288166Y-145987213D01*
X300288549Y-145967220D01*
X300288920Y-145965745D01*
X300288693Y-145959714D01*
X300290624Y-145859029D01*
X300283871Y-145830909D01*
X300283614Y-145824024D01*
X300278574Y-145808847D01*
X300260690Y-145734368D01*
X300260689Y-145734364D01*
X300247567Y-145709793D01*
X300242593Y-145700479D01*
X300238924Y-145689428D01*
X300229030Y-145675081D01*
X300225719Y-145668881D01*
X300200296Y-145621273D01*
X300173127Y-145591833D01*
X300167163Y-145585371D01*
X300158410Y-145572678D01*
X300146455Y-145562932D01*
X300140499Y-145556479D01*
X300140492Y-145556472D01*
X300140295Y-145556259D01*
X300113345Y-145527056D01*
X300113344Y-145527055D01*
X300067973Y-145497932D01*
X300067973Y-145497931D01*
X300062054Y-145494132D01*
X300048484Y-145483070D01*
X300037703Y-145478502D01*
X300028816Y-145472798D01*
X300015452Y-145464220D01*
X300005452Y-145457801D01*
X299947107Y-145438736D01*
X299937868Y-145435717D01*
X299937867Y-145435717D01*
X299932858Y-145434080D01*
X299917901Y-145427743D01*
X299910952Y-145426921D01*
X299899232Y-145423092D01*
X299899230Y-145423090D01*
X299883592Y-145417981D01*
X299883579Y-145417979D01*
X299787119Y-145412088D01*
X299787115Y-145412088D01*
X299783589Y-145411872D01*
X299777060Y-145411101D01*
X299775427Y-145411373D01*
X299767430Y-145410885D01*
X299767421Y-145410885D01*
X299755618Y-145410164D01*
X299629810Y-145434859D01*
X299576092Y-145460605D01*
X299567791Y-145464217D01*
X299511174Y-145486431D01*
X299493466Y-145491891D01*
X299438824Y-145504358D01*
X299420505Y-145507118D01*
X299359962Y-145511654D01*
X299350698Y-145512001D01*
X297954301Y-145512001D01*
X297945037Y-145511654D01*
X297884493Y-145507118D01*
X297866173Y-145504358D01*
X297811529Y-145491890D01*
X297793823Y-145486430D01*
X297737215Y-145464220D01*
X297728915Y-145460609D01*
X297675188Y-145434860D01*
X297549385Y-145410166D01*
X297549381Y-145410165D01*
X297538077Y-145410856D01*
X297529758Y-145411363D01*
X297527941Y-145411060D01*
X297520681Y-145411917D01*
X297517156Y-145412133D01*
X297517153Y-145412132D01*
X297421414Y-145417980D01*
X297421412Y-145417980D01*
X297405954Y-145423031D01*
X297394238Y-145426859D01*
X297387089Y-145427704D01*
X297371703Y-145434222D01*
X297366696Y-145435859D01*
X297366682Y-145435865D01*
X297338034Y-145445226D01*
X297299548Y-145457802D01*
X297299546Y-145457802D01*
X297299546Y-145457803D01*
X297276381Y-145472672D01*
X297276380Y-145472671D01*
X297267489Y-145478377D01*
X297256495Y-145483036D01*
X297242651Y-145494320D01*
X297236734Y-145498119D01*
X297236723Y-145498128D01*
X297191654Y-145527058D01*
X297164703Y-145556259D01*
X297164702Y-145556258D01*
X297158729Y-145562730D01*
X297146560Y-145572650D01*
X297137644Y-145585578D01*
X297131674Y-145592048D01*
X297131674Y-145592049D01*
X297104707Y-145621271D01*
X297104704Y-145621275D01*
X297079450Y-145668563D01*
X297076133Y-145674773D01*
X297066040Y-145689410D01*
X297062294Y-145700689D01*
X297057321Y-145710004D01*
X297057320Y-145710006D01*
X297044310Y-145734367D01*
X297044310Y-145734368D01*
X297027771Y-145803242D01*
X297027772Y-145803243D01*
X297026539Y-145808375D01*
X297021346Y-145824017D01*
X297021080Y-145831108D01*
X297018202Y-145843096D01*
X297018202Y-145843102D01*
X297014377Y-145859031D01*
X294000500Y-145859031D01*
X294000500Y-128859031D01*
X297014377Y-128859031D01*
X297016225Y-128955459D01*
X297016292Y-128958997D01*
X297016040Y-128965750D01*
X297016453Y-128967399D01*
X297016609Y-128975505D01*
X297016610Y-128975507D01*
X297016835Y-128987211D01*
X297016835Y-128987212D01*
X297051525Y-129110639D01*
X297075282Y-129151458D01*
X297075333Y-129151546D01*
X297081178Y-129161608D01*
X297081192Y-129161668D01*
X297086102Y-129170986D01*
X297101549Y-129203739D01*
X297116604Y-129235662D01*
X297124140Y-129256147D01*
X297141395Y-129319876D01*
X297145224Y-129341366D01*
X297151520Y-129412603D01*
X297152001Y-129423520D01*
X297152001Y-130955093D01*
X297152000Y-131001476D01*
X297152000Y-131001479D01*
X297151519Y-131012396D01*
X297145223Y-131083633D01*
X297141394Y-131105123D01*
X297124139Y-131168852D01*
X297116603Y-131189337D01*
X297086063Y-131254095D01*
X297081081Y-131263575D01*
X297051523Y-131314363D01*
X297016835Y-131437778D01*
X297016833Y-131437789D01*
X297016599Y-131449988D01*
X297016449Y-131457781D01*
X297016080Y-131459255D01*
X297016305Y-131465284D01*
X297016238Y-131468817D01*
X297014469Y-131561135D01*
X297014469Y-131561138D01*
X297014377Y-131565971D01*
X297018971Y-131585104D01*
X297019545Y-131588159D01*
X297019349Y-131590106D01*
X297019658Y-131592354D01*
X297019821Y-131592325D01*
X297021387Y-131600980D01*
X297024767Y-131611160D01*
X297027658Y-131621282D01*
X297044311Y-131690635D01*
X297044311Y-131690636D01*
X297044312Y-131690637D01*
X297057432Y-131715208D01*
X297062408Y-131724527D01*
X297066076Y-131735572D01*
X297075963Y-131749908D01*
X297079272Y-131756105D01*
X297079277Y-131756113D01*
X297104705Y-131803729D01*
X297131870Y-131833164D01*
X297137836Y-131839629D01*
X297146590Y-131852322D01*
X297158542Y-131862065D01*
X297164506Y-131868527D01*
X297191650Y-131897939D01*
X297191654Y-131897942D01*
X297191655Y-131897943D01*
X297242933Y-131930858D01*
X297256516Y-131941930D01*
X297267301Y-131946499D01*
X297276189Y-131952204D01*
X297276191Y-131952206D01*
X297289548Y-131960779D01*
X297299548Y-131967198D01*
X297372132Y-131990915D01*
X297387099Y-131997257D01*
X297394053Y-131998078D01*
X297421414Y-132007019D01*
X297421413Y-132007019D01*
X297426644Y-132007338D01*
X297521399Y-132013125D01*
X297527940Y-132013899D01*
X297529576Y-132013625D01*
X297549383Y-132014835D01*
X297675189Y-131990140D01*
X297728956Y-131964371D01*
X297737182Y-131960792D01*
X297793832Y-131938565D01*
X297811524Y-131933110D01*
X297866177Y-131920640D01*
X297884492Y-131917880D01*
X297932661Y-131914272D01*
X297945040Y-131913345D01*
X297954302Y-131912999D01*
X299350699Y-131912999D01*
X299359961Y-131913345D01*
X299375986Y-131914545D01*
X299420506Y-131917880D01*
X299438822Y-131920640D01*
X299493475Y-131933110D01*
X299511167Y-131938565D01*
X299567785Y-131960780D01*
X299576081Y-131964390D01*
X299605964Y-131978710D01*
X299629811Y-131990139D01*
X299755617Y-132014834D01*
X299755617Y-132014833D01*
X299755618Y-132014834D01*
X299757177Y-132014738D01*
X299775236Y-132013635D01*
X299777059Y-132013941D01*
X299784338Y-132013079D01*
X299883586Y-132007019D01*
X299910747Y-131998143D01*
X299917912Y-131997298D01*
X299933327Y-131990764D01*
X300005452Y-131967197D01*
X300037491Y-131946631D01*
X300048506Y-131941965D01*
X300062375Y-131930658D01*
X300113344Y-131897942D01*
X300146247Y-131862289D01*
X300158441Y-131852350D01*
X300167365Y-131839407D01*
X300200295Y-131803726D01*
X300228852Y-131750247D01*
X300238962Y-131735590D01*
X300242712Y-131724293D01*
X300260687Y-131690634D01*
X300278452Y-131616648D01*
X300283655Y-131600983D01*
X300283920Y-131593876D01*
X300290622Y-131565970D01*
X300288706Y-131466058D01*
X300288962Y-131459250D01*
X300288543Y-131457584D01*
X300288164Y-131437787D01*
X300253474Y-131314362D01*
X300249367Y-131307305D01*
X300223860Y-131263454D01*
X300223847Y-131263404D01*
X300218893Y-131254000D01*
X300188397Y-131189337D01*
X300180860Y-131168851D01*
X300163605Y-131105122D01*
X300159776Y-131083630D01*
X300153481Y-131012393D01*
X300153000Y-131001478D01*
X300153000Y-129423518D01*
X300153481Y-129412604D01*
X300153923Y-129407597D01*
X300159776Y-129341366D01*
X300163604Y-129319876D01*
X300180858Y-129256150D01*
X300188392Y-129235669D01*
X300218900Y-129170983D01*
X300224004Y-129161297D01*
X300241778Y-129130897D01*
X300242677Y-129129192D01*
X300253476Y-129110638D01*
X300288166Y-128987213D01*
X300288549Y-128967220D01*
X300288920Y-128965745D01*
X300288693Y-128959714D01*
X300290624Y-128859029D01*
X300283871Y-128830909D01*
X300283614Y-128824024D01*
X300278574Y-128808847D01*
X300260690Y-128734368D01*
X300260689Y-128734364D01*
X300247567Y-128709793D01*
X300242593Y-128700479D01*
X300238924Y-128689428D01*
X300229030Y-128675081D01*
X300225719Y-128668881D01*
X300200296Y-128621273D01*
X300173127Y-128591833D01*
X300167163Y-128585371D01*
X300158410Y-128572678D01*
X300146455Y-128562932D01*
X300140499Y-128556479D01*
X300140492Y-128556472D01*
X300140295Y-128556259D01*
X300113345Y-128527056D01*
X300113344Y-128527055D01*
X300067973Y-128497932D01*
X300067973Y-128497931D01*
X300062054Y-128494132D01*
X300048484Y-128483070D01*
X300037703Y-128478502D01*
X300028816Y-128472798D01*
X300015452Y-128464220D01*
X300005452Y-128457801D01*
X299947107Y-128438736D01*
X299937868Y-128435717D01*
X299937867Y-128435717D01*
X299932858Y-128434080D01*
X299917901Y-128427743D01*
X299910952Y-128426921D01*
X299899232Y-128423092D01*
X299899230Y-128423090D01*
X299883592Y-128417981D01*
X299883579Y-128417979D01*
X299787119Y-128412088D01*
X299787115Y-128412088D01*
X299783589Y-128411872D01*
X299777060Y-128411101D01*
X299775427Y-128411373D01*
X299767430Y-128410885D01*
X299767421Y-128410885D01*
X299755618Y-128410164D01*
X299629810Y-128434859D01*
X299576092Y-128460605D01*
X299567791Y-128464217D01*
X299511174Y-128486431D01*
X299493466Y-128491891D01*
X299438824Y-128504358D01*
X299420505Y-128507118D01*
X299359962Y-128511654D01*
X299350698Y-128512001D01*
X297954301Y-128512001D01*
X297945037Y-128511654D01*
X297884493Y-128507118D01*
X297866173Y-128504358D01*
X297811529Y-128491890D01*
X297793823Y-128486430D01*
X297737215Y-128464220D01*
X297728915Y-128460609D01*
X297675188Y-128434860D01*
X297549385Y-128410166D01*
X297549381Y-128410165D01*
X297538077Y-128410856D01*
X297529758Y-128411363D01*
X297527941Y-128411060D01*
X297520681Y-128411917D01*
X297517156Y-128412133D01*
X297517153Y-128412132D01*
X297421414Y-128417980D01*
X297421412Y-128417980D01*
X297405954Y-128423031D01*
X297394238Y-128426859D01*
X297387089Y-128427704D01*
X297371703Y-128434222D01*
X297366696Y-128435859D01*
X297366682Y-128435865D01*
X297338034Y-128445226D01*
X297299548Y-128457802D01*
X297299546Y-128457802D01*
X297299546Y-128457803D01*
X297276381Y-128472672D01*
X297276380Y-128472671D01*
X297267489Y-128478377D01*
X297256495Y-128483036D01*
X297242651Y-128494320D01*
X297236734Y-128498119D01*
X297236723Y-128498128D01*
X297191654Y-128527058D01*
X297164703Y-128556259D01*
X297164702Y-128556258D01*
X297158729Y-128562730D01*
X297146560Y-128572650D01*
X297137644Y-128585578D01*
X297131674Y-128592048D01*
X297131674Y-128592049D01*
X297104707Y-128621271D01*
X297104704Y-128621275D01*
X297079450Y-128668563D01*
X297076133Y-128674773D01*
X297066040Y-128689410D01*
X297062294Y-128700689D01*
X297057321Y-128710004D01*
X297057320Y-128710006D01*
X297044310Y-128734367D01*
X297044310Y-128734368D01*
X297027771Y-128803242D01*
X297027772Y-128803243D01*
X297026539Y-128808375D01*
X297021346Y-128824017D01*
X297021080Y-128831108D01*
X297018202Y-128843096D01*
X297018202Y-128843102D01*
X297014377Y-128859031D01*
X294000500Y-128859031D01*
X294000500Y-123571779D01*
X294000500Y-123449793D01*
X294000500Y-123357290D01*
X294000018Y-123354713D01*
X294000000Y-123346437D01*
X294000010Y-123346399D01*
X294000000Y-123346162D01*
X294000000Y-123255181D01*
X294019685Y-123188142D01*
X294052180Y-123157166D01*
X294050863Y-123155450D01*
X294057307Y-123150503D01*
X294057314Y-123150500D01*
X294150500Y-123057314D01*
X294216392Y-122943186D01*
X294250500Y-122815892D01*
X294250500Y-122684108D01*
X294216392Y-122556814D01*
X294150500Y-122442686D01*
X294120495Y-122412681D01*
X294087010Y-122351358D01*
X294091994Y-122281666D01*
X294120495Y-122237319D01*
X294150500Y-122207314D01*
X294216392Y-122093186D01*
X294250500Y-121965892D01*
X294250500Y-121834108D01*
X294216392Y-121706814D01*
X294150500Y-121592686D01*
X294120495Y-121562681D01*
X294087010Y-121501358D01*
X294091994Y-121431666D01*
X294120495Y-121387319D01*
X294133991Y-121373823D01*
X294150500Y-121357314D01*
X294216392Y-121243186D01*
X294250500Y-121115892D01*
X294250500Y-120984108D01*
X294216986Y-120859031D01*
X297014377Y-120859031D01*
X297016225Y-120955459D01*
X297016292Y-120958997D01*
X297016040Y-120965750D01*
X297016453Y-120967399D01*
X297016609Y-120975505D01*
X297016610Y-120975507D01*
X297016835Y-120987211D01*
X297016835Y-120987212D01*
X297051525Y-121110639D01*
X297075282Y-121151458D01*
X297075333Y-121151546D01*
X297081178Y-121161608D01*
X297081192Y-121161668D01*
X297086102Y-121170986D01*
X297101549Y-121203739D01*
X297116604Y-121235662D01*
X297124140Y-121256147D01*
X297141395Y-121319876D01*
X297145224Y-121341366D01*
X297151520Y-121412603D01*
X297152001Y-121423520D01*
X297152001Y-122955093D01*
X297152000Y-122983130D01*
X297152000Y-123001479D01*
X297151519Y-123012396D01*
X297145223Y-123083633D01*
X297141394Y-123105123D01*
X297124139Y-123168852D01*
X297116603Y-123189337D01*
X297086063Y-123254095D01*
X297081081Y-123263575D01*
X297051523Y-123314363D01*
X297016835Y-123437778D01*
X297016833Y-123437789D01*
X297016599Y-123449988D01*
X297016060Y-123458739D01*
X297016175Y-123461824D01*
X297016238Y-123468817D01*
X297014469Y-123561135D01*
X297014469Y-123561138D01*
X297014377Y-123565971D01*
X297018971Y-123585104D01*
X297019545Y-123588159D01*
X297020322Y-123595094D01*
X297021387Y-123600980D01*
X297024767Y-123611160D01*
X297027658Y-123621282D01*
X297044311Y-123690635D01*
X297044311Y-123690636D01*
X297044312Y-123690637D01*
X297057432Y-123715208D01*
X297062408Y-123724527D01*
X297066076Y-123735572D01*
X297075963Y-123749908D01*
X297079272Y-123756105D01*
X297079277Y-123756113D01*
X297104705Y-123803729D01*
X297131870Y-123833164D01*
X297137836Y-123839629D01*
X297146590Y-123852322D01*
X297158542Y-123862065D01*
X297164506Y-123868527D01*
X297191650Y-123897939D01*
X297191654Y-123897942D01*
X297191655Y-123897943D01*
X297242933Y-123930858D01*
X297256516Y-123941930D01*
X297267301Y-123946499D01*
X297276189Y-123952204D01*
X297276191Y-123952206D01*
X297289548Y-123960779D01*
X297299548Y-123967198D01*
X297372132Y-123990915D01*
X297387099Y-123997257D01*
X297394053Y-123998078D01*
X297421414Y-124007019D01*
X297421413Y-124007019D01*
X297426644Y-124007338D01*
X297521399Y-124013125D01*
X297527940Y-124013899D01*
X297529576Y-124013625D01*
X297549383Y-124014835D01*
X297675189Y-123990140D01*
X297728956Y-123964371D01*
X297737182Y-123960792D01*
X297793832Y-123938565D01*
X297811524Y-123933110D01*
X297866177Y-123920640D01*
X297884492Y-123917880D01*
X297932661Y-123914272D01*
X297945040Y-123913345D01*
X297954302Y-123912999D01*
X299350699Y-123912999D01*
X299359961Y-123913345D01*
X299375986Y-123914545D01*
X299420506Y-123917880D01*
X299438822Y-123920640D01*
X299493475Y-123933110D01*
X299511167Y-123938565D01*
X299567785Y-123960780D01*
X299576081Y-123964390D01*
X299605964Y-123978710D01*
X299629811Y-123990139D01*
X299755617Y-124014834D01*
X299755617Y-124014833D01*
X299755618Y-124014834D01*
X299757177Y-124014738D01*
X299775236Y-124013635D01*
X299777059Y-124013941D01*
X299784338Y-124013079D01*
X299883586Y-124007019D01*
X299910747Y-123998143D01*
X299917912Y-123997298D01*
X299933327Y-123990764D01*
X300005452Y-123967197D01*
X300037491Y-123946631D01*
X300048506Y-123941965D01*
X300062375Y-123930658D01*
X300113344Y-123897942D01*
X300146247Y-123862289D01*
X300158441Y-123852350D01*
X300167365Y-123839407D01*
X300200295Y-123803726D01*
X300228852Y-123750247D01*
X300238962Y-123735590D01*
X300242712Y-123724293D01*
X300260687Y-123690634D01*
X300278452Y-123616648D01*
X300283655Y-123600983D01*
X300283920Y-123593876D01*
X300290622Y-123565970D01*
X300288706Y-123466058D01*
X300288962Y-123459250D01*
X300288543Y-123457584D01*
X300288164Y-123437787D01*
X300253474Y-123314362D01*
X300249367Y-123307305D01*
X300223860Y-123263454D01*
X300223847Y-123263404D01*
X300218893Y-123254000D01*
X300188397Y-123189337D01*
X300180860Y-123168851D01*
X300163605Y-123105122D01*
X300159776Y-123083630D01*
X300157450Y-123057313D01*
X300153481Y-123012393D01*
X300153000Y-123001478D01*
X300153000Y-121423518D01*
X300153481Y-121412604D01*
X300155715Y-121387319D01*
X300159776Y-121341366D01*
X300163604Y-121319876D01*
X300180858Y-121256150D01*
X300188392Y-121235669D01*
X300218900Y-121170983D01*
X300224004Y-121161297D01*
X300241778Y-121130897D01*
X300242677Y-121129192D01*
X300253476Y-121110638D01*
X300288166Y-120987213D01*
X300288549Y-120967220D01*
X300288920Y-120965745D01*
X300288693Y-120959714D01*
X300290624Y-120859029D01*
X300283871Y-120830909D01*
X300283614Y-120824024D01*
X300278574Y-120808847D01*
X300262687Y-120742686D01*
X300260689Y-120734364D01*
X300247567Y-120709793D01*
X300242593Y-120700479D01*
X300238924Y-120689428D01*
X300229030Y-120675081D01*
X300225719Y-120668881D01*
X300200296Y-120621273D01*
X300173127Y-120591833D01*
X300167163Y-120585371D01*
X300158410Y-120572678D01*
X300146455Y-120562932D01*
X300140499Y-120556479D01*
X300140492Y-120556472D01*
X300140295Y-120556259D01*
X300113345Y-120527056D01*
X300113344Y-120527055D01*
X300067973Y-120497932D01*
X300067973Y-120497931D01*
X300062054Y-120494132D01*
X300048484Y-120483070D01*
X300037703Y-120478502D01*
X300028816Y-120472798D01*
X300015452Y-120464220D01*
X300005452Y-120457801D01*
X299947107Y-120438736D01*
X299937868Y-120435717D01*
X299937867Y-120435717D01*
X299932858Y-120434080D01*
X299917901Y-120427743D01*
X299910952Y-120426921D01*
X299899232Y-120423092D01*
X299899230Y-120423090D01*
X299883592Y-120417981D01*
X299883579Y-120417979D01*
X299787119Y-120412088D01*
X299787115Y-120412088D01*
X299783589Y-120411872D01*
X299777060Y-120411101D01*
X299775427Y-120411373D01*
X299767430Y-120410885D01*
X299767421Y-120410885D01*
X299755618Y-120410164D01*
X299629810Y-120434859D01*
X299576092Y-120460605D01*
X299567791Y-120464217D01*
X299511174Y-120486431D01*
X299493466Y-120491891D01*
X299438824Y-120504358D01*
X299420505Y-120507118D01*
X299359962Y-120511654D01*
X299350698Y-120512001D01*
X297954301Y-120512001D01*
X297945037Y-120511654D01*
X297884493Y-120507118D01*
X297866173Y-120504358D01*
X297811529Y-120491890D01*
X297793823Y-120486430D01*
X297737215Y-120464220D01*
X297728915Y-120460609D01*
X297675188Y-120434860D01*
X297549385Y-120410166D01*
X297549381Y-120410165D01*
X297538077Y-120410856D01*
X297529758Y-120411363D01*
X297527941Y-120411060D01*
X297520681Y-120411917D01*
X297517156Y-120412133D01*
X297517153Y-120412132D01*
X297421414Y-120417980D01*
X297421412Y-120417980D01*
X297405954Y-120423031D01*
X297394238Y-120426859D01*
X297387089Y-120427704D01*
X297371703Y-120434222D01*
X297366696Y-120435859D01*
X297366682Y-120435865D01*
X297338034Y-120445226D01*
X297299548Y-120457802D01*
X297299546Y-120457802D01*
X297299546Y-120457803D01*
X297276381Y-120472672D01*
X297276380Y-120472671D01*
X297267489Y-120478377D01*
X297256495Y-120483036D01*
X297242651Y-120494320D01*
X297236734Y-120498119D01*
X297236723Y-120498128D01*
X297191654Y-120527058D01*
X297164703Y-120556259D01*
X297164702Y-120556258D01*
X297158729Y-120562730D01*
X297146560Y-120572650D01*
X297137644Y-120585578D01*
X297131674Y-120592048D01*
X297131674Y-120592049D01*
X297104707Y-120621271D01*
X297104704Y-120621275D01*
X297079450Y-120668563D01*
X297076133Y-120674773D01*
X297066040Y-120689410D01*
X297062294Y-120700689D01*
X297057321Y-120710004D01*
X297057320Y-120710006D01*
X297044310Y-120734367D01*
X297044310Y-120734368D01*
X297027771Y-120803242D01*
X297027772Y-120803243D01*
X297026539Y-120808375D01*
X297021346Y-120824017D01*
X297021080Y-120831108D01*
X297018202Y-120843096D01*
X297018202Y-120843102D01*
X297014377Y-120859031D01*
X294216986Y-120859031D01*
X294216392Y-120856814D01*
X294150500Y-120742686D01*
X294120495Y-120712681D01*
X294087010Y-120651358D01*
X294091994Y-120581666D01*
X294120495Y-120537319D01*
X294130759Y-120527055D01*
X294150500Y-120507314D01*
X294216392Y-120393186D01*
X294250500Y-120265892D01*
X294250500Y-120134108D01*
X294216392Y-120006814D01*
X294150500Y-119892686D01*
X294120495Y-119862681D01*
X294087010Y-119801358D01*
X294091994Y-119731666D01*
X294120495Y-119687319D01*
X294150500Y-119657314D01*
X294216392Y-119543186D01*
X294250500Y-119415892D01*
X294250500Y-119284108D01*
X294216392Y-119156814D01*
X294150500Y-119042686D01*
X294120495Y-119012681D01*
X294087010Y-118951358D01*
X294091994Y-118881666D01*
X294120495Y-118837319D01*
X294150500Y-118807314D01*
X294216392Y-118693186D01*
X294250500Y-118565892D01*
X294250500Y-118434108D01*
X294216392Y-118306814D01*
X294150500Y-118192686D01*
X294120495Y-118162681D01*
X294087010Y-118101358D01*
X294091994Y-118031666D01*
X294120495Y-117987319D01*
X294150500Y-117957314D01*
X294216392Y-117843186D01*
X294250500Y-117715892D01*
X294250500Y-117584108D01*
X294216392Y-117456814D01*
X294150500Y-117342686D01*
X294057314Y-117249500D01*
X294057313Y-117249499D01*
X294057310Y-117249496D01*
X294050869Y-117244554D01*
X294052196Y-117242823D01*
X294042797Y-117238531D01*
X294030047Y-117218691D01*
X294013775Y-117201621D01*
X294010562Y-117188372D01*
X294005023Y-117179753D01*
X294000000Y-117144818D01*
X294000000Y-117053835D01*
X294000500Y-117043031D01*
X294000500Y-112859031D01*
X297014377Y-112859031D01*
X297016225Y-112955459D01*
X297016292Y-112958997D01*
X297016040Y-112965750D01*
X297016453Y-112967399D01*
X297016609Y-112975505D01*
X297016610Y-112975507D01*
X297016835Y-112987211D01*
X297016835Y-112987212D01*
X297051525Y-113110639D01*
X297075282Y-113151458D01*
X297075333Y-113151546D01*
X297081178Y-113161608D01*
X297081192Y-113161668D01*
X297086102Y-113170986D01*
X297101549Y-113203739D01*
X297116604Y-113235662D01*
X297124140Y-113256147D01*
X297141395Y-113319876D01*
X297145224Y-113341366D01*
X297151520Y-113412603D01*
X297152001Y-113423520D01*
X297152001Y-114955093D01*
X297152000Y-115001476D01*
X297152000Y-115001479D01*
X297151519Y-115012396D01*
X297145223Y-115083633D01*
X297141394Y-115105123D01*
X297124139Y-115168852D01*
X297116603Y-115189337D01*
X297086063Y-115254095D01*
X297081081Y-115263575D01*
X297051523Y-115314363D01*
X297016835Y-115437778D01*
X297016833Y-115437789D01*
X297016599Y-115449988D01*
X297016449Y-115457781D01*
X297016080Y-115459255D01*
X297016305Y-115465284D01*
X297016238Y-115468817D01*
X297014469Y-115561135D01*
X297014469Y-115561138D01*
X297014377Y-115565971D01*
X297018971Y-115585104D01*
X297019545Y-115588159D01*
X297019349Y-115590106D01*
X297019658Y-115592354D01*
X297019821Y-115592325D01*
X297021387Y-115600980D01*
X297024767Y-115611160D01*
X297027658Y-115621282D01*
X297044311Y-115690635D01*
X297044311Y-115690636D01*
X297044312Y-115690637D01*
X297057432Y-115715208D01*
X297062408Y-115724527D01*
X297066076Y-115735572D01*
X297075963Y-115749908D01*
X297079272Y-115756105D01*
X297079277Y-115756113D01*
X297104705Y-115803729D01*
X297131870Y-115833164D01*
X297137836Y-115839629D01*
X297146590Y-115852322D01*
X297158542Y-115862065D01*
X297164506Y-115868527D01*
X297191650Y-115897939D01*
X297191654Y-115897942D01*
X297191655Y-115897943D01*
X297242933Y-115930858D01*
X297256516Y-115941930D01*
X297267301Y-115946499D01*
X297276189Y-115952204D01*
X297276191Y-115952206D01*
X297289548Y-115960779D01*
X297299548Y-115967198D01*
X297372132Y-115990915D01*
X297387099Y-115997257D01*
X297394053Y-115998078D01*
X297421414Y-116007019D01*
X297421413Y-116007019D01*
X297426644Y-116007338D01*
X297521399Y-116013125D01*
X297527940Y-116013899D01*
X297529576Y-116013625D01*
X297549383Y-116014835D01*
X297675189Y-115990140D01*
X297728956Y-115964371D01*
X297737182Y-115960792D01*
X297793832Y-115938565D01*
X297811524Y-115933110D01*
X297866177Y-115920640D01*
X297884492Y-115917880D01*
X297932661Y-115914272D01*
X297945040Y-115913345D01*
X297954302Y-115912999D01*
X299350699Y-115912999D01*
X299359961Y-115913345D01*
X299375986Y-115914545D01*
X299420506Y-115917880D01*
X299438822Y-115920640D01*
X299493475Y-115933110D01*
X299511167Y-115938565D01*
X299567785Y-115960780D01*
X299576081Y-115964390D01*
X299605964Y-115978710D01*
X299629811Y-115990139D01*
X299755617Y-116014834D01*
X299755617Y-116014833D01*
X299755618Y-116014834D01*
X299757177Y-116014738D01*
X299775236Y-116013635D01*
X299777059Y-116013941D01*
X299784338Y-116013079D01*
X299883586Y-116007019D01*
X299910747Y-115998143D01*
X299917912Y-115997298D01*
X299933327Y-115990764D01*
X300005452Y-115967197D01*
X300037491Y-115946631D01*
X300048506Y-115941965D01*
X300062375Y-115930658D01*
X300113344Y-115897942D01*
X300146247Y-115862289D01*
X300158441Y-115852350D01*
X300167365Y-115839407D01*
X300200295Y-115803726D01*
X300228852Y-115750247D01*
X300238962Y-115735590D01*
X300242712Y-115724293D01*
X300260687Y-115690634D01*
X300278452Y-115616648D01*
X300283655Y-115600983D01*
X300283920Y-115593876D01*
X300290622Y-115565970D01*
X300288706Y-115466058D01*
X300288962Y-115459250D01*
X300288543Y-115457584D01*
X300288164Y-115437787D01*
X300253474Y-115314362D01*
X300249367Y-115307305D01*
X300223860Y-115263454D01*
X300223847Y-115263404D01*
X300218893Y-115254000D01*
X300188397Y-115189337D01*
X300180860Y-115168851D01*
X300163605Y-115105122D01*
X300159776Y-115083630D01*
X300153481Y-115012393D01*
X300153000Y-115001478D01*
X300153000Y-113423518D01*
X300153481Y-113412604D01*
X300153923Y-113407597D01*
X300159776Y-113341366D01*
X300163604Y-113319876D01*
X300180858Y-113256150D01*
X300188392Y-113235669D01*
X300218900Y-113170983D01*
X300224004Y-113161297D01*
X300241778Y-113130897D01*
X300242677Y-113129192D01*
X300253476Y-113110638D01*
X300288166Y-112987213D01*
X300288549Y-112967220D01*
X300288920Y-112965745D01*
X300288693Y-112959714D01*
X300290624Y-112859029D01*
X300283871Y-112830909D01*
X300283614Y-112824024D01*
X300278574Y-112808847D01*
X300260690Y-112734368D01*
X300260689Y-112734364D01*
X300247567Y-112709793D01*
X300242593Y-112700479D01*
X300238924Y-112689428D01*
X300229030Y-112675081D01*
X300225719Y-112668881D01*
X300200296Y-112621273D01*
X300173127Y-112591833D01*
X300167163Y-112585371D01*
X300158410Y-112572678D01*
X300146455Y-112562932D01*
X300140499Y-112556479D01*
X300140492Y-112556472D01*
X300140295Y-112556259D01*
X300113345Y-112527056D01*
X300113344Y-112527055D01*
X300067973Y-112497932D01*
X300067973Y-112497931D01*
X300062054Y-112494132D01*
X300048484Y-112483070D01*
X300037703Y-112478502D01*
X300028816Y-112472798D01*
X300015452Y-112464220D01*
X300005452Y-112457801D01*
X299947107Y-112438736D01*
X299937868Y-112435717D01*
X299937867Y-112435717D01*
X299932858Y-112434080D01*
X299917901Y-112427743D01*
X299910952Y-112426921D01*
X299899232Y-112423092D01*
X299899230Y-112423090D01*
X299883592Y-112417981D01*
X299883579Y-112417979D01*
X299787119Y-112412088D01*
X299787115Y-112412088D01*
X299783589Y-112411872D01*
X299777060Y-112411101D01*
X299775427Y-112411373D01*
X299767430Y-112410885D01*
X299767421Y-112410885D01*
X299755618Y-112410164D01*
X299629810Y-112434859D01*
X299576092Y-112460605D01*
X299567791Y-112464217D01*
X299511174Y-112486431D01*
X299493466Y-112491891D01*
X299438824Y-112504358D01*
X299420505Y-112507118D01*
X299359962Y-112511654D01*
X299350698Y-112512001D01*
X297954301Y-112512001D01*
X297945037Y-112511654D01*
X297884493Y-112507118D01*
X297866173Y-112504358D01*
X297811529Y-112491890D01*
X297793823Y-112486430D01*
X297737215Y-112464220D01*
X297728915Y-112460609D01*
X297675188Y-112434860D01*
X297549385Y-112410166D01*
X297549381Y-112410165D01*
X297538077Y-112410856D01*
X297529758Y-112411363D01*
X297527941Y-112411060D01*
X297520681Y-112411917D01*
X297517156Y-112412133D01*
X297517153Y-112412132D01*
X297421414Y-112417980D01*
X297421412Y-112417980D01*
X297405954Y-112423031D01*
X297394238Y-112426859D01*
X297387089Y-112427704D01*
X297371703Y-112434222D01*
X297366696Y-112435859D01*
X297366682Y-112435865D01*
X297338034Y-112445226D01*
X297299548Y-112457802D01*
X297299546Y-112457802D01*
X297299546Y-112457803D01*
X297276381Y-112472672D01*
X297276380Y-112472671D01*
X297267489Y-112478377D01*
X297256495Y-112483036D01*
X297242651Y-112494320D01*
X297236734Y-112498119D01*
X297236723Y-112498128D01*
X297191654Y-112527058D01*
X297164703Y-112556259D01*
X297164702Y-112556258D01*
X297158729Y-112562730D01*
X297146560Y-112572650D01*
X297137644Y-112585578D01*
X297131674Y-112592048D01*
X297131674Y-112592049D01*
X297104707Y-112621271D01*
X297104704Y-112621275D01*
X297079450Y-112668563D01*
X297076133Y-112674773D01*
X297066040Y-112689410D01*
X297062294Y-112700689D01*
X297057321Y-112710004D01*
X297057320Y-112710006D01*
X297044310Y-112734367D01*
X297044310Y-112734368D01*
X297027771Y-112803242D01*
X297027772Y-112803243D01*
X297026539Y-112808375D01*
X297021346Y-112824017D01*
X297021080Y-112831108D01*
X297018202Y-112843096D01*
X297018202Y-112843102D01*
X297014377Y-112859031D01*
X294000500Y-112859031D01*
X294000500Y-104859031D01*
X297014377Y-104859031D01*
X297016225Y-104955459D01*
X297016292Y-104958997D01*
X297016040Y-104965750D01*
X297016453Y-104967399D01*
X297016609Y-104975505D01*
X297016610Y-104975507D01*
X297016835Y-104987211D01*
X297016835Y-104987212D01*
X297051525Y-105110639D01*
X297075282Y-105151458D01*
X297075333Y-105151546D01*
X297081178Y-105161608D01*
X297081192Y-105161668D01*
X297086102Y-105170986D01*
X297101549Y-105203739D01*
X297116604Y-105235662D01*
X297124140Y-105256147D01*
X297141395Y-105319876D01*
X297145224Y-105341366D01*
X297151520Y-105412603D01*
X297152001Y-105423520D01*
X297152001Y-106955093D01*
X297152000Y-107001476D01*
X297152000Y-107001479D01*
X297151519Y-107012396D01*
X297145223Y-107083633D01*
X297141394Y-107105123D01*
X297124139Y-107168852D01*
X297116603Y-107189337D01*
X297086063Y-107254095D01*
X297081081Y-107263575D01*
X297051523Y-107314363D01*
X297016835Y-107437778D01*
X297016833Y-107437789D01*
X297016599Y-107449988D01*
X297016449Y-107457781D01*
X297016080Y-107459255D01*
X297016305Y-107465284D01*
X297016238Y-107468817D01*
X297014469Y-107561135D01*
X297014469Y-107561138D01*
X297014377Y-107565971D01*
X297018971Y-107585104D01*
X297019545Y-107588159D01*
X297019349Y-107590106D01*
X297019658Y-107592354D01*
X297019821Y-107592325D01*
X297021387Y-107600980D01*
X297024767Y-107611160D01*
X297027658Y-107621282D01*
X297044311Y-107690635D01*
X297044311Y-107690636D01*
X297044312Y-107690637D01*
X297057432Y-107715208D01*
X297062408Y-107724527D01*
X297066076Y-107735572D01*
X297075963Y-107749908D01*
X297079272Y-107756105D01*
X297079277Y-107756113D01*
X297104705Y-107803729D01*
X297131870Y-107833164D01*
X297137836Y-107839629D01*
X297146590Y-107852322D01*
X297158542Y-107862065D01*
X297164506Y-107868527D01*
X297191650Y-107897939D01*
X297191654Y-107897942D01*
X297191655Y-107897943D01*
X297242933Y-107930858D01*
X297256516Y-107941930D01*
X297267301Y-107946499D01*
X297276189Y-107952204D01*
X297276191Y-107952206D01*
X297289548Y-107960779D01*
X297299548Y-107967198D01*
X297372132Y-107990915D01*
X297387099Y-107997257D01*
X297394053Y-107998078D01*
X297421414Y-108007019D01*
X297421413Y-108007019D01*
X297426644Y-108007338D01*
X297521399Y-108013125D01*
X297527940Y-108013899D01*
X297529576Y-108013625D01*
X297549383Y-108014835D01*
X297675189Y-107990140D01*
X297728956Y-107964371D01*
X297737182Y-107960792D01*
X297793832Y-107938565D01*
X297811524Y-107933110D01*
X297866177Y-107920640D01*
X297884492Y-107917880D01*
X297932661Y-107914272D01*
X297945040Y-107913345D01*
X297954302Y-107912999D01*
X299350699Y-107912999D01*
X299359961Y-107913345D01*
X299375986Y-107914545D01*
X299420506Y-107917880D01*
X299438822Y-107920640D01*
X299493475Y-107933110D01*
X299511167Y-107938565D01*
X299567785Y-107960780D01*
X299576081Y-107964390D01*
X299605964Y-107978710D01*
X299629811Y-107990139D01*
X299755617Y-108014834D01*
X299755617Y-108014833D01*
X299755618Y-108014834D01*
X299757177Y-108014738D01*
X299775236Y-108013635D01*
X299777059Y-108013941D01*
X299784338Y-108013079D01*
X299883586Y-108007019D01*
X299910747Y-107998143D01*
X299917912Y-107997298D01*
X299933327Y-107990764D01*
X300005452Y-107967197D01*
X300037491Y-107946631D01*
X300048506Y-107941965D01*
X300062375Y-107930658D01*
X300113344Y-107897942D01*
X300146247Y-107862289D01*
X300158441Y-107852350D01*
X300167365Y-107839407D01*
X300200295Y-107803726D01*
X300228852Y-107750247D01*
X300238962Y-107735590D01*
X300242712Y-107724293D01*
X300260687Y-107690634D01*
X300278452Y-107616648D01*
X300283655Y-107600983D01*
X300283920Y-107593876D01*
X300290622Y-107565970D01*
X300288706Y-107466058D01*
X300288962Y-107459250D01*
X300288543Y-107457584D01*
X300288164Y-107437787D01*
X300253474Y-107314362D01*
X300249367Y-107307305D01*
X300223860Y-107263454D01*
X300223847Y-107263404D01*
X300218893Y-107254000D01*
X300188397Y-107189337D01*
X300180860Y-107168851D01*
X300163605Y-107105122D01*
X300159776Y-107083630D01*
X300153481Y-107012393D01*
X300153000Y-107001478D01*
X300153000Y-105423518D01*
X300153481Y-105412604D01*
X300153923Y-105407597D01*
X300159776Y-105341366D01*
X300163604Y-105319876D01*
X300180858Y-105256150D01*
X300188392Y-105235669D01*
X300218900Y-105170983D01*
X300224004Y-105161297D01*
X300241778Y-105130897D01*
X300242677Y-105129192D01*
X300253476Y-105110638D01*
X300288166Y-104987213D01*
X300288549Y-104967220D01*
X300288920Y-104965745D01*
X300288693Y-104959714D01*
X300290624Y-104859029D01*
X300283871Y-104830909D01*
X300283614Y-104824024D01*
X300278574Y-104808847D01*
X300260690Y-104734368D01*
X300260689Y-104734364D01*
X300247567Y-104709793D01*
X300242593Y-104700479D01*
X300238924Y-104689428D01*
X300229030Y-104675081D01*
X300225719Y-104668881D01*
X300200296Y-104621273D01*
X300173127Y-104591833D01*
X300167163Y-104585371D01*
X300158410Y-104572678D01*
X300146455Y-104562932D01*
X300140499Y-104556479D01*
X300140492Y-104556472D01*
X300140295Y-104556259D01*
X300113345Y-104527056D01*
X300113344Y-104527055D01*
X300067973Y-104497932D01*
X300067973Y-104497931D01*
X300062054Y-104494132D01*
X300048484Y-104483070D01*
X300037703Y-104478502D01*
X300028816Y-104472798D01*
X300015452Y-104464220D01*
X300005452Y-104457801D01*
X299947107Y-104438736D01*
X299937868Y-104435717D01*
X299937867Y-104435717D01*
X299932858Y-104434080D01*
X299917901Y-104427743D01*
X299910952Y-104426921D01*
X299899232Y-104423092D01*
X299899230Y-104423090D01*
X299883592Y-104417981D01*
X299883579Y-104417979D01*
X299787119Y-104412088D01*
X299787115Y-104412088D01*
X299783589Y-104411872D01*
X299777060Y-104411101D01*
X299775427Y-104411373D01*
X299767430Y-104410885D01*
X299767421Y-104410885D01*
X299755618Y-104410164D01*
X299629810Y-104434859D01*
X299576092Y-104460605D01*
X299567791Y-104464217D01*
X299511174Y-104486431D01*
X299493466Y-104491891D01*
X299438824Y-104504358D01*
X299420505Y-104507118D01*
X299359962Y-104511654D01*
X299350698Y-104512001D01*
X297954301Y-104512001D01*
X297945037Y-104511654D01*
X297884493Y-104507118D01*
X297866173Y-104504358D01*
X297811529Y-104491890D01*
X297793823Y-104486430D01*
X297737215Y-104464220D01*
X297728915Y-104460609D01*
X297675188Y-104434860D01*
X297549385Y-104410166D01*
X297549381Y-104410165D01*
X297538077Y-104410856D01*
X297529758Y-104411363D01*
X297527941Y-104411060D01*
X297520681Y-104411917D01*
X297517156Y-104412133D01*
X297517153Y-104412132D01*
X297421414Y-104417980D01*
X297421412Y-104417980D01*
X297405954Y-104423031D01*
X297394238Y-104426859D01*
X297387089Y-104427704D01*
X297371703Y-104434222D01*
X297366696Y-104435859D01*
X297366682Y-104435865D01*
X297338034Y-104445226D01*
X297299548Y-104457802D01*
X297299546Y-104457802D01*
X297299546Y-104457803D01*
X297276381Y-104472672D01*
X297276380Y-104472671D01*
X297267489Y-104478377D01*
X297256495Y-104483036D01*
X297242651Y-104494320D01*
X297236734Y-104498119D01*
X297236723Y-104498128D01*
X297191654Y-104527058D01*
X297164703Y-104556259D01*
X297164702Y-104556258D01*
X297158729Y-104562730D01*
X297146560Y-104572650D01*
X297137644Y-104585578D01*
X297131674Y-104592048D01*
X297131674Y-104592049D01*
X297104707Y-104621271D01*
X297104704Y-104621275D01*
X297079450Y-104668563D01*
X297076133Y-104674773D01*
X297066040Y-104689410D01*
X297062294Y-104700689D01*
X297057321Y-104710004D01*
X297057320Y-104710006D01*
X297044310Y-104734367D01*
X297044310Y-104734368D01*
X297027771Y-104803242D01*
X297027772Y-104803243D01*
X297026539Y-104808375D01*
X297021346Y-104824017D01*
X297021080Y-104831108D01*
X297018202Y-104843096D01*
X297018202Y-104843102D01*
X297014377Y-104859031D01*
X294000500Y-104859031D01*
X294000500Y-96859030D01*
X297014377Y-96859030D01*
X297016239Y-96956172D01*
X297016239Y-96956175D01*
X297016306Y-96959699D01*
X297016080Y-96965746D01*
X297016450Y-96967221D01*
X297016599Y-96975013D01*
X297016600Y-96975020D01*
X297016834Y-96987209D01*
X297016835Y-96987214D01*
X297051525Y-97110639D01*
X297075282Y-97151458D01*
X297075333Y-97151546D01*
X297081178Y-97161608D01*
X297081192Y-97161668D01*
X297086102Y-97170986D01*
X297101549Y-97203739D01*
X297116604Y-97235662D01*
X297124140Y-97256147D01*
X297141395Y-97319876D01*
X297145224Y-97341366D01*
X297151520Y-97412603D01*
X297152001Y-97423520D01*
X297152001Y-98955093D01*
X297152000Y-99001476D01*
X297152000Y-99001479D01*
X297151519Y-99012396D01*
X297145223Y-99083633D01*
X297141394Y-99105123D01*
X297124139Y-99168852D01*
X297116603Y-99189337D01*
X297086063Y-99254095D01*
X297081081Y-99263575D01*
X297051524Y-99314362D01*
X297016834Y-99437787D01*
X297016834Y-99437788D01*
X297016609Y-99449492D01*
X297016453Y-99457598D01*
X297016039Y-99459250D01*
X297016291Y-99466002D01*
X297016224Y-99469535D01*
X297014468Y-99561150D01*
X297014469Y-99561156D01*
X297014377Y-99565971D01*
X297018927Y-99584921D01*
X297019503Y-99587990D01*
X297019306Y-99589942D01*
X297019639Y-99592361D01*
X297019781Y-99592336D01*
X297021345Y-99600983D01*
X297024879Y-99611626D01*
X297027769Y-99621746D01*
X297044311Y-99690636D01*
X297057317Y-99714991D01*
X297062293Y-99724310D01*
X297066039Y-99735590D01*
X297076137Y-99750233D01*
X297079445Y-99756427D01*
X297079446Y-99756429D01*
X297104702Y-99803725D01*
X297131671Y-99832948D01*
X297137636Y-99839411D01*
X297146559Y-99852350D01*
X297158744Y-99862282D01*
X297164706Y-99868742D01*
X297164706Y-99868743D01*
X297164707Y-99868744D01*
X297191650Y-99897939D01*
X297191653Y-99897941D01*
X297191655Y-99897943D01*
X297242628Y-99930662D01*
X297256494Y-99941965D01*
X297267506Y-99946630D01*
X297289548Y-99960779D01*
X297299544Y-99967196D01*
X297299548Y-99967198D01*
X297371682Y-99990768D01*
X297387089Y-99997297D01*
X297394250Y-99998143D01*
X297405781Y-100001911D01*
X297421414Y-100007019D01*
X297520689Y-100013082D01*
X297527941Y-100013940D01*
X297529753Y-100013636D01*
X297543881Y-100014499D01*
X297549380Y-100014835D01*
X297549380Y-100014834D01*
X297549383Y-100014835D01*
X297675189Y-99990140D01*
X297728956Y-99964371D01*
X297737182Y-99960792D01*
X297793832Y-99938565D01*
X297811524Y-99933110D01*
X297866177Y-99920640D01*
X297884492Y-99917880D01*
X297932661Y-99914272D01*
X297945040Y-99913345D01*
X297954302Y-99912999D01*
X299350699Y-99912999D01*
X299359961Y-99913345D01*
X299375986Y-99914545D01*
X299420506Y-99917880D01*
X299438822Y-99920640D01*
X299493475Y-99933110D01*
X299511167Y-99938565D01*
X299567785Y-99960780D01*
X299576081Y-99964390D01*
X299605964Y-99978710D01*
X299629811Y-99990139D01*
X299755617Y-100014834D01*
X299755618Y-100014833D01*
X299755619Y-100014834D01*
X299757668Y-100014708D01*
X299775422Y-100013624D01*
X299777060Y-100013899D01*
X299783603Y-100013124D01*
X299883586Y-100007019D01*
X299910948Y-99998077D01*
X299917901Y-99997257D01*
X299932866Y-99990915D01*
X299989384Y-99972447D01*
X300005450Y-99967198D01*
X300005452Y-99967197D01*
X300037700Y-99946496D01*
X300048484Y-99941929D01*
X300062063Y-99930858D01*
X300113344Y-99897942D01*
X300146448Y-99862071D01*
X300158410Y-99852322D01*
X300167165Y-99839623D01*
X300200295Y-99803726D01*
X300229028Y-99749918D01*
X300238924Y-99735571D01*
X300242593Y-99724516D01*
X300260687Y-99690634D01*
X300278567Y-99616169D01*
X300283614Y-99600975D01*
X300283871Y-99594081D01*
X300290622Y-99565970D01*
X300288691Y-99465319D01*
X300288920Y-99459254D01*
X300288547Y-99457769D01*
X300288164Y-99437787D01*
X300253474Y-99314362D01*
X300249367Y-99307305D01*
X300223860Y-99263454D01*
X300223847Y-99263404D01*
X300218893Y-99254000D01*
X300188397Y-99189337D01*
X300180860Y-99168851D01*
X300163605Y-99105122D01*
X300159776Y-99083630D01*
X300153481Y-99012393D01*
X300153000Y-99001478D01*
X300153000Y-97423518D01*
X300153481Y-97412604D01*
X300153923Y-97407597D01*
X300159776Y-97341366D01*
X300163604Y-97319876D01*
X300180858Y-97256150D01*
X300188392Y-97235669D01*
X300218900Y-97170983D01*
X300224004Y-97161297D01*
X300241778Y-97130897D01*
X300242677Y-97129192D01*
X300253476Y-97110638D01*
X300288166Y-96987213D01*
X300288545Y-96967402D01*
X300288961Y-96965750D01*
X300288707Y-96958991D01*
X300290624Y-96859029D01*
X300283918Y-96831104D01*
X300283654Y-96824016D01*
X300278460Y-96808375D01*
X300260689Y-96734365D01*
X300242706Y-96700691D01*
X300238961Y-96689409D01*
X300228860Y-96674763D01*
X300200296Y-96621273D01*
X300200295Y-96621271D01*
X300200294Y-96621270D01*
X300173325Y-96592048D01*
X300167362Y-96585587D01*
X300158440Y-96572649D01*
X300146255Y-96562716D01*
X300114905Y-96528747D01*
X300113346Y-96527057D01*
X300113345Y-96527056D01*
X300062363Y-96494331D01*
X300048505Y-96483035D01*
X300037499Y-96478371D01*
X300009827Y-96460609D01*
X300005454Y-96457802D01*
X300005453Y-96457801D01*
X300005452Y-96457801D01*
X299947107Y-96438736D01*
X299938330Y-96435868D01*
X299938329Y-96435868D01*
X299937882Y-96435722D01*
X299933323Y-96434232D01*
X299917911Y-96427702D01*
X299910750Y-96426855D01*
X299899030Y-96423026D01*
X299899028Y-96423024D01*
X299883590Y-96417980D01*
X299883584Y-96417979D01*
X299787822Y-96412131D01*
X299787821Y-96412131D01*
X299784303Y-96411916D01*
X299777058Y-96411060D01*
X299775246Y-96411362D01*
X299766953Y-96410856D01*
X299766936Y-96410856D01*
X299755617Y-96410165D01*
X299755616Y-96410165D01*
X299734973Y-96414216D01*
X299629810Y-96434859D01*
X299576092Y-96460605D01*
X299567791Y-96464217D01*
X299511174Y-96486431D01*
X299493466Y-96491891D01*
X299438824Y-96504358D01*
X299420505Y-96507118D01*
X299359962Y-96511654D01*
X299350698Y-96512001D01*
X297954301Y-96512001D01*
X297945037Y-96511654D01*
X297884493Y-96507118D01*
X297866173Y-96504358D01*
X297811529Y-96491890D01*
X297793823Y-96486430D01*
X297737215Y-96464220D01*
X297728915Y-96460609D01*
X297675188Y-96434860D01*
X297549385Y-96410166D01*
X297549378Y-96410165D01*
X297537590Y-96410885D01*
X297537589Y-96410884D01*
X297529574Y-96411374D01*
X297527940Y-96411101D01*
X297521395Y-96411874D01*
X297517869Y-96412090D01*
X297517867Y-96412089D01*
X297517864Y-96412090D01*
X297421420Y-96417980D01*
X297421414Y-96417980D01*
X297421414Y-96417981D01*
X297421413Y-96417981D01*
X297421409Y-96417982D01*
X297405763Y-96423094D01*
X297405762Y-96423093D01*
X297394044Y-96426922D01*
X297387099Y-96427743D01*
X297372143Y-96434079D01*
X297367127Y-96435719D01*
X297367120Y-96435722D01*
X297299547Y-96457802D01*
X297276181Y-96472799D01*
X297276182Y-96472800D01*
X297267297Y-96478503D01*
X297256516Y-96483071D01*
X297242941Y-96494136D01*
X297237022Y-96497936D01*
X297237018Y-96497936D01*
X297191661Y-96527052D01*
X297191648Y-96527063D01*
X297164511Y-96556466D01*
X297164512Y-96556467D01*
X297158544Y-96562933D01*
X297146590Y-96572678D01*
X297137834Y-96585373D01*
X297131868Y-96591839D01*
X297131866Y-96591839D01*
X297104707Y-96621270D01*
X297104705Y-96621273D01*
X297079282Y-96668878D01*
X297079281Y-96668877D01*
X297075961Y-96675093D01*
X297066076Y-96689428D01*
X297062408Y-96700473D01*
X297057434Y-96709789D01*
X297057433Y-96709793D01*
X297044310Y-96734368D01*
X297044310Y-96734370D01*
X297027661Y-96803701D01*
X297027662Y-96803702D01*
X297026430Y-96808832D01*
X297021386Y-96824024D01*
X297021128Y-96830912D01*
X297018251Y-96842894D01*
X297014377Y-96859030D01*
X294000500Y-96859030D01*
X294000500Y-88859030D01*
X297014377Y-88859030D01*
X297016239Y-88956172D01*
X297016239Y-88956175D01*
X297016306Y-88959699D01*
X297016080Y-88965746D01*
X297016450Y-88967221D01*
X297016599Y-88975013D01*
X297016600Y-88975020D01*
X297016834Y-88987209D01*
X297016835Y-88987214D01*
X297051525Y-89110639D01*
X297075282Y-89151458D01*
X297075333Y-89151546D01*
X297081178Y-89161608D01*
X297081192Y-89161668D01*
X297086102Y-89170986D01*
X297101549Y-89203739D01*
X297116604Y-89235662D01*
X297124140Y-89256147D01*
X297141395Y-89319876D01*
X297145224Y-89341366D01*
X297151520Y-89412603D01*
X297152001Y-89423520D01*
X297152001Y-90955093D01*
X297152000Y-91001476D01*
X297152000Y-91001479D01*
X297151519Y-91012396D01*
X297145223Y-91083633D01*
X297141394Y-91105123D01*
X297124139Y-91168852D01*
X297116603Y-91189337D01*
X297086063Y-91254095D01*
X297081081Y-91263575D01*
X297051524Y-91314362D01*
X297016834Y-91437787D01*
X297016834Y-91437788D01*
X297016609Y-91449492D01*
X297016453Y-91457598D01*
X297016039Y-91459250D01*
X297016291Y-91466002D01*
X297016224Y-91469535D01*
X297014468Y-91561150D01*
X297014469Y-91561156D01*
X297014377Y-91565971D01*
X297018927Y-91584921D01*
X297019503Y-91587990D01*
X297019306Y-91589942D01*
X297019639Y-91592361D01*
X297019781Y-91592336D01*
X297021345Y-91600983D01*
X297024879Y-91611626D01*
X297027769Y-91621746D01*
X297044311Y-91690636D01*
X297057317Y-91714991D01*
X297062293Y-91724310D01*
X297066039Y-91735590D01*
X297076137Y-91750233D01*
X297079445Y-91756427D01*
X297079446Y-91756429D01*
X297104702Y-91803725D01*
X297131671Y-91832948D01*
X297137636Y-91839411D01*
X297146559Y-91852350D01*
X297158744Y-91862282D01*
X297164706Y-91868742D01*
X297164706Y-91868743D01*
X297164707Y-91868744D01*
X297191650Y-91897939D01*
X297191653Y-91897941D01*
X297191655Y-91897943D01*
X297242628Y-91930662D01*
X297256494Y-91941965D01*
X297267506Y-91946630D01*
X297289548Y-91960779D01*
X297299544Y-91967196D01*
X297299548Y-91967198D01*
X297371682Y-91990768D01*
X297387089Y-91997297D01*
X297394250Y-91998143D01*
X297405781Y-92001911D01*
X297421414Y-92007019D01*
X297520689Y-92013082D01*
X297527941Y-92013940D01*
X297529753Y-92013636D01*
X297543881Y-92014499D01*
X297549380Y-92014835D01*
X297549380Y-92014834D01*
X297549383Y-92014835D01*
X297675189Y-91990140D01*
X297728956Y-91964371D01*
X297737182Y-91960792D01*
X297793832Y-91938565D01*
X297811524Y-91933110D01*
X297866177Y-91920640D01*
X297884492Y-91917880D01*
X297932661Y-91914272D01*
X297945040Y-91913345D01*
X297954302Y-91912999D01*
X299350699Y-91912999D01*
X299359961Y-91913345D01*
X299375986Y-91914545D01*
X299420506Y-91917880D01*
X299438822Y-91920640D01*
X299493475Y-91933110D01*
X299511167Y-91938565D01*
X299567785Y-91960780D01*
X299576081Y-91964390D01*
X299605964Y-91978710D01*
X299629811Y-91990139D01*
X299755617Y-92014834D01*
X299755618Y-92014833D01*
X299755619Y-92014834D01*
X299757668Y-92014708D01*
X299775422Y-92013624D01*
X299777060Y-92013899D01*
X299783603Y-92013124D01*
X299883586Y-92007019D01*
X299910948Y-91998077D01*
X299917901Y-91997257D01*
X299932866Y-91990915D01*
X299989384Y-91972447D01*
X300005450Y-91967198D01*
X300005452Y-91967197D01*
X300037700Y-91946496D01*
X300048484Y-91941929D01*
X300062063Y-91930858D01*
X300113344Y-91897942D01*
X300146448Y-91862071D01*
X300158410Y-91852322D01*
X300167165Y-91839623D01*
X300200295Y-91803726D01*
X300229028Y-91749918D01*
X300238924Y-91735571D01*
X300242593Y-91724516D01*
X300260687Y-91690634D01*
X300278567Y-91616169D01*
X300283614Y-91600975D01*
X300283871Y-91594081D01*
X300290622Y-91565970D01*
X300288691Y-91465319D01*
X300288920Y-91459254D01*
X300288547Y-91457769D01*
X300288164Y-91437787D01*
X300253474Y-91314362D01*
X300249367Y-91307305D01*
X300223860Y-91263454D01*
X300223847Y-91263404D01*
X300218893Y-91254000D01*
X300188397Y-91189337D01*
X300180860Y-91168851D01*
X300163605Y-91105122D01*
X300159776Y-91083630D01*
X300153481Y-91012393D01*
X300153000Y-91001478D01*
X300153000Y-89423518D01*
X300153481Y-89412604D01*
X300153923Y-89407597D01*
X300159776Y-89341366D01*
X300163604Y-89319876D01*
X300180858Y-89256150D01*
X300188392Y-89235669D01*
X300218900Y-89170983D01*
X300224004Y-89161297D01*
X300241778Y-89130897D01*
X300242677Y-89129192D01*
X300253476Y-89110638D01*
X300288166Y-88987213D01*
X300288545Y-88967402D01*
X300288961Y-88965750D01*
X300288707Y-88958991D01*
X300290624Y-88859029D01*
X300283918Y-88831104D01*
X300283654Y-88824016D01*
X300278460Y-88808375D01*
X300260689Y-88734365D01*
X300242706Y-88700691D01*
X300238961Y-88689409D01*
X300228860Y-88674763D01*
X300200296Y-88621273D01*
X300200295Y-88621271D01*
X300200294Y-88621270D01*
X300173325Y-88592048D01*
X300167362Y-88585587D01*
X300158440Y-88572649D01*
X300146255Y-88562716D01*
X300114905Y-88528747D01*
X300113346Y-88527057D01*
X300113345Y-88527056D01*
X300062363Y-88494331D01*
X300048505Y-88483035D01*
X300037499Y-88478371D01*
X300009827Y-88460609D01*
X300005454Y-88457802D01*
X300005453Y-88457801D01*
X300005452Y-88457801D01*
X299947107Y-88438736D01*
X299938330Y-88435868D01*
X299938329Y-88435868D01*
X299937882Y-88435722D01*
X299933323Y-88434232D01*
X299917911Y-88427702D01*
X299910750Y-88426855D01*
X299899030Y-88423026D01*
X299899028Y-88423024D01*
X299883590Y-88417980D01*
X299883584Y-88417979D01*
X299787822Y-88412131D01*
X299787821Y-88412131D01*
X299784303Y-88411916D01*
X299777058Y-88411060D01*
X299775246Y-88411362D01*
X299766953Y-88410856D01*
X299766936Y-88410856D01*
X299755617Y-88410165D01*
X299755616Y-88410165D01*
X299734973Y-88414216D01*
X299629810Y-88434859D01*
X299576092Y-88460605D01*
X299567791Y-88464217D01*
X299511174Y-88486431D01*
X299493466Y-88491891D01*
X299438824Y-88504358D01*
X299420505Y-88507118D01*
X299359962Y-88511654D01*
X299350698Y-88512001D01*
X297954301Y-88512001D01*
X297945037Y-88511654D01*
X297884493Y-88507118D01*
X297866173Y-88504358D01*
X297811529Y-88491890D01*
X297793823Y-88486430D01*
X297737215Y-88464220D01*
X297728915Y-88460609D01*
X297675188Y-88434860D01*
X297549385Y-88410166D01*
X297549378Y-88410165D01*
X297537590Y-88410885D01*
X297537589Y-88410884D01*
X297529574Y-88411374D01*
X297527940Y-88411101D01*
X297521395Y-88411874D01*
X297517869Y-88412090D01*
X297517867Y-88412089D01*
X297517864Y-88412090D01*
X297421420Y-88417980D01*
X297421414Y-88417980D01*
X297421414Y-88417981D01*
X297421413Y-88417981D01*
X297421409Y-88417982D01*
X297405763Y-88423094D01*
X297405762Y-88423093D01*
X297394044Y-88426922D01*
X297387099Y-88427743D01*
X297372143Y-88434079D01*
X297367127Y-88435719D01*
X297367120Y-88435722D01*
X297299547Y-88457802D01*
X297276181Y-88472799D01*
X297276182Y-88472800D01*
X297267297Y-88478503D01*
X297256516Y-88483071D01*
X297242941Y-88494136D01*
X297237022Y-88497936D01*
X297237018Y-88497936D01*
X297191661Y-88527052D01*
X297191648Y-88527063D01*
X297164511Y-88556466D01*
X297164512Y-88556467D01*
X297158544Y-88562933D01*
X297146590Y-88572678D01*
X297137834Y-88585373D01*
X297131868Y-88591839D01*
X297131866Y-88591839D01*
X297104707Y-88621270D01*
X297104705Y-88621273D01*
X297079282Y-88668878D01*
X297079281Y-88668877D01*
X297075961Y-88675093D01*
X297066076Y-88689428D01*
X297062408Y-88700473D01*
X297057434Y-88709789D01*
X297057433Y-88709793D01*
X297044310Y-88734368D01*
X297044310Y-88734370D01*
X297027661Y-88803701D01*
X297027662Y-88803702D01*
X297026430Y-88808832D01*
X297021386Y-88824024D01*
X297021128Y-88830912D01*
X297018251Y-88842894D01*
X297014377Y-88859030D01*
X294000500Y-88859030D01*
X294000500Y-86956975D01*
X294000000Y-86946162D01*
X294000000Y-86855181D01*
X294019685Y-86788142D01*
X294052180Y-86757166D01*
X294050863Y-86755450D01*
X294057307Y-86750503D01*
X294057314Y-86750500D01*
X294150500Y-86657314D01*
X294216392Y-86543186D01*
X294250500Y-86415892D01*
X294250500Y-86284108D01*
X294216392Y-86156814D01*
X294150500Y-86042686D01*
X294120495Y-86012681D01*
X294087010Y-85951358D01*
X294091994Y-85881666D01*
X294120495Y-85837319D01*
X294150500Y-85807314D01*
X294216392Y-85693186D01*
X294250500Y-85565892D01*
X294250500Y-85434108D01*
X294216392Y-85306814D01*
X294150500Y-85192686D01*
X294120495Y-85162681D01*
X294087010Y-85101358D01*
X294091994Y-85031666D01*
X294120495Y-84987319D01*
X294150500Y-84957314D01*
X294216392Y-84843186D01*
X294250500Y-84715892D01*
X294250500Y-84584108D01*
X294216392Y-84456814D01*
X294150500Y-84342686D01*
X294120495Y-84312681D01*
X294087010Y-84251358D01*
X294091994Y-84181666D01*
X294120495Y-84137319D01*
X294150500Y-84107314D01*
X294216392Y-83993186D01*
X294250500Y-83865892D01*
X294250500Y-83734108D01*
X294216392Y-83606814D01*
X294150500Y-83492686D01*
X294120495Y-83462681D01*
X294087010Y-83401358D01*
X294091994Y-83331666D01*
X294120495Y-83287319D01*
X294150500Y-83257314D01*
X294216392Y-83143186D01*
X294250500Y-83015892D01*
X294250500Y-82884108D01*
X294216392Y-82756814D01*
X294150500Y-82642686D01*
X294120495Y-82612681D01*
X294087010Y-82551358D01*
X294091994Y-82481666D01*
X294120495Y-82437319D01*
X294150500Y-82407314D01*
X294216392Y-82293186D01*
X294250500Y-82165892D01*
X294250500Y-82034108D01*
X294216392Y-81906814D01*
X294150500Y-81792686D01*
X294120495Y-81762681D01*
X294087010Y-81701358D01*
X294091994Y-81631666D01*
X294120495Y-81587319D01*
X294150500Y-81557314D01*
X294216392Y-81443186D01*
X294250500Y-81315892D01*
X294250500Y-81184108D01*
X294236068Y-81130247D01*
X295409500Y-81130247D01*
X295409500Y-82869752D01*
X295421131Y-82928229D01*
X295421132Y-82928230D01*
X295465447Y-82994552D01*
X295531769Y-83038867D01*
X295531770Y-83038868D01*
X295590247Y-83050499D01*
X295590250Y-83050500D01*
X295590252Y-83050500D01*
X297329750Y-83050500D01*
X297329751Y-83050499D01*
X297344568Y-83047552D01*
X297388229Y-83038868D01*
X297388229Y-83038867D01*
X297388231Y-83038867D01*
X297454552Y-82994552D01*
X297498867Y-82928231D01*
X297498867Y-82928229D01*
X297498868Y-82928229D01*
X297510499Y-82869752D01*
X297510500Y-82869750D01*
X297510500Y-81896530D01*
X297949500Y-81896530D01*
X297949500Y-82103469D01*
X297989868Y-82306412D01*
X297989870Y-82306420D01*
X298055939Y-82465925D01*
X298069059Y-82497598D01*
X298103739Y-82549500D01*
X298184024Y-82669657D01*
X298330342Y-82815975D01*
X298330345Y-82815977D01*
X298502402Y-82930941D01*
X298693580Y-83010130D01*
X298838052Y-83038867D01*
X298896530Y-83050499D01*
X298896534Y-83050500D01*
X298896535Y-83050500D01*
X299103466Y-83050500D01*
X299103467Y-83050499D01*
X299306420Y-83010130D01*
X299497598Y-82930941D01*
X299669655Y-82815977D01*
X299815977Y-82669655D01*
X299930941Y-82497598D01*
X299999165Y-82332889D01*
X300043004Y-82278488D01*
X300109298Y-82256423D01*
X300176998Y-82273702D01*
X300224609Y-82324839D01*
X300231656Y-82342026D01*
X300288904Y-82518216D01*
X300385375Y-82707550D01*
X300424728Y-82761716D01*
X301057037Y-82129408D01*
X301074075Y-82192993D01*
X301139901Y-82307007D01*
X301232993Y-82400099D01*
X301347007Y-82465925D01*
X301410590Y-82482962D01*
X300778282Y-83115269D01*
X300778282Y-83115270D01*
X300832449Y-83154624D01*
X301021782Y-83251095D01*
X301223870Y-83316757D01*
X301433754Y-83350000D01*
X301646246Y-83350000D01*
X301856127Y-83316757D01*
X301856130Y-83316757D01*
X302058217Y-83251095D01*
X302247554Y-83154622D01*
X302301716Y-83115270D01*
X302301717Y-83115270D01*
X301669408Y-82482962D01*
X301732993Y-82465925D01*
X301847007Y-82400099D01*
X301940099Y-82307007D01*
X302005925Y-82192993D01*
X302022962Y-82129408D01*
X302655270Y-82761717D01*
X302655270Y-82761716D01*
X302694622Y-82707554D01*
X302791095Y-82518217D01*
X302856757Y-82316130D01*
X302856757Y-82316127D01*
X302890000Y-82106246D01*
X302890000Y-81893753D01*
X302856757Y-81683872D01*
X302856757Y-81683869D01*
X302791095Y-81481782D01*
X302694624Y-81292449D01*
X302655270Y-81238282D01*
X302655269Y-81238282D01*
X302022962Y-81870590D01*
X302005925Y-81807007D01*
X301940099Y-81692993D01*
X301847007Y-81599901D01*
X301732993Y-81534075D01*
X301669409Y-81517037D01*
X302301716Y-80884728D01*
X302247550Y-80845375D01*
X302058217Y-80748904D01*
X301856129Y-80683242D01*
X301646246Y-80650000D01*
X301433754Y-80650000D01*
X301223872Y-80683242D01*
X301223869Y-80683242D01*
X301021782Y-80748904D01*
X300832439Y-80845380D01*
X300778282Y-80884727D01*
X300778282Y-80884728D01*
X301410591Y-81517037D01*
X301347007Y-81534075D01*
X301232993Y-81599901D01*
X301139901Y-81692993D01*
X301074075Y-81807007D01*
X301057037Y-81870590D01*
X300424728Y-81238282D01*
X300424727Y-81238282D01*
X300385380Y-81292439D01*
X300288905Y-81481781D01*
X300231656Y-81657974D01*
X300192218Y-81715649D01*
X300127859Y-81742847D01*
X300059013Y-81730932D01*
X300007537Y-81683688D01*
X299999164Y-81667107D01*
X299992285Y-81650500D01*
X299966115Y-81587319D01*
X299930943Y-81502405D01*
X299815975Y-81330342D01*
X299669657Y-81184024D01*
X299501655Y-81071770D01*
X299497598Y-81069059D01*
X299468031Y-81056812D01*
X299443252Y-81046548D01*
X299306420Y-80989870D01*
X299306412Y-80989868D01*
X299103469Y-80949500D01*
X299103465Y-80949500D01*
X298896535Y-80949500D01*
X298896530Y-80949500D01*
X298693587Y-80989868D01*
X298693579Y-80989870D01*
X298502403Y-81069058D01*
X298330342Y-81184024D01*
X298184024Y-81330342D01*
X298069058Y-81502403D01*
X297989870Y-81693579D01*
X297989868Y-81693587D01*
X297949500Y-81896530D01*
X297510500Y-81896530D01*
X297510500Y-81130249D01*
X297510499Y-81130247D01*
X297498868Y-81071770D01*
X297498867Y-81071769D01*
X297454552Y-81005447D01*
X297388230Y-80961132D01*
X297388229Y-80961131D01*
X297329752Y-80949500D01*
X297329748Y-80949500D01*
X295590252Y-80949500D01*
X295590247Y-80949500D01*
X295531770Y-80961131D01*
X295531769Y-80961132D01*
X295465447Y-81005447D01*
X295421132Y-81071769D01*
X295421131Y-81071770D01*
X295409500Y-81130247D01*
X294236068Y-81130247D01*
X294216392Y-81056814D01*
X294150500Y-80942686D01*
X294057314Y-80849500D01*
X294057313Y-80849499D01*
X294057310Y-80849496D01*
X294050869Y-80844554D01*
X294052196Y-80842823D01*
X294042797Y-80838531D01*
X294030047Y-80818691D01*
X294013775Y-80801621D01*
X294010562Y-80788372D01*
X294005023Y-80779753D01*
X294000000Y-80744818D01*
X294000000Y-80653835D01*
X294000500Y-80643031D01*
X294000500Y-71124500D01*
X294020185Y-71057461D01*
X294072989Y-71011706D01*
X294124500Y-71000500D01*
X303875500Y-71000500D01*
X303942539Y-71020185D01*
G37*
%TD.AperFunction*%
%TD*%
M02*
