M48
; DRILL file KiCad 10.0.1 date 2026-04-26T15:08:51
; FORMAT={-:-/ absolute / metric / decimal}
; #@! TF.CreationDate,2026-04-26T15:08:51+02:00
; #@! TF.GenerationSoftware,Kicad,Pcbnew,10.0.1
; #@! TF.FileFunction,NonPlated,1,2,NPTH
FMAT,2
METRIC
; #@! TA.AperFunction,NonPlated,NPTH,ComponentDrill
T1C0.500
; #@! TA.AperFunction,NonPlated,NPTH,ComponentDrill
T2C1.700
; #@! TA.AperFunction,NonPlated,NPTH,ComponentDrill
T3C3.000
; #@! TA.AperFunction,NonPlated,NPTH,ComponentDrill
T4C3.200
; #@! TA.AperFunction,NonPlated,NPTH,ComponentDrill
T5C4.000
%
G90
G05
T1
X202.4Y-69.25
X202.4Y-70.75
X203.25Y-69.25
X203.25Y-70.75
X204.1Y-69.25
X204.1Y-70.75
X204.95Y-69.25
X204.95Y-70.75
X205.8Y-69.25
X205.8Y-70.75
X206.65Y-69.25
X206.65Y-70.75
X207.5Y-69.25
X207.5Y-70.75
X230.65Y-69.25
X230.65Y-70.75
X231.5Y-69.25
X231.5Y-70.75
X232.35Y-69.25
X232.35Y-70.75
X233.2Y-69.25
X233.2Y-70.75
X234.05Y-69.25
X234.05Y-70.75
X234.9Y-69.25
X234.9Y-70.75
X235.75Y-69.25
X235.75Y-70.75
X245.25Y-38.65
X245.25Y-39.5
X245.25Y-40.35
X245.25Y-41.2
X245.25Y-42.05
X245.25Y-42.9
X245.25Y-43.75
X246.75Y-38.65
X246.75Y-39.5
X246.75Y-40.35
X246.75Y-41.2
X246.75Y-42.05
X246.75Y-42.9
X246.75Y-43.75
X255.65Y-69.25
X255.65Y-70.75
X256.5Y-69.25
X256.5Y-70.75
X257.35Y-69.25
X257.35Y-70.75
X258.2Y-69.25
X258.2Y-70.75
X259.05Y-69.25
X259.05Y-70.75
X259.9Y-69.25
X259.9Y-70.75
X260.75Y-69.25
X260.75Y-70.75
X281.65Y-69.25
X281.65Y-70.75
X282.5Y-69.25
X282.5Y-70.75
X283.35Y-69.25
X283.35Y-70.75
X284.2Y-69.25
X284.2Y-70.75
X285.05Y-69.25
X285.05Y-70.75
X285.9Y-69.25
X285.9Y-70.75
X286.75Y-69.25
X286.75Y-70.75
X292.25Y-81.25
X292.25Y-82.1
X292.25Y-82.95
X292.25Y-83.8
X292.25Y-84.65
X292.25Y-85.5
X292.25Y-86.35
X292.25Y-117.65
X292.25Y-118.5
X292.25Y-119.35
X292.25Y-120.2
X292.25Y-121.05
X292.25Y-121.9
X292.25Y-122.75
X292.25Y-157.0
X292.25Y-157.85
X292.25Y-158.7
X292.25Y-159.55
X292.25Y-160.4
X292.25Y-161.25
X292.25Y-162.1
X293.75Y-81.25
X293.75Y-82.1
X293.75Y-82.95
X293.75Y-83.8
X293.75Y-84.65
X293.75Y-85.5
X293.75Y-86.35
X293.75Y-117.65
X293.75Y-118.5
X293.75Y-119.35
X293.75Y-120.2
X293.75Y-121.05
X293.75Y-121.9
X293.75Y-122.75
X293.75Y-157.0
X293.75Y-157.85
X293.75Y-158.7
X293.75Y-159.55
X293.75Y-160.4
X293.75Y-161.25
X293.75Y-162.1
T2
X220.96Y-133.92
X231.12Y-133.92
X235.61Y-113.96
X245.77Y-113.96
T3
X255.77Y-122.05
X255.77Y-169.0
X280.28Y-122.05
X280.28Y-169.0
T4
X199.0Y-38.0
X199.0Y-65.0
X241.0Y-38.0
X241.0Y-65.0
X251.0Y-38.0
X251.0Y-65.0
X293.0Y-38.0
X293.0Y-65.0
T5
X226.04Y-133.92
X240.69Y-113.96
M30
